<svg width="188" height="343" viewBox="0 0 188 343" fill="none" xmlns="http://www.w3.org/2000/svg">
<g clip-path="url(#clip0_316_18393)">
<path d="M147.811 248.56C147.811 290.99 139.941 322.82 96.3105 322.82C52.6805 322.82 44.8105 290.99 44.8105 248.56C44.8105 206.13 67.8705 190.08 96.3105 190.08C124.751 190.08 147.811 206.13 147.811 248.56Z" fill="#807E89"/>
<path d="M45.4607 237.289C45.4607 237.289 19.1207 251.269 19.1207 280.219C19.1207 309.169 18.1407 322.169 32.4507 322.169C46.7607 322.169 62.3707 325.419 60.0907 292.579C57.8107 259.739 61.3907 228.519 45.4607 237.299V237.289Z" fill="#F1CF14"/>
<path d="M8.71028 310.46C8.71028 317.64 6.43028 323.47 24.3203 323.47C42.2103 323.47 39.9303 317.65 39.9303 310.46C39.9303 303.27 32.9403 295.32 24.3203 295.32C15.7003 295.32 8.71028 303.27 8.71028 310.46Z" fill="#F5F2DD"/>
<path d="M146.4 237.289C146.4 237.289 172.74 251.269 172.74 280.219C172.74 309.159 173.72 322.169 159.41 322.169C145.1 322.169 129.49 325.419 131.77 292.579C134.05 259.739 130.47 228.519 146.4 237.299V237.289Z" fill="#807E89"/>
<path d="M183.15 310.46C183.15 317.64 185.43 323.47 167.54 323.47C149.65 323.47 151.93 317.65 151.93 310.46C151.93 303.28 158.92 295.32 167.54 295.32C176.16 295.32 183.15 303.27 183.15 310.46V310.46Z" fill="#F7F8F8"/>
<path d="M45.4607 237.289C45.4607 237.289 19.1207 251.269 19.1207 280.219C19.1207 309.169 18.1407 322.169 32.4507 322.169C46.7607 322.169 62.3707 325.419 60.0907 292.579C57.8107 259.739 61.3907 228.519 45.4607 237.299V237.289Z" fill="#807E89"/>
<path d="M162.3 211.2C149.81 251.75 146.83 298.75 96.3 298.75C45.77 298.75 43.29 251.14 28.96 211.2C58.01 201.56 63.36 166.01 96.3 166.01C129.24 166.01 132.38 197.91 162.3 211.2Z" fill="#F7F8F8"/>
<path d="M54.7004 267.02C77.6804 288.65 87.3304 290 87.3304 290C87.3304 290 86.8804 303.01 85.0804 322.85C83.2804 342.69 77.4204 341.78 70.2004 342.68C62.9904 343.58 53.6504 343.39 49.4604 323.75C31.9404 241.56 36.6704 231.65 36.6704 231.65C36.6704 231.65 41.1104 254.24 54.6904 267.02H54.7004Z" fill="#F7F8F8"/>
<path d="M54.7005 267.02C77.6805 288.65 87.3305 290 87.3305 290C87.3305 290 86.8805 303.01 85.0805 322.85C79.6005 303.31 53.5905 303.96 42.3205 287.74C33.4205 238.48 36.6805 231.65 36.6805 231.65C36.6805 231.65 41.1205 254.24 54.7005 267.02V267.02Z" fill="#807E89"/>
<path d="M137.021 267.02C114.041 288.65 104.391 290 104.391 290C104.391 290 104.841 303.01 106.641 322.85C108.441 342.68 114.301 341.78 121.521 342.68C128.731 343.58 138.071 343.39 142.261 323.75C159.781 241.56 155.051 231.65 155.051 231.65C155.051 231.65 150.611 254.24 137.031 267.02H137.021Z" fill="#F7F8F8"/>
<path d="M137.021 267.02C114.041 288.65 104.391 290 104.391 290C104.391 290 104.841 303.01 106.641 322.85C112.121 303.31 138.131 303.96 149.401 287.74C158.301 238.48 155.041 231.65 155.041 231.65C155.041 231.65 150.601 254.24 137.021 267.02V267.02Z" fill="#807E89"/>
<path d="M8.71028 310.46C8.71028 317.64 6.43028 323.47 24.3203 323.47C42.2103 323.47 39.9303 317.65 39.9303 310.46C39.9303 303.27 32.9403 295.32 24.3203 295.32C15.7003 295.32 8.71028 303.27 8.71028 310.46Z" fill="#F7F8F8"/>
<path fill-rule="evenodd" clip-rule="evenodd" d="M128.21 51.0994C138.7 40.0894 151.48 30.3694 161.35 34.4194C177.92 41.2194 169.46 85.0993 165.86 100.739C167.16 105.879 167.85 111.069 167.85 116.189C167.85 151.609 134.77 184.879 93.9696 184.879C53.1696 184.879 20.0796 151.609 20.0796 116.179C20.0796 111.499 20.6596 106.749 21.7496 102.029C18.3696 87.6994 8.89964 41.4194 25.9596 34.4094C35.8996 30.3294 48.7796 40.2094 59.3196 51.3194C69.6496 45.1694 81.4396 41.4794 93.9596 41.4794C106.48 41.4794 117.97 45.0794 128.21 51.0894V51.0994Z" fill="#807E89"/>
<path fill-rule="evenodd" clip-rule="evenodd" d="M99.5201 183.941C100.04 184.381 100.72 184.581 101.4 184.511C132.52 181.401 157.95 159.071 165.53 132.461C165.62 132.131 165.65 131.791 165.61 131.451C162.58 105.581 144.75 85.7109 123.21 85.7109C113.11 85.7109 103.82 90.0809 96.5001 97.3909C95.3601 98.5309 93.4801 98.5309 92.3401 97.3909C85.0101 90.0809 75.7301 85.7109 65.6301 85.7109C43.4401 85.7109 25.1901 106.791 22.9901 133.801C22.9601 134.141 23.0001 134.491 23.1101 134.811C31.5601 160.611 56.7901 181.881 87.3701 184.581C88.0401 184.641 88.7001 184.441 89.2201 184.011C90.3001 183.121 91.3401 182.171 92.3401 181.171C93.4801 180.031 95.3601 180.031 96.5001 181.171C97.4701 182.141 98.4801 183.061 99.5201 183.931V183.941Z" fill="#F7F8F8"/>
<path fill-rule="evenodd" clip-rule="evenodd" d="M58.0701 175.72C40.5301 166.2 27.3801 150.2 22.3301 132.28C27.1801 128.29 33.4001 125.9 40.1701 125.9C55.7001 125.9 68.3001 138.49 68.3001 154.03C68.3001 162.77 64.3201 170.57 58.0701 175.73V175.72Z" fill="#FCD7D7"/>
<path fill-rule="evenodd" clip-rule="evenodd" d="M165.75 131.681C160.88 149.661 147.86 165.751 130.4 175.411C124.36 170.251 120.53 162.581 120.53 154.011C120.53 138.481 133.12 125.881 148.66 125.881C155.09 125.881 161.01 128.041 165.75 131.671V131.681Z" fill="#FCD7D7"/>
<path d="M26.5397 82.9596C24.6797 73.8096 20.5497 49.1696 28.7897 44.1996C37.3097 39.0696 52.5897 53.3496 57.3197 58.1096C58.0597 58.8596 57.8597 60.0896 56.9397 60.6096C45.6697 67.0096 36.7597 74.3296 29.4097 83.5896C28.5497 84.6696 26.8097 84.3096 26.5397 82.9596V82.9596Z" fill="#DBDCDB"/>
<path d="M161.22 82.8202C162.84 73.5702 166.24 49.1402 158.04 44.2002C149.52 39.0602 134.93 53.3602 130.44 58.1202C129.73 58.8702 129.94 60.0802 130.85 60.5902C142.11 66.9702 151 74.2702 158.35 83.5002C159.22 84.6002 160.99 84.2102 161.23 82.8302L161.22 82.8202Z" fill="#DBDCDB"/>
<path d="M132.78 174.83H56.4399C54.2197 174.83 52.4199 176.63 52.4199 178.85V181.52C52.4199 183.74 54.2197 185.54 56.4399 185.54H132.78C135 185.54 136.8 183.74 136.8 181.52V178.85C136.8 176.63 135 174.83 132.78 174.83Z" fill="#EB663B"/>
<path d="M93.9405 196.26C99.8554 196.26 104.65 191.465 104.65 185.55C104.65 179.635 99.8554 174.84 93.9405 174.84C88.0255 174.84 83.2305 179.635 83.2305 185.55C83.2305 191.465 88.0255 196.26 93.9405 196.26Z" fill="#FDCD08"/>
<path d="M89.7401 189.599C89.1001 189.599 88.5501 189.479 88.0801 189.249C87.6101 189.009 87.2501 188.679 87.0001 188.249C86.7501 187.819 86.6201 187.319 86.6201 186.759C86.6201 185.969 86.7701 185.269 87.0601 184.659C87.3601 184.049 87.7601 183.579 88.2701 183.249C88.7801 182.909 89.3401 182.739 89.9701 182.739C90.5501 182.739 90.9901 182.889 91.2901 183.189C91.5901 183.479 91.7401 183.879 91.7401 184.359C91.7401 184.689 91.6801 184.949 91.5601 185.149C91.4501 185.349 91.2801 185.449 91.0701 185.449C90.9201 185.449 90.8001 185.419 90.7201 185.349C90.6301 185.279 90.5901 185.179 90.5901 185.039C90.5901 184.989 90.6001 184.899 90.6201 184.769C90.6501 184.609 90.6701 184.479 90.6701 184.379C90.6701 183.889 90.4101 183.649 89.8901 183.649C89.5401 183.649 89.2001 183.769 88.8801 183.999C88.5601 184.229 88.3001 184.569 88.1001 185.019C87.9001 185.459 87.8001 185.989 87.8001 186.609C87.8001 187.229 87.9801 187.749 88.3401 188.099C88.7001 188.449 89.2301 188.619 89.9301 188.619C90.2801 188.619 90.6301 188.579 90.9801 188.489C91.3401 188.399 91.7401 188.259 92.1701 188.079C92.2501 188.049 92.3201 188.029 92.3701 188.029C92.4601 188.029 92.5201 188.059 92.5601 188.129C92.6001 188.189 92.6201 188.279 92.6201 188.379C92.6201 188.709 92.4401 188.949 92.0901 189.099C91.7101 189.269 91.3101 189.389 90.9001 189.469C90.4901 189.539 90.1001 189.579 89.7301 189.579L89.7401 189.599ZM92.8101 189.599C92.5701 189.599 92.3701 189.489 92.2201 189.269C92.0701 189.049 92.0001 188.769 92.0001 188.429C92.0001 188.029 92.0301 187.659 92.0801 187.329C92.1301 186.989 92.2201 186.639 92.3501 186.259C92.4001 186.099 92.4801 185.979 92.5701 185.909C92.6601 185.839 92.8201 185.809 93.0301 185.809C93.1501 185.809 93.2301 185.829 93.2701 185.869C93.3201 185.909 93.3401 185.959 93.3401 186.039C93.3401 186.079 93.3101 186.229 93.2501 186.469C93.2001 186.669 93.1501 186.849 93.1201 187.009C93.0101 187.569 92.9601 187.949 92.9601 188.129C92.9601 188.239 92.9701 188.319 93.0001 188.369C93.0301 188.409 93.0701 188.429 93.1301 188.429C93.2101 188.429 93.3101 188.349 93.4301 188.189C93.5501 188.029 93.6801 187.789 93.8201 187.459C93.9601 187.129 94.0901 186.729 94.2201 186.249C94.2601 186.089 94.3301 185.969 94.4101 185.899C94.5001 185.829 94.6301 185.799 94.8101 185.799C94.9301 185.799 95.0201 185.819 95.0701 185.849C95.1201 185.879 95.1401 185.929 95.1401 186.009C95.1401 186.139 95.0701 186.509 94.9401 187.109C94.7901 187.799 94.7201 188.219 94.7201 188.379C94.7201 188.479 94.7401 188.559 94.7801 188.619C94.8201 188.669 94.8801 188.699 94.9501 188.699C95.0601 188.699 95.1801 188.639 95.3301 188.509C95.4801 188.379 95.6801 188.159 95.9201 187.869C95.9801 187.799 96.0601 187.759 96.1401 187.759C96.2101 187.759 96.2601 187.789 96.3001 187.859C96.3401 187.919 96.3601 188.009 96.3601 188.129C96.3601 188.339 96.3101 188.509 96.2101 188.629C95.9801 188.909 95.7301 189.149 95.4601 189.329C95.2001 189.509 94.9001 189.599 94.5601 189.599C94.3001 189.599 94.1101 189.499 93.9901 189.299C93.8701 189.099 93.8101 188.819 93.8101 188.459C93.7201 188.819 93.5801 189.109 93.4001 189.299C93.2201 189.489 93.0201 189.589 92.8101 189.589V189.599ZM99.2901 187.769C99.3601 187.769 99.4101 187.799 99.4501 187.869C99.4901 187.929 99.5101 188.019 99.5101 188.139C99.5101 188.349 99.4601 188.519 99.3601 188.639C99.1301 188.919 98.8801 189.159 98.6001 189.339C98.3301 189.519 98.0101 189.609 97.6601 189.609C96.5701 189.609 96.0201 188.839 96.0201 187.299C96.0201 187.059 96.0201 186.829 96.0401 186.579H95.7301C95.5701 186.579 95.4601 186.549 95.4001 186.489C95.3501 186.429 95.3201 186.339 95.3201 186.209C95.3201 185.909 95.4401 185.759 95.6801 185.759H96.1401C96.2301 185.169 96.3701 184.629 96.5601 184.139C96.7501 183.649 96.9701 183.259 97.2301 182.969C97.5001 182.679 97.7801 182.539 98.0901 182.539C98.3101 182.539 98.4901 182.639 98.6201 182.839C98.7501 183.039 98.8101 183.289 98.8101 183.589C98.8101 184.419 98.4601 185.139 97.7701 185.759H98.6701C98.7601 185.759 98.8201 185.779 98.8501 185.819C98.8801 185.859 98.9101 185.929 98.9101 186.029C98.9101 186.399 98.6101 186.579 98.0001 186.579H97.0201C97.0101 186.849 97.0001 187.059 97.0001 187.209C97.0001 187.769 97.0601 188.159 97.1901 188.379C97.3201 188.599 97.5301 188.719 97.8201 188.719C98.0501 188.719 98.2501 188.649 98.4301 188.509C98.6101 188.369 98.8201 188.159 99.0601 187.879C99.1201 187.809 99.2001 187.769 99.2801 187.769H99.2901ZM97.8801 183.319C97.8001 183.319 97.7101 183.419 97.6101 183.629C97.5101 183.829 97.4201 184.109 97.3301 184.469C97.2401 184.819 97.1701 185.219 97.1101 185.649C97.4301 185.379 97.6601 185.069 97.8201 184.729C97.9801 184.389 98.0601 184.079 98.0601 183.799C98.0601 183.479 98.0001 183.329 97.8801 183.329V183.319ZM101.73 188.009C101.8 188.009 101.85 188.039 101.89 188.109C101.93 188.169 101.95 188.259 101.95 188.379C101.95 188.569 101.9 188.739 101.81 188.879C101.66 189.109 101.46 189.289 101.22 189.419C100.98 189.549 100.69 189.609 100.35 189.609C99.8401 189.609 99.4401 189.459 99.1501 189.149C98.8701 188.839 98.7201 188.419 98.7201 187.899C98.7201 187.529 98.8001 187.189 98.9501 186.869C99.1101 186.549 99.3201 186.289 99.5901 186.109C99.8701 185.919 100.18 185.829 100.53 185.829C100.84 185.829 101.09 185.919 101.28 186.109C101.47 186.289 101.56 186.539 101.56 186.859C101.56 187.229 101.43 187.549 101.16 187.819C100.9 188.079 100.45 188.289 99.8101 188.449C99.9401 188.699 100.16 188.819 100.46 188.819C100.68 188.819 100.86 188.769 101 188.669C101.14 188.569 101.31 188.399 101.5 188.159C101.56 188.079 101.64 188.039 101.72 188.039L101.73 188.009ZM100.41 186.599C100.21 186.599 100.04 186.719 99.9001 186.949C99.7701 187.179 99.7001 187.459 99.7001 187.789V187.809C100.02 187.739 100.27 187.619 100.45 187.469C100.63 187.319 100.72 187.149 100.72 186.949C100.72 186.849 100.69 186.769 100.63 186.709C100.58 186.649 100.5 186.609 100.41 186.609V186.599Z" fill="black"/>
<path d="M80.9802 112.209C80.9802 128.809 66.8902 142.389 49.3602 142.389C31.8302 142.389 17.7402 128.809 17.7402 112.209C17.7402 95.6093 31.8302 82.0293 49.3602 82.0293C66.8902 82.0293 80.9802 95.6093 80.9802 112.209V112.209Z" stroke="#333232" stroke-width="3.35"/>
<path d="M169.75 112.209C169.75 128.809 155.66 142.389 138.13 142.389C120.6 142.389 106.51 128.809 106.51 112.209C106.51 95.6093 120.59 82.0293 138.13 82.0293C155.67 82.0293 169.75 95.6093 169.75 112.209V112.209Z" stroke="#333232" stroke-width="3.35"/>
<path d="M81.1699 109.87C90.6399 108.26 96.1999 108.29 106.32 109.87V115.75C96.6599 114.28 91.1499 114.26 81.1699 115.75V109.87V109.87Z" fill="#262525"/>
<path d="M105.27 144.73C105.27 144.73 103.49 150.5 94.53 150.5C85.57 150.5 83.79 144.73 83.79 144.73" stroke="#7A5751" stroke-width="2.66" stroke-miterlimit="10" stroke-linecap="round"/>
<path d="M93.6903 138.061C88.7703 138.061 84.7803 134.071 84.7803 129.151C84.7803 124.231 102.6 124.231 102.6 129.151C102.6 134.071 98.6103 138.061 93.6903 138.061Z" fill="#7A5751"/>
<g style="mix-blend-mode:soft-light" opacity="0.4">
<path d="M93.6902 128.02C89.9102 128.02 86.6802 129.96 86.8502 128.24C87.0702 126.05 100.54 125.84 100.54 128.24C100.54 129.97 97.4802 128.02 93.7002 128.02H93.6902Z" fill="#F0E1A0"/>
</g>
<path d="M131.931 111.86C134.781 115.62 134.921 120.77 133.291 124.53C131.181 129.42 124.141 130.8 120.381 127.04C116.621 123.28 115.581 115.62 119.351 111.86C123.111 108.1 128.721 107.61 131.941 111.86H131.931Z" fill="url(#paint0_linear_316_18393)"/>
<path d="M131.861 111.92C131.861 111.92 131.9 111.91 131.84 111.85L131.771 111.83L131.87 111.92H131.861Z" fill="#7A5751"/>
<path d="M131.55 111.42C131.47 111.36 131.36 111.29 131.38 111.37C131.48 111.42 131.48 111.45 131.59 111.5C131.65 111.56 131.68 111.62 131.65 111.62C131.68 111.64 131.73 111.73 131.78 111.75C131.73 111.64 131.64 111.53 131.52 111.44C131.51 111.41 131.54 111.43 131.55 111.43V111.42Z" fill="#7A5751"/>
<path d="M119.36 111.73L119.4 111.68C119.37 111.71 119.35 111.73 119.36 111.73Z" fill="#7A5751"/>
<path d="M118.721 112.38L118.761 112.34C118.761 112.34 118.731 112.37 118.721 112.38Z" fill="#7A5751"/>
<path d="M123.87 109.1L123.73 109.13C123.73 109.13 123.8 109.12 123.87 109.1Z" fill="#7A5751"/>
<path d="M130.66 110.68C130.66 110.68 130.7 110.71 130.72 110.72L130.67 110.68H130.66Z" fill="#7A5751"/>
<path d="M126.17 108.77H126.21L126.25 108.75L126.17 108.77V108.77Z" fill="#7A5751"/>
<path d="M127.95 109.01C127.95 109.01 127.89 109.03 127.87 109.04C127.9 109.04 127.93 109.04 127.96 109.04C127.96 109.04 127.96 109.02 127.95 109.01Z" fill="#7A5751"/>
<path d="M130.45 110.32L130.49 110.35L130.45 110.32Z" fill="#7A5751"/>
<path d="M124.89 108.84C124.89 108.84 124.88 108.84 124.87 108.83C124.87 108.83 124.87 108.83 124.89 108.84Z" fill="#7A5751"/>
<path d="M132.85 113.69C132.85 113.69 132.84 113.68 132.85 113.69V113.69Z" fill="#7A5751"/>
<path d="M131.94 111.859L131.96 111.879L131.98 111.869L131.94 111.859Z" fill="#7A5751"/>
<path d="M120.911 127.709C120.801 127.569 121.151 127.859 120.981 127.659C120.981 127.689 120.761 127.549 120.911 127.709Z" fill="#7A5751"/>
<path d="M130.63 110.64L130.58 110.59L130.63 110.64Z" fill="#7A5751"/>
<path d="M120.97 127.661L120.96 127.641L120.97 127.661Z" fill="#7A5751"/>
<path d="M116.86 117.46C116.86 117.46 116.87 117.44 116.88 117.42C116.88 117.42 116.88 117.42 116.86 117.46Z" fill="#7A5751"/>
<path d="M117.48 114.699L117.45 114.759L117.48 114.699Z" fill="#7A5751"/>
<path d="M117.061 120.461L117.071 120.431L117.061 120.391V120.461Z" fill="#7A5751"/>
<path d="M134.11 118.041C134.11 118.041 134.13 117.981 134.14 117.971C134.12 118.001 134.08 117.781 134.11 118.041Z" fill="#7A5751"/>
<path d="M130.67 110.661C130.67 110.661 130.65 110.661 130.63 110.641L130.67 110.671C130.67 110.671 130.68 110.671 130.67 110.661Z" fill="#7A5751"/>
<path d="M130.5 127.61L130.54 127.58C130.54 127.58 130.51 127.6 130.5 127.61Z" fill="#7A5751"/>
<path d="M117.29 119.93C117.29 119.93 117.29 120.02 117.29 120.07C117.29 120.07 117.29 120.09 117.3 120.1V119.94L117.29 119.93Z" fill="#7A5751"/>
<path d="M133.8 116.43C133.85 116.65 133.87 116.52 133.91 116.56C133.97 116.82 133.9 116.69 133.89 116.79C133.93 116.95 134 117.07 134.02 117.2C134.02 117.21 134.02 117.24 134 117.2C134.08 117.37 134.07 117.73 134.15 117.93C134.15 117.95 134.15 117.95 134.15 117.96C134.17 117.92 134.19 117.92 134.21 117.92C134.22 118.02 134.26 118.11 134.24 118.15C134.24 118.09 134.22 118.08 134.21 118.06L134.24 118.17C134.21 118.27 134.21 118.03 134.17 118.03C134.22 118.24 134.26 118.48 134.25 118.64C134.21 118.68 134.21 118.27 134.19 118.48V118.23C134.13 118.42 134.19 118.08 134.12 118.26C134.12 118.58 134.16 118.62 134.17 118.94C134.2 119.01 134.21 118.91 134.23 118.99C134.28 119.45 134.11 119.35 134.17 119.69C134.2 119.78 134.26 119.82 134.21 120.06L134.16 119.98C134.13 120.29 134.22 120.16 134.16 120.49C134.14 120.43 134.16 120.24 134.16 120.29C134.11 120.5 134.18 120.44 134.16 120.61L134.11 120.64C134.07 120.97 134.07 121.35 134.01 121.71C134.01 121.69 134 121.62 133.97 121.71C133.91 122.18 133.76 122.69 133.61 123.11L133.59 123.29C133.59 123.29 133.55 123.36 133.56 123.31C133.49 123.47 133.58 123.33 133.56 123.41C133.53 123.51 133.5 123.53 133.51 123.46C133.46 123.77 133.28 124.32 133.1 124.6L133.12 124.54C132.99 124.76 133.06 124.83 132.92 125.02V124.98C132.81 125.23 132.67 125.48 132.5 125.69C132.34 125.91 132.2 126.13 132.03 126.26C132.02 126.36 131.64 126.64 131.68 126.72C131.44 126.93 131.48 126.84 131.13 127.11C131.04 127.18 131.03 127.26 130.92 127.36L130.89 127.33C130.85 127.38 130.81 127.44 130.76 127.48L130.64 127.5L130.53 127.58C130.53 127.58 130.64 127.53 130.64 127.55C130.47 127.68 130.19 127.81 130.17 127.8C130.04 127.91 129.89 127.99 129.75 128.08C129.75 128.06 129.83 128.02 129.88 127.98C129.66 128.14 129.82 127.96 129.61 128.11C129.64 128.11 129.61 128.14 129.61 128.15C129.49 128.18 129.25 128.33 129.05 128.4L129.08 128.36C128.73 128.48 128.35 128.67 127.94 128.75C128.09 128.73 128.07 128.78 127.94 128.82L127.88 128.79C127.81 128.84 128.01 128.77 127.86 128.85C127.71 128.88 127.75 128.83 127.83 128.79L127.65 128.85C127.65 128.85 127.68 128.82 127.69 128.8C127.62 128.84 127.36 128.84 127.26 128.9H127.25C126.83 128.94 126.65 129.01 126.31 129.02C126.31 129.06 126.17 129.05 126.07 129.09C125.82 129.09 125.54 129.08 125.24 129.04C125.03 129.04 125.18 129.07 125.08 129.08C125.07 129.04 124.76 129.02 124.92 129.01C124.56 129 124.46 128.95 124 128.89C124.05 128.91 124.1 128.93 124.07 128.94C123.99 128.93 123.89 128.89 123.9 128.87H123.92C123.4 128.8 122.81 128.44 122.42 128.31H122.44L122.04 128.17C121.87 128.08 122.16 128.2 122.04 128.12C121.63 127.92 121.43 127.73 121.11 127.53C120.95 127.27 120.32 126.86 120.12 126.5V126.53C120.03 126.47 120.04 126.43 120 126.37C120 126.39 120.06 126.47 120 126.43C119.41 125.79 118.95 124.97 118.58 124.16C118.44 123.86 118.39 124.05 118.26 123.65L118.35 123.74C118.03 123.16 117.84 122.49 117.63 121.88C117.65 121.91 117.66 121.91 117.68 121.97C117.68 121.83 117.53 121.49 117.52 121.49C117.5 121.39 117.54 121.46 117.54 121.4C117.53 121.26 117.43 121.07 117.44 121C117.44 120.99 117.46 121.04 117.47 121.06C117.44 120.98 117.39 120.65 117.37 120.74C117.33 120.5 117.28 120.28 117.27 120.09C117.21 119.97 117.24 119.68 117.17 119.64C117.22 119.65 117.17 119.21 117.15 119.06C117.17 119.11 117.16 118.93 117.19 118.98C117.19 118.81 117.16 118.65 117.13 118.68C117.17 118.36 117.08 118.03 117.17 117.85C117.14 117.33 117.21 116.85 117.25 116.38C117.31 116.41 117.19 116.89 117.25 116.88C117.27 116.44 117.27 116.18 117.39 115.75C117.42 115.64 117.4 115.82 117.4 115.86C117.46 115.42 117.63 115.04 117.73 114.66C117.73 114.66 117.73 114.71 117.72 114.74C117.74 114.67 117.79 114.57 117.76 114.57L117.74 114.64C117.67 114.75 117.76 114.31 117.76 114.3C117.77 114.45 117.95 113.96 117.95 114.19C117.97 114.14 117.98 114.08 117.96 114.08C118 114.01 118.02 114 118 114.08C118.11 113.82 118.04 113.9 118.15 113.67C118.16 113.67 118.15 113.73 118.15 113.76C118.18 113.63 118.21 113.5 118.34 113.33C118.34 113.34 118.36 113.33 118.33 113.38C118.54 113.08 118.59 112.8 118.88 112.51C118.85 112.64 118.98 112.42 119.04 112.43L119.17 112.26L119.1 112.31C119.23 112.17 119.3 112.01 119.43 111.91C119.4 111.95 119.38 111.99 119.35 112.03C119.42 111.93 119.51 111.86 119.6 111.77L119.44 111.89C119.56 111.74 119.38 111.86 119.58 111.7C119.55 111.74 119.72 111.57 119.81 111.53C119.87 111.46 119.93 111.38 120.04 111.29C120.08 111.28 120.05 111.35 120.08 111.34C120.12 111.24 120.42 111.06 120.49 110.95C120.47 110.98 120.48 111 120.49 111L120.53 110.93C120.61 110.88 120.62 110.88 120.62 110.91C120.83 110.75 120.52 110.91 120.78 110.74C120.76 110.76 120.78 110.75 120.74 110.79C121 110.61 121.24 110.44 121.49 110.29C121.59 110.29 121.28 110.44 121.39 110.42C121.73 110.17 122.12 109.95 122.48 109.77L122.41 109.8C122.43 109.7 122.7 109.71 122.88 109.6C122.84 109.62 122.83 109.66 122.84 109.65C123.1 109.56 123.35 109.41 123.76 109.29L123.72 109.32C123.88 109.3 124.13 109.19 124.31 109.18C124.36 109.15 124.46 109.14 124.39 109.12C124.94 109.1 125.41 108.91 125.9 108.96C125.84 108.96 125.76 108.99 125.81 108.98C125.95 108.96 126.08 108.98 126.22 108.97C126.19 108.94 126.17 108.95 126.08 108.92C126.13 108.9 126.25 108.89 126.35 108.9C126.16 108.91 126.35 108.95 126.43 108.97C126.42 108.97 126.44 108.95 126.43 108.94C126.64 109 126.47 108.87 126.76 108.94H126.74C126.85 108.96 126.95 108.95 127.07 108.98C127.11 109.02 126.95 108.98 126.94 109.01C127.1 109.03 127.28 108.99 127.42 109.05L127.18 109.03C127.34 109.09 127.36 109.09 127.47 109.11H127.46C127.55 109.12 127.64 109.16 127.73 109.19L127.66 109.16C127.88 109.12 128.07 109.25 128.36 109.27C128.08 109.25 128.31 109.29 128.27 109.32C128.34 109.34 128.43 109.41 128.4 109.4C128.53 109.42 128.59 109.51 128.78 109.53C128.78 109.55 128.91 109.58 128.87 109.6C129.03 109.65 128.84 109.56 128.87 109.55C129.14 109.59 129.4 109.88 129.76 110C130.05 110.15 130.12 110.16 130.38 110.32C130.45 110.4 130.28 110.31 130.28 110.31C130.4 110.43 130.51 110.49 130.64 110.58C130.61 110.57 130.63 110.6 130.65 110.64C130.74 110.72 130.74 110.66 130.85 110.79C130.82 110.79 130.78 110.77 130.72 110.74L131.08 111.01C131.08 111.01 130.99 110.97 130.94 110.95C131.07 111.06 131.28 111.23 131.34 111.26L131.28 111.17C131.28 111.17 131.28 111.21 131.24 111.19C131.11 111.11 131.09 111.04 131.1 111.02L131.19 111.09C131.16 110.96 130.86 110.8 130.7 110.65L130.8 110.67L130.6 110.55C130.6 110.55 130.56 110.46 130.65 110.53C130.54 110.41 130.52 110.46 130.43 110.36C130.43 110.35 130.43 110.35 130.44 110.36L130.3 110.28C130.3 110.28 130.3 110.23 130.38 110.3C130.17 110.11 129.99 110.07 129.93 109.97H129.95C129.6 109.8 129.9 109.99 129.62 109.89L129.5 109.71L129.45 109.73C129.45 109.73 129.35 109.67 129.37 109.66C129.23 109.61 129.38 109.69 129.3 109.66C129.15 109.52 128.81 109.47 128.8 109.38C128.72 109.38 128.96 109.47 128.76 109.41C128.73 109.32 128.54 109.33 128.38 109.24C128.44 109.23 128.59 109.31 128.44 109.21C128.32 109.22 128.11 109.1 127.97 109.07C127.95 109.12 127.65 108.99 127.4 108.97C127.42 108.96 126.94 108.88 126.71 108.83C126.71 108.83 126.42 108.85 126.25 108.86C126.25 108.83 126.29 108.82 126.39 108.81H126.22C126.22 108.81 126.13 108.83 126.02 108.83L126.06 108.79C125.84 108.77 125.62 108.85 125.34 108.84C125.33 108.88 125.57 108.92 125.28 108.96C125.27 108.94 125.25 108.91 125.33 108.9C125.3 108.9 125.24 108.92 125.19 108.92L125.3 108.88C125.17 108.88 125.24 108.91 125.13 108.92C125.13 108.89 125.05 108.91 125.06 108.89C125.09 108.89 125.15 108.89 125.19 108.89C125.07 108.89 124.93 108.89 124.88 108.89C124.89 108.9 124.88 108.93 124.8 108.94C124.59 108.98 124.72 108.92 124.59 108.94C124.54 108.97 124.4 108.98 124.4 109.01C124.34 109.02 124.32 109.01 124.29 109.01C124.18 109.04 123.78 109.14 123.91 109.15H123.92C123.58 109.29 123.17 109.34 122.84 109.51C122.64 109.6 122.39 109.68 122.26 109.79C122.2 109.82 122.11 109.84 122.13 109.81C121.99 109.9 121.98 109.92 121.75 110.01C121.89 109.91 121.69 110.01 121.9 109.92C121.7 110.01 121.64 110.01 121.46 110.16C121.51 110.09 121.3 110.21 121.22 110.28L121.36 110.22C121.26 110.29 121.18 110.34 121.09 110.39L121.11 110.32C120.69 110.51 120.5 110.86 120.18 110.99C120.11 111.09 120.39 110.86 120.32 110.95C120.16 111.07 119.94 111.15 119.9 111.2C119.68 111.37 119.75 111.43 119.52 111.61C119.56 111.6 119.61 111.61 119.46 111.76C119.31 111.89 119.23 111.88 119.31 111.79C119.35 111.76 119.37 111.74 119.37 111.75C119.41 111.7 119.47 111.64 119.4 111.68V111.71C119.3 111.76 119.11 111.97 119.14 111.91C119.05 112.04 119.11 111.98 119.2 111.9C119.01 112.09 118.93 112.21 118.74 112.41C118.78 112.38 118.82 112.36 118.79 112.4C118.52 112.69 118.69 112.54 118.54 112.77C118.44 112.88 118.52 112.69 118.39 112.93C118.29 113.06 118.34 112.93 118.36 112.87C118.25 113.1 118.09 113.25 118 113.37L118.06 113.25L117.95 113.43C117.95 113.43 117.99 113.4 118.02 113.38C117.97 113.44 117.95 113.5 117.94 113.49C117.92 113.57 118.01 113.46 117.97 113.62C117.91 113.7 117.85 113.91 117.8 113.92C117.95 113.64 117.75 113.93 117.86 113.68C117.84 113.73 117.81 113.79 117.77 113.86C117.77 113.86 117.77 113.85 117.77 113.83C117.6 114.09 117.75 113.98 117.61 114.27C117.61 114.22 117.53 114.32 117.52 114.37C117.57 114.25 117.57 114.33 117.55 114.45C117.47 114.64 117.49 114.67 117.45 114.77L117.5 114.66C117.5 114.66 117.47 114.8 117.43 114.94C117.41 114.94 117.46 114.81 117.43 114.86C117.43 115.02 117.27 115.18 117.23 115.4C117.19 115.5 117.18 115.4 117.15 115.48C117.12 115.73 117.06 115.73 117.02 116C117.07 115.93 117.06 115.92 117.05 116.1L117.12 115.68L117.1 115.96C117.13 115.83 117.14 115.69 117.16 115.62C117.16 115.75 117.16 115.74 117.19 115.68C117.1 115.84 117.14 116.03 117.06 116.22L116.98 116.2C116.88 116.49 116.94 116.75 116.86 117.14L116.89 117.01C116.91 117.07 116.86 117.25 116.86 117.38C116.83 117.37 116.82 117.45 116.8 117.5C116.82 117.5 116.79 117.79 116.84 117.83L116.8 118.01C116.78 118.33 116.85 118.38 116.86 118.68C116.83 118.59 116.82 118.73 116.78 118.52C116.78 118.62 116.78 118.72 116.8 118.72C116.79 118.78 116.85 119 116.83 119.1C116.84 119.14 116.87 119.16 116.88 119.27C116.88 119.28 116.87 119.27 116.87 119.27C116.88 119.27 116.9 119.45 116.92 119.35C116.85 119.67 117.03 120.23 116.99 120.51C117.03 120.73 117.11 120.99 117.15 121.19C117.14 121.18 117.14 121.19 117.13 121.15C117.16 121.43 117.24 121.3 117.28 121.62C117.28 121.79 117.22 121.46 117.23 121.56C117.15 121.63 117.34 121.93 117.36 122.15L117.34 122.1C117.36 122.27 117.48 122.48 117.56 122.73H117.55C117.66 122.89 117.8 123.21 117.9 123.44C117.84 123.38 117.84 123.34 117.83 123.4C117.88 123.51 117.87 123.35 117.96 123.56C117.96 123.64 118.02 123.8 118 123.83C117.97 123.76 117.93 123.7 117.91 123.63C117.91 123.76 118.03 123.89 118.07 123.99H118.04C118.19 124.28 118.24 124.27 118.4 124.59V124.55C118.53 124.7 118.45 124.71 118.58 124.86L118.56 124.94C118.64 125.05 118.84 125.3 118.96 125.5C118.86 125.41 118.7 125.19 118.6 125.05C118.67 125.16 118.83 125.42 118.88 125.47C118.85 125.43 118.8 125.38 118.79 125.33C118.9 125.45 119.03 125.61 119.18 125.81C119.08 125.83 119.54 126.37 119.61 126.56C119.94 126.87 120.19 127.26 120.62 127.59C120.53 127.41 120.74 127.69 120.77 127.61C120.87 127.69 120.9 127.72 120.91 127.73C120.99 127.83 121.09 127.91 121.18 127.99C121.24 128.06 121.07 127.94 121.07 127.96C121.3 128.11 121.15 128.05 121.29 128.17C121.28 128.13 121.39 128.19 121.52 128.28L121.36 128.13C121.71 128.29 121.59 128.39 121.96 128.52L121.84 128.49C122.03 128.56 122.5 128.81 122.7 128.83C122.73 128.85 122.77 128.89 122.68 128.86C123.13 129.02 123.69 129.14 124.05 129.22H124.01C124.1 129.24 124.17 129.22 124.27 129.27C124.27 129.27 124.23 129.28 124.27 129.29C124.32 129.29 124.5 129.31 124.62 129.33C124.59 129.33 124.55 129.34 124.52 129.34C124.98 129.4 125.23 129.36 125.61 129.35C125.61 129.41 125.97 129.42 126.15 129.42C126.69 129.42 127.05 129.29 127.53 129.19C127.84 129.19 128.55 128.97 129.01 128.81C128.94 128.83 129.01 128.76 129.08 128.73C129.2 128.71 129.36 128.57 129.36 128.63L129.32 128.65C129.42 128.65 129.63 128.54 129.79 128.46V128.38C130.03 128.33 130.3 128.15 130.53 127.98C130.77 127.81 130.98 127.66 131.1 127.6L131.37 127.33L131.39 127.36C131.65 127.16 131.77 127.05 132.03 126.74L131.99 126.82C132.15 126.65 132.1 126.54 132.24 126.38H132.33C132.55 126.04 132.85 125.76 132.99 125.38C132.99 125.38 133 125.41 132.98 125.47C133.07 125.31 133.35 124.84 133.25 124.87C133.31 124.89 133.44 124.51 133.48 124.3L133.5 124.34C133.52 124.16 133.51 124.15 133.59 123.91C133.61 123.86 133.64 123.87 133.59 123.94C133.67 123.76 133.6 123.78 133.7 123.56V123.65C133.76 123.46 133.74 123.47 133.75 123.36C133.78 123.24 133.87 123 133.91 122.97C133.9 122.94 133.9 122.82 133.94 122.71C133.96 122.7 133.95 122.74 133.95 122.76C134.06 122.44 134.03 122.26 134.11 122.04C134.12 122.04 134.13 122.02 134.14 122.01C134.09 122.27 134.04 122.49 134.04 122.46C134.08 122.46 134.13 122.26 134.14 122.44C134.15 122.26 134.15 121.96 134.21 121.75C134.21 121.75 134.22 121.73 134.23 121.72V121.74C134.23 121.74 134.25 121.65 134.25 121.61C134.27 121.54 134.28 121.5 134.28 121.44C134.31 121.42 134.33 121.19 134.34 121.09C134.3 121.09 134.33 120.95 134.28 121.09C134.28 121.07 134.28 121.11 134.28 121.18V121.23L134.25 121.49C134.25 121.4 134.24 121.31 134.27 121.2L134.23 121.04C134.31 120.9 134.36 120.62 134.39 120.58C134.39 120.25 134.43 119.8 134.35 119.59C134.35 119.5 134.37 119.48 134.38 119.45C134.38 119.5 134.38 119.57 134.39 119.6C134.37 119.41 134.39 119.04 134.33 119C134.33 118.76 134.38 119.13 134.36 118.81L134.38 118.85C134.43 118.2 134.19 117.82 134.17 117.11C134.17 117.16 134.17 117.18 134.17 117.2C134.1 116.39 133.77 115.59 133.56 114.82C133.49 114.6 133.45 114.59 133.38 114.47L133.4 114.41L133.27 114.21C133.1 113.92 133.11 113.64 132.85 113.29V113.35C132.78 113.22 132.6 112.94 132.64 112.95C132.63 112.94 132.59 112.92 132.57 112.86H132.59C132.51 112.74 132.45 112.64 132.36 112.55C132.21 112.3 132.46 112.55 132.22 112.19C132.12 112.06 131.91 111.86 131.94 111.91C131.98 111.96 132.02 112.05 132.01 112.07L131.92 111.96C131.86 111.98 131.74 111.93 131.91 112.24L132.08 112.42L132.1 112.5L131.98 112.33C132.02 112.44 132.08 112.49 132.15 112.54C132.15 112.56 132.15 112.6 132.18 112.64C132.24 112.69 132.3 112.75 132.36 112.81C132.36 112.85 132.27 112.74 132.33 112.89C132.41 112.97 132.33 112.77 132.43 112.92C132.46 113.03 132.43 113.02 132.52 113.12C132.52 113.14 132.49 113.12 132.46 113.08C132.54 113.17 132.63 113.35 132.69 113.39C132.72 113.51 132.88 113.75 132.83 113.77C132.86 113.8 132.97 113.94 133.02 114.04C132.87 113.89 133.2 114.42 133.1 114.4C133.21 114.52 133.34 114.89 133.45 115.13C133.45 115.12 133.42 115.09 133.42 115.07C133.46 115.21 133.46 115.26 133.47 115.36C133.53 115.36 133.61 115.58 133.68 115.69C133.68 115.88 133.59 115.6 133.56 115.67C133.6 115.65 133.7 115.96 133.71 115.89C133.71 116.03 133.72 116.01 133.71 116.09C133.78 116.09 133.75 116.21 133.82 116.32C133.84 116.52 133.77 116.38 133.85 116.6C133.85 116.71 133.79 116.52 133.79 116.52L133.8 116.43ZM134.03 121.7L134.05 121.59L134.03 121.7ZM133.95 122.14L133.99 121.95C133.99 121.95 134.02 121.95 134.01 122C134.01 121.97 133.98 122.08 133.96 122.14H133.95ZM134.37 121.24C134.37 121.31 134.36 121.34 134.35 121.34V121.21C134.35 121.21 134.36 121.21 134.36 121.23L134.37 121.24Z" fill="#7A5751"/>
<path d="M130.891 127.309L130.901 127.319L130.921 127.289L130.891 127.309Z" fill="#7A5751"/>
<path d="M126.41 108.949C126.41 108.949 126.42 108.949 126.44 108.959C126.44 108.959 126.42 108.959 126.41 108.949Z" fill="#7A5751"/>
<path d="M127.46 109.08C127.46 109.08 127.56 109.11 127.6 109.13C127.54 109.1 127.49 109.09 127.46 109.08Z" fill="#7A5751"/>
<path d="M128.24 109.299C128.24 109.299 128.26 109.299 128.26 109.289H128.24V109.299Z" fill="#7A5751"/>
<path d="M117.74 114.73V114.76C117.71 114.83 117.73 114.78 117.74 114.73Z" fill="#7A5751"/>
<path d="M119.801 111.52L119.721 111.62C119.771 111.58 119.811 111.54 119.801 111.52Z" fill="#7A5751"/>
<path d="M119.59 111.739C119.65 111.699 119.69 111.659 119.72 111.619C119.68 111.659 119.62 111.699 119.59 111.739Z" fill="#7A5751"/>
<path d="M131.19 111.18L131.22 111.2L131.19 111.18Z" fill="#7A5751"/>
<path d="M131.221 111.199L131.251 111.229C131.251 111.229 131.231 111.199 131.221 111.199Z" fill="#7A5751"/>
<path d="M131.32 111.3L131.25 111.24C131.25 111.24 131.29 111.29 131.32 111.3Z" fill="#7A5751"/>
<path d="M130.13 110.26C130.19 110.31 130.27 110.4 130.36 110.46H130.37C130.32 110.44 130.19 110.29 130.12 110.26H130.13Z" fill="#7A5751"/>
<path d="M129.011 109.42C129.101 109.46 129.181 109.5 129.261 109.55C129.221 109.51 129.181 109.46 129.291 109.52C128.991 109.32 129.351 109.57 129.011 109.42Z" fill="#7A5751"/>
<path d="M128.21 109.101C128.36 109.131 128.21 109.081 128.22 109.071C128.12 109.061 128.1 109.051 128.21 109.101Z" fill="#7A5751"/>
<path d="M122.1 109.761V109.721C122 109.781 122.1 109.731 122.1 109.761Z" fill="#7A5751"/>
<path d="M121.15 110.51L121.26 110.47L121.29 110.42L121.15 110.51Z" fill="#7A5751"/>
<path d="M120.44 110.719L120.47 110.689L120.33 110.819L120.44 110.719Z" fill="#7A5751"/>
<path d="M116.99 120.201L117.03 120.161C117.01 120.081 116.96 120.071 116.99 120.201Z" fill="#7A5751"/>
<path d="M118.42 124.51C118.42 124.57 118.47 124.69 118.53 124.74C118.48 124.65 118.45 124.55 118.42 124.51Z" fill="#7A5751"/>
<path d="M130.08 128.251L130 128.301L130.15 128.211L130.08 128.251Z" fill="#7A5751"/>
<path d="M56.1498 111.86C53.2998 115.62 53.1598 120.77 54.7898 124.53C56.8998 129.42 63.9398 130.8 67.6998 127.04C71.4598 123.28 72.4998 115.62 68.7298 111.86C64.9698 108.1 59.3598 107.61 56.1398 111.86H56.1498Z" fill="url(#paint1_linear_316_18393)"/>
<path d="M56.0791 111.809C56.0791 111.809 56.0991 111.839 56.1491 111.769V111.699L56.0791 111.809Z" fill="#7A5751"/>
<path d="M56.5193 111.419C56.5693 111.329 56.6193 111.209 56.5493 111.239C56.5193 111.349 56.4893 111.349 56.4493 111.469C56.3993 111.539 56.3393 111.579 56.3393 111.559C56.3293 111.589 56.2393 111.659 56.2393 111.709C56.3393 111.639 56.4293 111.539 56.5093 111.399C56.5393 111.379 56.5293 111.409 56.5293 111.419H56.5193Z" fill="#7A5751"/>
<path d="M64.1799 109.219L64.1299 109.199L64.1799 109.219Z" fill="#7A5751"/>
<path d="M68.5998 111.86L68.5498 111.83C68.5798 111.85 68.5998 111.87 68.5998 111.86Z" fill="#7A5751"/>
<path d="M69.1491 112.55L69.1191 112.51C69.1191 112.51 69.1391 112.54 69.1491 112.55Z" fill="#7A5751"/>
<path d="M64.1797 109.219L64.3097 109.269C64.3097 109.269 64.2397 109.239 64.1797 109.219Z" fill="#7A5751"/>
<path d="M57.2697 110.51C57.2697 110.51 57.2297 110.55 57.2197 110.57L57.2697 110.52V110.51Z" fill="#7A5751"/>
<path d="M61.9098 108.969H61.8698L61.8398 108.989L61.9098 108.969Z" fill="#7A5751"/>
<path d="M60.1892 109.209C60.1892 109.209 60.2292 109.159 60.2392 109.139C60.2192 109.159 60.1992 109.179 60.1592 109.189C60.1592 109.189 60.1592 109.199 60.1792 109.209H60.1892Z" fill="#7A5751"/>
<path d="M57.6796 110.379L57.6396 110.409L57.6796 110.379Z" fill="#7A5751"/>
<path d="M63.1592 109.049C63.1592 109.049 63.1592 109.059 63.1692 109.069C63.1692 109.069 63.1692 109.059 63.1592 109.049Z" fill="#7A5751"/>
<path d="M69.9595 113.929C69.9595 113.929 69.9495 113.909 69.9595 113.929V113.929Z" fill="#7A5751"/>
<path d="M66.9797 127.47C67.1297 127.39 66.7997 127.68 67.0097 127.55C66.9797 127.55 67.1497 127.35 66.9797 127.47Z" fill="#7A5751"/>
<path d="M57.3096 110.48L57.3596 110.43L57.3096 110.48Z" fill="#7A5751"/>
<path d="M67.0098 127.549L67.0398 127.529L67.0098 127.549Z" fill="#7A5751"/>
<path d="M70.8994 117.489C70.8994 117.489 70.9094 117.469 70.9094 117.449C70.9094 117.449 70.9094 117.459 70.8994 117.489Z" fill="#7A5751"/>
<path d="M70.3994 114.77L70.4194 114.84L70.3994 114.77Z" fill="#7A5751"/>
<path d="M70.9595 118.93C70.9595 118.93 70.9495 118.98 70.9595 119.03V119.01C70.9595 119.01 70.9595 118.97 70.9595 118.92V118.93Z" fill="#7A5751"/>
<path d="M70.8096 120.43L70.8196 120.4V120.35L70.8096 120.43Z" fill="#7A5751"/>
<path d="M53.6494 118.009C53.6494 118.009 53.6794 117.959 53.6894 117.939C53.6594 117.959 53.6794 117.739 53.6494 118.009Z" fill="#7A5751"/>
<path d="M57.2895 110.52C57.2895 110.52 57.2895 110.49 57.3095 110.48L57.2695 110.52C57.2695 110.52 57.2695 110.53 57.2795 110.52H57.2895Z" fill="#7A5751"/>
<path d="M71.2495 119.01L71.2295 119.25L71.2495 119.01Z" fill="#7A5751"/>
<path d="M57.4094 127.86L57.3594 127.83C57.3594 127.83 57.3994 127.85 57.4094 127.86Z" fill="#7A5751"/>
<path d="M71.1699 119.969C71.1699 119.969 71.1399 120.059 71.1299 120.099C71.1299 120.109 71.1299 120.119 71.1299 120.129L71.1699 119.969Z" fill="#7A5751"/>
<path d="M53.8696 116.34C53.8096 116.57 53.8896 116.46 53.9096 116.51C53.8696 116.79 53.8496 116.63 53.8096 116.72C53.7896 116.89 53.8096 117.03 53.7896 117.16C53.7896 117.16 53.7696 117.19 53.7696 117.16C53.7696 117.34 53.6996 117.7 53.7196 117.92C53.7196 117.94 53.7096 117.94 53.6996 117.95C53.7296 117.92 53.7496 117.92 53.7696 117.92C53.7596 118.02 53.7696 118.11 53.7396 118.15C53.7396 118.09 53.7396 118.08 53.7296 118.05V118.16C53.6696 118.25 53.7296 118.01 53.6996 118.01C53.6796 118.22 53.7196 118.47 53.6996 118.63C53.6496 118.66 53.6996 118.25 53.6496 118.46L53.6796 118.21C53.5996 118.4 53.6896 118.06 53.6096 118.23C53.5796 118.56 53.6096 118.6 53.5796 118.93C53.5996 119.01 53.6196 118.91 53.6396 118.98C53.6796 119.45 53.5296 119.35 53.5896 119.7C53.6196 119.79 53.6696 119.82 53.6596 120.07L53.5996 119.99C53.6196 120.31 53.6896 120.17 53.6696 120.51C53.6496 120.45 53.6396 120.26 53.6296 120.31C53.5996 120.53 53.6696 120.46 53.6796 120.63L53.6396 120.67C53.6896 121.01 53.7596 121.38 53.8396 121.75C53.8196 121.73 53.7996 121.67 53.7996 121.75C53.8996 122.23 54.0096 122.73 54.1096 123.2L54.1996 123.36C54.1996 123.36 54.1996 123.44 54.1896 123.4C54.2296 123.58 54.2196 123.4 54.2596 123.48C54.2896 123.58 54.2796 123.62 54.2496 123.56C54.3696 123.86 54.6196 124.39 54.7196 124.71L54.6796 124.66C54.7896 124.9 54.8896 124.89 54.9696 125.12L54.9396 125.08C55.0496 125.34 55.2096 125.6 55.3796 125.82C55.5496 126.05 55.6796 126.28 55.8096 126.45C55.9096 126.47 56.1696 126.88 56.2496 126.86C56.4396 127.13 56.3796 127.06 56.7096 127.38C56.7996 127.46 56.8796 127.46 56.9996 127.55L56.9796 127.58C57.0396 127.61 57.0996 127.65 57.1696 127.67L57.2296 127.77L57.3496 127.84C57.3496 127.84 57.2596 127.76 57.2696 127.75C57.4596 127.86 57.6996 128.07 57.6996 128.09C57.8496 128.18 58.0096 128.25 58.1696 128.32C58.1496 128.32 58.0696 128.29 57.9996 128.27C58.2696 128.36 58.0296 128.33 58.2696 128.41C58.2396 128.39 58.2996 128.4 58.3096 128.39C58.4196 128.46 58.6696 128.62 58.8796 128.67H58.8296C59.1996 128.82 59.5996 128.98 60.0296 129.07C59.8796 129.02 59.9296 128.98 60.0496 129.01L60.0896 129.06C60.1796 129.06 59.9696 129.01 60.1396 129.02C60.2996 129.06 60.2296 129.09 60.1396 129.09L60.3396 129.12C60.3396 129.12 60.2996 129.13 60.2896 129.14C60.3696 129.14 60.6096 129.27 60.7396 129.23C61.1696 129.3 61.3696 129.34 61.7296 129.34C61.7296 129.3 61.8796 129.32 61.9796 129.29C62.2396 129.31 62.5296 129.36 62.8396 129.32C63.0596 129.28 62.8996 129.28 62.9996 129.25C63.0196 129.28 63.3296 129.25 63.1696 129.29C63.5496 129.26 63.6496 129.22 64.1096 129.1C64.0596 129.1 63.9996 129.1 64.0296 129.08C64.1096 129.06 64.2296 129.06 64.2196 129.08H64.1996C64.6996 128.92 65.4196 128.83 65.7696 128.56H65.7496L66.1296 128.35C66.3196 128.27 66.0296 128.43 66.1796 128.38C66.5496 128.07 66.8296 127.99 67.1196 127.72C67.4196 127.6 67.9396 127.01 68.2296 126.73H68.1996C68.2496 126.64 68.2996 126.65 68.3496 126.59C68.3296 126.59 68.2596 126.66 68.2896 126.6C68.8496 125.9 69.4296 125.14 69.8596 124.32C70.0096 124.02 69.8296 124.1 70.0696 123.74V123.87C70.2796 123.23 70.5796 122.59 70.7096 121.93C70.7096 121.97 70.7196 121.98 70.7096 122.04C70.7796 121.91 70.8596 121.54 70.8296 121.53C70.8496 121.43 70.8596 121.51 70.8796 121.45C70.9296 121.32 70.9096 121.1 70.9596 121.03C70.9596 121.02 70.9596 121.07 70.9596 121.1C70.9596 121.01 71.0496 120.68 70.9996 120.76C71.0796 120.52 71.0596 120.29 71.1096 120.1C71.0896 119.97 71.1896 119.68 71.1296 119.63C71.1996 119.66 71.2196 119.2 71.1896 119.04C71.2096 119.09 71.2196 118.9 71.2396 118.97C71.2396 118.79 71.2396 118.63 71.2096 118.66C71.3096 118.33 71.1396 118 71.2396 117.81C71.2096 117.28 71.0896 116.79 71.0196 116.32C71.0796 116.32 71.0896 116.84 71.1496 116.82C71.0796 116.37 70.9796 116.12 70.8796 115.68C70.8596 115.56 70.9196 115.74 70.9396 115.77C70.8296 115.33 70.7096 114.92 70.5496 114.55C70.5496 114.55 70.5796 114.59 70.5896 114.63C70.5596 114.56 70.5396 114.45 70.5096 114.47L70.5396 114.54C70.5396 114.67 70.3696 114.27 70.3296 114.27C70.4596 114.36 70.1696 113.9 70.3596 114.06C70.3296 114.01 70.2896 113.96 70.2796 113.98C70.2496 113.91 70.2496 113.88 70.2996 113.94C70.1596 113.69 70.1796 113.79 70.0696 113.56C70.0796 113.56 70.1096 113.6 70.1296 113.62C70.0496 113.51 69.9796 113.4 69.8596 113.22C69.8696 113.22 69.8596 113.2 69.8996 113.26C69.6796 112.95 69.5196 112.75 69.2696 112.42C69.3896 112.48 69.1896 112.3 69.2196 112.25L69.0596 112.09L69.0996 112.17C68.9696 112.02 68.8396 111.92 68.7296 111.78C68.7696 111.81 68.7996 111.84 68.8396 111.87C68.7596 111.78 68.6596 111.7 68.5796 111.62L68.7196 111.77C68.5596 111.66 68.6896 111.83 68.5096 111.65C68.5496 111.68 68.3696 111.52 68.3096 111.43C68.2296 111.38 68.1496 111.32 68.0496 111.22C68.0296 111.18 68.1096 111.2 68.0996 111.17C68.0096 111.13 67.7396 110.9 67.6196 110.86C67.6596 110.88 67.6796 110.86 67.6696 110.84L67.5896 110.82C67.5296 110.76 67.5196 110.74 67.5396 110.74C67.3296 110.57 67.5696 110.84 67.3296 110.63C67.3496 110.64 67.3396 110.63 67.3896 110.66C67.1496 110.45 66.8596 110.34 66.6296 110.16C66.5796 110.07 66.8496 110.29 66.7896 110.2C66.4296 109.96 65.9896 109.83 65.6396 109.62L65.7096 109.66C65.6296 109.69 65.4396 109.51 65.2396 109.46C65.2896 109.47 65.3196 109.45 65.2996 109.46C65.0396 109.34 64.7596 109.25 64.3396 109.16H64.3996C64.2396 109.1 63.9896 109.01 63.8096 108.98C63.7496 108.98 63.6496 108.97 63.7096 109C63.1896 108.78 62.6596 108.9 62.1796 108.78C62.2396 108.78 62.3196 108.78 62.2696 108.77C62.1296 108.77 61.9896 108.79 61.8496 108.79C61.8796 108.82 61.9096 108.81 61.9896 108.83C61.9396 108.85 61.8196 108.87 61.7196 108.87C61.9096 108.84 61.7196 108.82 61.6296 108.81C61.6396 108.81 61.6196 108.83 61.6296 108.84C61.4096 108.79 61.5996 108.9 61.2996 108.88V108.86C61.1996 108.88 61.1096 108.92 60.9896 108.93C60.9396 108.9 61.0996 108.9 61.1096 108.87C60.9396 108.9 60.7896 108.98 60.6396 108.97L60.8796 108.92C60.7096 108.9 60.6896 108.92 60.5696 108.92H60.5796C60.4796 108.92 60.3896 108.95 60.2996 108.97H60.3696C60.1896 109.11 59.9596 109.09 59.6996 109.22C59.9496 109.09 59.7296 109.18 59.7396 109.13C59.6596 109.13 59.5596 109.17 59.5796 109.15C59.4696 109.23 59.3596 109.21 59.1996 109.33C59.1896 109.33 59.0696 109.38 59.0796 109.34C58.9196 109.42 59.1296 109.34 59.1196 109.37C58.8796 109.49 58.5296 109.61 58.2096 109.84C57.9396 110.03 57.9196 110.12 57.6796 110.32C57.5796 110.36 57.7196 110.23 57.7196 110.23C57.5696 110.32 57.4696 110.39 57.3596 110.5C57.3796 110.47 57.3496 110.48 57.2996 110.5C57.2096 110.59 57.2696 110.59 57.1296 110.69C57.1396 110.66 57.1496 110.62 57.1896 110.56L56.8896 110.91C56.8896 110.91 56.9296 110.82 56.9696 110.77C56.8496 110.9 56.6496 111.09 56.6496 111.17L56.7296 111.09C56.7296 111.09 56.6796 111.09 56.7096 111.05C56.7996 110.93 56.8796 110.91 56.8896 110.91L56.8096 110.99C56.9496 110.97 57.1296 110.68 57.2896 110.53L57.2596 110.64L57.3996 110.45C57.3996 110.45 57.4896 110.43 57.4096 110.51C57.5496 110.43 57.5096 110.41 57.6396 110.35C57.6596 110.35 57.6496 110.35 57.6396 110.36L57.7596 110.26C57.7596 110.26 57.7996 110.28 57.7196 110.33C57.9596 110.19 58.0596 110.03 58.1696 110.01L58.1496 110.03C58.4696 109.82 58.1496 109.98 58.3896 109.79H58.6096V109.73C58.6096 109.73 58.7296 109.68 58.7196 109.7C58.8396 109.6 58.6896 109.7 58.7496 109.63C58.9296 109.56 59.2296 109.4 59.2896 109.44C59.3396 109.39 59.1096 109.49 59.2896 109.39C59.3696 109.43 59.5096 109.29 59.6796 109.26C59.6396 109.31 59.4796 109.36 59.6496 109.32C59.7296 109.22 59.9796 109.24 60.1196 109.19C60.1196 109.15 60.4196 109.07 60.6596 109.03C60.6496 109.05 61.1196 108.99 61.3496 108.97C61.3496 108.97 61.6296 108.93 61.7996 108.92C61.7996 108.95 61.7596 108.96 61.6696 108.98H61.8296C61.8296 108.98 61.9196 108.95 62.0196 108.94L61.9796 108.98C62.1896 108.96 62.4096 108.95 62.6896 109C62.7096 108.97 62.4796 108.89 62.7696 108.89C62.7696 108.91 62.7896 108.94 62.7096 108.94C62.7396 108.94 62.7996 108.94 62.8496 108.94L62.7296 108.96C62.8496 108.98 62.7996 108.94 62.8996 108.96C62.8996 108.99 62.9696 108.98 62.9596 109C62.9296 109 62.8696 108.98 62.8296 108.99C62.9396 109 63.0796 109.03 63.1196 109.06C63.1196 109.04 63.1196 109.02 63.2096 109.04C63.4196 109.08 63.2796 109.08 63.3996 109.12C63.4496 109.12 63.5896 109.16 63.5996 109.12C63.6596 109.13 63.6696 109.15 63.6896 109.17C63.8096 109.17 64.1896 109.29 64.0796 109.22C64.4396 109.28 64.8096 109.44 65.1396 109.57L65.7396 109.8C65.7996 109.83 65.8596 109.89 65.8296 109.89C65.9796 109.96 66.0096 109.95 66.2096 110.08C66.0496 110.02 66.2496 110.12 66.0496 110.02C66.2296 110.13 66.2696 110.16 66.4896 110.25C66.4096 110.24 66.5996 110.37 66.6996 110.42L66.5896 110.32C66.6896 110.38 66.7696 110.43 66.8596 110.49H66.7896C67.1396 110.76 67.4896 110.88 67.6996 111.15C67.8096 111.2 67.5196 110.99 67.6296 111.02C67.7896 111.15 67.9196 111.32 67.9596 111.37C68.1496 111.57 68.1896 111.5 68.3896 111.7C68.3696 111.66 68.3796 111.61 68.5496 111.75C68.6996 111.89 68.6896 111.97 68.5796 111.89C68.5396 111.86 68.5296 111.84 68.5296 111.84C68.4796 111.8 68.4096 111.75 68.4596 111.81H68.4896C68.5596 111.89 68.7496 112.09 68.6796 112.06C68.7896 112.16 68.7396 112.09 68.6796 112C68.8296 112.21 68.9396 112.3 69.0996 112.51C69.0796 112.47 69.0696 112.43 69.0996 112.46C69.3396 112.77 69.2496 112.56 69.3996 112.78C69.4596 112.92 69.3196 112.77 69.4896 112.98C69.5696 113.12 69.4696 113.03 69.4296 112.98C69.5896 113.16 69.6596 113.37 69.7296 113.48L69.6496 113.38C69.6996 113.44 69.7296 113.49 69.7596 113.54C69.7596 113.51 69.7596 113.49 69.7596 113.46C69.7996 113.52 69.8196 113.58 69.8096 113.59C69.8596 113.65 69.8296 113.51 69.9196 113.64C69.9496 113.74 70.0696 113.91 70.0496 113.96C69.9296 113.67 70.0296 114.01 69.9096 113.77C69.9396 113.81 69.9596 113.87 69.9896 113.94C69.9896 113.95 69.9796 113.94 69.9696 113.92C70.0696 114.2 70.0696 114.02 70.2096 114.3C70.1696 114.27 70.2096 114.38 70.2196 114.43C70.1696 114.32 70.2396 114.36 70.2896 114.46C70.3396 114.66 70.3696 114.66 70.4096 114.76L70.3796 114.64C70.3796 114.64 70.4496 114.77 70.4996 114.9C70.4896 114.92 70.4496 114.78 70.4596 114.83C70.5496 114.96 70.5396 115.17 70.6296 115.37C70.6296 115.47 70.5896 115.39 70.5996 115.48C70.6796 115.71 70.6296 115.74 70.7096 115.98C70.7196 115.9 70.7096 115.89 70.7796 116.06L70.6596 115.66L70.7696 115.91C70.7396 115.79 70.6896 115.65 70.6796 115.58C70.7296 115.7 70.7196 115.69 70.7396 115.62C70.7396 115.8 70.8396 115.95 70.8596 116.15H70.7796C70.8096 116.46 70.8996 116.68 70.9296 117.07V116.94C70.9296 116.94 70.9596 117.18 70.9896 117.3C70.9596 117.3 70.9596 117.37 70.9396 117.43C70.9596 117.43 70.9396 117.71 70.9996 117.75L70.9696 117.93C70.9696 118.24 71.0696 118.29 71.0396 118.59C71.0196 118.5 70.9896 118.64 70.9796 118.43C70.9796 118.53 70.9696 118.62 70.9796 118.62C70.9596 118.68 70.9996 118.9 70.9796 118.99C70.9796 119.03 71.0196 119.05 71.0096 119.16C71.0096 119.17 70.9996 119.16 70.9996 119.16C71.0096 119.16 70.9996 119.34 71.0396 119.24C70.9496 119.55 70.9396 120.11 70.8396 120.37C70.8196 120.59 70.7596 120.85 70.7196 121.05C70.7196 121.04 70.7096 121.05 70.7196 121.01C70.6396 121.28 70.7596 121.19 70.6696 121.5C70.5896 121.65 70.6796 121.33 70.6496 121.42C70.5696 121.44 70.5596 121.79 70.4496 121.98V121.93C70.3796 122.08 70.3796 122.32 70.2996 122.57C70.2996 122.57 70.2996 122.56 70.2896 122.57C70.2696 122.75 70.1596 123.08 70.0696 123.32C70.0696 123.23 70.0996 123.2 70.0496 123.24C70.0096 123.35 70.1096 123.23 70.0396 123.45C69.9996 123.51 69.9196 123.66 69.8696 123.66C69.8996 123.6 69.9296 123.53 69.9596 123.46C69.8796 123.55 69.8396 123.71 69.7896 123.81V123.79C69.6396 124.09 69.6796 124.12 69.5296 124.43L69.5596 124.4C69.5196 124.6 69.4596 124.53 69.3896 124.72L69.3096 124.74C69.2596 124.86 69.1196 125.15 69.0096 125.35C69.0396 125.22 69.1596 124.98 69.2296 124.82C69.1596 124.93 69.0096 125.19 68.9996 125.26C69.0196 125.21 69.0396 125.15 69.0796 125.11C69.0396 125.27 68.9496 125.45 68.7896 125.65C68.7296 125.55 68.3896 126.18 68.1996 126.26C67.9296 126.61 67.6096 126.92 67.2196 127.24C67.4096 127.18 67.1096 127.34 67.1796 127.38C67.0896 127.46 67.0596 127.49 67.0496 127.5C66.9496 127.57 66.8396 127.62 66.7296 127.67C66.6396 127.7 66.8196 127.59 66.7996 127.58C66.5796 127.72 66.6896 127.61 66.5296 127.69C66.5796 127.69 66.4796 127.77 66.3496 127.85L66.5496 127.77C66.2596 128 66.2596 127.91 65.9496 128.1L66.0396 128.03C65.8796 128.12 65.4196 128.33 65.2696 128.47C65.2296 128.47 65.1796 128.47 65.2696 128.43C64.8396 128.56 64.3396 128.83 63.9696 128.83L63.9996 128.8C63.9196 128.82 63.8596 128.87 63.7596 128.87C63.7596 128.87 63.7896 128.84 63.7596 128.85C63.7196 128.86 63.5496 128.94 63.4296 128.93C63.4596 128.92 63.4896 128.91 63.5196 128.9C63.0796 128.91 62.8496 129.02 62.4796 129.05C62.4796 128.99 62.1296 128.96 61.9596 128.95C61.4496 128.93 61.0896 128.9 60.6096 128.85C60.3296 128.72 59.6396 128.59 59.2096 128.36C59.2696 128.4 59.1796 128.4 59.0996 128.37C58.9996 128.33 58.7996 128.29 58.8396 128.25L58.8796 128.27C58.8296 128.18 58.6196 128.09 58.4596 128.01L58.3996 128.06C58.2096 127.92 57.9396 127.77 57.7096 127.62C57.4696 127.48 57.2496 127.35 57.1796 127.22L56.8796 127.01L56.9096 126.99C56.6696 126.79 56.5696 126.67 56.2996 126.39L56.3696 126.43C56.2296 126.27 56.0996 126.3 55.9596 126.15V126.07C55.7496 125.75 55.5396 125.43 55.3296 125.12C55.3296 125.12 55.3596 125.12 55.3896 125.18C55.3096 125.02 55.1096 124.55 55.0696 124.64C55.1096 124.62 54.8996 124.29 54.8096 124.1L54.8596 124.12C54.7496 123.97 54.7396 123.97 54.6396 123.75C54.6296 123.69 54.6496 123.69 54.6696 123.77C54.6296 123.58 54.5896 123.64 54.5396 123.41L54.5896 123.49C54.5296 123.3 54.5196 123.32 54.4596 123.22C54.3996 123.11 54.3596 122.85 54.3896 122.82C54.3596 122.8 54.3096 122.7 54.2896 122.58C54.2896 122.56 54.3196 122.6 54.3296 122.62C54.2696 122.29 54.1696 122.15 54.1596 121.91C54.1696 121.91 54.1696 121.89 54.1696 121.87L54.2596 122.32C54.2596 122.32 54.2496 122.1 54.3296 122.26C54.2696 122.1 54.1596 121.82 54.1396 121.61C54.1396 121.61 54.1396 121.52 54.1196 121.48V121.31C54.1196 121.31 54.0896 121.07 54.0796 120.96C54.0396 120.97 54.0296 120.83 54.0196 120.96C54.0196 120.94 54.0196 120.98 54.0396 121.05V121.09L54.0796 121.35C54.0496 121.27 54.0196 121.18 54.0296 121.06L53.9496 120.92C53.9796 120.77 53.9796 120.49 54.0096 120.44C53.9596 120.12 53.9396 119.68 53.8796 119.47C53.8796 119.38 53.8996 119.36 53.9096 119.33C53.9096 119.38 53.9096 119.45 53.9296 119.48C53.9096 119.3 53.9096 118.93 53.8796 118.89C53.9096 118.66 53.9196 119.02 53.9296 118.7V118.74C54.0496 118.12 53.8796 117.7 54.0996 117.02C54.0896 117.07 54.0796 117.09 54.0696 117.1C54.2296 116.32 54.3896 115.48 54.7196 114.76C54.8196 114.56 54.7996 114.52 54.8296 114.39L54.8896 114.36L54.9296 114.12C55.0396 113.81 55.2596 113.64 55.3996 113.25L55.3496 113.28C55.4296 113.15 55.5796 112.86 55.5896 112.9C55.5896 112.88 55.5896 112.84 55.6296 112.8H55.6496C55.6996 112.7 55.7496 112.58 55.8096 112.47C55.9896 112.24 55.8496 112.55 56.0996 112.21C56.1796 112.08 56.2996 111.81 56.2596 111.85C56.2196 111.9 56.1596 111.97 56.1396 111.97L56.2096 111.85C56.1796 111.79 56.1896 111.66 55.9496 111.93L55.8396 112.16L55.7696 112.21L55.8896 112.04C55.7996 112.12 55.7796 112.2 55.7396 112.28C55.7196 112.28 55.6896 112.31 55.6496 112.35C55.6196 112.43 55.5896 112.5 55.5696 112.59C55.5296 112.6 55.5796 112.47 55.4896 112.6C55.4596 112.71 55.5896 112.53 55.5096 112.71C55.4296 112.8 55.4196 112.76 55.3696 112.89C55.3496 112.89 55.3496 112.87 55.3696 112.82C55.3196 112.94 55.2096 113.11 55.2096 113.18C55.1096 113.27 55.0296 113.56 54.9796 113.52C54.9796 113.56 54.9296 113.74 54.8796 113.84C54.9096 113.62 54.6896 114.22 54.6496 114.15C54.6496 114.32 54.4596 114.68 54.4096 114.95C54.4096 114.93 54.4096 114.9 54.4196 114.88C54.3696 115.02 54.3396 115.06 54.2896 115.15C54.3296 115.19 54.2696 115.42 54.2596 115.55C54.1496 115.71 54.2396 115.42 54.1696 115.47C54.2096 115.47 54.1096 115.79 54.1696 115.74C54.1096 115.87 54.1296 115.86 54.0696 115.92C54.1296 115.96 54.0496 116.05 54.0596 116.18C53.9796 116.37 53.9896 116.22 53.9496 116.44C53.8996 116.54 53.9296 116.34 53.9296 116.34H53.8696ZM53.8696 121.74L53.8496 121.63L53.8696 121.74ZM53.9596 122.19L53.9196 122C53.9196 122 53.9496 122 53.9496 122.04C53.9396 122.02 53.9496 122.12 53.9496 122.19H53.9596ZM54.0496 121.21C54.0596 121.28 54.0596 121.3 54.0496 121.31L54.0296 121.19C54.0296 121.19 54.0496 121.19 54.0496 121.21V121.21Z" fill="#7A5751"/>
<path d="M64.1194 109.199H64.1294L64.1094 109.189L64.1194 109.199Z" fill="#7A5751"/>
<path d="M56.9792 127.579L56.9492 127.559L56.9792 127.579Z" fill="#7A5751"/>
<path d="M60.5895 108.92C60.5395 108.92 60.4895 108.93 60.4395 108.94C60.5095 108.93 60.5495 108.92 60.5895 108.92Z" fill="#7A5751"/>
<path d="M59.7795 109.109C59.7795 109.109 59.7795 109.119 59.7695 109.129V109.109H59.7795Z" fill="#7A5751"/>
<path d="M70.6094 114.629V114.659C70.6494 114.729 70.6294 114.679 70.6094 114.629Z" fill="#7A5751"/>
<path d="M68.3496 111.44L68.4596 111.51C68.4596 111.51 68.3696 111.42 68.3496 111.44Z" fill="#7A5751"/>
<path d="M71.26 118.98L71.25 119.01L71.26 118.98Z" fill="#7A5751"/>
<path d="M68.59 111.63C68.54 111.58 68.5 111.54 68.46 111.51C68.5 111.55 68.55 111.6 68.59 111.63Z" fill="#7A5751"/>
<path d="M56.7195 111.01L56.6895 111.04L56.6995 111.05L56.7195 111.01Z" fill="#7A5751"/>
<path d="M56.6999 111.049L56.6699 111.089C56.6699 111.089 56.6899 111.059 56.6999 111.049Z" fill="#7A5751"/>
<path d="M56.6191 111.16L56.6691 111.08C56.6691 111.08 56.6191 111.13 56.6191 111.16Z" fill="#7A5751"/>
<path d="M57.8296 110.09C57.7596 110.13 57.6496 110.19 57.5596 110.26C57.5596 110.26 57.7796 110.15 57.8296 110.09Z" fill="#7A5751"/>
<path d="M59.1191 109.539C59.0291 109.569 58.9491 109.599 58.8691 109.649C58.9191 109.639 58.9791 109.629 58.8691 109.689C59.1991 109.569 58.7891 109.679 59.1191 109.539Z" fill="#7A5751"/>
<path d="M59.9196 109.26C59.7796 109.3 59.9196 109.28 59.9196 109.29C60.0096 109.25 60.0296 109.24 59.9196 109.26Z" fill="#7A5751"/>
<path d="M65.9099 109.92L65.8799 109.94C65.9799 109.99 65.8799 109.93 65.9099 109.92Z" fill="#7A5751"/>
<path d="M67.0299 110.359L66.9399 110.279H66.8799L67.0299 110.359Z" fill="#7A5751"/>
<path d="M67.4599 110.969L67.4199 110.939L67.5799 111.049L67.4599 110.969Z" fill="#7A5751"/>
<path d="M70.8096 120.16L70.8596 120.13C70.8596 120.05 70.8196 120.03 70.8096 120.16Z" fill="#7A5751"/>
<path d="M69.4894 124.42C69.4894 124.42 69.3794 124.56 69.3594 124.64C69.4194 124.56 69.4794 124.47 69.4894 124.42Z" fill="#7A5751"/>
<path d="M58.1596 127.96L58.2496 127.99L58.0996 127.92L58.1596 127.96Z" fill="#7A5751"/>
<path d="M126.37 114.36C127.73 111.51 130 113.63 130.09 115.2C130.18 116.77 129.92 118.99 128.23 118.83C126.54 118.67 125.7 115.77 126.37 114.36V114.36Z" fill="white"/>
<path d="M126.45 114.401C126.45 114.401 126.42 114.381 126.41 114.401L126.44 114.431V114.391L126.45 114.401Z" fill="white"/>
<path d="M126.32 114.5C126.32 114.5 126.35 114.57 126.4 114.57C126.37 114.53 126.39 114.53 126.35 114.49C126.35 114.47 126.38 114.46 126.39 114.47C126.39 114.46 126.41 114.44 126.39 114.42C126.35 114.43 126.33 114.47 126.35 114.51C126.34 114.51 126.33 114.51 126.32 114.5Z" fill="white"/>
<path d="M126.08 116.11V116.09H126.06L126.08 116.11Z" fill="white"/>
<path d="M126.03 115.631C126.03 115.631 126.07 115.641 126.08 115.651C126.06 115.651 126.06 115.641 126.05 115.631C126.05 115.631 126.03 115.631 126.02 115.631H126.03Z" fill="white"/>
<path d="M126.36 114.35L126.34 114.34L126.36 114.35Z" fill="white"/>
<path d="M130.16 116.941C130.16 116.941 130.13 116.861 130.08 116.921C130.1 116.921 130.13 116.991 130.16 116.941Z" fill="white"/>
<path d="M129.01 118.811H129L128.98 118.821L129.01 118.811Z" fill="white"/>
<path d="M127.57 113.209C127.57 113.209 127.55 113.199 127.54 113.189C127.56 113.209 127.51 113.249 127.57 113.209Z" fill="white"/>
<path d="M126.31 114.811C126.31 114.811 126.32 114.811 126.32 114.821L126.31 114.811Z" fill="white"/>
<path d="M128.78 118.59C128.78 118.59 128.81 118.6 128.82 118.6H128.78V118.59Z" fill="white"/>
<path d="M127.28 113.47C127.28 113.47 127.27 113.41 127.26 113.38C127.3 113.32 127.3 113.38 127.34 113.39C127.37 113.36 127.37 113.31 127.4 113.29C127.4 113.29 127.41 113.29 127.41 113.31C127.43 113.25 127.52 113.24 127.54 113.17H127.55C127.55 113.17 127.52 113.14 127.51 113.12C127.53 113.1 127.54 113.07 127.56 113.1C127.54 113.1 127.55 113.12 127.55 113.13L127.57 113.11C127.57 113.11 127.54 113.13 127.56 113.17C127.6 113.14 127.65 113.09 127.69 113.09C127.71 113.13 127.61 113.13 127.67 113.15H127.61C127.68 113.2 127.57 113.15 127.64 113.22C127.72 113.22 127.71 113.17 127.79 113.17C127.8 113.14 127.78 113.14 127.79 113.11C127.89 113.03 127.89 113.21 127.96 113.14C127.98 113.11 127.98 113.05 128.04 113.08L128.02 113.13C128.09 113.13 128.06 113.05 128.14 113.09C128.12 113.1 128.08 113.11 128.09 113.11C128.14 113.15 128.13 113.08 128.17 113.09V113.14C128.25 113.15 128.35 113.12 128.44 113.14C128.44 113.15 128.41 113.16 128.43 113.18C128.54 113.2 128.66 113.26 128.73 113.35H128.79V113.36C128.82 113.39 128.8 113.34 128.83 113.34C128.85 113.35 128.85 113.38 128.83 113.38C128.92 113.38 129.05 113.45 129.09 113.54H129.07C129.11 113.59 129.18 113.52 129.2 113.59H129.19C129.27 113.7 129.42 113.78 129.43 113.91C129.49 113.89 129.49 114.04 129.56 114C129.58 114.09 129.56 114.07 129.59 114.18C129.6 114.21 129.65 114.19 129.68 114.22L129.64 114.24L129.7 114.26L129.67 114.31L129.7 114.33C129.7 114.33 129.7 114.3 129.71 114.29C129.76 114.33 129.74 114.42 129.72 114.43L129.8 114.53C129.8 114.53 129.77 114.52 129.75 114.51C129.82 114.56 129.71 114.54 129.77 114.58C129.77 114.57 129.79 114.58 129.8 114.58C129.8 114.62 129.82 114.68 129.84 114.73H129.81C129.82 114.82 129.89 114.91 129.89 115.01C129.89 114.97 129.95 114.97 129.96 115.01L129.92 115.03C129.92 115.03 129.93 115 129.97 115.03C129.97 115.07 129.92 115.06 129.91 115.04L129.93 115.08C129.93 115.08 129.91 115.08 129.89 115.08C129.92 115.1 129.86 115.16 129.91 115.19H129.9L129.93 115.44C129.93 115.44 129.96 115.48 129.99 115.5C129.98 115.57 129.95 115.64 129.95 115.72C129.97 115.78 129.98 115.74 130 115.76C129.97 115.76 129.97 115.84 129.94 115.8C129.94 115.9 129.94 115.92 129.97 116.04C129.98 116.03 129.99 116.01 130 116.02C130 116.04 129.98 116.07 129.97 116.07C130.02 116.2 129.85 116.37 129.91 116.48L129.93 116.59C129.92 116.64 129.91 116.56 129.88 116.59C129.92 116.72 129.85 116.78 129.87 116.88C129.76 116.94 129.83 117.15 129.74 117.23H129.76C129.76 117.23 129.74 117.26 129.73 117.28C129.75 117.28 129.76 117.26 129.77 117.28C129.74 117.51 129.61 117.71 129.49 117.89C129.45 117.96 129.58 117.99 129.48 118.05L129.46 118C129.42 118.17 129.28 118.27 129.2 118.4C129.2 118.39 129.2 118.38 129.2 118.37C129.16 118.37 129.11 118.45 129.13 118.47C129.11 118.48 129.11 118.45 129.09 118.45C129.05 118.45 129.05 118.53 129.02 118.51C129.02 118.51 129.02 118.5 129.02 118.49C129.02 118.51 128.94 118.54 128.97 118.56C128.91 118.56 128.88 118.61 128.83 118.61C128.82 118.66 128.74 118.63 128.74 118.68C128.73 118.62 128.63 118.65 128.6 118.68C128.6 118.66 128.57 118.67 128.58 118.64C128.54 118.65 128.5 118.66 128.51 118.69C128.43 118.62 128.35 118.75 128.31 118.65C128.19 118.68 128.07 118.67 127.95 118.65C127.97 118.6 128.08 118.67 128.08 118.61C127.97 118.62 127.9 118.64 127.8 118.58C127.78 118.56 127.83 118.56 127.84 118.56C127.73 118.55 127.66 118.47 127.56 118.44C127.56 118.44 127.58 118.44 127.59 118.44C127.57 118.44 127.56 118.41 127.54 118.44H127.56C127.56 118.49 127.45 118.47 127.43 118.48C127.5 118.44 127.36 118.41 127.46 118.36C127.45 118.36 127.43 118.36 127.42 118.37C127.41 118.35 127.42 118.34 127.44 118.34C127.38 118.31 127.38 118.34 127.33 118.3C127.33 118.3 127.35 118.3 127.37 118.29C127.33 118.29 127.29 118.29 127.25 118.24C127.25 118.24 127.26 118.22 127.27 118.24C127.2 118.19 127.11 118.17 127.06 118.08C127.12 118.07 127.06 118.04 127.09 118.01L127.04 117.98V118.01C127.04 118.01 126.95 117.96 126.94 117.91L126.98 117.93L126.92 117.86V117.91C126.92 117.91 126.89 117.95 126.86 117.89C126.87 117.89 126.83 117.85 126.84 117.81C126.84 117.81 126.78 117.79 126.77 117.75C126.77 117.73 126.82 117.73 126.83 117.72C126.78 117.72 126.76 117.63 126.71 117.62C126.72 117.62 126.75 117.62 126.75 117.61H126.71C126.71 117.61 126.71 117.58 126.73 117.57C126.7 117.51 126.68 117.62 126.67 117.53C126.67 117.53 126.67 117.53 126.69 117.53C126.67 117.45 126.59 117.4 126.58 117.32C126.62 117.28 126.62 117.38 126.64 117.33C126.59 117.24 126.5 117.15 126.47 117.04V117.06C126.4 117.07 126.47 116.97 126.43 116.93C126.43 116.94 126.47 116.93 126.46 116.93C126.45 116.86 126.4 116.8 126.34 116.7H126.36C126.36 116.7 126.34 116.6 126.34 116.55C126.32 116.55 126.32 116.51 126.29 116.54C126.36 116.38 126.17 116.29 126.24 116.15C126.24 116.16 126.26 116.18 126.26 116.17L126.23 116.07C126.23 116.07 126.21 116.09 126.19 116.11C126.17 116.1 126.15 116.07 126.15 116.04C126.18 116.09 126.2 116.04 126.21 116.01C126.21 116.01 126.19 116.01 126.18 116.01C126.23 115.95 126.11 116.01 126.15 115.93H126.17C126.17 115.93 126.14 115.88 126.14 115.85C126.17 115.83 126.16 115.88 126.19 115.88C126.19 115.84 126.12 115.8 126.15 115.76L126.17 115.82C126.17 115.82 126.2 115.77 126.2 115.74V115.69C126.11 115.64 126.18 115.58 126.12 115.51C126.18 115.58 126.15 115.52 126.19 115.53C126.2 115.51 126.21 115.48 126.23 115.49C126.2 115.46 126.26 115.43 126.21 115.38C126.22 115.38 126.21 115.34 126.24 115.35C126.24 115.31 126.22 115.35 126.2 115.35C126.15 115.28 126.27 115.2 126.22 115.09C126.21 115 126.16 114.98 126.16 114.9C126.19 114.88 126.2 114.93 126.2 114.93C126.23 114.89 126.23 114.86 126.23 114.82C126.23 114.83 126.25 114.82 126.27 114.82C126.27 114.79 126.23 114.79 126.26 114.75C126.27 114.76 126.29 114.78 126.3 114.79L126.28 114.67C126.28 114.67 126.31 114.7 126.32 114.72C126.32 114.67 126.33 114.61 126.31 114.58L126.29 114.6C126.29 114.6 126.32 114.6 126.32 114.62C126.33 114.66 126.29 114.67 126.28 114.67V114.64C126.2 114.64 126.26 114.76 126.25 114.81L126.2 114.77L126.23 114.84C126.23 114.84 126.18 114.85 126.18 114.82C126.14 114.86 126.19 114.86 126.15 114.89V114.93C126.15 114.93 126.12 114.93 126.13 114.91C126.08 114.98 126.15 115.04 126.11 115.06C126.11 115.16 126.15 115.06 126.19 115.15L126.08 115.19H126.12C126.12 115.19 126.12 115.23 126.1 115.23C126.12 115.27 126.12 115.23 126.14 115.25C126.09 115.3 126.15 115.39 126.09 115.4C126.12 115.42 126.11 115.35 126.14 115.4C126.07 115.41 126.15 115.46 126.12 115.51C126.08 115.5 126.1 115.45 126.07 115.5C126.13 115.53 126.05 115.59 126.07 115.63C126.12 115.63 126.1 115.72 126.12 115.78C126.1 115.78 126.1 115.91 126.09 115.97C126.09 115.97 126.14 116.04 126.15 116.08C126.12 116.08 126.11 116.08 126.09 116.05V116.09C126.09 116.09 126.12 116.11 126.13 116.14H126.09C126.1 116.19 126.15 116.24 126.14 116.32C126.17 116.32 126.22 116.25 126.26 116.32C126.24 116.32 126.21 116.33 126.2 116.32C126.2 116.32 126.22 116.34 126.21 116.36L126.17 116.33C126.17 116.33 126.2 116.34 126.2 116.37C126.17 116.37 126.19 116.39 126.16 116.39C126.16 116.39 126.16 116.37 126.16 116.36C126.16 116.39 126.16 116.43 126.14 116.45C126.15 116.45 126.17 116.45 126.18 116.46C126.19 116.52 126.15 116.49 126.15 116.52C126.17 116.52 126.16 116.57 126.2 116.56C126.2 116.58 126.19 116.58 126.18 116.59C126.2 116.62 126.22 116.73 126.25 116.68C126.31 116.76 126.29 116.88 126.33 116.96H126.32C126.35 117.01 126.37 117.08 126.41 117.11C126.41 117.13 126.41 117.16 126.39 117.15C126.42 117.19 126.43 117.19 126.44 117.25C126.4 117.22 126.43 117.27 126.41 117.21C126.42 117.27 126.41 117.29 126.46 117.33C126.42 117.33 126.44 117.39 126.46 117.41V117.36C126.46 117.36 126.49 117.41 126.5 117.44H126.45C126.45 117.58 126.63 117.59 126.6 117.72C126.64 117.73 126.59 117.65 126.63 117.66C126.65 117.71 126.63 117.79 126.63 117.81C126.65 117.89 126.72 117.83 126.75 117.91C126.75 117.89 126.79 117.86 126.83 117.91C126.86 117.96 126.81 118 126.78 117.98C126.78 117.97 126.78 117.96 126.78 117.96C126.77 117.95 126.75 117.93 126.74 117.96H126.76C126.76 117.96 126.81 118.05 126.78 118.05C126.82 118.08 126.81 118.05 126.8 118.02C126.82 118.09 126.87 118.11 126.9 118.18C126.9 118.17 126.9 118.15 126.91 118.15C126.96 118.24 126.96 118.17 127.02 118.22C127.02 118.27 126.97 118.25 127.03 118.29C127.05 118.34 127.01 118.33 126.98 118.32C127.04 118.35 127.06 118.42 127.08 118.46L127.04 118.44C127.04 118.44 127.07 118.46 127.09 118.47V118.43C127.09 118.43 127.12 118.46 127.11 118.47C127.14 118.47 127.13 118.42 127.18 118.43C127.19 118.46 127.25 118.47 127.23 118.51C127.17 118.44 127.21 118.55 127.15 118.51C127.16 118.51 127.18 118.53 127.19 118.55C127.19 118.55 127.19 118.55 127.18 118.55C127.22 118.63 127.24 118.55 127.31 118.59C127.29 118.6 127.31 118.64 127.31 118.64C127.28 118.62 127.31 118.6 127.36 118.6C127.4 118.65 127.42 118.62 127.44 118.64L127.42 118.61C127.42 118.61 127.46 118.61 127.5 118.63C127.5 118.65 127.46 118.63 127.47 118.63C127.53 118.62 127.53 118.72 127.6 118.72C127.62 118.75 127.58 118.76 127.6 118.78C127.68 118.78 127.66 118.84 127.74 118.84C127.74 118.8 127.73 118.81 127.78 118.8L127.66 118.77H127.75C127.75 118.77 127.67 118.75 127.66 118.73C127.7 118.73 127.7 118.73 127.69 118.7C127.72 118.76 127.79 118.71 127.83 118.76L127.8 118.83C127.87 118.9 127.96 118.83 128.06 118.88L128.03 118.86C128.03 118.86 128.1 118.86 128.13 118.86C128.13 118.89 128.14 118.9 128.16 118.92C128.16 118.9 128.24 118.93 128.26 118.88L128.31 118.92C128.4 118.93 128.41 118.85 128.49 118.86C128.47 118.89 128.51 118.91 128.45 118.93C128.48 118.93 128.51 118.93 128.5 118.92C128.52 118.94 128.58 118.87 128.6 118.9C128.61 118.89 128.61 118.86 128.64 118.85V118.86C128.64 118.85 128.69 118.83 128.65 118.81C128.76 118.88 128.88 118.75 128.97 118.78C129.03 118.75 129.09 118.71 129.13 118.67V118.68C129.21 118.66 129.13 118.59 129.22 118.57C129.28 118.57 129.2 118.61 129.22 118.61C129.29 118.67 129.3 118.54 129.37 118.53C129.42 118.53 129.43 118.44 129.48 118.39C129.48 118.32 129.52 118.24 129.55 118.17C129.57 118.21 129.55 118.21 129.58 118.21C129.59 118.18 129.53 118.19 129.56 118.13C129.59 118.13 129.62 118.09 129.66 118.11L129.63 118.16C129.69 118.16 129.67 118.09 129.69 118.07H129.71C129.75 118 129.71 117.97 129.75 117.89H129.73C129.7 117.82 129.77 117.86 129.76 117.8H129.81C129.81 117.8 129.81 117.67 129.82 117.61C129.84 117.66 129.83 117.73 129.84 117.78C129.85 117.75 129.88 117.67 129.86 117.64C129.86 117.65 129.86 117.68 129.86 117.69C129.84 117.64 129.84 117.58 129.86 117.51C129.95 117.55 129.94 117.35 130.03 117.32C130.02 117.19 130.11 117.09 130.12 116.95C130.03 116.99 130.12 116.91 130.04 116.9C130.04 116.87 130.04 116.86 130.04 116.85L130.1 116.76C130.1 116.76 130.11 116.79 130.13 116.79C130.15 116.72 130.17 116.77 130.2 116.72C130.17 116.72 130.16 116.69 130.18 116.65L130.14 116.7C130.11 116.59 130.22 116.62 130.19 116.52L130.21 116.55C130.21 116.5 130.23 116.36 130.17 116.3C130.18 116.3 130.2 116.28 130.21 116.3C130.23 116.18 130.16 116.02 130.21 115.93H130.23C130.23 115.93 130.19 115.9 130.21 115.87H130.23C130.23 115.86 130.2 115.81 130.21 115.78L130.23 115.81C130.26 115.69 130.18 115.62 130.16 115.52C130.22 115.52 130.24 115.42 130.24 115.38C130.24 115.24 130.19 115.15 130.14 115.01C130.2 114.92 130.13 114.72 130.11 114.58C130.11 114.6 130.07 114.58 130.05 114.57C130.05 114.54 129.99 114.5 130.04 114.49C130.04 114.49 130.04 114.4 130.03 114.36L129.96 114.38C130.01 114.21 129.78 114.09 129.82 113.98C129.79 113.96 129.77 113.93 129.74 113.91L129.77 113.89C129.74 113.81 129.71 113.77 129.64 113.69H129.68C129.68 113.69 129.55 113.69 129.51 113.65L129.54 113.6C129.47 113.52 129.43 113.41 129.32 113.36C129.32 113.36 129.34 113.35 129.35 113.36C129.32 113.32 129.23 113.19 129.19 113.27C129.22 113.23 129.11 113.19 129.05 113.18L129.08 113.16C129.01 113.16 129.01 113.17 128.94 113.15C128.93 113.14 128.94 113.12 128.96 113.14C128.92 113.1 128.9 113.14 128.86 113.1H128.89C128.89 113.1 128.84 113.07 128.8 113.08C128.76 113.08 128.72 113.02 128.72 112.98C128.7 113 128.67 113 128.64 112.98C128.64 112.97 128.66 112.96 128.66 112.96C128.58 112.9 128.51 112.95 128.47 112.89C128.47 112.88 128.47 112.87 128.47 112.87C128.54 112.9 128.59 112.92 128.59 112.92C128.6 112.89 128.55 112.86 128.61 112.83C128.55 112.83 128.46 112.86 128.41 112.83V112.81C128.41 112.81 128.39 112.8 128.38 112.81C128.36 112.81 128.35 112.79 128.33 112.79C128.33 112.76 128.26 112.76 128.23 112.76C128.23 112.8 128.19 112.78 128.22 112.82C128.22 112.82 128.22 112.82 128.25 112.82H128.34C128.34 112.82 128.28 112.86 128.26 112.83L128.21 112.88C128.18 112.82 128.1 112.78 128.09 112.75C127.99 112.76 127.86 112.77 127.81 112.84C127.79 112.85 127.78 112.82 127.77 112.81C127.78 112.81 127.8 112.81 127.81 112.79C127.76 112.8 127.66 112.82 127.66 112.88C127.59 112.88 127.68 112.83 127.6 112.86V112.84C127.4 112.81 127.39 113.05 127.18 113.06C127.2 113.06 127.2 113.06 127.21 113.06C127 113.14 126.88 113.37 126.7 113.49C126.65 113.53 126.67 113.55 126.67 113.6H126.63V113.66C126.6 113.75 126.45 113.73 126.45 113.86H126.48C126.48 113.86 126.43 113.98 126.41 113.96C126.41 113.96 126.43 113.99 126.41 113.99H126.39L126.37 114.08C126.32 114.14 126.3 114.03 126.24 114.13C126.23 114.17 126.24 114.26 126.26 114.25C126.26 114.24 126.29 114.22 126.31 114.23V114.27C126.31 114.27 126.4 114.35 126.48 114.3V114.23H126.51L126.49 114.27C126.49 114.27 126.52 114.23 126.51 114.2C126.53 114.2 126.54 114.2 126.55 114.2L126.53 114.12C126.53 114.12 126.56 114.17 126.59 114.14C126.58 114.1 126.53 114.14 126.54 114.09C126.58 114.08 126.59 114.09 126.59 114.05C126.61 114.05 126.61 114.07 126.61 114.08C126.61 114.04 126.64 114 126.62 113.97C126.66 113.97 126.66 113.87 126.71 113.91C126.71 113.89 126.71 113.84 126.71 113.82C126.74 113.9 126.78 113.74 126.83 113.79C126.8 113.72 126.89 113.67 126.9 113.59V113.61C126.93 113.58 126.95 113.59 126.97 113.58C126.93 113.54 126.97 113.49 126.97 113.45C127.04 113.45 126.99 113.51 127.04 113.54C127.01 113.51 127.07 113.46 127.04 113.44C127.09 113.44 127.07 113.44 127.12 113.45C127.08 113.4 127.14 113.42 127.13 113.37C127.19 113.37 127.18 113.41 127.21 113.36C127.24 113.36 127.22 113.41 127.22 113.41L127.28 113.47ZM128.53 113.16L128.49 113.14C128.49 113.14 128.49 113.12 128.51 113.12C128.51 113.12 128.52 113.14 128.54 113.16H128.53ZM128.36 112.84C128.36 112.84 128.39 112.84 128.39 112.85H128.36V112.84Z" fill="white"/>
<path d="M126.23 116.69L126.24 116.68L126.23 116.69Z" fill="white"/>
<path d="M129.6 114.24H129.61L129.6 114.23V114.24Z" fill="white"/>
<path d="M126.84 117.801L126.87 117.821C126.87 117.821 126.86 117.791 126.84 117.801Z" fill="white"/>
<path d="M128.56 118.631V118.641L128.57 118.631H128.56Z" fill="white"/>
<path d="M126.9 117.86C126.9 117.86 126.89 117.83 126.87 117.82C126.87 117.83 126.88 117.85 126.9 117.86Z" fill="white"/>
<path d="M126.38 114.641L126.39 114.631H126.38V114.641Z" fill="white"/>
<path d="M126.28 114.99C126.28 114.99 126.32 114.95 126.32 114.92C126.32 114.92 126.27 114.97 126.29 114.99H126.28Z" fill="white"/>
<path d="M126.08 115.33C126.08 115.33 126.08 115.28 126.09 115.26C126.07 115.27 126.05 115.29 126.05 115.26C126 115.35 126.08 115.24 126.07 115.34L126.08 115.33Z" fill="white"/>
<path d="M126.05 115.561C126.05 115.561 126.03 115.561 126.02 115.561C126.03 115.591 126.04 115.591 126.05 115.561Z" fill="white"/>
<path d="M126.65 117.399L126.66 117.369H126.63L126.65 117.399Z" fill="white"/>
<path d="M126.53 117.68L126.52 117.67L126.55 117.71L126.53 117.68Z" fill="white"/>
<path d="M128.95 118.87L128.93 118.83C128.93 118.83 128.93 118.89 128.95 118.87Z" fill="white"/>
<path d="M129.8 117.97C129.8 117.97 129.85 117.94 129.84 117.91C129.83 117.93 129.8 117.95 129.8 117.97Z" fill="white"/>
<path d="M130.04 114.37L130.07 114.39L130.04 114.35V114.37Z" fill="white"/>
<g style="mix-blend-mode:soft-light" opacity="0.4">
<g style="mix-blend-mode:soft-light" opacity="0.4">
<path d="M122.65 115.96C121.37 116.39 120.77 117.99 122.23 118.75C123.15 119.23 124.08 118.73 124.16 117.71C124.24 116.69 124.17 115.45 122.65 115.96Z" fill="#F0E1A0"/>
</g>
</g>
<path d="M63.5999 114.36C64.9599 111.51 67.2299 113.63 67.3199 115.2C67.4099 116.77 67.1499 118.99 65.4599 118.83C63.7699 118.67 62.9299 115.77 63.5999 114.36V114.36Z" fill="white"/>
<path d="M63.6796 114.401C63.6796 114.401 63.6496 114.381 63.6396 114.401L63.6696 114.431V114.391L63.6796 114.401Z" fill="white"/>
<path d="M63.5498 114.5C63.5498 114.5 63.5798 114.57 63.6298 114.57C63.5998 114.53 63.6198 114.53 63.5798 114.49C63.5798 114.47 63.6098 114.46 63.6198 114.47C63.6198 114.46 63.6398 114.44 63.6198 114.42C63.5798 114.43 63.5598 114.47 63.5798 114.51C63.5698 114.51 63.5598 114.51 63.5498 114.5Z" fill="white"/>
<path d="M63.3103 116.11L63.3003 116.09H63.2803L63.3103 116.11Z" fill="white"/>
<path d="M63.26 115.631C63.26 115.631 63.3 115.641 63.31 115.651C63.29 115.651 63.29 115.641 63.28 115.631C63.28 115.631 63.26 115.631 63.25 115.631H63.26Z" fill="white"/>
<path d="M63.5903 114.35L63.5703 114.34L63.5903 114.35Z" fill="white"/>
<path d="M67.3896 116.941C67.3896 116.941 67.3596 116.861 67.3096 116.921C67.3296 116.921 67.3596 116.991 67.3896 116.941Z" fill="white"/>
<path d="M66.23 118.811H66.22L66.21 118.821L66.23 118.811Z" fill="white"/>
<path d="M64.8003 113.209C64.8003 113.209 64.7803 113.199 64.7703 113.189C64.7903 113.209 64.7403 113.249 64.8003 113.209Z" fill="white"/>
<path d="M63.54 114.811C63.54 114.811 63.55 114.811 63.55 114.821L63.54 114.811Z" fill="white"/>
<path d="M66.0098 118.59C66.0098 118.59 66.0398 118.6 66.0498 118.6H66.0098V118.59Z" fill="white"/>
<path d="M64.5004 113.47C64.5004 113.47 64.4904 113.41 64.4804 113.38C64.5204 113.32 64.5204 113.38 64.5604 113.39C64.5904 113.36 64.5904 113.31 64.6204 113.29C64.6204 113.29 64.6304 113.29 64.6304 113.31C64.6504 113.25 64.7404 113.24 64.7604 113.17H64.7704C64.7704 113.17 64.7404 113.14 64.7304 113.12C64.7504 113.1 64.7604 113.07 64.7804 113.1C64.7604 113.1 64.7704 113.12 64.7704 113.13L64.7904 113.11C64.7904 113.11 64.7604 113.13 64.7804 113.17C64.8204 113.14 64.8704 113.09 64.9104 113.09C64.9304 113.13 64.8304 113.13 64.8904 113.15H64.8304C64.9004 113.2 64.7904 113.15 64.8604 113.22C64.9404 113.22 64.9304 113.17 65.0104 113.17C65.0204 113.14 65.0004 113.14 65.0104 113.11C65.1104 113.03 65.1104 113.21 65.1804 113.14C65.2004 113.11 65.2004 113.05 65.2604 113.08L65.2404 113.13C65.3104 113.13 65.2804 113.05 65.3604 113.09C65.3404 113.1 65.3004 113.11 65.3104 113.11C65.3604 113.15 65.3504 113.08 65.3904 113.09V113.14C65.4704 113.15 65.5704 113.12 65.6604 113.14C65.6604 113.15 65.6304 113.16 65.6504 113.18C65.7604 113.2 65.8804 113.26 65.9504 113.35H66.0104V113.36C66.0404 113.39 66.0204 113.34 66.0504 113.34C66.0704 113.35 66.0704 113.38 66.0504 113.38C66.1404 113.38 66.2704 113.45 66.3104 113.54H66.2904C66.3304 113.59 66.4004 113.52 66.4204 113.59H66.4104C66.4904 113.7 66.6404 113.78 66.6504 113.91C66.7104 113.89 66.7104 114.04 66.7804 114C66.8004 114.09 66.7804 114.07 66.8104 114.18C66.8204 114.21 66.8704 114.19 66.9004 114.22L66.8604 114.24L66.9204 114.26L66.8904 114.31L66.9204 114.33C66.9204 114.33 66.9204 114.3 66.9304 114.29C66.9804 114.33 66.9604 114.42 66.9404 114.43L67.0204 114.53C67.0204 114.53 66.9904 114.52 66.9704 114.51C67.0404 114.56 66.9304 114.54 66.9904 114.58C66.9904 114.57 67.0104 114.58 67.0204 114.58C67.0204 114.62 67.0404 114.68 67.0604 114.73H67.0304C67.0404 114.82 67.1104 114.91 67.1104 115.01C67.1104 114.97 67.1704 114.97 67.1804 115.01L67.1404 115.03C67.1404 115.03 67.1504 115 67.1904 115.03C67.1904 115.07 67.1404 115.06 67.1304 115.04L67.1504 115.08C67.1504 115.08 67.1304 115.08 67.1104 115.08C67.1404 115.1 67.0804 115.16 67.1304 115.19H67.1204L67.1504 115.44C67.1504 115.44 67.1804 115.48 67.2104 115.5C67.2004 115.57 67.1704 115.64 67.1704 115.72C67.1904 115.78 67.2004 115.74 67.2204 115.76C67.1904 115.76 67.1904 115.84 67.1604 115.8C67.1604 115.9 67.1604 115.92 67.1904 116.04C67.2004 116.03 67.2104 116.01 67.2204 116.02C67.2204 116.04 67.2004 116.07 67.1904 116.07C67.2404 116.2 67.0704 116.37 67.1304 116.48L67.1504 116.59C67.1404 116.64 67.1304 116.56 67.1004 116.59C67.1404 116.72 67.0704 116.78 67.0904 116.88C66.9804 116.94 67.0504 117.15 66.9604 117.23H66.9804C66.9804 117.23 66.9604 117.26 66.9504 117.28C66.9704 117.28 66.9804 117.26 66.9904 117.28C66.9604 117.51 66.8304 117.71 66.7104 117.89C66.6704 117.96 66.8004 117.99 66.7004 118.05L66.6804 118C66.6404 118.17 66.5004 118.27 66.4204 118.4C66.4204 118.39 66.4204 118.38 66.4204 118.37C66.3804 118.37 66.3304 118.45 66.3504 118.47C66.3304 118.48 66.3304 118.45 66.3104 118.45C66.2704 118.45 66.2704 118.53 66.2404 118.51C66.2404 118.51 66.2404 118.5 66.2404 118.49C66.2404 118.51 66.1604 118.54 66.1904 118.56C66.1304 118.56 66.1004 118.61 66.0504 118.61C66.0404 118.66 65.9604 118.63 65.9604 118.68C65.9504 118.62 65.8504 118.65 65.8204 118.68C65.8204 118.66 65.7904 118.67 65.8004 118.64C65.7604 118.65 65.7204 118.66 65.7304 118.69C65.6504 118.62 65.5704 118.75 65.5304 118.65C65.4104 118.68 65.2904 118.67 65.1704 118.65C65.1904 118.6 65.3004 118.67 65.3004 118.61C65.1904 118.62 65.1204 118.64 65.0204 118.58C65.0004 118.56 65.0504 118.56 65.0604 118.56C64.9504 118.55 64.8804 118.47 64.7804 118.44C64.7804 118.44 64.8004 118.44 64.8104 118.44C64.7904 118.44 64.7804 118.41 64.7604 118.44H64.7804C64.7804 118.49 64.6704 118.47 64.6504 118.48C64.7204 118.44 64.5804 118.41 64.6804 118.36C64.6704 118.36 64.6504 118.36 64.6404 118.37C64.6304 118.35 64.6404 118.34 64.6604 118.34C64.6004 118.31 64.6004 118.34 64.5504 118.3C64.5504 118.3 64.5704 118.3 64.5904 118.29C64.5504 118.29 64.5104 118.29 64.4704 118.24C64.4704 118.24 64.4804 118.22 64.4904 118.24C64.4204 118.19 64.3304 118.17 64.2804 118.08C64.3404 118.07 64.2804 118.04 64.3104 118.01L64.2604 117.98V118.01C64.2604 118.01 64.1704 117.96 64.1604 117.91L64.2004 117.93L64.1404 117.86V117.91C64.1404 117.91 64.1004 117.95 64.0804 117.89C64.0904 117.89 64.0504 117.85 64.0604 117.81C64.0604 117.81 64.0004 117.79 63.9904 117.75C63.9904 117.73 64.0404 117.73 64.0504 117.72C64.0004 117.72 63.9804 117.63 63.9304 117.62C63.9404 117.62 63.9704 117.62 63.9704 117.61H63.9304C63.9304 117.61 63.9304 117.58 63.9504 117.57C63.9204 117.51 63.9004 117.62 63.8904 117.53C63.8904 117.53 63.8904 117.53 63.9104 117.53C63.8904 117.45 63.8104 117.4 63.8004 117.32C63.8404 117.28 63.8404 117.38 63.8604 117.33C63.8104 117.24 63.7204 117.15 63.6904 117.04V117.06C63.6204 117.07 63.6904 116.97 63.6504 116.93C63.6504 116.94 63.6904 116.93 63.6804 116.93C63.6704 116.86 63.6204 116.8 63.5604 116.7H63.5804C63.5804 116.7 63.5604 116.6 63.5604 116.55C63.5404 116.55 63.5404 116.51 63.5104 116.54C63.5804 116.38 63.3904 116.29 63.4604 116.15C63.4604 116.16 63.4804 116.18 63.4804 116.17L63.4504 116.07C63.4504 116.07 63.4304 116.09 63.4104 116.11C63.3904 116.1 63.3704 116.07 63.3704 116.04C63.4004 116.09 63.4204 116.04 63.4304 116.01C63.4304 116.01 63.4104 116.01 63.4004 116.01C63.4504 115.95 63.3304 116.01 63.3704 115.93H63.3904C63.3904 115.93 63.3604 115.88 63.3604 115.85C63.3904 115.83 63.3804 115.88 63.4104 115.88C63.4104 115.84 63.3404 115.8 63.3704 115.76L63.3904 115.82C63.3904 115.82 63.4204 115.77 63.4204 115.74V115.69C63.3304 115.64 63.4004 115.58 63.3404 115.51C63.4004 115.58 63.3704 115.52 63.4104 115.53C63.4204 115.51 63.4304 115.48 63.4504 115.49C63.4204 115.46 63.4804 115.43 63.4304 115.38C63.4404 115.38 63.4304 115.34 63.4604 115.35C63.4604 115.31 63.4404 115.35 63.4204 115.35C63.3704 115.28 63.4904 115.2 63.4404 115.09C63.4304 115 63.3804 114.98 63.3804 114.9C63.4104 114.88 63.4204 114.93 63.4204 114.93C63.4504 114.89 63.4504 114.86 63.4504 114.82C63.4504 114.83 63.4704 114.82 63.4904 114.82C63.4904 114.79 63.4504 114.79 63.4804 114.75C63.4904 114.76 63.5104 114.78 63.5204 114.79L63.5004 114.67C63.5004 114.67 63.5304 114.7 63.5404 114.72C63.5404 114.67 63.5504 114.61 63.5304 114.58L63.5104 114.6C63.5104 114.6 63.5404 114.6 63.5404 114.62C63.5504 114.66 63.5104 114.67 63.5004 114.67V114.64C63.4204 114.64 63.4804 114.76 63.4704 114.81L63.4204 114.77L63.4504 114.84C63.4504 114.84 63.4004 114.85 63.4004 114.82C63.3604 114.86 63.4104 114.86 63.3704 114.89V114.93C63.3704 114.93 63.3404 114.93 63.3504 114.91C63.3004 114.98 63.3704 115.04 63.3304 115.06C63.3304 115.16 63.3704 115.06 63.4104 115.15L63.3004 115.19H63.3404C63.3404 115.19 63.3404 115.23 63.3204 115.23C63.3404 115.27 63.3404 115.23 63.3604 115.25C63.3104 115.3 63.3704 115.39 63.3104 115.4C63.3404 115.42 63.3304 115.35 63.3604 115.4C63.2904 115.41 63.3704 115.46 63.3404 115.51C63.3004 115.5 63.3204 115.45 63.2904 115.5C63.3504 115.53 63.2704 115.59 63.2904 115.63C63.3404 115.63 63.3204 115.72 63.3404 115.78C63.3204 115.78 63.3204 115.91 63.3104 115.97C63.3104 115.97 63.3604 116.04 63.3704 116.08C63.3404 116.08 63.3304 116.08 63.3104 116.05V116.09C63.3104 116.09 63.3404 116.11 63.3504 116.14H63.3104C63.3204 116.19 63.3704 116.24 63.3604 116.32C63.3904 116.32 63.4404 116.25 63.4804 116.32C63.4604 116.32 63.4304 116.33 63.4204 116.32C63.4204 116.32 63.4404 116.34 63.4304 116.36L63.3904 116.33C63.3904 116.33 63.4204 116.34 63.4204 116.37C63.3904 116.37 63.4104 116.39 63.3804 116.39C63.3804 116.39 63.3804 116.37 63.3804 116.36C63.3804 116.39 63.3804 116.43 63.3604 116.45C63.3704 116.45 63.3904 116.45 63.4004 116.46C63.4104 116.52 63.3704 116.49 63.3704 116.52C63.3904 116.52 63.3804 116.57 63.4204 116.56C63.4204 116.58 63.4104 116.58 63.4004 116.59C63.4204 116.62 63.4404 116.73 63.4704 116.68C63.5304 116.76 63.5104 116.88 63.5504 116.96H63.5404C63.5704 117.01 63.5904 117.08 63.6304 117.11C63.6304 117.13 63.6304 117.16 63.6104 117.15C63.6404 117.19 63.6504 117.19 63.6604 117.25C63.6204 117.22 63.6504 117.27 63.6304 117.21C63.6404 117.27 63.6304 117.29 63.6804 117.33C63.6404 117.33 63.6604 117.39 63.6804 117.41V117.36C63.6804 117.36 63.7104 117.41 63.7204 117.44H63.6704C63.6704 117.58 63.8504 117.59 63.8204 117.72C63.8604 117.73 63.8104 117.65 63.8504 117.66C63.8704 117.71 63.8504 117.79 63.8504 117.81C63.8704 117.89 63.9404 117.83 63.9704 117.91C63.9704 117.89 64.0104 117.86 64.0504 117.91C64.0804 117.96 64.0304 118 64.0004 117.98C64.0004 117.97 64.0004 117.96 64.0004 117.96C63.9904 117.95 63.9704 117.93 63.9604 117.96H63.9804C63.9804 117.96 64.0304 118.05 64.0004 118.05C64.0404 118.08 64.0304 118.05 64.0204 118.02C64.0404 118.09 64.0904 118.11 64.1204 118.18C64.1204 118.17 64.1204 118.15 64.1304 118.15C64.1804 118.24 64.1804 118.17 64.2404 118.22C64.2404 118.27 64.1904 118.25 64.2504 118.29C64.2704 118.34 64.2304 118.33 64.2004 118.32C64.2604 118.35 64.2804 118.42 64.3004 118.46L64.2604 118.44C64.2604 118.44 64.2904 118.46 64.3104 118.47V118.43C64.3104 118.43 64.3404 118.46 64.3304 118.47C64.3604 118.47 64.3504 118.42 64.4004 118.43C64.4104 118.46 64.4704 118.47 64.4504 118.51C64.3904 118.44 64.4304 118.55 64.3704 118.51C64.3804 118.51 64.4004 118.53 64.4104 118.55C64.4104 118.55 64.4104 118.55 64.4004 118.55C64.4404 118.63 64.4604 118.55 64.5304 118.59C64.5104 118.6 64.5304 118.64 64.5304 118.64C64.5004 118.62 64.5304 118.6 64.5804 118.6C64.6204 118.65 64.6404 118.62 64.6604 118.64L64.6404 118.61C64.6404 118.61 64.6804 118.61 64.7204 118.63C64.7204 118.65 64.6804 118.63 64.6904 118.63C64.7504 118.62 64.7504 118.72 64.8204 118.72C64.8404 118.75 64.8004 118.76 64.8204 118.78C64.9004 118.78 64.8804 118.84 64.9604 118.84C64.9604 118.8 64.9504 118.81 65.0004 118.8L64.8804 118.77H64.9704C64.9704 118.77 64.8904 118.75 64.8804 118.73C64.9204 118.73 64.9204 118.73 64.9104 118.7C64.9404 118.76 65.0104 118.71 65.0504 118.76L65.0204 118.83C65.0904 118.9 65.1804 118.83 65.2804 118.88L65.2504 118.86C65.2504 118.86 65.3204 118.86 65.3504 118.86C65.3504 118.89 65.3604 118.9 65.3804 118.92C65.3804 118.9 65.4604 118.93 65.4804 118.88L65.5304 118.92C65.6204 118.93 65.6304 118.85 65.7104 118.86C65.6904 118.89 65.7304 118.91 65.6704 118.93C65.7004 118.93 65.7304 118.93 65.7204 118.92C65.7404 118.94 65.8004 118.87 65.8204 118.9C65.8304 118.89 65.8304 118.86 65.8604 118.85V118.86C65.8604 118.85 65.9104 118.83 65.8704 118.81C65.9804 118.88 66.1004 118.75 66.1904 118.78C66.2504 118.75 66.3104 118.71 66.3504 118.67V118.68C66.4304 118.66 66.3504 118.59 66.4404 118.57C66.5004 118.57 66.4204 118.61 66.4404 118.61C66.5104 118.67 66.5204 118.54 66.5904 118.53C66.6404 118.53 66.6504 118.44 66.7004 118.39C66.7004 118.32 66.7404 118.24 66.7704 118.17C66.7904 118.21 66.7704 118.21 66.8004 118.21C66.8104 118.18 66.7504 118.19 66.7804 118.13C66.8104 118.13 66.8404 118.09 66.8804 118.11L66.8504 118.16C66.9104 118.16 66.8904 118.09 66.9104 118.07H66.9304C66.9704 118 66.9304 117.97 66.9704 117.89H66.9504C66.9204 117.82 66.9904 117.86 66.9804 117.8H67.0304C67.0304 117.8 67.0304 117.67 67.0404 117.61C67.0604 117.66 67.0504 117.73 67.0604 117.78C67.0704 117.75 67.1004 117.67 67.0804 117.64C67.0804 117.65 67.0804 117.68 67.0804 117.69C67.0604 117.64 67.0604 117.58 67.0804 117.51C67.1704 117.55 67.1604 117.35 67.2504 117.32C67.2404 117.19 67.3304 117.09 67.3404 116.95C67.2504 116.99 67.3404 116.91 67.2604 116.9C67.2604 116.87 67.2604 116.86 67.2604 116.85L67.3204 116.76C67.3204 116.76 67.3304 116.79 67.3504 116.79C67.3704 116.72 67.3904 116.77 67.4204 116.72C67.3904 116.72 67.3804 116.69 67.4004 116.65L67.3604 116.7C67.3304 116.59 67.4404 116.62 67.4104 116.52L67.4304 116.55C67.4304 116.5 67.4504 116.36 67.3904 116.3C67.4004 116.3 67.4204 116.28 67.4304 116.3C67.4504 116.18 67.3804 116.02 67.4304 115.93H67.4504C67.4504 115.93 67.4104 115.9 67.4304 115.87H67.4504C67.4504 115.86 67.4204 115.81 67.4304 115.78L67.4504 115.81C67.4804 115.69 67.4004 115.62 67.3804 115.52C67.4404 115.52 67.4604 115.42 67.4604 115.38C67.4604 115.24 67.4104 115.15 67.3604 115.01C67.4204 114.92 67.3504 114.72 67.3304 114.58C67.3304 114.6 67.2904 114.58 67.2704 114.57C67.2704 114.54 67.2104 114.5 67.2604 114.49C67.2604 114.49 67.2604 114.4 67.2504 114.36L67.1804 114.38C67.2304 114.21 67.0004 114.09 67.0404 113.98C67.0104 113.96 66.9904 113.93 66.9604 113.91L66.9904 113.89C66.9604 113.81 66.9304 113.77 66.8604 113.69H66.9004C66.9004 113.69 66.7704 113.69 66.7304 113.65L66.7604 113.6C66.6904 113.52 66.6504 113.41 66.5404 113.36C66.5404 113.36 66.5604 113.35 66.5704 113.36C66.5404 113.32 66.4504 113.19 66.4104 113.27C66.4404 113.23 66.3304 113.19 66.2704 113.18L66.3004 113.16C66.2304 113.16 66.2304 113.17 66.1604 113.15C66.1504 113.14 66.1604 113.12 66.1804 113.14C66.1404 113.1 66.1204 113.14 66.0804 113.1H66.1104C66.1104 113.1 66.0604 113.07 66.0204 113.08C65.9804 113.08 65.9404 113.02 65.9404 112.98C65.9204 113 65.8904 113 65.8604 112.98C65.8604 112.97 65.8804 112.96 65.8804 112.96C65.8004 112.9 65.7304 112.95 65.6904 112.89C65.6904 112.88 65.6904 112.87 65.6904 112.87C65.7604 112.9 65.8104 112.92 65.8104 112.92C65.8204 112.89 65.7704 112.86 65.8304 112.83C65.7704 112.83 65.6804 112.86 65.6304 112.83V112.81C65.6304 112.81 65.6104 112.8 65.6004 112.81C65.5804 112.81 65.5704 112.79 65.5504 112.79C65.5504 112.76 65.4804 112.76 65.4504 112.76C65.4504 112.8 65.4104 112.78 65.4404 112.82C65.4404 112.82 65.4404 112.82 65.4704 112.82H65.5604C65.5604 112.82 65.5004 112.86 65.4804 112.83L65.4304 112.88C65.4004 112.82 65.3204 112.78 65.3104 112.75C65.2104 112.76 65.0804 112.77 65.0304 112.84C65.0104 112.85 65.0004 112.82 64.9904 112.81C65.0004 112.81 65.0204 112.81 65.0304 112.79C64.9804 112.8 64.8804 112.82 64.8804 112.88C64.8104 112.88 64.9004 112.83 64.8204 112.86V112.84C64.6204 112.81 64.6104 113.05 64.4004 113.06C64.4204 113.06 64.4204 113.06 64.4304 113.06C64.2204 113.14 64.1004 113.37 63.9204 113.49C63.8704 113.53 63.8904 113.55 63.8904 113.6H63.8504V113.66C63.8204 113.75 63.6704 113.73 63.6704 113.86H63.7004C63.7004 113.86 63.6504 113.98 63.6304 113.96C63.6304 113.96 63.6504 113.99 63.6304 113.99H63.6104L63.5904 114.08C63.5404 114.14 63.5204 114.03 63.4604 114.13C63.4504 114.17 63.4604 114.26 63.4804 114.25C63.4804 114.24 63.5104 114.22 63.5304 114.23V114.27C63.5304 114.27 63.6204 114.35 63.7004 114.3V114.23H63.7304L63.7104 114.27C63.7104 114.27 63.7404 114.23 63.7304 114.2C63.7504 114.2 63.7604 114.2 63.7704 114.2L63.7504 114.12C63.7504 114.12 63.7804 114.17 63.8104 114.14C63.8004 114.1 63.7504 114.14 63.7604 114.09C63.8004 114.08 63.8104 114.09 63.8104 114.05C63.8304 114.05 63.8304 114.07 63.8304 114.08C63.8304 114.04 63.8604 114 63.8404 113.97C63.8804 113.97 63.8804 113.87 63.9304 113.91C63.9304 113.89 63.9304 113.84 63.9304 113.82C63.9604 113.9 64.0004 113.74 64.0504 113.79C64.0204 113.72 64.1104 113.67 64.1204 113.59V113.61C64.1504 113.58 64.1704 113.59 64.1904 113.58C64.1504 113.54 64.1904 113.49 64.1904 113.45C64.2604 113.45 64.2104 113.51 64.2604 113.54C64.2304 113.51 64.2904 113.46 64.2604 113.44C64.3104 113.44 64.2904 113.44 64.3404 113.45C64.3004 113.4 64.3604 113.42 64.3504 113.37C64.4104 113.37 64.4004 113.41 64.4304 113.36C64.4604 113.36 64.4404 113.41 64.4404 113.41L64.5004 113.47ZM65.7504 113.16L65.7104 113.14C65.7104 113.14 65.7104 113.12 65.7304 113.12C65.7304 113.12 65.7404 113.14 65.7604 113.16H65.7504ZM65.5804 112.84C65.5804 112.84 65.6104 112.84 65.6104 112.85H65.5804V112.84Z" fill="white"/>
<path d="M63.46 116.69L63.47 116.68L63.46 116.69Z" fill="white"/>
<path d="M66.8301 114.24H66.8401L66.8301 114.23V114.24Z" fill="white"/>
<path d="M64.0703 117.801L64.1003 117.821C64.1003 117.821 64.0903 117.791 64.0703 117.801Z" fill="white"/>
<path d="M65.79 118.631V118.641L65.8 118.631H65.79Z" fill="white"/>
<path d="M64.1296 117.86C64.1296 117.86 64.1196 117.83 64.0996 117.82C64.0996 117.83 64.1096 117.85 64.1296 117.86Z" fill="white"/>
<path d="M63.6104 114.641L63.6203 114.631H63.6104V114.641Z" fill="white"/>
<path d="M63.5098 114.99C63.5098 114.99 63.5498 114.95 63.5498 114.92C63.5498 114.92 63.4998 114.97 63.5198 114.99H63.5098Z" fill="white"/>
<path d="M63.3103 115.33C63.3103 115.33 63.3103 115.28 63.3203 115.26C63.3003 115.27 63.2802 115.29 63.2802 115.26C63.2302 115.35 63.3103 115.24 63.3003 115.34L63.3103 115.33Z" fill="white"/>
<path d="M63.28 115.561C63.28 115.561 63.26 115.561 63.25 115.561C63.26 115.591 63.27 115.591 63.28 115.561Z" fill="white"/>
<path d="M63.8796 117.399L63.8896 117.369H63.8496L63.8796 117.399Z" fill="white"/>
<path d="M63.7502 117.68L63.7402 117.67L63.7802 117.71L63.7502 117.68Z" fill="white"/>
<path d="M66.1704 118.87L66.1504 118.83C66.1504 118.83 66.1504 118.89 66.1704 118.87Z" fill="white"/>
<path d="M67.0303 117.97C67.0303 117.97 67.0803 117.94 67.0703 117.91C67.0603 117.93 67.0303 117.95 67.0303 117.97Z" fill="white"/>
<path d="M67.2698 114.37L67.2898 114.39L67.2598 114.35L67.2698 114.37Z" fill="white"/>
<g style="mix-blend-mode:soft-light" opacity="0.4">
<g style="mix-blend-mode:soft-light" opacity="0.4">
<path d="M59.8805 115.96C58.6005 116.39 58.0005 117.99 59.4605 118.75C60.3805 119.23 61.3105 118.73 61.3905 117.71C61.4705 116.69 61.4005 115.45 59.8805 115.96Z" fill="#F0E1A0"/>
</g>
</g>
</g>
<defs>
<linearGradient id="paint0_linear_316_18393" x1="125.661" y1="102.69" x2="125.661" y2="149.97" gradientUnits="userSpaceOnUse">
<stop stop-color="#7A5751"/>
<stop offset="0.42" stop-color="#7E5C57"/>
<stop offset="0.75" stop-color="#846460"/>
</linearGradient>
<linearGradient id="paint1_linear_316_18393" x1="62.4198" y1="102.91" x2="62.4198" y2="150.18" gradientUnits="userSpaceOnUse">
<stop stop-color="#7A5751"/>
<stop offset="0.41" stop-color="#7E5C57"/>
<stop offset="0.73" stop-color="#846460"/>
</linearGradient>
<clipPath id="clip0_316_18393">
<rect width="187.5" height="342.95" fill="white"/>
</clipPath>
</defs>
</svg>
