<svg width="180" height="274" viewBox="0 0 180 274" fill="none" xmlns="http://www.w3.org/2000/svg">
<g clip-path="url(#clip0_316_18160)">
<path d="M141.59 178.9C141.59 221.33 133.72 253.16 90.0898 253.16C46.4598 253.16 38.5898 221.33 38.5898 178.9C38.5898 136.47 61.6498 120.42 90.0898 120.42C118.53 120.42 141.59 136.47 141.59 178.9V178.9Z" fill="#FDD800"/>
<path d="M39.24 167.629C39.24 167.629 12.9 181.609 12.9 210.559C12.9 239.509 11.92 252.509 26.23 252.509C40.54 252.509 56.15 255.759 53.87 222.919C51.59 190.079 55.17 158.859 39.24 167.639V167.629Z" fill="#F1CF14"/>
<path d="M2.49006 240.8C2.49006 247.98 0.210063 253.81 18.1001 253.81C35.9901 253.81 33.7101 247.99 33.7101 240.8C33.7101 233.61 26.7201 225.66 18.1001 225.66C9.48006 225.66 2.49006 233.61 2.49006 240.8V240.8Z" fill="#F5F2DD"/>
<path d="M140.18 167.629C140.18 167.629 166.52 181.609 166.52 210.559C166.52 239.509 167.5 252.509 153.19 252.509C138.88 252.509 123.27 255.759 125.55 222.919C127.83 190.079 124.25 158.859 140.18 167.639V167.629Z" fill="#FDD800"/>
<path d="M176.93 240.8C176.93 247.98 179.21 253.81 161.32 253.81C143.43 253.81 145.71 247.99 145.71 240.8C145.71 233.62 152.7 225.66 161.32 225.66C169.94 225.66 176.93 233.61 176.93 240.8Z" fill="#F7F4E5"/>
<path d="M39.24 167.629C39.24 167.629 12.9 181.609 12.9 210.559C12.9 239.509 11.92 252.509 26.23 252.509C40.54 252.509 56.15 255.759 53.87 222.919C51.59 190.079 55.17 158.859 39.24 167.639V167.629Z" fill="#FDD800"/>
<path d="M156.09 141.54C143.6 182.09 140.62 229.09 90.09 229.09C39.56 229.09 37.08 181.48 22.75 141.54C51.8 131.9 57.15 96.3496 90.09 96.3496C123.03 96.3496 126.17 128.25 156.09 141.54V141.54Z" fill="#F7F4E5"/>
<path d="M48.4802 197.36C71.4602 218.99 81.1102 220.34 81.1102 220.34C81.1102 220.34 80.6602 233.35 78.8602 253.19C77.0602 273.02 71.2002 272.12 63.9802 273.02C56.7702 273.92 47.4302 273.73 43.2402 254.09C25.7202 171.9 30.4502 161.99 30.4502 161.99C30.4502 161.99 34.8902 184.58 48.4702 197.36H48.4802Z" fill="#F7F4E5"/>
<path d="M48.4803 197.36C71.4603 218.99 81.1103 220.34 81.1103 220.34C81.1103 220.34 80.6603 233.35 78.8603 253.19C73.3803 233.65 47.3703 234.3 36.1003 218.08C27.2003 168.82 30.4603 161.99 30.4603 161.99C30.4603 161.99 34.9003 184.58 48.4803 197.36V197.36Z" fill="#FDD800"/>
<path d="M130.8 197.36C107.82 218.99 98.1699 220.34 98.1699 220.34C98.1699 220.34 98.6199 233.35 100.42 253.19C102.22 273.02 108.08 272.12 115.3 273.02C122.51 273.92 131.85 273.73 136.04 254.09C153.56 171.9 148.83 161.99 148.83 161.99C148.83 161.99 144.39 184.58 130.81 197.36H130.8Z" fill="#F7F4E5"/>
<path d="M130.8 197.36C107.82 218.99 98.1699 220.34 98.1699 220.34C98.1699 220.34 98.6199 233.35 100.42 253.19C105.9 233.65 131.91 234.3 143.18 218.08C152.08 168.82 148.82 161.99 148.82 161.99C148.82 161.99 144.38 184.58 130.8 197.36V197.36Z" fill="#FDD800"/>
<path d="M2.49006 240.8C2.49006 247.98 0.210063 253.81 18.1001 253.81C35.9901 253.81 33.7101 247.99 33.7101 240.8C33.7101 233.61 26.7201 225.66 18.1001 225.66C9.48006 225.66 2.49006 233.61 2.49006 240.8V240.8Z" fill="#F7F4E5"/>
<path fill-rule="evenodd" clip-rule="evenodd" d="M117.12 21.7587C134.3 8.02867 156.57 -5.47133 170.8 2.25867C190.1 12.7387 172.41 59.3987 162.14 82.4787C162.29 84.1087 162.36 85.7287 162.36 87.3487C162.36 121.679 128.67 149.499 89.85 149.499C51.03 149.499 16.6 121.679 16.6 87.3487C16.6 85.4487 16.71 83.5487 16.91 81.6387C6.6 58.2887 -10.45 12.6087 8.62 2.25867C22.87 -5.47133 45.17 8.05867 62.36 21.8087C70.95 17.8587 80.27 15.5787 89.85 15.5787C99.43 15.5787 108.62 17.8387 117.12 21.7587V21.7587Z" fill="#F7F4E5"/>
<path fill-rule="evenodd" clip-rule="evenodd" d="M24.79 115.449C61.27 114.559 90.59 82.1092 90.59 42.2192C90.59 32.8692 88.98 23.9292 86.04 15.6992C77.8 16.2192 69.81 18.3892 62.36 21.8092C45.18 8.05918 22.87 -5.48082 8.62 2.25918C-10.45 12.6092 6.6 58.2892 16.91 81.6392C16.71 83.5492 16.6 85.4492 16.6 87.3492C16.6 97.4592 19.59 107.009 24.8 115.449H24.79Z" fill="#FDD800"/>
<path fill-rule="evenodd" clip-rule="evenodd" d="M97.95 16.1187C104.61 17.0087 111.05 18.9587 117.12 21.7587C134.3 8.02867 156.57 -5.47133 170.8 2.25867C190.1 12.7387 172.41 59.3987 162.14 82.4787C162.29 84.1087 162.36 85.7287 162.36 87.3487C162.36 97.3387 159.51 106.779 154.5 115.139C120.3 111.639 93.54 80.3287 93.54 42.2087C93.54 33.0187 95.1 24.2187 97.94 16.1087L97.95 16.1187Z" fill="#FDD800"/>
<path d="M13.4801 13.7583C3.56013 20.1783 13.3401 47.7683 18.1501 59.6683C19.0701 61.9383 22.1601 62.0583 23.4201 59.9583C30.8101 47.6083 38.5301 40.1583 50.8701 29.4383C52.2801 28.2183 52.2301 26.0383 50.7101 24.9583C43.3501 19.7283 23.6901 7.13827 13.4701 13.7583H13.4801Z" fill="#F2BB00"/>
<path d="M166.22 13.7583C176.14 20.1783 166.36 47.7683 161.55 59.6683C160.63 61.9383 157.54 62.0583 156.28 59.9583C148.89 47.6083 141.17 40.1583 128.83 29.4383C127.42 28.2183 127.47 26.0383 128.99 24.9583C136.35 19.7283 156.01 7.13827 166.23 13.7583H166.22Z" fill="#F2BB00"/>
<path d="M53.59 102.15C60.1291 102.15 65.43 98.8365 65.43 94.7496C65.43 90.6627 60.1291 87.3496 53.59 87.3496C47.0509 87.3496 41.75 90.6627 41.75 94.7496C41.75 98.8365 47.0509 102.15 53.59 102.15Z" fill="#F8AEA9"/>
<path d="M130.55 102.15C137.089 102.15 142.39 98.8365 142.39 94.7496C142.39 90.6627 137.089 87.3496 130.55 87.3496C124.011 87.3496 118.71 90.6627 118.71 94.7496C118.71 98.8365 124.011 102.15 130.55 102.15Z" fill="#F8AEA9"/>
<path d="M90.8299 99.6C85.9099 99.6 81.9199 95.61 81.9199 90.69C81.9199 85.77 99.7399 85.77 99.7399 90.69C99.7399 95.61 95.7499 99.6 90.8299 99.6V99.6Z" fill="#7A5751"/>
<path d="M80.9404 108.551C80.9404 108.551 82.7204 106.811 91.6804 106.811C100.64 106.811 102.42 108.551 102.42 108.551" stroke="#7A5751" stroke-width="2.66" stroke-miterlimit="10" stroke-linecap="round"/>
<path d="M67.16 86.5998C69.5 84.1898 72.32 79.2298 66.92 76.9598C59.08 73.6698 53.55 70.3498 54.69 82.5298C55.18 87.8298 63.45 90.4198 67.16 86.5998Z" fill="url(#paint0_linear_316_18160)"/>
<path d="M67.2199 86.671C67.2199 86.671 67.1999 86.641 67.1499 86.691V86.751L67.2199 86.671Z" fill="#7A5751"/>
<path d="M66.8097 86.9105C66.7597 86.9805 66.7097 87.0705 66.7797 87.0705C66.8097 86.9805 66.8397 86.9805 66.8697 86.8905C66.9197 86.8405 66.9697 86.8205 66.9697 86.8405C66.9797 86.8205 67.0597 86.7805 67.0697 86.7305C66.9797 86.7605 66.8897 86.8405 66.8197 86.9405C66.7897 86.9405 66.8097 86.9205 66.7997 86.9105H66.8097Z" fill="#7A5751"/>
<path d="M60.4497 88.1211L60.4897 88.1411L60.4497 88.1211Z" fill="#7A5751"/>
<path d="M56.79 86.25L56.83 86.27C56.81 86.25 56.79 86.24 56.79 86.25Z" fill="#7A5751"/>
<path d="M56.3198 85.7305L56.3398 85.7605L56.3198 85.7305Z" fill="#7A5751"/>
<path d="M60.4501 88.1201L60.3501 88.0801C60.3501 88.0801 60.4001 88.1001 60.4501 88.1201Z" fill="#7A5751"/>
<path d="M66.1196 87.5498C66.1196 87.5498 66.1496 87.5198 66.1696 87.5098L66.1196 87.5398V87.5498Z" fill="#7A5751"/>
<path d="M62.2598 88.3108H62.2898L62.3198 88.3008L62.2598 88.3108Z" fill="#7A5751"/>
<path d="M63.6501 88.2305C63.6501 88.2305 63.6101 88.2705 63.6001 88.2905C63.6201 88.2705 63.6401 88.2605 63.6701 88.2605C63.6701 88.2605 63.6701 88.2405 63.6501 88.2405V88.2305Z" fill="#7A5751"/>
<path d="M65.77 87.5903L65.8 87.5703L65.77 87.5903Z" fill="#7A5751"/>
<path d="M61.26 88.2212C61.26 88.2212 61.26 88.2112 61.25 88.2012C61.25 88.2012 61.25 88.2012 61.26 88.2212Z" fill="#7A5751"/>
<path d="M67.1499 86.6005L67.1599 86.5806L67.1499 86.5605V86.6005Z" fill="#7A5751"/>
<path d="M55.6001 84.6797C55.6001 84.6797 55.6101 84.6997 55.6001 84.6797V84.6797Z" fill="#7A5751"/>
<path d="M57.1699 74.1601C57.0299 74.1601 57.3699 74.0801 57.1699 74.0801C57.1899 74.0901 57.0099 74.1701 57.1699 74.1601Z" fill="#7A5751"/>
<path d="M66.0798 87.5703L66.0298 87.6003L66.0798 87.5703Z" fill="#7A5751"/>
<path d="M54.8 81.9004C54.8 81.9004 54.79 81.9204 54.79 81.9304C54.79 81.9304 54.79 81.9304 54.8 81.9004Z" fill="#7A5751"/>
<path d="M54.6497 79.5293L54.6396 79.5593V79.5893L54.6497 79.5293Z" fill="#7A5751"/>
<path d="M70.01 82.1211C70.01 82.1211 69.98 82.1611 69.96 82.1711C69.99 82.1611 69.96 82.3411 70.01 82.1211Z" fill="#7A5751"/>
<path d="M66.1001 87.541C66.1001 87.541 66.1001 87.561 66.0801 87.571L66.1101 87.551C66.1101 87.551 66.1101 87.541 66.1001 87.551V87.541Z" fill="#7A5751"/>
<path d="M54.3599 79.9308C54.3599 79.9308 54.3799 79.8608 54.3799 79.8208V79.8008V79.9308H54.3599Z" fill="#7A5751"/>
<path d="M69.6197 83.4202C69.6997 83.2502 69.6196 83.3202 69.5996 83.2702C69.6796 83.0602 69.6797 83.1902 69.7297 83.1302C69.7697 82.9902 69.7597 82.8802 69.7997 82.7802C69.8097 82.7802 69.8196 82.7602 69.8196 82.7802C69.8396 82.6302 69.9696 82.3702 69.9496 82.1802C69.9496 82.1702 69.9697 82.1602 69.9697 82.1602C69.9397 82.1802 69.9097 82.1802 69.8997 82.1602C69.9197 82.0802 69.8997 82.0002 69.9397 81.9802C69.9297 82.0302 69.9397 82.0402 69.9397 82.0602V81.9702C70.0097 81.9002 69.9397 82.0902 69.9697 82.1002C69.9897 81.9302 70.0196 81.7302 70.0296 81.6002C70.0896 81.5802 69.9996 81.9102 70.0696 81.7402L70.0097 81.9302C70.1197 81.7902 69.9797 82.0502 70.0797 81.9302C70.1597 81.6702 70.1097 81.6302 70.1597 81.3602C70.1397 81.3002 70.1196 81.3802 70.0996 81.3102C70.0996 80.9302 70.2396 81.0102 70.1696 80.7302C70.1396 80.6602 70.0796 80.6302 70.0996 80.4302L70.1497 80.4902C70.1497 80.2202 70.0697 80.3502 70.0497 80.0802C70.0797 80.1202 70.1096 80.2802 70.1096 80.2402C70.1096 80.0602 70.0496 80.1202 70.0196 79.9902L70.0596 79.9502C70.0096 79.6702 69.8396 79.4002 69.7096 79.1202C69.7296 79.1202 69.7596 79.1702 69.7496 79.1002C69.5296 78.7802 69.3197 78.3702 69.0497 78.1102L68.9196 78.0402C68.9196 78.0402 68.8896 77.9802 68.9196 78.0002C68.8196 77.8902 68.8996 78.0102 68.8396 77.9702C68.7796 77.9102 68.7796 77.8802 68.8196 77.9002C68.6196 77.7302 68.1896 77.5302 67.9896 77.3302L68.0396 77.3502C67.8796 77.2102 67.7996 77.3002 67.6396 77.1802H67.6796C67.2796 76.9702 66.8196 76.7802 66.5296 76.6102C66.4496 76.6402 66.1297 76.4102 66.0797 76.4802C65.8597 76.3402 65.9296 76.3602 65.6096 76.1902C65.5196 76.1502 65.4596 76.1802 65.3496 76.1402V76.1002L65.1996 76.0802L65.1396 76.0002L65.0296 75.9702C65.0296 75.9702 65.1096 76.0202 65.0996 76.0302C64.9296 75.9802 64.7197 75.8402 64.7297 75.8202L64.3396 75.6902C64.3396 75.6902 64.4197 75.7002 64.4697 75.7102C64.2497 75.6602 64.4496 75.6502 64.2496 75.6102C64.2696 75.6302 64.2297 75.6302 64.2197 75.6302C64.1397 75.5702 63.9296 75.4802 63.7696 75.4202H63.8097C63.5297 75.2802 63.2096 75.1702 62.8896 75.0402C62.9996 75.1002 62.9496 75.1302 62.8596 75.1002L62.8396 75.0402C62.7696 75.0402 62.9296 75.0902 62.7996 75.0802C62.6796 75.0302 62.7397 75.0002 62.8097 75.0202L62.6596 74.9802C62.6596 74.9802 62.6896 74.9802 62.7096 74.9602C62.6396 74.9602 62.4796 74.8202 62.3696 74.8302V74.8102C62.0496 74.6802 61.8897 74.6502 61.6297 74.5502C61.6097 74.5802 61.5096 74.5402 61.4196 74.5402C61.2296 74.4602 61.0196 74.3502 60.7896 74.2802C60.6196 74.2402 60.7297 74.2902 60.6497 74.2902C60.6497 74.2502 60.4096 74.1802 60.5396 74.2002C60.2496 74.1202 60.1696 74.1002 59.7996 74.0302C59.8396 74.0502 59.8796 74.0702 59.8496 74.0802C59.7796 74.0702 59.6996 74.0302 59.7096 74.0202H59.7296C59.3096 73.9602 58.7796 73.7302 58.4296 73.7702H58.4496C58.3296 73.7702 58.2096 73.7802 58.0896 73.7902C57.9296 73.7802 58.1896 73.7702 58.0696 73.7402C57.6896 73.7902 57.4496 73.7402 57.1396 73.8502C56.8696 73.7902 56.2797 74.1102 55.9897 74.3002H56.0196C55.9596 74.3802 55.9196 74.3602 55.8696 74.3902C55.8896 74.3902 55.9596 74.3502 55.9296 74.3902C55.3696 74.8902 54.9596 75.5802 54.7296 76.2902C54.6496 76.5502 54.7996 76.4702 54.6696 76.7902L54.6497 76.6902C54.5797 77.2302 54.4496 77.7902 54.4596 78.3202C54.4596 78.2902 54.4396 78.2902 54.4396 78.2302C54.3996 78.3402 54.4096 78.6402 54.4396 78.6402C54.4396 78.7202 54.4197 78.6602 54.3997 78.7102C54.3797 78.8202 54.4297 78.9902 54.3997 79.0502C54.3997 79.0502 54.3996 79.0202 54.3896 79.0002C54.3996 79.0702 54.3796 79.3402 54.4096 79.2702C54.3796 79.4702 54.4196 79.6502 54.4096 79.8102C54.4496 79.9102 54.3896 80.1502 54.4496 80.1802C54.3896 80.1702 54.4096 80.5302 54.4496 80.6502C54.4296 80.6102 54.4396 80.7602 54.4096 80.7102C54.4096 80.8502 54.4396 80.9802 54.4596 80.9602C54.3996 81.2302 54.5396 81.4802 54.4596 81.6302C54.5396 82.0502 54.5497 82.4302 54.6497 82.8102C54.5797 82.8102 54.5696 82.3902 54.5196 82.4102C54.5896 82.7702 54.6897 82.9702 54.7397 83.3302C54.7397 83.4202 54.6996 83.2802 54.6896 83.2502C54.7496 83.6102 54.9096 83.9202 55.0396 84.2202C55.0396 84.2202 55.0196 84.1902 54.9996 84.1602C55.0296 84.2202 55.0496 84.3002 55.0696 84.2902L55.0396 84.2302C55.0396 84.1202 55.1997 84.4402 55.2397 84.4302C55.1097 84.3702 55.3896 84.7102 55.2096 84.6102C55.2396 84.6402 55.2696 84.6802 55.2896 84.6702C55.3196 84.7302 55.3196 84.7502 55.2696 84.7002C55.3996 84.8902 55.3797 84.8102 55.4897 84.9802C55.4797 84.9802 55.4496 84.9502 55.4296 84.9402C55.5096 85.0202 55.5796 85.0902 55.6696 85.2502C55.6596 85.2502 55.6597 85.2702 55.6297 85.2302C55.8197 85.4602 56.0096 85.5802 56.1996 85.8502C56.0996 85.8102 56.2596 85.9502 56.2296 86.0002C56.2696 86.0402 56.3196 86.0702 56.3696 86.1102L56.3297 86.0502C56.4497 86.1502 56.5696 86.2202 56.6596 86.3202L56.5597 86.2602L56.7796 86.4502L56.6696 86.3302C56.7996 86.4102 56.6996 86.2702 56.8396 86.4202C56.8096 86.4002 56.9496 86.5202 56.9996 86.6002C57.0596 86.6402 57.1396 86.6602 57.2296 86.7402C57.2496 86.7702 57.1796 86.7702 57.1896 86.7902C57.2796 86.7902 57.4996 86.9902 57.5996 87.0002C57.5696 87.0002 57.5497 87.0102 57.5597 87.0202H57.6297C57.6797 87.0802 57.6896 87.0902 57.6696 87.1002C57.8396 87.2302 57.6496 87.0102 57.8396 87.1802C57.8196 87.1802 57.8296 87.1802 57.7896 87.1602C57.9996 87.3102 58.2396 87.3702 58.4296 87.5002C58.4696 87.5802 58.2396 87.4202 58.2896 87.5002C58.5896 87.6602 58.9396 87.7602 59.2496 87.8802L59.1896 87.8502C59.2596 87.8002 59.4096 87.9702 59.5696 88.0002C59.5296 88.0002 59.5096 88.0202 59.5196 88.0102C59.7196 88.1102 59.9696 88.1202 60.2996 88.1902H60.2496C60.3696 88.2402 60.5797 88.3002 60.7197 88.3402C60.7697 88.3302 60.8496 88.3402 60.7996 88.3102C61.2196 88.4602 61.6296 88.4102 62.0196 88.4802C61.9696 88.4802 61.9096 88.4902 61.9396 88.4902H62.2696C62.2696 88.4902 62.2296 88.4602 62.1596 88.4402C62.1996 88.4202 62.2997 88.4102 62.3797 88.4102C62.2297 88.4302 62.3796 88.4602 62.4496 88.4802C62.4396 88.4802 62.4596 88.4602 62.4496 88.4502C62.6196 88.5102 62.4797 88.3902 62.7197 88.4302V88.4502C62.7997 88.4402 62.8797 88.4102 62.9697 88.4002C63.0097 88.4302 62.8796 88.4302 62.8696 88.4602C62.9996 88.4502 63.1296 88.3702 63.2496 88.3902L63.0597 88.4302C63.1997 88.4602 63.2097 88.4502 63.3097 88.4402H63.4697C63.6297 88.3302 63.8096 88.3802 64.0196 88.2602C63.8196 88.3702 63.9896 88.3002 63.9796 88.3402C64.0396 88.3402 64.1296 88.3302 64.1096 88.3402C64.2096 88.2802 64.2896 88.3202 64.4296 88.2402C64.4396 88.2502 64.5396 88.2102 64.5296 88.2502C64.6596 88.2102 64.4896 88.2402 64.4996 88.2202C64.6996 88.1502 64.9996 88.1102 65.2696 87.9402C65.5096 87.8102 65.5396 87.7802 65.7396 87.6202C65.8196 87.6002 65.6996 87.7002 65.6996 87.7002C65.8196 87.6502 65.9097 87.5902 66.0097 87.5102C65.9897 87.5302 66.0196 87.5302 66.0596 87.5202C66.1496 87.4602 66.0897 87.4402 66.2197 87.3902C66.2097 87.4102 66.1997 87.4502 66.1597 87.4902C66.2397 87.4202 66.3596 87.3302 66.4496 87.2602C66.4896 87.2602 66.4096 87.3302 66.3796 87.3602C66.4996 87.2902 66.6496 87.1102 66.6696 87.0602L66.5896 87.1102C66.5896 87.1102 66.6296 87.1102 66.5996 87.1502C66.5296 87.2502 66.4596 87.2502 66.4496 87.2502L66.5097 87.1902C66.4097 87.2002 66.2196 87.3902 66.0696 87.4802L66.0996 87.4002L65.9697 87.5302C65.9697 87.5302 65.8897 87.5302 65.9697 87.4702C65.8497 87.5102 65.8796 87.5402 65.7796 87.5702C65.7696 87.5702 65.7796 87.5702 65.7796 87.5602L65.6796 87.6402C65.6796 87.6402 65.6396 87.6202 65.7096 87.5802C65.5096 87.6702 65.4096 87.7702 65.3096 87.7702H65.3297C65.0497 87.8902 65.3197 87.8102 65.1197 87.9402L64.9397 87.9002V87.9502C64.9397 87.9502 64.8396 87.9802 64.8396 87.9602C64.7396 88.0302 64.8596 87.9602 64.8096 88.0202C64.6596 88.0602 64.4096 88.1502 64.3596 88.1002C64.3096 88.1402 64.5096 88.0902 64.3596 88.1502C64.2996 88.0902 64.1796 88.2002 64.0396 88.2102C64.0696 88.1702 64.2096 88.1502 64.0596 88.1502C63.9896 88.2302 63.7896 88.2002 63.6796 88.2302C63.6796 88.2802 63.4297 88.2702 63.2397 88.3102C63.2497 88.2902 62.8696 88.3202 62.6896 88.3102C62.6896 88.3102 62.4697 88.3402 62.3297 88.3402C62.3297 88.3102 62.3596 88.3002 62.4296 88.2902H62.2996C62.2996 88.2902 62.2296 88.3102 62.1396 88.3102L62.1696 88.2702C61.9996 88.2702 61.8196 88.3202 61.5996 88.2602C61.5796 88.2902 61.7696 88.3802 61.5296 88.3702C61.5296 88.3502 61.5197 88.3202 61.5797 88.3202C61.5597 88.3202 61.5097 88.3202 61.4697 88.3202L61.5696 88.3002C61.4696 88.2702 61.5096 88.3202 61.4396 88.3002C61.4396 88.2702 61.3797 88.2702 61.3997 88.2502C61.4197 88.2502 61.4696 88.2702 61.4996 88.2702C61.4096 88.2502 61.2996 88.2202 61.2696 88.2002C61.2696 88.2202 61.2696 88.2402 61.1996 88.2302C61.0296 88.2102 61.1496 88.1902 61.0496 88.1602C61.0096 88.1702 60.8996 88.1402 60.8896 88.1802C60.8396 88.1802 60.8296 88.1502 60.8196 88.1402C60.7296 88.1502 60.4196 88.0502 60.4996 88.1202C60.2096 88.0902 59.9096 87.9602 59.6396 87.8802C59.4696 87.8202 59.2797 87.7402 59.1497 87.7202C59.0997 87.7002 59.0496 87.6502 59.0696 87.6502C58.9396 87.6102 58.9196 87.6202 58.7596 87.5302C58.8896 87.5602 58.7196 87.5002 58.8896 87.5702C58.7296 87.5002 58.7196 87.4502 58.5296 87.4002C58.5996 87.4002 58.4296 87.3002 58.3596 87.2702L58.4596 87.3502C58.3796 87.3102 58.3097 87.2702 58.2397 87.2302L58.2996 87.2102C58.0096 87.0202 57.7096 86.9802 57.5396 86.7502C57.4496 86.7202 57.6796 86.8802 57.5996 86.8602C57.4696 86.7602 57.3697 86.6202 57.3297 86.5902C57.1597 86.4502 57.1196 86.5302 56.9596 86.3602C56.9696 86.3902 56.9597 86.4402 56.8297 86.3402C56.7097 86.2302 56.7297 86.1602 56.8097 86.2202C56.8397 86.2402 56.8496 86.2602 56.8496 86.2602C56.8896 86.2902 56.9496 86.3302 56.9096 86.2802H56.8797C56.8297 86.2102 56.6697 86.0702 56.7197 86.0802C56.6197 86.0102 56.6597 86.0602 56.7197 86.1302C56.5897 85.9702 56.4696 85.9302 56.3496 85.7502C56.3696 85.7802 56.3696 85.8202 56.3496 85.7902C56.1696 85.5402 56.2396 85.7102 56.0996 85.5502C56.0396 85.4402 56.1696 85.5502 56.0196 85.4002C55.9496 85.2902 56.0397 85.3502 56.0797 85.3802C55.9397 85.2502 55.8597 85.1002 55.8097 85.0002L55.8696 85.0802C55.8696 85.0802 55.8096 84.9902 55.7796 84.9502V85.0202C55.7596 84.9702 55.7297 84.9202 55.7397 84.9202C55.6897 84.8802 55.7197 84.9902 55.6297 84.9002C55.5997 84.8202 55.4896 84.7002 55.5096 84.6602C55.6296 84.8802 55.5297 84.6202 55.6497 84.7902C55.6197 84.7602 55.5996 84.7202 55.5696 84.6602C55.5696 84.6602 55.5796 84.6602 55.5896 84.6802C55.4996 84.4602 55.4896 84.6102 55.3696 84.4002C55.4096 84.4202 55.3696 84.3302 55.3596 84.3002C55.4096 84.3802 55.3396 84.3602 55.2896 84.2802C55.2496 84.1202 55.2196 84.1302 55.1896 84.0502L55.2197 84.1402C55.2197 84.1402 55.1596 84.0402 55.1096 83.9402C55.1196 83.9202 55.1597 84.0302 55.1497 83.9902C55.0697 83.8902 55.0896 83.7202 54.9996 83.5702C54.9896 83.4902 55.0396 83.5502 55.0296 83.4802C54.9496 83.3002 55.0296 83.2702 54.9596 83.0802C54.9396 83.1402 54.9496 83.1502 54.8896 83.0202L54.9697 83.3402L54.8896 83.1402C54.9096 83.2402 54.9496 83.3402 54.9496 83.4002C54.9096 83.3102 54.9197 83.3102 54.8997 83.3702C54.9197 83.2202 54.8196 83.1102 54.8196 82.9402H54.8997C54.8997 82.6902 54.7696 82.5302 54.7796 82.2102V82.3102C54.7796 82.3102 54.7496 82.1202 54.7296 82.0202C54.7596 82.0202 54.7596 81.9602 54.7696 81.9202C54.7496 81.9202 54.7496 81.6902 54.6996 81.6702L54.7197 81.5302C54.7197 81.2802 54.6297 81.2502 54.6297 81.0002C54.6597 81.0702 54.6796 80.9602 54.6996 81.1202C54.6996 81.0402 54.6996 80.9702 54.6796 80.9702C54.6896 80.9202 54.6297 80.7502 54.6497 80.6702C54.6397 80.6402 54.6096 80.6302 54.6096 80.5302C54.6096 80.5202 54.6196 80.5302 54.6196 80.5302C54.6096 80.5302 54.5996 80.3902 54.5696 80.4702C54.6496 80.2202 54.5496 79.7702 54.6196 79.5502C54.6196 79.3702 54.6196 79.1502 54.6196 79.0002C54.6196 79.0102 54.6296 79.0002 54.6196 79.0302C54.6496 78.8102 54.5497 78.8902 54.5797 78.6402C54.6297 78.5102 54.5896 78.7802 54.6196 78.7002C54.7096 78.6702 54.6296 78.4002 54.6896 78.2302V78.2702C54.7296 78.1402 54.6797 77.9502 54.7197 77.7402C54.7197 77.7402 54.7196 77.7502 54.7296 77.7402C54.7096 77.5902 54.7296 77.3202 54.7496 77.1102C54.7696 77.1802 54.7496 77.2002 54.7896 77.1702C54.7996 77.0802 54.7296 77.1902 54.7596 77.0102C54.7896 76.9602 54.8296 76.8302 54.8696 76.8202L54.8396 76.9902C54.8996 76.9102 54.8796 76.7702 54.9096 76.6902L54.9296 76.7102C54.9896 76.4602 54.9496 76.4402 55.0296 76.1702L55.0096 76.1902C55.0096 76.0202 55.0796 76.0802 55.0996 75.9202L55.1696 75.9002C55.1896 75.8002 55.2596 75.5502 55.3496 75.3902C55.3296 75.5002 55.2496 75.6902 55.2296 75.8202C55.2596 75.7202 55.3596 75.5102 55.3696 75.4602C55.3496 75.5002 55.3396 75.5502 55.3196 75.5802C55.3496 75.4602 55.3996 75.3002 55.5096 75.1302C55.5596 75.2102 55.8496 74.7302 56.0196 74.7102C56.2596 74.4602 56.5696 74.3202 56.9496 74.2102C56.7896 74.1802 57.0596 74.1702 57.0196 74.1002C57.1096 74.0702 57.1496 74.0702 57.1596 74.0702H57.4496C57.5196 74.0802 57.3597 74.1002 57.3797 74.1202C57.5797 74.0902 57.4696 74.1402 57.5996 74.1502C57.5696 74.1202 57.6696 74.1002 57.7796 74.1102L57.6096 74.0802C57.8996 74.0102 57.8597 74.1302 58.1497 74.1002L58.0597 74.1202C58.2097 74.1002 58.6096 74.1602 58.7596 74.1202C58.7896 74.1302 58.8196 74.1602 58.7596 74.1602C59.1096 74.2202 59.5697 74.2402 59.8297 74.3502H59.7996C59.8696 74.3702 59.9196 74.3502 59.9996 74.4002C59.9996 74.4002 59.9696 74.4102 59.9996 74.4202C60.0396 74.4202 60.1796 74.4402 60.2696 74.4702H60.1896C60.5196 74.5902 60.7296 74.5802 61.0196 74.6602C60.9996 74.7202 61.2596 74.8302 61.3896 74.8802C61.7796 75.0402 62.0696 75.0902 62.4396 75.2102C62.6396 75.3602 63.1796 75.5402 63.5296 75.7202C63.4796 75.6902 63.5596 75.6802 63.6196 75.7002C63.6996 75.7502 63.8697 75.7602 63.8297 75.8002H63.7996C63.8396 75.8602 64.0197 75.9202 64.1497 75.9802L64.1996 75.9202C64.5096 76.1602 65.1296 76.2802 65.2896 76.4402L65.5797 76.5202L65.5596 76.5502C65.7896 76.6602 65.9096 76.7102 66.1996 76.8302H66.1296C66.2896 76.9002 66.3796 76.8202 66.5296 76.8802L66.5497 76.9502C66.8397 77.0602 67.0896 77.2502 67.3796 77.3402C67.3796 77.3402 67.3596 77.3602 67.3096 77.3402C67.4396 77.4102 67.7896 77.6202 67.7796 77.5302C67.7596 77.5802 68.0296 77.7102 68.1796 77.7902L68.1396 77.8102C68.2796 77.8502 68.2896 77.8402 68.4596 77.9402C68.4896 77.9702 68.4696 77.9902 68.4296 77.9402C68.5496 78.0402 68.5496 77.9902 68.6696 78.1302L68.6096 78.1002C68.7196 78.2102 68.7197 78.1902 68.7997 78.2302C68.8797 78.2902 69.0096 78.4502 68.9996 78.4802C69.0296 78.4802 69.1197 78.5202 69.1597 78.6102C69.1597 78.6302 69.1297 78.6102 69.1197 78.5902C69.2497 78.8202 69.3796 78.8802 69.4496 79.0502C69.4496 79.0502 69.4496 79.0702 69.4496 79.0902C69.3296 78.9202 69.2396 78.7802 69.2496 78.7902C69.2196 78.8102 69.3096 78.9502 69.1996 78.8702C69.2896 78.9702 69.4896 79.1102 69.5296 79.2802V79.3002H69.5196C69.5196 79.3002 69.5496 79.3502 69.5696 79.3802C69.5896 79.4302 69.5896 79.4602 69.6096 79.5102C69.5896 79.5402 69.6696 79.6902 69.6996 79.7602C69.7296 79.7402 69.7497 79.8502 69.7597 79.7402C69.7597 79.7502 69.7597 79.7302 69.7297 79.6802L69.7096 79.6502L69.6296 79.4702C69.6696 79.5202 69.7197 79.5802 69.7297 79.6702C69.7697 79.7002 69.8097 79.7402 69.8297 79.7602C69.8097 79.8902 69.8297 80.1102 69.7997 80.1402C69.8997 80.3802 69.8696 80.7302 69.9596 80.8902C69.9696 80.9602 69.9396 80.9702 69.9296 81.0002C69.9296 80.9602 69.9197 80.9102 69.9097 80.8902C69.9497 81.0402 69.8897 81.3202 69.9397 81.3602C69.8997 81.5402 69.9096 81.2502 69.8896 81.5002V81.4602C69.7296 81.9302 69.8596 82.2902 69.5696 82.7802C69.5896 82.7502 69.5996 82.7302 69.6096 82.7202C69.3696 83.3002 69.1197 83.9402 68.7297 84.4402C68.6197 84.5802 68.6396 84.6102 68.5996 84.7202H68.5497L68.4896 84.9102C68.3596 85.1502 68.1396 85.2202 67.9896 85.5302L68.0396 85.5102C67.9596 85.6002 67.8097 85.8102 67.7997 85.7802C67.7997 85.7902 67.7997 85.8302 67.7597 85.8602H67.7396L67.5797 86.1002C67.4097 86.2602 67.5396 86.0202 67.3096 86.2602C67.2296 86.3602 67.1197 86.5602 67.1597 86.5402C67.1897 86.5002 67.2596 86.4502 67.2696 86.4702L67.1996 86.5602C67.2296 86.6202 67.2197 86.7302 67.4397 86.5502L67.5497 86.3802L67.6197 86.3502L67.5097 86.4702C67.5897 86.4202 67.6197 86.3602 67.6497 86.3002C67.6697 86.3002 67.6997 86.2902 67.7297 86.2602L67.8096 86.0702C67.8096 86.0702 67.7896 86.1702 67.8796 86.0702C67.9196 85.9802 67.7796 86.1002 67.8596 85.9702C67.9396 85.9202 67.9396 85.9502 67.9896 85.8502C68.0096 85.8502 68.0096 85.8702 67.9896 85.9102C68.0396 85.8202 68.1497 85.7002 68.1597 85.6402C68.2497 85.5802 68.3496 85.3702 68.3896 85.4102C68.3896 85.3802 68.4597 85.2402 68.5097 85.1702C68.4697 85.3502 68.7096 84.9002 68.7396 84.9702C68.7496 84.8302 68.9597 84.5802 69.0497 84.3802C69.0497 84.3902 69.0496 84.4202 69.0296 84.4302C69.0896 84.3302 69.1296 84.3002 69.1796 84.2402C69.1396 84.2002 69.2296 84.0302 69.2496 83.9202C69.3696 83.8102 69.2496 84.0302 69.3196 84.0102C69.2796 84.0002 69.4096 83.7602 69.3496 83.7902C69.4296 83.7002 69.4097 83.7102 69.4697 83.6702C69.4197 83.6202 69.5097 83.5702 69.5097 83.4602C69.6097 83.3202 69.5796 83.4502 69.6396 83.2702C69.6996 83.2002 69.6396 83.3602 69.6396 83.3602L69.6197 83.4202ZM69.6996 79.1502L69.7396 79.2302L69.6996 79.1502ZM69.5097 78.8302L69.5996 78.9602C69.5996 78.9602 69.5796 78.9702 69.5596 78.9402C69.5796 78.9502 69.5397 78.8802 69.5097 78.8302ZM69.6197 79.6202C69.6197 79.6202 69.5896 79.5502 69.5996 79.5402L69.6396 79.6302C69.6396 79.6302 69.6196 79.6302 69.6096 79.6302L69.6197 79.6202Z" fill="#7A5751"/>
<path d="M69.6999 79.6899L69.7199 79.7099L69.7099 79.6799L69.6899 79.6699L69.6999 79.6899Z" fill="#7A5751"/>
<path d="M65.3501 76.1211V76.1311H65.3801L65.3501 76.1211Z" fill="#7A5751"/>
<path d="M62.4497 88.4902C62.4497 88.4902 62.4597 88.4902 62.4797 88.5002C62.4797 88.5002 62.4697 88.5002 62.4497 88.4902Z" fill="#7A5751"/>
<path d="M54.9796 84.1907V84.1707C54.9396 84.1207 54.9596 84.1507 54.9796 84.1907Z" fill="#7A5751"/>
<path d="M56.9796 86.6105L56.8896 86.5605C56.8896 86.5605 56.9596 86.6305 56.9796 86.6105Z" fill="#7A5751"/>
<path d="M56.7798 86.4609C56.7798 86.4609 56.8498 86.5309 56.8898 86.5609C56.8598 86.5309 56.8198 86.4909 56.7798 86.4609Z" fill="#7A5751"/>
<path d="M66.6099 87.2312L66.6399 87.2112V87.2012L66.6099 87.2312Z" fill="#7A5751"/>
<path d="M66.6396 87.1999L66.6597 87.1699C66.6597 87.1699 66.6396 87.1899 66.6396 87.1999Z" fill="#7A5751"/>
<path d="M66.7199 87.1094L66.6699 87.1694C66.6699 87.1694 66.7199 87.1294 66.7199 87.1094Z" fill="#7A5751"/>
<path d="M65.6299 87.8307C65.6899 87.8007 65.7799 87.7707 65.8599 87.7207C65.8599 87.7207 65.6699 87.7807 65.6299 87.8307Z" fill="#7A5751"/>
<path d="M64.5298 88.0705C64.5998 88.0605 64.6798 88.0405 64.7398 88.0205C64.6998 88.0205 64.6498 88.0205 64.7398 87.9805C64.4698 88.0305 64.8098 88.0105 64.5298 88.0705Z" fill="#7A5751"/>
<path d="M63.86 88.1999C63.97 88.1699 63.86 88.1799 63.86 88.1699C63.79 88.1999 63.77 88.2099 63.86 88.1999Z" fill="#7A5751"/>
<path d="M59.0398 87.6404L59.0598 87.6104C58.9698 87.5804 59.0598 87.6204 59.0398 87.6404Z" fill="#7A5751"/>
<path d="M58.1001 87.3809L58.1701 87.4409H58.2301L58.1001 87.3809Z" fill="#7A5751"/>
<path d="M57.7499 86.8901L57.7799 86.9101L57.6499 86.8301L57.7499 86.8901Z" fill="#7A5751"/>
<path d="M54.6796 79.75L54.6396 79.78C54.6396 79.84 54.6996 79.85 54.6796 79.75Z" fill="#7A5751"/>
<path d="M55.0698 76.2093C55.0698 76.2093 55.1398 76.0893 55.1498 76.0293C55.1098 76.0993 55.0798 76.1693 55.0698 76.2093Z" fill="#7A5751"/>
<path d="M64.34 76.0493L64.27 76.0293L64.4 76.0793L64.34 76.0493Z" fill="#7A5751"/>
<path d="M49.02 70.0898L71.31 79.0198" stroke="#7A5751" stroke-width="2.66" stroke-miterlimit="10" stroke-linecap="round"/>
<path d="M114.789 86.5998C112.449 84.1898 109.629 79.2298 115.029 76.9598C122.869 73.6698 128.399 70.3498 127.259 82.5298C126.769 87.8298 118.499 90.4198 114.789 86.5998Z" fill="url(#paint1_linear_316_18160)"/>
<path d="M114.86 86.5391C114.86 86.5391 114.82 86.5591 114.88 86.5991H114.95L114.86 86.5391V86.5391Z" fill="#7A5751"/>
<path d="M115.149 86.8999C115.229 86.9399 115.319 86.9699 115.309 86.8999C115.219 86.8799 115.219 86.8499 115.119 86.8399C115.059 86.7999 115.039 86.7499 115.059 86.7499C115.029 86.7499 114.989 86.6699 114.939 86.6699C114.979 86.7499 115.069 86.8299 115.179 86.8799C115.189 86.8999 115.169 86.8999 115.159 86.8999H115.149Z" fill="#7A5751"/>
<path d="M125.269 86.3809L125.239 86.4209C125.259 86.4009 125.279 86.3809 125.269 86.3809Z" fill="#7A5751"/>
<path d="M125.83 85.9102L125.8 85.9402C125.8 85.9402 125.83 85.9202 125.83 85.9102Z" fill="#7A5751"/>
<path d="M121.529 88.2408H121.639C121.639 88.2408 121.579 88.2308 121.529 88.2408Z" fill="#7A5751"/>
<path d="M115.95 87.3598C115.95 87.3598 115.91 87.3398 115.89 87.3398L115.94 87.3598H115.95Z" fill="#7A5751"/>
<path d="M119.7 88.5098H119.66L119.63 88.5298L119.7 88.5098Z" fill="#7A5751"/>
<path d="M118.27 88.4309C118.27 88.4309 118.32 88.4009 118.33 88.3809C118.31 88.3909 118.28 88.4009 118.26 88.4009C118.26 88.4009 118.26 88.4209 118.27 88.4309V88.4309Z" fill="#7A5751"/>
<path d="M116.149 87.6509L116.109 87.6309L116.149 87.6509Z" fill="#7A5751"/>
<path d="M120.72 88.4297C120.72 88.4297 120.72 88.4297 120.73 88.4397C120.73 88.4397 120.73 88.4397 120.72 88.4297Z" fill="#7A5751"/>
<path d="M114.79 86.6096L114.77 86.5996L114.75 86.6096H114.79Z" fill="#7A5751"/>
<path d="M124.85 73.8594C124.98 73.9194 124.62 73.8594 124.82 73.9394C124.8 73.9194 125.02 73.9194 124.85 73.8594Z" fill="#7A5751"/>
<path d="M115.979 87.3809L116.029 87.4109L115.979 87.3809Z" fill="#7A5751"/>
<path d="M124.81 73.9297L124.83 73.9397L124.81 73.9297Z" fill="#7A5751"/>
<path d="M127.469 81.9199C127.469 81.9199 127.459 81.9399 127.449 81.9499C127.449 81.9499 127.449 81.9499 127.469 81.9199Z" fill="#7A5751"/>
<path d="M126.949 84.1301L126.979 84.0801L126.949 84.1301Z" fill="#7A5751"/>
<path d="M127.489 80.7499C127.489 80.7499 127.499 80.7099 127.489 80.6699C127.489 80.6699 127.489 80.7199 127.489 80.7499Z" fill="#7A5751"/>
<path d="M127.52 79.5293L127.51 79.5493V79.5893L127.52 79.5293Z" fill="#7A5751"/>
<path d="M112.249 82.0391C112.249 82.0391 112.239 82.0891 112.229 82.0991C112.249 82.0791 112.299 82.2391 112.249 82.0391Z" fill="#7A5751"/>
<path d="M115.939 87.3794C115.939 87.3794 115.959 87.3794 115.979 87.3794L115.939 87.3594C115.939 87.3594 115.939 87.3594 115.939 87.3694V87.3794Z" fill="#7A5751"/>
<path d="M117.09 76.2598L117.05 76.2798C117.05 76.2798 117.08 76.2698 117.09 76.2598Z" fill="#7A5751"/>
<path d="M127.22 79.9308C127.22 79.9308 127.24 79.8608 127.25 79.8208V79.8008L127.23 79.9308H127.22Z" fill="#7A5751"/>
<path d="M112.72 83.2399C112.65 83.0799 112.64 83.1799 112.6 83.1599C112.5 82.9699 112.6 83.0599 112.59 82.9799C112.53 82.8599 112.46 82.7799 112.42 82.6799C112.42 82.6799 112.42 82.6499 112.44 82.6699C112.35 82.5499 112.3 82.2799 112.22 82.1299C112.22 82.1199 112.22 82.1099 112.22 82.1099C112.2 82.1399 112.18 82.1499 112.16 82.1499C112.14 82.0699 112.09 82.0099 112.12 81.9699C112.13 82.0199 112.14 82.0199 112.16 82.0399L112.13 81.9599C112.16 81.8799 112.17 82.0699 112.21 82.0599C112.16 81.8999 112.06 81.7199 112.07 81.5899C112.1 81.5599 112.13 81.8799 112.14 81.7099L112.17 81.8999C112.21 81.7399 112.19 82.0199 112.24 81.8699C112.19 81.6199 112.17 81.5899 112.15 81.3399C112.12 81.2899 112.12 81.3599 112.08 81.3099C111.99 80.9499 112.17 81.0199 112.12 80.7599C112.09 80.6899 112.04 80.6599 112.08 80.4699L112.13 80.5399C112.14 80.2999 112.07 80.3899 112.15 80.1399C112.15 80.1899 112.12 80.3299 112.14 80.2999C112.22 80.1499 112.14 80.1799 112.17 80.0599L112.22 80.0399C112.25 79.7799 112.35 79.5099 112.46 79.2399C112.46 79.2599 112.46 79.3099 112.5 79.2599C112.66 78.9399 112.9 78.5899 113.19 78.3899L113.26 78.2699C113.26 78.2699 113.31 78.2399 113.29 78.2699C113.4 78.1899 113.28 78.2499 113.31 78.1899C113.36 78.1299 113.4 78.1299 113.37 78.1799C113.51 77.9699 113.89 77.7099 114.12 77.5899L114.08 77.6299C114.25 77.5199 114.24 77.4499 114.42 77.3899L114.39 77.4099C114.79 77.2299 115.21 76.9799 115.56 76.9099C115.6 76.8299 115.98 76.7599 115.97 76.6799C116.22 76.6199 116.16 76.6599 116.5 76.5399C116.59 76.5099 116.61 76.4399 116.72 76.3799L116.74 76.4199L116.87 76.3199H116.97L117.07 76.2799C117.07 76.2799 116.98 76.2999 116.98 76.2799C117.13 76.1899 117.38 76.1399 117.39 76.1599L117.75 75.9699C117.75 75.9699 117.69 76.0199 117.64 76.0499C117.83 75.9299 117.69 76.0699 117.86 75.9599C117.83 75.9599 117.86 75.9299 117.86 75.9199C117.96 75.8999 118.17 75.8199 118.32 75.7399L118.3 75.7799C118.58 75.6599 118.89 75.5299 119.2 75.3899C119.08 75.4199 119.09 75.3699 119.18 75.3299L119.23 75.3599C119.23 75.3599 119.13 75.3799 119.23 75.2999C119.35 75.2599 119.33 75.3099 119.27 75.3499L119.41 75.2799C119.41 75.2799 119.39 75.3099 119.39 75.3299C119.44 75.2799 119.65 75.2699 119.72 75.1899H119.73L120.45 74.9099C120.45 74.9099 120.55 74.8399 120.61 74.7899C120.81 74.7299 121.03 74.6799 121.26 74.6099C121.42 74.5399 121.3 74.5599 121.37 74.5199C121.39 74.5499 121.62 74.4699 121.51 74.5299L122.22 74.2999C122.22 74.2999 122.13 74.2999 122.15 74.2799C122.21 74.2599 122.3 74.2599 122.3 74.2799H122.28C122.68 74.1299 123.23 74.1899 123.55 74.0999H123.53C123.64 74.0799 123.75 74.0699 123.87 74.0499C124.03 74.0499 123.78 74.0799 123.89 74.0999C124.25 74.0399 124.46 74.1199 124.75 74.1399C124.95 74.2699 125.53 74.3699 125.72 74.6299V74.5999C125.8 74.6299 125.79 74.6599 125.83 74.6999C125.83 74.6799 125.78 74.6299 125.83 74.6499C126.37 75.0599 126.65 75.7599 126.82 76.4299C126.89 76.6799 126.99 76.5299 127 76.8699L126.94 76.7899C127.11 77.2899 127.13 77.8399 127.21 78.3499C127.2 78.3199 127.18 78.3199 127.18 78.2699C127.16 78.3799 127.21 78.6699 127.24 78.6699C127.24 78.7499 127.22 78.6899 127.21 78.7399C127.19 78.8499 127.26 79.0099 127.23 79.0699C127.23 79.0799 127.22 79.0399 127.22 79.0199C127.24 79.0899 127.22 79.3499 127.26 79.2799C127.26 79.4699 127.28 79.6499 127.26 79.8099C127.3 79.9099 127.24 80.1399 127.29 80.1799C127.23 80.1599 127.24 80.5199 127.26 80.6399C127.24 80.5999 127.24 80.7499 127.21 80.6999C127.21 80.8399 127.21 80.9699 127.24 80.9499C127.16 81.1999 127.27 81.4699 127.17 81.6099C127.16 82.0299 127.19 82.4299 127.12 82.7899C127.07 82.7699 127.19 82.3899 127.12 82.3899C127.1 82.7399 127.1 82.9399 127.03 83.2799C127.01 83.3699 127.01 83.2199 127.01 83.1899C127 83.5499 126.79 83.8199 126.73 84.1299C126.73 84.1299 126.73 84.0899 126.73 84.0599C126.71 84.1199 126.67 84.1899 126.7 84.1899V84.1299C126.78 84.0499 126.71 84.3999 126.7 84.4099C126.68 84.2799 126.52 84.6699 126.52 84.4799C126.5 84.5199 126.49 84.5699 126.51 84.5699C126.47 84.6199 126.46 84.6299 126.47 84.5699C126.37 84.7699 126.43 84.7099 126.33 84.8799C126.32 84.8799 126.33 84.8299 126.33 84.8099C126.3 84.9099 126.27 85.0099 126.17 85.1499C126.17 85.1399 126.15 85.1499 126.17 85.1099C125.99 85.3399 125.91 85.5299 125.68 85.7599C125.7 85.6499 125.6 85.8299 125.55 85.8099C125.52 85.8599 125.47 85.8899 125.44 85.9399L125.51 85.9099C125.4 86.0099 125.32 86.1299 125.21 86.1999L125.28 86.1099L125.08 86.3099L125.21 86.2199C125.11 86.3399 125.26 86.2599 125.1 86.3799C125.13 86.3499 124.99 86.4799 124.91 86.5099C124.87 86.5699 124.81 86.6199 124.71 86.6799C124.68 86.6799 124.7 86.6199 124.67 86.6199C124.63 86.6999 124.38 86.8299 124.33 86.9199C124.35 86.8899 124.33 86.8699 124.33 86.8699L124.3 86.9299C124.24 86.9599 124.22 86.9599 124.22 86.9299C124.04 87.0399 124.31 86.9499 124.09 87.0599C124.1 87.0499 124.09 87.0499 124.13 87.0199C123.91 87.1399 123.71 87.2699 123.5 87.3699C123.42 87.3599 123.67 87.2699 123.58 87.2599C123.3 87.4299 122.99 87.6199 122.68 87.7199L122.74 87.6999C122.72 87.7799 122.5 87.7499 122.36 87.8399C122.4 87.8199 122.4 87.7799 122.39 87.7999C122.18 87.8799 121.96 87.9399 121.65 88.0599L121.69 88.0299C121.56 88.0499 121.36 88.1099 121.22 88.1299C121.18 88.1499 121.1 88.1599 121.16 88.1799C120.71 88.1299 120.35 88.3899 119.95 88.2899C120 88.2899 120.06 88.2699 120.02 88.2699L119.69 88.2999C119.69 88.2999 119.73 88.3199 119.8 88.3399C119.76 88.3599 119.67 88.3799 119.58 88.3799C119.73 88.3599 119.58 88.3299 119.51 88.3199C119.52 88.3199 119.5 88.3399 119.51 88.3499C119.34 88.2999 119.48 88.4099 119.25 88.3799V88.3599C119.18 88.3599 119.09 88.3699 119 88.3599C118.96 88.3199 119.09 88.3599 119.1 88.3199C118.97 88.3099 118.83 88.3599 118.72 88.3199H118.92C118.79 88.2599 118.78 88.2699 118.68 88.2599L118.46 88.2199L118.52 88.2399C118.34 88.3199 118.18 88.2199 117.95 88.2199C118.17 88.2199 117.99 88.1999 118.02 88.1599C117.97 88.1399 117.89 88.0999 117.91 88.0999C117.8 88.0999 117.75 88.0399 117.59 88.0499C117.59 88.0399 117.48 88.0199 117.51 87.9999C117.37 87.9799 117.54 88.0299 117.51 88.0399C117.28 88.0499 117.06 87.8299 116.76 87.7799C116.51 87.6999 116.44 87.7399 116.22 87.6299C116.16 87.5699 116.3 87.6299 116.3 87.6299C116.19 87.5399 116.11 87.4999 115.99 87.4499C116.02 87.4499 116 87.4299 115.97 87.3999C115.88 87.3499 115.89 87.3999 115.78 87.3199C115.81 87.3199 115.84 87.3199 115.89 87.3199C115.78 87.2699 115.67 87.2299 115.56 87.1799C115.55 87.1399 115.64 87.1899 115.69 87.1999C115.56 87.1499 115.4 86.9899 115.34 86.9999L115.4 87.0699C115.4 87.0699 115.4 87.0299 115.43 87.0499C115.54 87.0999 115.55 87.1699 115.55 87.1899L115.48 87.1399C115.49 87.2699 115.78 87.3199 115.93 87.4199H115.84L116.02 87.4799C116.02 87.4799 116.05 87.5499 115.97 87.5099C116.07 87.5999 116.08 87.5499 116.16 87.6299C116.16 87.6399 116.16 87.6299 116.16 87.6299L116.27 87.6799C116.27 87.6799 116.27 87.7299 116.21 87.6799C116.38 87.8299 116.55 87.7899 116.61 87.8699H116.59C116.89 87.9599 116.63 87.8399 116.87 87.8799L116.98 88.0299L117.02 87.9999C117.02 87.9999 117.11 88.0399 117.09 88.0499C117.21 88.0699 117.08 88.0299 117.15 88.0299C117.28 88.1399 117.56 88.1199 117.58 88.1999C117.64 88.1799 117.44 88.1399 117.61 88.1599C117.64 88.2399 117.8 88.1899 117.93 88.2499C117.88 88.2799 117.75 88.2299 117.88 88.2899C117.98 88.2499 118.14 88.3699 118.27 88.3799C118.28 88.3299 118.53 88.3799 118.73 88.3799C118.72 88.3899 119.1 88.4499 119.29 88.4699C119.29 88.4699 119.52 88.4299 119.66 88.4199C119.66 88.4499 119.63 88.4599 119.55 88.4799H119.68C119.68 88.4799 119.75 88.4499 119.84 88.4399L119.81 88.4799C119.99 88.4699 120.16 88.4399 120.39 88.4299C120.39 88.3899 120.21 88.3599 120.44 88.2999C120.45 88.3199 120.46 88.3499 120.4 88.3599C120.42 88.3599 120.47 88.3299 120.51 88.3399L120.42 88.3799C120.52 88.3799 120.47 88.3499 120.55 88.3399C120.55 88.3699 120.61 88.3499 120.6 88.3699C120.58 88.3699 120.53 88.3699 120.5 88.3799C120.59 88.3799 120.7 88.3799 120.74 88.3799C120.73 88.3699 120.74 88.3399 120.8 88.3299C120.97 88.2999 120.86 88.3499 120.97 88.3499C121.01 88.3299 121.12 88.3299 121.12 88.2899C121.17 88.2899 121.18 88.2899 121.2 88.3099C121.29 88.2899 121.61 88.1999 121.5 88.1899C121.77 88.0699 122.1 88.0699 122.38 87.9499C122.54 87.8899 122.74 87.8099 122.85 87.7399C122.9 87.7199 122.97 87.7199 122.96 87.7399C123.08 87.6799 123.09 87.6699 123.28 87.6099C123.17 87.6899 123.33 87.6099 123.16 87.6799C123.33 87.6299 123.37 87.6199 123.52 87.4999C123.48 87.5599 123.66 87.4799 123.73 87.4299L123.61 87.4699C123.69 87.4199 123.76 87.3899 123.84 87.3499L123.82 87.4099C124.17 87.2999 124.33 87.0099 124.61 86.9299C124.67 86.8499 124.44 87.0199 124.49 86.9399C124.63 86.8499 124.81 86.8099 124.85 86.7799C125.05 86.6699 124.99 86.6099 125.17 86.4699C125.14 86.4699 125.09 86.4699 125.21 86.3399C125.34 86.2399 125.4 86.2499 125.34 86.3399C125.31 86.3699 125.29 86.3799 125.29 86.3699C125.25 86.4099 125.21 86.4599 125.27 86.4299V86.3999C125.35 86.3599 125.52 86.1999 125.49 86.2599C125.57 86.1699 125.51 86.2099 125.44 86.2599C125.61 86.1299 125.7 86.0499 125.85 85.8899C125.82 85.9099 125.79 85.9199 125.81 85.8899C126.03 85.6599 125.88 85.7599 126.01 85.5899C126.11 85.5099 126.03 85.6599 126.15 85.4799C126.25 85.3899 126.2 85.4799 126.18 85.5299C126.28 85.3499 126.45 85.2599 126.5 85.1599L126.46 85.2599C126.49 85.1999 126.51 85.1599 126.54 85.1099L126.48 85.1399C126.52 85.0899 126.54 85.0399 126.55 85.0499C126.57 84.9799 126.48 85.0599 126.52 84.9399C126.58 84.8799 126.63 84.7199 126.68 84.7099C126.53 84.9299 126.73 84.7099 126.62 84.8999C126.64 84.8599 126.66 84.8199 126.7 84.7699C126.7 84.7699 126.7 84.7799 126.7 84.7999C126.86 84.5999 126.72 84.6799 126.85 84.4599C126.85 84.4999 126.92 84.4299 126.94 84.3899C126.89 84.4799 126.89 84.4199 126.9 84.3199C126.98 84.1699 126.95 84.1499 126.99 84.0699L126.95 84.1599C126.95 84.1599 126.97 84.0399 127.01 83.9299C127.03 83.9299 126.98 84.0299 127.01 83.9999C127.01 83.8699 127.15 83.7499 127.19 83.5699C127.23 83.4999 127.24 83.5699 127.27 83.5099C127.29 83.3099 127.35 83.2999 127.36 83.0899C127.32 83.1399 127.32 83.1499 127.32 82.9999L127.28 83.3399V83.1099C127.26 83.2099 127.25 83.3299 127.24 83.3899C127.24 83.2799 127.24 83.2899 127.21 83.3299C127.28 83.1999 127.23 83.0499 127.3 82.8999L127.38 82.9199C127.46 82.6799 127.43 82.4799 127.47 82.1699L127.45 82.2699C127.45 82.2699 127.46 82.0799 127.45 81.9699C127.48 81.9799 127.49 81.9199 127.51 81.8799C127.49 81.8799 127.53 81.6499 127.48 81.6199L127.53 81.4799C127.56 81.2299 127.47 81.1799 127.49 80.9399C127.52 81.0199 127.54 80.8999 127.55 81.0699C127.55 80.9899 127.56 80.9099 127.55 80.9099C127.57 80.8599 127.53 80.6799 127.55 80.6099C127.55 80.5799 127.51 80.5599 127.52 80.4699H127.53C127.52 80.4699 127.52 80.3299 127.49 80.4099C127.58 80.1599 127.49 79.7099 127.57 79.4899C127.56 79.3099 127.55 79.0899 127.54 78.9299C127.54 78.9399 127.55 78.9299 127.55 78.9599C127.57 78.7299 127.47 78.8299 127.49 78.5699C127.52 78.4399 127.52 78.6999 127.53 78.6199C127.62 78.5799 127.49 78.3099 127.53 78.1399V78.1799C127.55 78.0499 127.49 77.8599 127.46 77.6499C127.46 77.6499 127.46 77.6499 127.47 77.6499C127.4 77.5099 127.36 77.2399 127.3 77.0399C127.35 77.0999 127.34 77.1299 127.36 77.0799C127.34 76.9899 127.31 77.1199 127.26 76.9399C127.26 76.8799 127.26 76.7399 127.29 76.7199L127.33 76.8899C127.36 76.7899 127.28 76.6699 127.27 76.5799H127.29C127.22 76.3299 127.16 76.3399 127.08 76.0599V76.0899C126.98 75.9599 127.06 75.9499 126.97 75.8199L127 75.7599C126.95 75.6699 126.82 75.4399 126.71 75.2899C126.8 75.3599 126.92 75.5499 126.99 75.6699C126.96 75.5699 126.84 75.3499 126.78 75.3099C126.81 75.3399 126.84 75.3799 126.86 75.4199C126.76 75.3299 126.67 75.1899 126.55 75.0199C126.66 74.9799 126.24 74.5799 126.17 74.4299C125.86 74.2199 125.57 73.9599 125.14 73.8499C125.26 73.9699 125.02 73.8099 125.02 73.8999C124.92 73.8799 124.88 73.8799 124.88 73.8699L124.59 73.7699C124.52 73.7399 124.69 73.7699 124.68 73.7499C124.46 73.7099 124.59 73.6999 124.45 73.6699C124.48 73.6999 124.37 73.7099 124.24 73.6899L124.42 73.7399C124.11 73.7599 124.15 73.6499 123.84 73.6999L123.94 73.6699C123.78 73.6699 123.35 73.7099 123.21 73.7899C123.18 73.7899 123.14 73.7699 123.21 73.7499C122.83 73.7999 122.4 73.9699 122.11 74.0099L122.13 73.9799C122.06 73.9999 122.02 74.0499 121.93 74.0499C121.93 74.0499 121.95 74.0199 121.93 74.0299C121.9 74.0499 121.76 74.1099 121.67 74.1299L121.74 74.0899C121.38 74.1699 121.22 74.3099 120.94 74.4099C120.92 74.3499 120.65 74.4299 120.51 74.4699C120.11 74.5999 119.86 74.7499 119.5 74.9199C119.25 74.9499 118.73 75.1999 118.36 75.3199C118.42 75.3099 118.36 75.3699 118.31 75.3999C118.22 75.4199 118.09 75.5399 118.09 75.4799H118.12C118.04 75.4499 117.87 75.5299 117.73 75.5899V75.6599C117.34 75.7199 116.83 76.0899 116.6 76.0899L116.34 76.2399V76.1999C116.09 76.2899 115.97 76.3399 115.69 76.4699L115.74 76.4199C115.58 76.4899 115.58 76.6099 115.43 76.6699L115.36 76.6399C115.08 76.7499 114.77 76.8599 114.51 77.0399C114.51 77.0399 114.51 77.0099 114.56 76.9899C114.43 77.0599 114.02 77.2099 114.11 77.2599C114.08 77.2199 113.84 77.4399 113.71 77.5599V77.5099C113.62 77.6299 113.62 77.6399 113.47 77.7699C113.43 77.7899 113.42 77.7699 113.47 77.7399C113.33 77.8099 113.4 77.8399 113.24 77.9599L113.28 77.8899C113.16 77.9999 113.18 77.9999 113.13 78.0899C113.07 78.1699 112.9 78.2999 112.86 78.2899C112.86 78.3199 112.81 78.3999 112.76 78.4699C112.74 78.4699 112.76 78.4399 112.76 78.4199C112.58 78.6299 112.56 78.7799 112.42 78.9099C112.41 78.9099 112.39 78.9099 112.38 78.9299C112.51 78.7499 112.61 78.6099 112.6 78.6199C112.57 78.5999 112.46 78.7399 112.51 78.5999L112.27 79.1099C112.27 79.1099 112.26 79.1199 112.25 79.1299V79.1099C112.25 79.1099 112.22 79.1799 112.21 79.2099L112.14 79.3399C112.14 79.3399 112.04 79.5199 112.01 79.6099C112.05 79.6099 112.01 79.7299 112.07 79.6299C112.07 79.6399 112.07 79.6099 112.09 79.5599V79.5199H112.1L112.19 79.3199C112.18 79.3899 112.17 79.4599 112.11 79.5499C112.11 79.5999 112.11 79.6499 112.13 79.6799C112.05 79.7799 111.98 79.9999 111.94 80.0299C111.88 80.2999 111.89 80.6699 111.94 80.8399C111.94 80.9199 111.92 80.9299 111.9 80.9599C111.9 80.9199 111.9 80.8599 111.89 80.8399C111.89 80.9899 111.93 81.2899 111.97 81.3199C111.97 81.5099 111.91 81.2199 111.95 81.4799L111.93 81.4499C111.93 81.9799 112.2 82.2499 112.3 82.8099C112.3 82.7699 112.29 82.7499 112.3 82.7399C112.47 83.3699 112.87 83.9399 113.14 84.5199C113.23 84.6799 113.26 84.6799 113.34 84.7599V84.8199L113.47 84.9499C113.65 85.1499 113.66 85.3799 113.92 85.6199V85.5699C113.99 85.6699 114.17 85.8599 114.13 85.8599C114.14 85.8599 114.18 85.8699 114.2 85.9199V85.9399L114.41 86.1499C114.56 86.3299 114.32 86.1799 114.55 86.4299C114.64 86.5199 114.84 86.6499 114.82 86.6099C114.79 86.5699 114.74 86.5099 114.75 86.4899L114.84 86.5699C114.9 86.5399 115 86.5699 114.84 86.3299L114.68 86.2099L114.66 86.1399L114.77 86.2599C114.73 86.1699 114.67 86.1499 114.61 86.1099C114.61 86.0899 114.61 86.0599 114.58 86.0299L114.41 85.9199C114.41 85.9199 114.5 85.9499 114.43 85.8499C114.35 85.7999 114.44 85.9499 114.34 85.8499C114.3 85.7599 114.34 85.7699 114.25 85.6999C114.25 85.6799 114.28 85.6899 114.31 85.7199C114.23 85.6599 114.14 85.5299 114.08 85.5099C114.05 85.4099 113.88 85.2499 113.93 85.2299C113.9 85.2099 113.79 85.1199 113.74 85.0499C113.89 85.1399 113.55 84.7799 113.64 84.7699C113.52 84.6999 113.38 84.4299 113.24 84.2599C113.25 84.2599 113.27 84.2799 113.28 84.2999C113.23 84.1899 113.23 84.1499 113.2 84.0799C113.15 84.0899 113.05 83.9399 112.97 83.8599C112.94 83.7099 113.07 83.9099 113.09 83.8499C113.06 83.8799 112.93 83.6499 112.92 83.7099C112.9 83.5999 112.89 83.6199 112.91 83.5499C112.84 83.5599 112.86 83.4599 112.78 83.3899C112.74 83.2299 112.82 83.3299 112.73 83.1699C112.71 83.0899 112.8 83.2199 112.8 83.2199L112.72 83.2399ZM112.43 79.2399L112.4 79.3199L112.43 79.2399ZM112.61 78.9399L112.52 79.0599C112.52 79.0599 112.5 79.0499 112.52 79.0199C112.52 79.0399 112.57 78.9799 112.61 78.9399ZM112.03 79.4999C112.05 79.4399 112.06 79.4299 112.07 79.4199L112.03 79.5199C112.03 79.5199 112.03 79.5199 112.03 79.4999Z" fill="#7A5751"/>
<path d="M112.039 79.6199L112.029 79.6398L112.049 79.6199V79.5898L112.039 79.6199Z" fill="#7A5751"/>
<path d="M116.729 76.4299V76.4199L116.699 76.4399L116.729 76.4299Z" fill="#7A5751"/>
<path d="M118.66 88.2895L118.54 88.2695L118.66 88.2895Z" fill="#7A5751"/>
<path d="M118.02 88.1699L118 88.1799H118.02V88.1699Z" fill="#7A5751"/>
<path d="M126.699 84.0799V84.0599C126.719 83.9999 126.709 84.0399 126.699 84.0799Z" fill="#7A5751"/>
<path d="M124.899 86.5194L124.959 86.4395C124.959 86.4395 124.889 86.4994 124.899 86.5194Z" fill="#7A5751"/>
<path d="M125.07 86.3496C125.07 86.3496 124.99 86.4096 124.96 86.4496C125 86.4196 125.04 86.3896 125.07 86.3496Z" fill="#7A5751"/>
<path d="M115.479 87.0395L115.449 87.0195L115.479 87.0395Z" fill="#7A5751"/>
<path d="M115.45 87.02L115.42 87C115.42 87 115.44 87.02 115.45 87.02Z" fill="#7A5751"/>
<path d="M115.359 86.959L115.419 86.999C115.419 86.999 115.379 86.959 115.359 86.959Z" fill="#7A5751"/>
<path d="M116.409 87.6498C116.359 87.6198 116.289 87.5398 116.209 87.5098H116.199C116.199 87.5098 116.349 87.6398 116.409 87.6498V87.6498Z" fill="#7A5751"/>
<path d="M117.379 88.1894C117.309 88.1694 117.239 88.1494 117.169 88.1094C117.199 88.1394 117.239 88.1794 117.149 88.1394C117.399 88.2794 117.099 88.0994 117.379 88.1794V88.1894Z" fill="#7A5751"/>
<path d="M118.05 88.3708C117.93 88.3508 118.05 88.3908 118.04 88.4008C118.12 88.4008 118.14 88.4008 118.05 88.3708Z" fill="#7A5751"/>
<path d="M122.979 87.8008V87.8408C123.069 87.8008 122.979 87.8308 122.979 87.8008Z" fill="#7A5751"/>
<path d="M123.759 87.2207L123.669 87.2507L123.649 87.2907L123.759 87.2207Z" fill="#7A5751"/>
<path d="M124.37 87.1503L124.34 87.1703L124.46 87.0703L124.37 87.1503Z" fill="#7A5751"/>
<path d="M127.55 79.75L127.51 79.78C127.51 79.84 127.56 79.86 127.55 79.75Z" fill="#7A5751"/>
<path d="M127.06 76.1492C127.06 76.1492 127.06 75.9992 127 75.9492C127.03 76.0292 127.04 76.1092 127.06 76.1492Z" fill="#7A5751"/>
<path d="M117.48 75.7392L117.54 75.6992L117.42 75.7692L117.48 75.7392Z" fill="#7A5751"/>
<path d="M132.93 70.0898L110.64 79.0198" stroke="#7A5751" stroke-width="2.66" stroke-miterlimit="10" stroke-linecap="round"/>
</g>
<defs>
<linearGradient id="paint0_linear_316_18160" x1="59.5387" y1="91.97" x2="66.6732" y2="61.4323" gradientUnits="userSpaceOnUse">
<stop stop-color="#7A5751"/>
<stop offset="0.41" stop-color="#7E5C57"/>
<stop offset="0.73" stop-color="#846460"/>
</linearGradient>
<linearGradient id="paint1_linear_316_18160" x1="122.409" y1="92.0215" x2="115.275" y2="61.4838" gradientUnits="userSpaceOnUse">
<stop stop-color="#7A5751"/>
<stop offset="0.41" stop-color="#7E5C57"/>
<stop offset="0.73" stop-color="#846460"/>
</linearGradient>
<clipPath id="clip0_316_18160">
<rect width="179.42" height="273.29" fill="white"/>
</clipPath>
</defs>
</svg>
