<svg width="180" height="274" viewBox="0 0 180 274" fill="none" xmlns="http://www.w3.org/2000/svg">
<g clip-path="url(#clip0_316_18288)">
<path d="M141.591 178.9C141.591 221.33 133.721 253.16 90.0908 253.16C46.4608 253.16 38.5908 221.33 38.5908 178.9C38.5908 136.47 61.6508 120.42 90.0908 120.42C118.531 120.42 141.591 136.47 141.591 178.9V178.9Z" fill="#FDD800"/>
<path d="M39.2409 167.629C39.2409 167.629 12.9009 181.609 12.9009 210.559C12.9009 239.509 11.9209 252.509 26.2309 252.509C40.5409 252.509 56.1509 255.759 53.8709 222.919C51.5909 190.079 55.1709 158.859 39.2409 167.639V167.629Z" fill="#F1CF14"/>
<path d="M2.49055 240.8C2.49055 247.98 0.210551 253.81 18.1006 253.81C35.9906 253.81 33.7105 247.99 33.7105 240.8C33.7105 233.61 26.7206 225.66 18.1006 225.66C9.48055 225.66 2.49055 233.61 2.49055 240.8V240.8Z" fill="#F5F2DD"/>
<path d="M140.18 167.629C140.18 167.629 166.52 181.609 166.52 210.559C166.52 239.499 167.5 252.509 153.19 252.509C138.88 252.509 123.27 255.759 125.55 222.919C127.83 190.079 124.25 158.859 140.18 167.639V167.629Z" fill="#FDD800"/>
<path d="M176.93 240.8C176.93 247.98 179.21 253.81 161.32 253.81C143.43 253.81 145.71 247.99 145.71 240.8C145.71 233.62 152.7 225.66 161.32 225.66C169.94 225.66 176.93 233.61 176.93 240.8Z" fill="#F7F4E5"/>
<path d="M39.2409 167.629C39.2409 167.629 12.9009 181.609 12.9009 210.559C12.9009 239.509 11.9209 252.509 26.2309 252.509C40.5409 252.509 56.1509 255.759 53.8709 222.919C51.5909 190.079 55.1709 158.859 39.2409 167.639V167.629Z" fill="#FDD800"/>
<path d="M156.091 141.54C143.601 182.09 140.621 229.09 90.091 229.09C39.561 229.09 37.081 181.48 22.751 141.54C51.801 131.9 57.151 96.3496 90.091 96.3496C123.031 96.3496 126.171 128.25 156.091 141.54V141.54Z" fill="#F7F4E5"/>
<path d="M48.4807 197.36C71.4607 218.99 81.1107 220.34 81.1107 220.34C81.1107 220.34 80.6607 233.35 78.8607 253.19C77.0607 273.02 71.2007 272.12 63.9807 273.02C56.7707 273.92 47.4307 273.73 43.2407 254.09C25.7207 171.9 30.4507 161.99 30.4507 161.99C30.4507 161.99 34.8907 184.58 48.4707 197.36H48.4807Z" fill="#F7F4E5"/>
<path d="M48.4808 197.36C71.4608 218.99 81.1108 220.34 81.1108 220.34C81.1108 220.34 80.6608 233.35 78.8608 253.19C73.3808 233.65 47.3708 234.3 36.1008 218.08C27.2008 168.82 30.4608 161.99 30.4608 161.99C30.4608 161.99 34.9008 184.58 48.4808 197.36V197.36Z" fill="#FDD800"/>
<path d="M130.801 197.36C107.821 218.99 98.1709 220.34 98.1709 220.34C98.1709 220.34 98.6209 233.35 100.421 253.19C102.221 273.02 108.081 272.12 115.301 273.02C122.511 273.92 131.851 273.73 136.041 254.09C153.561 171.9 148.831 161.99 148.831 161.99C148.831 161.99 144.391 184.58 130.811 197.36H130.801Z" fill="#F7F4E5"/>
<path d="M130.801 197.36C107.821 218.99 98.1709 220.34 98.1709 220.34C98.1709 220.34 98.6209 233.35 100.421 253.19C105.901 233.65 131.911 234.3 143.181 218.08C152.081 168.82 148.821 161.99 148.821 161.99C148.821 161.99 144.381 184.58 130.801 197.36V197.36Z" fill="#FDD800"/>
<path d="M2.49055 240.8C2.49055 247.98 0.210551 253.81 18.1006 253.81C35.9906 253.81 33.7105 247.99 33.7105 240.8C33.7105 233.61 26.7206 225.66 18.1006 225.66C9.48055 225.66 2.49055 233.61 2.49055 240.8V240.8Z" fill="#F7F4E5"/>
<path fill-rule="evenodd" clip-rule="evenodd" d="M117.12 21.7587C134.3 8.02867 156.57 -5.47133 170.8 2.25867C190.1 12.7387 172.41 59.3987 162.14 82.4787C162.29 84.1087 162.36 85.7287 162.36 87.3487C162.36 121.679 128.67 149.499 89.8505 149.499C51.0305 149.499 16.6005 121.679 16.6005 87.3487C16.6005 85.4487 16.7105 83.5487 16.9105 81.6387C6.60048 58.2887 -10.4495 12.6087 8.62049 2.25867C22.8705 -5.47133 45.1705 8.05867 62.3605 21.8087C70.9505 17.8587 80.2705 15.5787 89.8505 15.5787C99.4305 15.5787 108.62 17.8387 117.12 21.7587V21.7587Z" fill="#F7F4E5"/>
<path fill-rule="evenodd" clip-rule="evenodd" d="M24.7905 115.449C61.2705 114.559 90.5905 82.1092 90.5905 42.2192C90.5905 32.8692 88.9805 23.9292 86.0405 15.6992C77.8005 16.2192 69.8105 18.3892 62.3605 21.8092C45.1805 8.05918 22.8705 -5.48082 8.62049 2.25918C-10.4495 12.6092 6.60048 58.2892 16.9105 81.6392C16.7105 83.5492 16.6005 85.4492 16.6005 87.3492C16.6005 97.4592 19.5905 107.009 24.8005 115.449H24.7905Z" fill="#FDD800"/>
<path fill-rule="evenodd" clip-rule="evenodd" d="M97.95 16.1187C104.61 17.0087 111.05 18.9587 117.12 21.7587C134.3 8.02867 156.57 -5.47133 170.8 2.25867C190.1 12.7387 172.41 59.3987 162.14 82.4787C162.29 84.1087 162.36 85.7287 162.36 87.3487C162.36 97.3387 159.51 106.779 154.5 115.139C120.3 111.639 93.54 80.3287 93.54 42.2087C93.54 33.0187 95.1 24.2187 97.94 16.1087L97.95 16.1187Z" fill="#FDD800"/>
<path d="M13.4806 13.7583C3.56062 20.1783 13.3406 47.7683 18.1506 59.6683C19.0706 61.9383 22.1606 62.0583 23.4206 59.9583C30.8106 47.6083 38.5306 40.1583 50.8706 29.4383C52.2806 28.2183 52.2306 26.0383 50.7106 24.9583C43.3506 19.7283 23.6906 7.13827 13.4706 13.7583H13.4806Z" fill="#F2BB00"/>
<path d="M166.221 13.7583C176.141 20.1783 166.361 47.7683 161.551 59.6683C160.631 61.9383 157.541 62.0583 156.281 59.9583C148.891 47.6083 141.171 40.1583 128.831 29.4383C127.421 28.2183 127.471 26.0383 128.991 24.9583C136.351 19.7283 156.011 7.13827 166.231 13.7583H166.221Z" fill="#F2BB00"/>
<path d="M53.59 102.15C60.1291 102.15 65.43 98.8365 65.43 94.7496C65.43 90.6627 60.1291 87.3496 53.59 87.3496C47.0509 87.3496 41.75 90.6627 41.75 94.7496C41.75 98.8365 47.0509 102.15 53.59 102.15Z" fill="#F8AEA9"/>
<path d="M130.551 102.15C137.09 102.15 142.391 98.8365 142.391 94.7496C142.391 90.6627 137.09 87.3496 130.551 87.3496C124.012 87.3496 118.711 90.6627 118.711 94.7496C118.711 98.8365 124.012 102.15 130.551 102.15Z" fill="#F8AEA9"/>
<path d="M103.98 107.148C103.98 107.148 102.2 112.918 93.24 112.918C84.28 112.918 82.5 107.148 82.5 107.148" stroke="#7A5751" stroke-width="2.66" stroke-miterlimit="10" stroke-linecap="round"/>
<g style="mix-blend-mode:soft-light" opacity="0.4">
<g style="mix-blend-mode:soft-light" opacity="0.4">
<path d="M58.5904 76.7786C57.3104 77.2086 56.7104 78.8086 58.1704 79.5686C59.0904 80.0486 60.0204 79.5486 60.1004 78.5286C60.1804 77.5086 60.1104 76.2686 58.5904 76.7786Z" fill="#F0E1A0"/>
</g>
</g>
<path d="M92.4002 99.9496C87.4802 99.9496 83.4902 95.9596 83.4902 91.0396C83.4902 86.1196 101.31 86.1196 101.31 91.0396C101.31 95.9596 97.3202 99.9496 92.4002 99.9496Z" fill="#7A5751"/>
<g style="mix-blend-mode:soft-light" opacity="0.4">
<path d="M92.4001 89.9084C88.6201 89.9084 85.3901 91.8484 85.5601 90.1284C85.7801 87.9384 99.2501 87.7284 99.2501 90.1284C99.2501 91.8584 96.1901 89.9084 92.4101 89.9084H92.4001Z" fill="#F0E1A0"/>
</g>
<path d="M48.1602 81.529C54.8602 72.679 69.3302 72.019 73.3202 80.609" stroke="#7A5751" stroke-width="2.66" stroke-miterlimit="10" stroke-linecap="round"/>
<path d="M137.761 81.529C131.061 72.679 116.591 72.019 112.601 80.609" stroke="#7A5751" stroke-width="2.66" stroke-miterlimit="10" stroke-linecap="round"/>
</g>
<defs>
<clipPath id="clip0_316_18288">
<rect width="179.42" height="273.29" fill="white"/>
</clipPath>
</defs>
</svg>
