<svg width="369" height="246" viewBox="0 0 369 246" fill="none" xmlns="http://www.w3.org/2000/svg">
<g clip-path="url(#clip0_316_16648)">
<path d="M25.2701 47.9692C45.9401 50.0392 301.9 60.0392 323.41 60.8992C344.92 61.7592 368.14 81.5392 368.14 81.5392V99.5992C368.14 99.5992 335.15 85.6592 303.07 85.6592C270.99 85.6592 56.9401 59.3792 20.0201 58.1292C19.4401 58.1092 16.1701 57.3392 15.6501 57.0892C7.36014 53.2092 20.2101 47.4592 25.2801 47.9692H25.2701Z" fill="#895343"/>
<path d="M85.7895 66.239C83.3595 67.039 85.2595 70.209 86.8395 72.289C87.0395 72.549 86.7095 73.079 86.4395 72.919C83.8095 71.379 79.1695 69.049 76.7195 70.189C74.3295 71.299 78.3895 74.289 81.2895 76.109C81.5595 76.279 81.4095 76.929 81.1095 76.859C77.8295 76.079 72.7695 75.319 73.2095 78.149C73.8595 82.309 82.4995 85.299 82.4995 85.299L101.9 78.459C101.9 78.459 89.4795 65.039 85.7895 66.249V66.239Z" fill="#C49B72"/>
<path d="M273.12 58.3592C270.05 48.4992 241.21 42.1692 245.77 55.3492C250.33 68.5292 249.24 94.2992 249.24 94.2992L225.2 90.6392C228.54 107.029 226.88 147.389 208.13 159.849C208.13 159.849 198.22 164.399 187.98 154.299C210.16 117.749 200.24 75.4292 193.46 53.3092C191.12 45.6692 167.53 42.5792 169.71 51.2892C171.89 60.0092 175.9 81.6492 175.9 81.6492L163.45 78.9392C163.45 78.9392 163.09 117.349 148.98 127.599C138.14 129.729 151.06 118.629 143.54 96.4892C136.01 74.3392 108.07 72.6492 93.5198 77.4292L78.7098 82.2992C64.2198 87.0592 56.2998 103.409 60.5898 119.669L61.2198 122.069C63.8998 132.239 71.9698 142.049 80.4298 158.569C92.7298 182.579 106.77 226.169 152.57 240.739C211.39 259.459 262.58 224.459 277.26 183.869C286.85 157.349 284.56 95.0592 273.12 58.3492V58.3592Z" fill="#C49B72"/>
<path d="M232 166.819C211.46 193.109 177.18 170.369 177.18 170.369L188.01 154.759C198.25 164.869 208.16 160.309 208.16 160.309C223.44 150.559 227.61 103.489 223.65 78.7891C232.65 79.6191 249.15 81.3291 249.15 81.3291C251.53 103.939 252.55 140.519 232.01 166.809L232 166.819Z" fill="#B3875F"/>
<path d="M110.76 157.741C135.07 150.101 146.65 138.061 145.96 128.481C164.48 119.461 148.57 70.8105 148.57 70.8105C156.12 71.6205 174.48 73.5705 174.48 73.5705C187.14 131.351 141.4 166.981 110.76 157.751V157.741Z" fill="#B3875F"/>
<path d="M69.2795 121.969C65.3395 106.629 73.9696 90.8592 89.0096 85.9192L101.3 81.8792C116.64 76.8392 133.24 84.6192 139.19 99.6192C145.71 116.069 138.18 134.949 121.4 140.559C116.73 142.119 112.12 143.539 107.5 144.849C90.6695 149.649 73.6195 138.919 69.2695 121.969H69.2795Z" fill="#ECD298"/>
<path d="M124.94 124.269C127.29 131.429 122.31 137.389 114.59 139.929C106.87 142.469 99.3197 140.629 96.9697 133.459C94.6197 126.299 98.5897 117.289 106.32 114.749C114.05 112.209 122.59 117.109 124.95 124.269H124.94Z" fill="#AF9375"/>
<path fill-rule="evenodd" clip-rule="evenodd" d="M68.3596 115.489C68.4296 117.639 68.7296 119.809 69.2796 121.969C71.1696 129.339 75.4796 135.519 81.1296 139.739C84.8896 133.819 89.6896 128.629 94.0796 124.109C99.1396 118.899 99.0796 110.009 94.1296 104.819C91.0696 101.599 86.7596 100.519 82.9796 102.469C75.3196 106.409 71.3296 110.479 68.3496 115.489H68.3596Z" fill="#A96D57"/>
<path fill-rule="evenodd" clip-rule="evenodd" d="M134.329 91.4186C136.329 93.8186 137.979 96.5686 139.189 99.6186C141.769 106.119 142.129 112.999 140.589 119.279C134.439 117.059 127.999 115.829 122.199 114.869C115.039 113.679 109.809 106.479 110.719 99.3786C111.279 94.9686 114.099 91.5486 118.299 90.8686C124.999 89.7886 129.919 90.1286 134.339 91.4286L134.329 91.4186Z" fill="#A96D57"/>
<path d="M90.6993 139.67C93.1183 139.67 95.0793 137.709 95.0793 135.29C95.0793 132.871 93.1183 130.91 90.6993 130.91C88.2803 130.91 86.3193 132.871 86.3193 135.29C86.3193 137.709 88.2803 139.67 90.6993 139.67Z" fill="#FAB79F"/>
<path d="M131.6 126.229C134.019 126.229 135.98 124.268 135.98 121.849C135.98 119.43 134.019 117.469 131.6 117.469C129.181 117.469 127.22 119.43 127.22 121.849C127.22 124.268 129.181 126.229 131.6 126.229Z" fill="#FAB79F"/>
<path d="M56.2895 89.2696C60.2995 88.7896 65.1995 91.9996 65.1995 91.9996C65.1995 91.9996 61.1895 96.2696 57.1795 96.7496C53.1695 97.2296 48.2695 94.0196 48.2695 94.0196C48.2695 94.0196 52.2795 89.7496 56.2895 89.2696V89.2696Z" fill="#35866F"/>
<path d="M66.6695 81.2104C66.8995 85.2404 63.6695 89.9204 63.6695 89.9204C63.6695 89.9204 59.9295 85.6404 59.6895 81.6104C59.4595 77.5804 62.6895 72.9004 62.6895 72.9004C62.6895 72.9004 66.4295 77.1804 66.6695 81.2104V81.2104Z" fill="#35866F"/>
<path d="M79.6792 80.1995C79.7492 80.0895 79.8192 79.9695 79.8792 79.8495C80.9492 77.7995 80.1792 75.2795 78.1492 74.2095C76.1192 73.1395 73.5992 73.9395 72.5292 75.9795C72.4292 76.1795 72.3392 76.3795 72.2692 76.5895C71.4292 75.1995 69.8492 74.3595 68.1792 74.5595C65.9092 74.8295 64.3292 76.9195 64.6392 79.2195C64.8092 80.4495 65.4792 81.4895 66.4092 82.1495C66.2492 82.2095 66.0892 82.2795 65.9292 82.3595C63.8592 83.4095 63.0392 85.8995 64.0992 87.9195C65.1592 89.9395 67.6992 90.7295 69.7792 89.6795C69.8892 89.6195 69.9992 89.5595 70.0992 89.4995C70.0992 89.6195 70.1192 89.7495 70.1292 89.8695C70.4392 92.1695 72.5292 93.8195 74.7992 93.5495C77.0692 93.2795 78.6492 91.1895 78.3392 88.8895C78.3092 88.6895 78.2692 88.4895 78.2192 88.2895C79.2092 88.5595 80.2992 88.4695 81.2792 87.9695C83.3492 86.9195 84.1692 84.4295 83.1092 82.4095C82.4192 81.0895 81.0892 80.2995 79.6792 80.1995V80.1995Z" fill="#F8A487"/>
<path d="M73.6398 86.4397C75.3684 86.4397 76.7698 85.0383 76.7698 83.3097C76.7698 81.581 75.3684 80.1797 73.6398 80.1797C71.9111 80.1797 70.5098 81.581 70.5098 83.3097C70.5098 85.0383 71.9111 86.4397 73.6398 86.4397Z" fill="black"/>
<path d="M71 92.6312C71.07 92.5212 71.13 92.4112 71.19 92.3012C72.21 90.3612 71.47 87.9612 69.54 86.9512C67.61 85.9412 65.22 86.6912 64.2 88.6312C64.1 88.8212 64.02 89.0112 63.95 89.2112C63.16 87.8912 61.66 87.0912 60.06 87.2812C57.91 87.5412 56.4 89.5212 56.7 91.7112C56.86 92.8812 57.5 93.8612 58.38 94.4912C58.23 94.5512 58.08 94.6112 57.93 94.6912C55.96 95.6912 55.18 98.0512 56.19 99.9712C57.2 101.891 59.61 102.641 61.58 101.641C61.69 101.591 61.79 101.531 61.89 101.471C61.89 101.591 61.91 101.701 61.92 101.821C62.22 104.011 64.2 105.571 66.36 105.311C68.51 105.051 70.02 103.071 69.72 100.881C69.69 100.691 69.65 100.501 69.6 100.311C70.54 100.561 71.57 100.481 72.51 100.011C74.48 99.0112 75.26 96.6512 74.25 94.7312C73.59 93.4812 72.33 92.7212 70.99 92.6312H71Z" fill="#FDCD08"/>
<path d="M65.2593 98.5596C66.9051 98.5596 68.2393 97.2254 68.2393 95.5796C68.2393 93.9338 66.9051 92.5996 65.2593 92.5996C63.6135 92.5996 62.2793 93.9338 62.2793 95.5796C62.2793 97.2254 63.6135 98.5596 65.2593 98.5596Z" fill="#FCD30A"/>
<path d="M141.06 53.8793C143.42 46.8093 162.69 46.9893 165.92 48.3693C169.15 49.7493 171.91 54.5993 169.59 57.3793C167.27 60.1593 150.4 60.3493 145.58 60.3493C142.99 60.3493 139.2 59.4293 141.05 53.8793H141.06Z" fill="#ECD298"/>
<path d="M217.59 56.9691C219.95 49.8991 239.22 50.0791 242.45 51.4591C245.68 52.8391 248.44 57.6891 246.12 60.4691C243.8 63.2491 226.93 63.4391 222.11 63.4391C219.52 63.4391 215.73 62.5191 217.58 56.9691H217.59Z" fill="#ECD298"/>
<path d="M58.2003 55.0695C58.2003 55.0695 51.6103 49.9995 48.0703 44.9395" stroke="#895343" stroke-width="4.79" stroke-linecap="round" stroke-linejoin="round"/>
<path d="M43.5098 57.6003C43.5098 57.6003 36.9198 57.0903 30.0898 62.6103" stroke="#895343" stroke-width="4.79" stroke-linecap="round" stroke-linejoin="round"/>
<path d="M57.98 25.5802C56.59 30.7502 48.26 38.6202 48.26 38.6202C48.26 38.6202 44.99 27.6302 46.37 22.4602C47.75 17.2902 54.68 14.6602 54.68 14.6602C54.68 14.6602 59.36 20.4102 57.97 25.5802H57.98Z" fill="#BAD265"/>
<path d="M32.7802 25.8294C36.5402 29.6394 39.1302 40.8094 39.1302 40.8094C39.1302 40.8094 27.9902 38.0794 24.2302 34.2694C20.4702 30.4594 21.7002 23.1494 21.7002 23.1494C21.7002 23.1494 29.0202 22.0194 32.7802 25.8194V25.8294Z" fill="#BAD265"/>
<path d="M44.2301 9.87C44.0601 15.22 37.7601 24.79 37.7601 24.79C37.7601 24.79 32.0601 14.84 32.2201 9.49C32.3801 4.14 38.5301 0 38.5301 0C38.5301 0 44.4001 4.52 44.2301 9.87V9.87Z" fill="#88B253"/>
<path d="M21.0399 86.2995C20.2299 81.0095 24.6799 70.4395 24.6799 70.4395C24.6799 70.4395 32.0999 79.1795 32.9199 84.4695C33.7299 89.7595 28.4599 94.9594 28.4599 94.9594C28.4599 94.9594 21.8599 91.5895 21.0499 86.2995H21.0399Z" fill="#88B253"/>
<path d="M6.77 66.7302C11.74 64.7402 23.04 66.7002 23.04 66.7002C23.04 66.7002 16.2 75.9002 11.23 77.8902C6.26 79.8802 0 75.9102 0 75.9102C0 75.9102 1.8 68.7202 6.77 66.7302V66.7302Z" fill="#BAD265"/>
<path d="M119.1 127.77C119.1 127.77 119.25 131.82 113.58 133.79C107.91 135.77 105.51 132.51 105.51 132.51" stroke="#7A5751" stroke-width="1.78" stroke-miterlimit="10" stroke-linecap="round"/>
<path d="M110.18 125.76C107.07 126.85 103.66 125.2 102.58 122.09C101.5 118.98 112.77 115.04 113.85 118.16C114.93 121.28 113.29 124.68 110.18 125.76V125.76Z" fill="#7A5751"/>
<g style="mix-blend-mode:soft-light" opacity="0.4">
<path d="M107.959 119.41C105.569 120.24 103.949 122.19 103.679 121.06C103.329 119.62 111.809 116.52 112.339 118.04C112.719 119.13 110.349 118.57 107.959 119.41V119.41Z" fill="#F0E1A0"/>
</g>
<path d="M128.36 100.071C130.99 101.821 132.21 105.051 132.02 107.791C131.76 111.351 127.62 113.781 124.4 112.231C121.19 110.681 118.85 106.071 120.4 102.851C121.95 99.6405 125.39 98.1005 128.36 100.071Z" fill="url(#paint0_linear_316_16648)"/>
<path d="M80.4102 116.8C79.4402 119.81 80.4902 123.09 82.3502 125.12C84.7602 127.75 89.5202 127.07 91.0702 123.86C92.6202 120.65 91.5902 115.58 88.3702 114.03C85.1602 112.48 81.5002 113.41 80.4102 116.81V116.8Z" fill="url(#paint1_linear_316_16648)"/>
<path d="M125.39 102.879C125.62 100.779 127.53 101.619 127.93 102.589C128.33 103.559 128.66 105.029 127.56 105.299C126.46 105.569 125.28 103.919 125.4 102.879H125.39Z" fill="white"/>
<path d="M125.45 102.891C125.45 102.891 125.42 102.891 125.43 102.901H125.45V102.891Z" fill="white"/>
<path d="M125.39 102.98C125.39 102.98 125.43 103.02 125.46 103.01C125.43 102.99 125.44 102.99 125.41 102.97C125.41 102.95 125.42 102.94 125.43 102.95C125.43 102.95 125.43 102.93 125.42 102.92C125.4 102.94 125.39 102.96 125.42 102.99C125.42 102.99 125.41 102.99 125.4 102.99L125.39 102.98Z" fill="white"/>
<path d="M125.39 102.879V102.869H125.37L125.39 102.879Z" fill="white"/>
<path d="M128.36 103.67C128.36 103.67 128.32 103.63 128.31 103.67C128.31 103.67 128.36 103.7 128.36 103.67Z" fill="white"/>
<path d="M125.9 101.891H125.88C125.88 101.891 125.88 101.921 125.9 101.891Z" fill="white"/>
<path d="M127.729 105.1L127.759 105.08C127.759 105.08 127.739 105.08 127.729 105.1Z" fill="white"/>
<path d="M125.77 102.12C125.77 102.12 125.75 102.09 125.74 102.07C125.75 102.03 125.77 102.07 125.79 102.07C125.8 102.05 125.79 102.01 125.8 102C125.8 102 125.8 102 125.81 102C125.81 101.96 125.86 101.93 125.86 101.89C125.86 101.89 125.83 101.87 125.83 101.86C125.83 101.85 125.83 101.82 125.86 101.83C125.86 101.83 125.86 101.84 125.86 101.85V101.83C125.86 101.83 125.86 101.85 125.87 101.87C125.89 101.84 125.91 101.8 125.93 101.79C125.95 101.81 125.89 101.83 125.93 101.84H125.89C125.95 101.87 125.87 101.87 125.92 101.89C125.97 101.87 125.96 101.85 126 101.82C126 101.8 125.98 101.8 125.98 101.78C126.03 101.71 126.07 101.82 126.1 101.76C126.1 101.74 126.1 101.7 126.14 101.7V101.74C126.14 101.74 126.14 101.68 126.21 101.69C126.21 101.7 126.18 101.71 126.18 101.71C126.22 101.72 126.2 101.69 126.22 101.68V101.71C126.28 101.7 126.34 101.66 126.4 101.66C126.4 101.66 126.39 101.68 126.4 101.69C126.48 101.68 126.56 101.69 126.63 101.73L126.66 101.71C126.66 101.71 126.66 101.72 126.66 101.73C126.69 101.75 126.66 101.71 126.68 101.71C126.7 101.71 126.7 101.73 126.68 101.73C126.74 101.71 126.84 101.73 126.88 101.77H126.87C126.87 101.77 126.94 101.74 126.96 101.77C127.04 101.83 127.15 101.85 127.18 101.92C127.21 101.9 127.25 101.99 127.28 101.95C127.31 102 127.29 102 127.34 102.06C127.35 102.07 127.38 102.06 127.41 102.06L127.39 102.08H127.43V102.12H127.44C127.44 102.12 127.44 102.11 127.44 102.1C127.48 102.11 127.49 102.18 127.48 102.19L127.55 102.24C127.55 102.24 127.53 102.24 127.52 102.24C127.57 102.25 127.5 102.27 127.55 102.28C127.55 102.28 127.56 102.28 127.57 102.27C127.57 102.3 127.6 102.33 127.63 102.36H127.61C127.64 102.42 127.7 102.46 127.73 102.53C127.73 102.5 127.76 102.49 127.77 102.51L127.75 102.53C127.75 102.53 127.75 102.51 127.78 102.52C127.78 102.55 127.76 102.55 127.74 102.54L127.76 102.56C127.76 102.56 127.75 102.56 127.73 102.56C127.75 102.56 127.73 102.62 127.76 102.62L127.83 102.77C127.83 102.77 127.86 102.79 127.88 102.8C127.88 102.84 127.88 102.9 127.91 102.95C127.93 102.98 127.93 102.95 127.95 102.96C127.93 102.97 127.95 103.02 127.92 103C127.94 103.06 127.95 103.08 127.99 103.15C127.99 103.14 127.99 103.13 128.01 103.13C128.01 103.14 128.01 103.16 128 103.17C128.06 103.25 128 103.39 128.06 103.44L128.1 103.5C128.1 103.5 128.08 103.48 128.07 103.51C128.13 103.58 128.09 103.63 128.13 103.7C128.07 103.76 128.16 103.88 128.13 103.95H128.15C128.15 103.95 128.15 103.97 128.15 103.98C128.16 103.98 128.16 103.96 128.17 103.97C128.2 104.12 128.17 104.28 128.13 104.42C128.12 104.47 128.21 104.46 128.16 104.52L128.13 104.5C128.14 104.61 128.07 104.71 128.05 104.81C128.05 104.81 128.04 104.8 128.05 104.79C128.02 104.79 128.01 104.86 128.02 104.87C128.01 104.88 128 104.87 127.99 104.87C127.97 104.87 127.98 104.93 127.96 104.92C127.96 104.92 127.92 104.96 127.95 104.96C127.91 104.98 127.9 105.02 127.87 105.02C127.87 105.06 127.81 105.05 127.83 105.08C127.81 105.05 127.75 105.08 127.74 105.11C127.74 105.1 127.72 105.11 127.72 105.09C127.7 105.11 127.68 105.12 127.69 105.14C127.62 105.11 127.6 105.21 127.56 105.16C127.49 105.2 127.41 105.22 127.33 105.24C127.33 105.2 127.41 105.22 127.41 105.18C127.34 105.21 127.3 105.24 127.23 105.22C127.21 105.22 127.24 105.2 127.25 105.2C127.18 105.22 127.11 105.18 127.05 105.19C127.05 105.19 127.05 105.19 127.07 105.19C127.06 105.19 127.04 105.18 127.04 105.19H127.05C127.05 105.19 126.98 105.23 126.98 105.24C127.02 105.2 126.92 105.21 126.98 105.16C126.98 105.16 126.96 105.16 126.96 105.18C126.95 105.18 126.95 105.16 126.96 105.16C126.91 105.16 126.92 105.18 126.88 105.16C126.88 105.16 126.89 105.16 126.9 105.14C126.87 105.14 126.85 105.16 126.82 105.14C126.82 105.14 126.82 105.13 126.83 105.14C126.77 105.12 126.71 105.14 126.66 105.08C126.7 105.06 126.65 105.06 126.66 105.03H126.63C126.63 105.03 126.56 105.03 126.55 105H126.58L126.53 104.97L126.55 105C126.55 105 126.53 105.04 126.5 105C126.5 105 126.47 104.98 126.47 104.95C126.47 104.95 126.43 104.95 126.42 104.93C126.42 104.92 126.45 104.9 126.45 104.9C126.42 104.91 126.39 104.86 126.35 104.86L126.37 104.84H126.35C126.35 104.84 126.35 104.83 126.35 104.82C126.32 104.79 126.33 104.86 126.3 104.82C126.3 104.82 126.3 104.82 126.31 104.82C126.28 104.77 126.22 104.76 126.2 104.71C126.21 104.68 126.24 104.74 126.24 104.71C126.19 104.66 126.11 104.63 126.07 104.57C126.07 104.57 126.06 104.53 126.02 104.51C126.02 104.51 126.05 104.51 126.04 104.51C126.02 104.47 125.97 104.44 125.92 104.39H125.94C125.94 104.39 125.9 104.32 125.89 104.3C125.87 104.3 125.87 104.28 125.86 104.3C125.86 104.18 125.73 104.16 125.74 104.06C125.74 104.06 125.76 104.08 125.76 104.06L125.72 104C125.72 104 125.72 104.01 125.71 104.03C125.69 104.03 125.68 104.01 125.67 104C125.7 104.02 125.7 103.98 125.7 103.97C125.7 103.97 125.69 103.97 125.68 103.97C125.7 103.92 125.64 103.98 125.64 103.92H125.65C125.65 103.92 125.62 103.89 125.61 103.87C125.63 103.85 125.63 103.88 125.65 103.87C125.64 103.84 125.59 103.83 125.6 103.8L125.63 103.83C125.63 103.83 125.63 103.79 125.63 103.77V103.72C125.56 103.72 125.59 103.67 125.54 103.64C125.59 103.67 125.56 103.64 125.59 103.64C125.59 103.63 125.59 103.61 125.6 103.61C125.57 103.59 125.6 103.57 125.56 103.55C125.56 103.55 125.56 103.53 125.58 103.53C125.56 103.5 125.57 103.54 125.56 103.54C125.51 103.5 125.56 103.43 125.51 103.37C125.48 103.32 125.45 103.31 125.43 103.26C125.44 103.24 125.46 103.27 125.46 103.27C125.46 103.24 125.46 103.22 125.46 103.19C125.46 103.19 125.47 103.19 125.48 103.18C125.48 103.16 125.45 103.17 125.46 103.14C125.47 103.14 125.49 103.14 125.5 103.16L125.46 103.09C125.46 103.09 125.48 103.1 125.5 103.11C125.49 103.08 125.48 103.03 125.46 103.03V103.05C125.46 103.05 125.47 103.05 125.48 103.05C125.5 103.07 125.48 103.09 125.46 103.09V103.07C125.4 103.09 125.46 103.15 125.46 103.18H125.42L125.45 103.2C125.45 103.2 125.42 103.22 125.41 103.2C125.39 103.23 125.43 103.22 125.41 103.25V103.28C125.41 103.28 125.4 103.28 125.41 103.28C125.39 103.33 125.45 103.35 125.43 103.38C125.46 103.44 125.46 103.38 125.5 103.42L125.44 103.47H125.47V103.49C125.49 103.51 125.48 103.49 125.5 103.49C125.48 103.53 125.54 103.58 125.5 103.6C125.52 103.6 125.5 103.56 125.53 103.6C125.49 103.62 125.55 103.64 125.53 103.67C125.5 103.67 125.51 103.64 125.5 103.67C125.54 103.67 125.51 103.73 125.53 103.75C125.56 103.75 125.56 103.8 125.59 103.83C125.58 103.83 125.61 103.91 125.61 103.96C125.61 103.96 125.66 104 125.68 104.02C125.66 104.02 125.65 104.02 125.64 104.02V104.05C125.64 104.05 125.68 104.05 125.69 104.07H125.66C125.66 104.07 125.72 104.13 125.73 104.18C125.75 104.18 125.77 104.11 125.8 104.15C125.8 104.15 125.77 104.17 125.76 104.16C125.76 104.16 125.78 104.16 125.78 104.18H125.75C125.75 104.18 125.77 104.18 125.78 104.19C125.76 104.19 125.78 104.21 125.76 104.21C125.76 104.21 125.76 104.19 125.75 104.19C125.75 104.21 125.76 104.24 125.75 104.25C125.75 104.25 125.77 104.24 125.78 104.25C125.8 104.28 125.77 104.27 125.78 104.3C125.8 104.3 125.8 104.33 125.82 104.32C125.82 104.32 125.82 104.34 125.82 104.35C125.84 104.36 125.87 104.43 125.88 104.39C125.94 104.43 125.95 104.5 126 104.55C126 104.55 126.06 104.62 126.09 104.63V104.66C126.11 104.68 126.12 104.67 126.14 104.72C126.11 104.71 126.14 104.74 126.11 104.7C126.13 104.73 126.13 104.75 126.17 104.77C126.14 104.77 126.17 104.81 126.19 104.82V104.79C126.19 104.79 126.21 104.82 126.22 104.83H126.19C126.22 104.93 126.34 104.9 126.34 104.98C126.37 104.98 126.32 104.94 126.34 104.93C126.36 104.96 126.37 105.02 126.38 105.02C126.41 105.06 126.45 105.02 126.48 105.06C126.48 105.05 126.49 105.02 126.53 105.04C126.56 105.06 126.54 105.1 126.52 105.1V105.09C126.51 105.09 126.49 105.09 126.5 105.09H126.51C126.51 105.09 126.56 105.13 126.54 105.14C126.57 105.14 126.56 105.14 126.54 105.12C126.57 105.16 126.6 105.16 126.64 105.2V105.18C126.7 105.23 126.68 105.18 126.72 105.2C126.74 105.23 126.69 105.23 126.74 105.24C126.76 105.26 126.74 105.27 126.72 105.27C126.77 105.27 126.79 105.32 126.81 105.33H126.78C126.78 105.33 126.81 105.33 126.82 105.33V105.31C126.82 105.31 126.84 105.32 126.83 105.33C126.85 105.33 126.83 105.29 126.87 105.29C126.88 105.31 126.93 105.3 126.92 105.33C126.87 105.3 126.92 105.36 126.87 105.34C126.88 105.34 126.89 105.34 126.9 105.35C126.9 105.35 126.93 105.34 126.99 105.35C126.98 105.36 126.99 105.38 127.01 105.38C126.99 105.38 127.01 105.35 127.03 105.35C127.06 105.37 127.07 105.35 127.09 105.35H127.07C127.07 105.35 127.1 105.33 127.12 105.33C127.12 105.34 127.1 105.33 127.1 105.34C127.13 105.32 127.16 105.39 127.2 105.37C127.22 105.38 127.2 105.4 127.21 105.41C127.26 105.39 127.26 105.43 127.31 105.42C127.3 105.4 127.29 105.4 127.33 105.38H127.25L127.3 105.36C127.3 105.36 127.25 105.37 127.23 105.36C127.26 105.34 127.25 105.35 127.24 105.33C127.27 105.36 127.3 105.32 127.34 105.33V105.38C127.4 105.41 127.44 105.35 127.51 105.35H127.48C127.48 105.35 127.52 105.33 127.55 105.32C127.55 105.34 127.57 105.34 127.58 105.35C127.58 105.34 127.63 105.35 127.63 105.3H127.67C127.73 105.3 127.72 105.24 127.77 105.23C127.77 105.25 127.79 105.26 127.76 105.28C127.78 105.28 127.8 105.28 127.79 105.26C127.81 105.26 127.83 105.21 127.85 105.22C127.85 105.21 127.85 105.19 127.87 105.18C127.87 105.18 127.89 105.16 127.87 105.15C127.95 105.17 128 105.06 128.07 105.06C128.1 105.03 128.13 104.99 128.15 104.96C128.15 104.96 128.15 104.96 128.15 104.97C128.2 104.94 128.13 104.91 128.18 104.88C128.22 104.88 128.18 104.91 128.19 104.9C128.25 104.93 128.22 104.84 128.27 104.82C128.27 104.82 128.29 104.75 128.31 104.71C128.31 104.71 128.31 104.61 128.31 104.56C128.33 104.58 128.31 104.58 128.34 104.58C128.34 104.56 128.3 104.58 128.31 104.54C128.33 104.54 128.34 104.5 128.37 104.5V104.54C128.37 104.54 128.37 104.49 128.38 104.47H128.39C128.39 104.41 128.36 104.41 128.37 104.34H128.36C128.36 104.34 128.38 104.32 128.36 104.28H128.4C128.4 104.28 128.37 104.19 128.37 104.15C128.4 104.17 128.41 104.22 128.42 104.25C128.42 104.23 128.42 104.17 128.41 104.16C128.41 104.16 128.42 104.18 128.41 104.19C128.39 104.16 128.37 104.12 128.37 104.08C128.44 104.08 128.39 103.96 128.43 103.92C128.39 103.84 128.43 103.76 128.41 103.66C128.36 103.7 128.41 103.63 128.35 103.65C128.35 103.63 128.35 103.62 128.35 103.62L128.37 103.55C128.37 103.55 128.39 103.57 128.4 103.56C128.4 103.51 128.42 103.54 128.43 103.5C128.41 103.51 128.4 103.49 128.4 103.46L128.38 103.5C128.34 103.44 128.41 103.43 128.37 103.37L128.39 103.39C128.39 103.39 128.36 103.26 128.31 103.24C128.31 103.24 128.33 103.22 128.33 103.24C128.31 103.16 128.24 103.07 128.24 103.01H128.25C128.25 103.01 128.22 102.99 128.22 102.97H128.23C128.23 102.97 128.2 102.94 128.2 102.92H128.22C128.22 102.85 128.14 102.83 128.11 102.77C128.15 102.76 128.14 102.69 128.13 102.66C128.1 102.57 128.05 102.52 127.99 102.45C128.01 102.38 127.92 102.27 127.88 102.19C127.88 102.21 127.85 102.21 127.84 102.19C127.84 102.17 127.78 102.16 127.81 102.14C127.81 102.14 127.79 102.08 127.77 102.06L127.73 102.09C127.73 101.97 127.55 101.94 127.56 101.87C127.54 101.87 127.52 101.85 127.49 101.84L127.51 101.82C127.51 101.82 127.44 101.76 127.38 101.72H127.4C127.4 101.72 127.32 101.74 127.28 101.72V101.68C127.28 101.68 127.18 101.58 127.1 101.58C127.1 101.58 127.1 101.57 127.12 101.58C127.09 101.56 127.01 101.5 127 101.56C127.01 101.53 126.93 101.53 126.89 101.53V101.51C126.89 101.51 126.86 101.54 126.81 101.53C126.81 101.53 126.81 101.51 126.81 101.52C126.78 101.5 126.78 101.54 126.74 101.52H126.76C126.76 101.52 126.72 101.51 126.7 101.52C126.68 101.52 126.63 101.5 126.63 101.48C126.63 101.49 126.6 101.5 126.58 101.5L126.59 101.48C126.53 101.46 126.5 101.51 126.45 101.48V101.46C126.5 101.46 126.54 101.46 126.54 101.46C126.54 101.44 126.5 101.43 126.54 101.4C126.5 101.42 126.45 101.45 126.41 101.44C126.41 101.44 126.39 101.43 126.38 101.44C126.37 101.44 126.36 101.44 126.35 101.44C126.35 101.42 126.3 101.44 126.28 101.44C126.28 101.46 126.26 101.46 126.28 101.48C126.28 101.48 126.28 101.48 126.3 101.48H126.36C126.36 101.48 126.33 101.5 126.31 101.48L126.29 101.52C126.29 101.52 126.2 101.48 126.19 101.46C126.13 101.49 126.05 101.52 126.04 101.58C126.03 101.59 126.02 101.58 126.01 101.58C126.01 101.58 126.03 101.57 126.03 101.56C126 101.58 125.94 101.62 125.95 101.65C125.91 101.66 125.95 101.61 125.91 101.65C125.77 101.67 125.82 101.82 125.69 101.87C125.69 101.87 125.7 101.87 125.71 101.87C125.59 101.97 125.57 102.14 125.48 102.25C125.46 102.29 125.48 102.3 125.48 102.33H125.45L125.47 102.38C125.47 102.44 125.37 102.46 125.4 102.55H125.42C125.42 102.55 125.42 102.63 125.4 102.62C125.4 102.62 125.42 102.63 125.4 102.64H125.39V102.71C125.39 102.71 125.35 102.69 125.33 102.77C125.33 102.8 125.36 102.85 125.37 102.84C125.37 102.83 125.38 102.81 125.4 102.81V102.84C125.4 102.84 125.48 102.87 125.52 102.82L125.5 102.78H125.52V102.8C125.52 102.8 125.52 102.77 125.52 102.75C125.53 102.75 125.54 102.75 125.54 102.74L125.51 102.69C125.51 102.69 125.54 102.71 125.55 102.69C125.54 102.67 125.51 102.7 125.5 102.67C125.52 102.65 125.54 102.67 125.52 102.64C125.53 102.64 125.54 102.64 125.54 102.66C125.54 102.64 125.54 102.6 125.52 102.59C125.55 102.57 125.52 102.52 125.56 102.53C125.56 102.53 125.54 102.49 125.55 102.47C125.58 102.52 125.57 102.4 125.62 102.43C125.59 102.39 125.63 102.34 125.62 102.29C125.62 102.29 125.65 102.28 125.66 102.27C125.63 102.25 125.64 102.22 125.63 102.19C125.68 102.18 125.66 102.22 125.69 102.23C125.66 102.22 125.69 102.17 125.66 102.17C125.69 102.16 125.68 102.16 125.71 102.17C125.67 102.15 125.71 102.15 125.7 102.12C125.73 102.1 125.74 102.13 125.75 102.09C125.77 102.09 125.77 102.12 125.77 102.12V102.12ZM126.49 101.64H126.46V101.62C126.46 101.62 126.47 101.63 126.48 101.64H126.49ZM126.31 101.47H126.33H126.31Z" fill="white"/>
<path d="M126.45 104.95H126.47C126.47 104.95 126.45 104.94 126.45 104.95Z" fill="white"/>
<path d="M126.499 104.981L126.479 104.961C126.479 104.961 126.489 104.981 126.499 104.981Z" fill="white"/>
<path d="M125.46 103.061L125.47 103.051H125.46V103.061Z" fill="white"/>
<path d="M125.48 103.3C125.48 103.3 125.49 103.26 125.48 103.25C125.48 103.25 125.46 103.29 125.48 103.3Z" fill="white"/>
<path d="M125.42 103.56V103.51C125.42 103.51 125.4 103.54 125.39 103.51C125.38 103.58 125.41 103.49 125.42 103.56Z" fill="white"/>
<path d="M125.459 103.711C125.459 103.711 125.449 103.711 125.439 103.711C125.449 103.721 125.459 103.731 125.459 103.711Z" fill="white"/>
<path d="M126.25 104.741L126.24 104.721L126.22 104.731L126.25 104.741Z" fill="white"/>
<path d="M126.23 104.949L126.22 104.939L126.25 104.959L126.23 104.949Z" fill="white"/>
<path d="M128.02 105.17L128 105.15C128 105.15 128 105.19 128.02 105.17Z" fill="white"/>
<path d="M128.359 104.4C128.359 104.4 128.379 104.37 128.369 104.35C128.369 104.37 128.349 104.39 128.359 104.4Z" fill="white"/>
<path d="M127.72 102.08H127.74L127.71 102.07L127.72 102.08Z" fill="white"/>
<g style="mix-blend-mode:soft-light" opacity="0.4">
<g style="mix-blend-mode:soft-light" opacity="0.4">
<path d="M123.39 104.711C122.67 105.261 122.65 106.411 123.74 106.571C124.43 106.671 124.9 106.151 124.73 105.491C124.56 104.831 124.24 104.061 123.39 104.721V104.711Z" fill="#F0E1A0"/>
</g>
</g>
<path d="M85.6699 116.731C85.8999 114.631 87.8099 115.471 88.2099 116.441C88.6099 117.411 88.9399 118.881 87.8399 119.151C86.7399 119.421 85.5599 117.771 85.6799 116.731H85.6699Z" fill="white"/>
<path d="M85.7301 116.74C85.7301 116.74 85.7 116.74 85.71 116.75H85.7301V116.74Z" fill="white"/>
<path d="M85.6797 116.839C85.6797 116.839 85.7197 116.879 85.7497 116.869C85.7197 116.849 85.7297 116.849 85.6997 116.829C85.6997 116.809 85.7097 116.799 85.7197 116.809C85.7197 116.809 85.7197 116.789 85.7097 116.779C85.6897 116.799 85.6797 116.819 85.7097 116.849C85.7097 116.849 85.6997 116.849 85.6897 116.849L85.6797 116.839Z" fill="white"/>
<path d="M85.6704 116.731L85.6504 116.721L85.6704 116.731Z" fill="white"/>
<path d="M88.6398 117.529C88.6398 117.529 88.5998 117.489 88.5898 117.529C88.5898 117.529 88.6398 117.559 88.6398 117.529Z" fill="white"/>
<path d="M88.3296 118.971H88.3196L88.3096 118.981L88.3296 118.971Z" fill="white"/>
<path d="M86.1802 115.74H86.1602C86.1602 115.74 86.1602 115.77 86.1802 115.74Z" fill="white"/>
<path d="M88.0098 118.95L88.0398 118.93C88.0398 118.93 88.0198 118.93 88.0098 118.95Z" fill="white"/>
<path d="M86.0504 115.97C86.0504 115.97 86.0303 115.94 86.0203 115.92C86.0303 115.88 86.0504 115.92 86.0704 115.92C86.0804 115.9 86.0704 115.86 86.0804 115.85C86.0804 115.85 86.0803 115.85 86.0903 115.85C86.0903 115.81 86.1404 115.78 86.1404 115.74C86.1404 115.74 86.1104 115.72 86.1104 115.71C86.1104 115.7 86.1104 115.67 86.1404 115.68C86.1404 115.68 86.1404 115.69 86.1404 115.7V115.68C86.1404 115.68 86.1404 115.7 86.1504 115.72C86.1704 115.69 86.1904 115.65 86.2104 115.64C86.2304 115.66 86.1704 115.68 86.2104 115.69H86.1703C86.2303 115.72 86.1503 115.72 86.2003 115.74C86.2503 115.72 86.2403 115.7 86.2803 115.67C86.2803 115.65 86.2604 115.65 86.2604 115.63C86.3104 115.56 86.3503 115.67 86.3803 115.61C86.3803 115.59 86.3803 115.55 86.4203 115.55V115.59C86.4203 115.59 86.4203 115.53 86.4903 115.54C86.4903 115.55 86.4604 115.56 86.4604 115.56C86.5004 115.57 86.4804 115.54 86.5004 115.53V115.56C86.5604 115.55 86.6204 115.51 86.6804 115.51C86.6804 115.51 86.6704 115.53 86.6804 115.54C86.7604 115.53 86.8404 115.54 86.9104 115.58L86.9404 115.56C86.9404 115.56 86.9404 115.57 86.9404 115.58C86.9704 115.6 86.9404 115.56 86.9604 115.56C86.9804 115.56 86.9804 115.58 86.9604 115.58C87.0204 115.56 87.1204 115.58 87.1604 115.62H87.1504C87.1504 115.62 87.2203 115.59 87.2403 115.62C87.3203 115.68 87.4304 115.7 87.4604 115.77C87.4904 115.75 87.5303 115.84 87.5603 115.8C87.5903 115.85 87.5704 115.85 87.6204 115.91C87.6304 115.92 87.6604 115.91 87.6904 115.91L87.6703 115.93H87.7104V115.97H87.7204C87.7204 115.97 87.7204 115.96 87.7204 115.95C87.7604 115.96 87.7704 116.03 87.7604 116.04L87.8304 116.09C87.8304 116.09 87.8104 116.09 87.8004 116.09C87.8504 116.1 87.7804 116.12 87.8304 116.13C87.8304 116.13 87.8403 116.13 87.8503 116.12C87.8503 116.15 87.8804 116.18 87.9104 116.21H87.8904C87.9204 116.27 87.9804 116.31 88.0104 116.38C88.0104 116.35 88.0404 116.34 88.0504 116.36L88.0303 116.38C88.0303 116.38 88.0303 116.36 88.0603 116.37C88.0603 116.4 88.0403 116.4 88.0203 116.39L88.0404 116.41C88.0404 116.41 88.0304 116.41 88.0104 116.41C88.0304 116.41 88.0104 116.47 88.0404 116.47L88.1104 116.62C88.1104 116.62 88.1404 116.64 88.1604 116.65C88.1604 116.69 88.1604 116.75 88.1904 116.8C88.2104 116.83 88.2104 116.8 88.2304 116.81C88.2104 116.82 88.2303 116.87 88.2003 116.85C88.2203 116.91 88.2303 116.93 88.2703 117C88.2703 116.99 88.2704 116.98 88.2904 116.98C88.2904 116.99 88.2903 117.01 88.2803 117.02C88.3403 117.1 88.2803 117.24 88.3403 117.29L88.3803 117.35C88.3803 117.35 88.3603 117.33 88.3503 117.36C88.4103 117.43 88.3704 117.48 88.4104 117.55C88.3504 117.61 88.4404 117.73 88.4104 117.8H88.4304C88.4304 117.8 88.4304 117.82 88.4304 117.83C88.4404 117.83 88.4403 117.81 88.4503 117.82C88.4803 117.97 88.4504 118.13 88.4104 118.27C88.4004 118.32 88.4904 118.31 88.4404 118.37L88.4104 118.35C88.4204 118.46 88.3504 118.56 88.3304 118.66C88.3304 118.66 88.3204 118.65 88.3304 118.64C88.3004 118.64 88.2904 118.71 88.3004 118.72C88.2904 118.73 88.2803 118.72 88.2703 118.72C88.2503 118.72 88.2603 118.78 88.2403 118.77C88.2403 118.77 88.2004 118.81 88.2304 118.81C88.1904 118.83 88.1804 118.87 88.1504 118.87C88.1504 118.91 88.0904 118.9 88.1104 118.93C88.0904 118.9 88.0303 118.93 88.0203 118.96C88.0203 118.95 88.0004 118.96 88.0004 118.94C87.9804 118.96 87.9604 118.97 87.9704 118.99C87.9004 118.96 87.8803 119.06 87.8403 119.01C87.7703 119.05 87.6904 119.07 87.6104 119.09C87.6104 119.05 87.6904 119.07 87.6904 119.03C87.6204 119.06 87.5804 119.09 87.5104 119.07C87.4904 119.07 87.5203 119.05 87.5303 119.05C87.4603 119.07 87.3904 119.03 87.3304 119.04C87.3304 119.04 87.3303 119.04 87.3503 119.04C87.3403 119.04 87.3204 119.03 87.3204 119.04H87.3304C87.3304 119.04 87.2604 119.08 87.2604 119.09C87.3004 119.05 87.2004 119.06 87.2604 119.01C87.2604 119.01 87.2403 119.01 87.2403 119.03C87.2303 119.03 87.2303 119.01 87.2403 119.01C87.1903 119.01 87.2004 119.03 87.1604 119.01C87.1604 119.01 87.1704 119.01 87.1804 118.99C87.1504 118.99 87.1303 119.01 87.1003 118.99C87.1003 118.99 87.1004 118.98 87.1104 118.99C87.0504 118.97 86.9904 118.99 86.9404 118.93C86.9804 118.91 86.9304 118.91 86.9404 118.88H86.9104C86.9104 118.88 86.8404 118.88 86.8304 118.85H86.8604L86.8103 118.82L86.8304 118.85C86.8304 118.85 86.8103 118.89 86.7803 118.85C86.7803 118.85 86.7504 118.83 86.7504 118.8C86.7504 118.8 86.7103 118.8 86.7003 118.78C86.7003 118.77 86.7304 118.75 86.7304 118.75C86.7004 118.76 86.6703 118.71 86.6303 118.71L86.6504 118.69H86.6303C86.6303 118.69 86.6303 118.68 86.6303 118.67C86.6003 118.64 86.6104 118.71 86.5804 118.67C86.5804 118.67 86.5803 118.67 86.5903 118.67C86.5603 118.62 86.5004 118.61 86.4804 118.56C86.4904 118.53 86.5203 118.59 86.5203 118.56C86.4703 118.51 86.3903 118.48 86.3503 118.42C86.3503 118.42 86.3404 118.38 86.3004 118.36C86.3004 118.36 86.3304 118.36 86.3204 118.36C86.3004 118.32 86.2503 118.29 86.2003 118.24H86.2204C86.2204 118.24 86.1803 118.17 86.1703 118.15C86.1503 118.15 86.1504 118.13 86.1404 118.15C86.1404 118.03 86.0103 118.01 86.0203 117.91C86.0203 117.91 86.0404 117.93 86.0404 117.91L86.0004 117.85C86.0004 117.85 86.0003 117.86 85.9903 117.88C85.9703 117.88 85.9603 117.86 85.9503 117.85C85.9803 117.87 85.9804 117.83 85.9804 117.82C85.9804 117.82 85.9704 117.82 85.9604 117.82C85.9804 117.77 85.9203 117.83 85.9203 117.77H85.9304C85.9304 117.77 85.9004 117.74 85.8904 117.72C85.9104 117.7 85.9104 117.73 85.9304 117.72C85.9204 117.69 85.8703 117.68 85.8803 117.65L85.9104 117.68C85.9104 117.68 85.9104 117.64 85.9104 117.62V117.57C85.8404 117.57 85.8704 117.52 85.8204 117.49C85.8704 117.52 85.8404 117.49 85.8704 117.49C85.8704 117.48 85.8703 117.46 85.8803 117.46C85.8503 117.44 85.8803 117.42 85.8403 117.4C85.8403 117.4 85.8404 117.38 85.8604 117.38C85.8404 117.35 85.8503 117.39 85.8403 117.39C85.7903 117.35 85.8404 117.28 85.7904 117.22C85.7604 117.17 85.7304 117.16 85.7104 117.11C85.7204 117.09 85.7403 117.12 85.7403 117.12C85.7403 117.09 85.7403 117.07 85.7403 117.04C85.7403 117.04 85.7504 117.04 85.7604 117.03C85.7604 117.01 85.7303 117.02 85.7403 116.99C85.7503 116.99 85.7703 116.99 85.7803 117.01L85.7403 116.94C85.7403 116.94 85.7603 116.95 85.7803 116.96C85.7703 116.93 85.7603 116.88 85.7403 116.88V116.9C85.7403 116.9 85.7504 116.9 85.7604 116.9C85.7804 116.92 85.7603 116.94 85.7403 116.94V116.92C85.6803 116.94 85.7403 117 85.7403 117.03H85.7003L85.7304 117.05C85.7304 117.05 85.7004 117.07 85.6904 117.05C85.6704 117.08 85.7104 117.07 85.6904 117.1V117.13C85.6904 117.13 85.6804 117.13 85.6904 117.13C85.6704 117.18 85.7304 117.2 85.7104 117.23C85.7404 117.29 85.7403 117.23 85.7803 117.27L85.7204 117.32H85.7504V117.34C85.7704 117.36 85.7603 117.34 85.7803 117.34C85.7603 117.38 85.8203 117.43 85.7803 117.45C85.8003 117.45 85.7803 117.41 85.8103 117.45C85.7703 117.47 85.8303 117.49 85.8103 117.52C85.7803 117.52 85.7903 117.49 85.7803 117.52C85.8203 117.52 85.7903 117.58 85.8103 117.6C85.8403 117.6 85.8404 117.65 85.8704 117.68C85.8604 117.68 85.8904 117.76 85.8904 117.81C85.8904 117.81 85.9404 117.85 85.9604 117.87C85.9404 117.87 85.9303 117.87 85.9203 117.87V117.9C85.9203 117.9 85.9604 117.9 85.9704 117.92H85.9404C85.9404 117.92 86.0004 117.98 86.0104 118.03C86.0304 118.03 86.0504 117.96 86.0804 118C86.0804 118 86.0504 118.02 86.0404 118.01C86.0404 118.01 86.0603 118.01 86.0603 118.03H86.0303C86.0303 118.03 86.0503 118.03 86.0603 118.04C86.0403 118.04 86.0604 118.06 86.0404 118.06C86.0404 118.06 86.0403 118.04 86.0303 118.04C86.0303 118.06 86.0403 118.09 86.0303 118.1C86.0303 118.1 86.0503 118.09 86.0603 118.1C86.0803 118.13 86.0503 118.12 86.0603 118.15C86.0803 118.15 86.0803 118.18 86.1003 118.17C86.1003 118.17 86.1003 118.19 86.1003 118.2C86.1203 118.21 86.1504 118.28 86.1604 118.24C86.2204 118.28 86.2303 118.35 86.2803 118.4C86.2803 118.4 86.3404 118.47 86.3704 118.48V118.51C86.3904 118.53 86.4003 118.52 86.4203 118.57C86.3903 118.56 86.4204 118.59 86.3904 118.55C86.4104 118.58 86.4103 118.6 86.4503 118.62C86.4203 118.62 86.4504 118.66 86.4704 118.67V118.64C86.4704 118.64 86.4904 118.67 86.5004 118.68H86.4704C86.5004 118.78 86.6204 118.75 86.6204 118.83C86.6504 118.83 86.6004 118.79 86.6204 118.78C86.6404 118.81 86.6504 118.87 86.6604 118.87C86.6904 118.91 86.7304 118.87 86.7604 118.91C86.7604 118.9 86.7703 118.87 86.8103 118.89C86.8403 118.91 86.8204 118.95 86.8004 118.95V118.94C86.7904 118.94 86.7703 118.94 86.7803 118.94H86.7904C86.7904 118.94 86.8404 118.98 86.8204 118.99C86.8504 118.99 86.8404 118.99 86.8204 118.97C86.8504 119.01 86.8803 119.01 86.9203 119.05V119.03C86.9803 119.08 86.9604 119.03 87.0004 119.05C87.0204 119.08 86.9703 119.08 87.0203 119.09C87.0403 119.11 87.0204 119.12 87.0004 119.12C87.0504 119.12 87.0703 119.17 87.0903 119.18H87.0603C87.0603 119.18 87.0903 119.18 87.1003 119.18V119.16C87.1003 119.16 87.1204 119.17 87.1104 119.18C87.1304 119.18 87.1104 119.14 87.1504 119.14C87.1604 119.16 87.2103 119.15 87.2003 119.18C87.1503 119.15 87.2004 119.21 87.1504 119.19C87.1604 119.19 87.1704 119.19 87.1804 119.2C87.1804 119.2 87.2103 119.19 87.2703 119.2C87.2603 119.21 87.2704 119.23 87.2904 119.23C87.2704 119.23 87.2903 119.2 87.3103 119.2C87.3403 119.22 87.3504 119.2 87.3704 119.2H87.3503C87.3503 119.2 87.3804 119.18 87.4004 119.18C87.4004 119.19 87.3803 119.18 87.3803 119.19C87.4103 119.17 87.4404 119.24 87.4804 119.22C87.5004 119.23 87.4803 119.25 87.4903 119.26C87.5403 119.24 87.5403 119.28 87.5903 119.27C87.5803 119.25 87.5704 119.25 87.6104 119.23H87.5303L87.5804 119.21C87.5804 119.21 87.5304 119.22 87.5104 119.21C87.5404 119.19 87.5303 119.2 87.5203 119.18C87.5503 119.21 87.5804 119.17 87.6204 119.18V119.23C87.6804 119.26 87.7204 119.2 87.7904 119.2H87.7604C87.7604 119.2 87.8004 119.18 87.8304 119.17C87.8304 119.19 87.8504 119.19 87.8604 119.2C87.8604 119.19 87.9104 119.2 87.9104 119.15H87.9503C88.0103 119.15 88.0004 119.09 88.0504 119.08C88.0504 119.1 88.0704 119.11 88.0404 119.13C88.0604 119.13 88.0804 119.13 88.0704 119.11C88.0904 119.11 88.1103 119.06 88.1303 119.07C88.1303 119.06 88.1304 119.04 88.1504 119.03C88.1504 119.03 88.1704 119.01 88.1504 119C88.2304 119.02 88.2803 118.91 88.3503 118.91C88.3803 118.88 88.4104 118.84 88.4304 118.81C88.4304 118.81 88.4304 118.81 88.4304 118.82C88.4804 118.79 88.4104 118.76 88.4604 118.73C88.5004 118.73 88.4604 118.76 88.4704 118.75C88.5304 118.78 88.5004 118.69 88.5504 118.67C88.5504 118.67 88.5703 118.6 88.5903 118.56C88.5903 118.56 88.5903 118.46 88.5903 118.41C88.6103 118.43 88.5904 118.43 88.6204 118.43C88.6204 118.41 88.5803 118.43 88.5903 118.39C88.6103 118.39 88.6204 118.35 88.6504 118.35V118.39C88.6504 118.39 88.6504 118.34 88.6604 118.32H88.6703C88.6703 118.26 88.6404 118.26 88.6504 118.19H88.6404C88.6404 118.19 88.6604 118.17 88.6404 118.13H88.6804C88.6804 118.13 88.6504 118.04 88.6504 118C88.6804 118.02 88.6903 118.07 88.7003 118.1C88.7003 118.08 88.7004 118.02 88.6904 118.01C88.6904 118.01 88.7004 118.03 88.6904 118.04C88.6704 118.01 88.6504 117.97 88.6504 117.93C88.7204 117.93 88.6704 117.81 88.7104 117.77C88.6704 117.69 88.7104 117.61 88.6904 117.51C88.6404 117.55 88.6903 117.48 88.6303 117.5C88.6303 117.48 88.6303 117.47 88.6303 117.47L88.6504 117.4C88.6504 117.4 88.6704 117.42 88.6804 117.41C88.6804 117.36 88.7004 117.39 88.7104 117.35C88.6904 117.36 88.6804 117.34 88.6804 117.31L88.6604 117.35C88.6204 117.29 88.6904 117.28 88.6504 117.22L88.6703 117.24C88.6703 117.24 88.6403 117.11 88.5903 117.09C88.5903 117.09 88.6104 117.07 88.6104 117.09C88.5904 117.01 88.5203 116.92 88.5203 116.86H88.5303C88.5303 116.86 88.5004 116.84 88.5004 116.82H88.5104C88.5104 116.82 88.4804 116.79 88.4804 116.77H88.5004C88.5004 116.7 88.4204 116.68 88.3904 116.62C88.4304 116.61 88.4204 116.54 88.4104 116.51C88.3804 116.42 88.3303 116.37 88.2703 116.3C88.2903 116.23 88.2004 116.12 88.1604 116.04C88.1604 116.06 88.1304 116.06 88.1204 116.04C88.1204 116.02 88.0603 116.01 88.0903 115.99C88.0903 115.99 88.0704 115.93 88.0504 115.91L88.0104 115.94C88.0104 115.82 87.8303 115.79 87.8403 115.72C87.8203 115.72 87.8003 115.7 87.7703 115.69L87.7904 115.67C87.7904 115.67 87.7204 115.61 87.6604 115.57H87.6804C87.6804 115.57 87.6003 115.59 87.5603 115.57V115.53C87.5603 115.53 87.4603 115.43 87.3803 115.43C87.3803 115.43 87.3804 115.42 87.4004 115.43C87.3704 115.41 87.2903 115.35 87.2803 115.41C87.2903 115.38 87.2103 115.38 87.1703 115.38V115.36C87.1703 115.36 87.1403 115.39 87.0903 115.38C87.0903 115.38 87.0903 115.36 87.0903 115.37C87.0603 115.35 87.0603 115.39 87.0203 115.37H87.0404C87.0404 115.37 87.0004 115.36 86.9804 115.37C86.9604 115.37 86.9104 115.35 86.9104 115.33C86.9104 115.34 86.8804 115.35 86.8604 115.35L86.8704 115.33C86.8104 115.31 86.7804 115.36 86.7304 115.33V115.31C86.7804 115.31 86.8204 115.31 86.8204 115.31C86.8204 115.29 86.7804 115.28 86.8204 115.25C86.7804 115.27 86.7304 115.3 86.6904 115.29C86.6904 115.29 86.6704 115.28 86.6604 115.29C86.6504 115.29 86.6403 115.29 86.6303 115.29C86.6303 115.27 86.5803 115.29 86.5603 115.29C86.5603 115.31 86.5403 115.31 86.5603 115.33C86.5603 115.33 86.5604 115.33 86.5804 115.33H86.6404C86.6404 115.33 86.6103 115.35 86.5903 115.33L86.5704 115.37C86.5704 115.37 86.4804 115.33 86.4704 115.31C86.4104 115.34 86.3304 115.37 86.3204 115.43C86.3104 115.44 86.3004 115.43 86.2904 115.43C86.2904 115.43 86.3103 115.42 86.3103 115.41C86.2803 115.43 86.2204 115.47 86.2304 115.5C86.1904 115.51 86.2304 115.46 86.1904 115.5C86.0504 115.52 86.1004 115.67 85.9704 115.72C85.9704 115.72 85.9803 115.72 85.9903 115.72C85.8703 115.82 85.8504 115.99 85.7604 116.1C85.7404 116.14 85.7604 116.15 85.7604 116.18H85.7304L85.7504 116.23C85.7504 116.29 85.6504 116.31 85.6804 116.4H85.7003C85.7003 116.4 85.7004 116.48 85.6804 116.47C85.6804 116.47 85.7004 116.48 85.6804 116.49H85.6703V116.56C85.6703 116.56 85.6304 116.54 85.6104 116.62C85.6104 116.65 85.6404 116.7 85.6504 116.69C85.6504 116.68 85.6604 116.66 85.6804 116.66V116.69C85.6804 116.69 85.7604 116.72 85.8004 116.67L85.7803 116.63H85.8004V116.65C85.8004 116.65 85.8004 116.62 85.8004 116.6C85.8104 116.6 85.8204 116.6 85.8204 116.59L85.7904 116.54C85.7904 116.54 85.8204 116.56 85.8304 116.54C85.8204 116.52 85.7903 116.55 85.7803 116.52C85.8003 116.5 85.8204 116.52 85.8004 116.49C85.8104 116.49 85.8204 116.49 85.8204 116.51C85.8204 116.49 85.8204 116.45 85.8004 116.44C85.8304 116.42 85.8003 116.37 85.8403 116.38C85.8403 116.38 85.8204 116.34 85.8304 116.32C85.8604 116.37 85.8504 116.25 85.9004 116.28C85.8704 116.24 85.9104 116.19 85.9004 116.14C85.9004 116.14 85.9304 116.13 85.9404 116.12C85.9104 116.1 85.9204 116.07 85.9104 116.04C85.9604 116.03 85.9404 116.07 85.9704 116.08C85.9404 116.07 85.9704 116.02 85.9404 116.02C85.9704 116.01 85.9603 116.01 85.9903 116.02C85.9503 116 85.9904 116 85.9804 115.97C86.0104 115.95 86.0203 115.98 86.0303 115.94C86.0503 115.94 86.0504 115.97 86.0504 115.97V115.97ZM86.7703 115.49H86.7403V115.47C86.7403 115.47 86.7504 115.48 86.7604 115.49H86.7703ZM86.5903 115.32H86.6104H86.5903Z" fill="white"/>
<path d="M87.6994 115.949V115.939H87.6895L87.6994 115.949Z" fill="white"/>
<path d="M86.7295 118.811H86.7495C86.7495 118.811 86.7295 118.801 86.7295 118.811Z" fill="white"/>
<path d="M86.7798 118.831L86.7598 118.811C86.7598 118.811 86.7698 118.831 86.7798 118.831Z" fill="white"/>
<path d="M85.7502 116.91V116.9H85.7402L85.7502 116.91Z" fill="white"/>
<path d="M85.7599 117.15C85.7599 117.15 85.7699 117.11 85.7599 117.1C85.7599 117.1 85.7399 117.14 85.7599 117.15Z" fill="white"/>
<path d="M85.7097 117.409V117.359C85.7097 117.359 85.6897 117.389 85.6797 117.359C85.6697 117.429 85.6997 117.339 85.7097 117.409Z" fill="white"/>
<path d="M85.7397 117.561C85.7397 117.561 85.7297 117.561 85.7197 117.561C85.7297 117.571 85.7397 117.581 85.7397 117.561Z" fill="white"/>
<path d="M86.53 118.6L86.52 118.57L86.5 118.58L86.53 118.6Z" fill="white"/>
<path d="M86.51 118.801H86.5L86.53 118.811L86.51 118.801Z" fill="white"/>
<path d="M88.3003 119.02L88.2803 119C88.2803 119 88.2803 119.04 88.3003 119.02Z" fill="white"/>
<path d="M88.6395 118.261C88.6395 118.261 88.6595 118.231 88.6495 118.211C88.6495 118.231 88.6295 118.251 88.6395 118.261Z" fill="white"/>
<path d="M88.0002 115.93L88.0202 115.94L87.9902 115.92L88.0002 115.93Z" fill="white"/>
<g style="mix-blend-mode:soft-light" opacity="0.4">
<g style="mix-blend-mode:soft-light" opacity="0.4">
<path d="M83.6803 118.57C82.9603 119.12 82.9403 120.27 84.0303 120.43C84.7203 120.53 85.1903 120.01 85.0203 119.35C84.8503 118.69 84.5303 117.92 83.6803 118.58V118.57Z" fill="#F0E1A0"/>
</g>
</g>
</g>
<defs>
<linearGradient id="paint0_linear_316_16648" x1="122.359" y1="95.6543" x2="132.793" y2="125.567" gradientUnits="userSpaceOnUse">
<stop stop-color="#7A5751"/>
<stop offset="0.42" stop-color="#7E5C57"/>
<stop offset="0.75" stop-color="#846460"/>
</linearGradient>
<linearGradient id="paint1_linear_316_16648" x1="82.39" y1="109.744" x2="92.8242" y2="139.656" gradientUnits="userSpaceOnUse">
<stop stop-color="#7A5751"/>
<stop offset="0.41" stop-color="#7E5C57"/>
<stop offset="0.73" stop-color="#846460"/>
</linearGradient>
<clipPath id="clip0_316_16648">
<rect width="368.14" height="245.93" fill="white"/>
</clipPath>
</defs>
</svg>
