<svg width="369" height="246" viewBox="0 0 369 246" fill="none" xmlns="http://www.w3.org/2000/svg">
<g clip-path="url(#clip0_316_16578)">
<path d="M25.2701 47.9692C45.9401 50.0392 301.9 60.0392 323.41 60.8992C344.91 61.7592 368.14 81.5392 368.14 81.5392V99.5992C368.14 99.5992 335.15 85.6592 303.07 85.6592C270.99 85.6592 56.9401 59.3792 20.0201 58.1292C19.4401 58.1092 16.1701 57.3392 15.6501 57.0892C7.36014 53.2092 20.2101 47.4592 25.2801 47.9692H25.2701Z" fill="#895343"/>
<path d="M85.7895 66.2388C83.3595 67.0388 85.2595 70.2088 86.8395 72.2888C87.0395 72.5488 86.7095 73.0788 86.4395 72.9288C83.8095 71.3888 79.1695 69.0588 76.7195 70.1988C74.3295 71.3088 78.3895 74.2988 81.2895 76.1188C81.5595 76.2888 81.4095 76.9388 81.1095 76.8688C77.8295 76.0888 72.7695 75.3288 73.2095 78.1588C73.8595 82.3188 82.4995 85.3088 82.4995 85.3088L101.9 78.4688C101.9 78.4688 89.4795 65.0488 85.7895 66.2588V66.2388Z" fill="#C49B72"/>
<path d="M273.12 58.3592C270.05 48.4992 241.21 42.1692 245.77 55.3492C250.33 68.5292 249.24 94.2992 249.24 94.2992L225.2 90.6392C228.54 107.029 226.88 147.389 208.13 159.849C208.13 159.849 198.22 164.399 187.98 154.299C210.16 117.749 200.24 75.4292 193.46 53.3092C191.12 45.6692 167.53 42.5792 169.71 51.2892C171.89 60.0092 175.9 81.6492 175.9 81.6492L163.45 78.9392C163.45 78.9392 163.09 117.349 148.98 127.599C138.14 129.729 151.06 118.629 143.54 96.4892C136.01 74.3392 108.07 72.6492 93.5198 77.4292L78.7098 82.2992C64.2198 87.0592 56.2998 103.409 60.5898 119.669L61.2198 122.069C63.8998 132.239 71.9698 142.049 80.4298 158.569C92.7298 182.579 106.77 226.169 152.57 240.739C211.39 259.459 262.58 224.459 277.26 183.869C286.85 157.349 284.56 95.0592 273.12 58.3492V58.3592Z" fill="#C49B72"/>
<path d="M232 166.819C211.46 193.109 177.18 170.369 177.18 170.369L188.01 154.759C198.25 164.869 208.16 160.309 208.16 160.309C223.44 150.559 227.61 103.489 223.65 78.7891C232.65 79.6191 249.15 81.3291 249.15 81.3291C251.53 103.939 252.55 140.519 232.01 166.809L232 166.819Z" fill="#B3875F"/>
<path d="M110.76 157.741C135.07 150.101 146.65 138.061 145.96 128.481C164.48 119.461 148.57 70.8105 148.57 70.8105C156.12 71.6205 174.48 73.5705 174.48 73.5705C187.14 131.351 141.4 166.981 110.76 157.751V157.741Z" fill="#B3875F"/>
<path d="M69.2795 121.969C65.3395 106.629 73.9696 90.8592 89.0096 85.9192L101.3 81.8792C116.64 76.8392 133.24 84.6192 139.19 99.6192C145.71 116.069 138.18 134.949 121.4 140.559C116.73 142.119 112.12 143.539 107.5 144.849C90.6695 149.649 73.6195 138.919 69.2695 121.969H69.2795Z" fill="#ECD298"/>
<path d="M124.94 124.269C127.29 131.429 122.31 137.389 114.59 139.929C106.86 142.469 99.3197 140.629 96.9697 133.459C94.6197 126.299 98.5897 117.289 106.32 114.749C114.05 112.209 122.59 117.109 124.95 124.269H124.94Z" fill="#AF9375"/>
<path fill-rule="evenodd" clip-rule="evenodd" d="M68.3596 115.489C68.4296 117.639 68.7296 119.809 69.2796 121.969C71.1696 129.339 75.4796 135.519 81.1296 139.739C84.8896 133.819 89.6896 128.629 94.0796 124.109C99.1396 118.899 99.0796 110.009 94.1296 104.819C91.0696 101.599 86.7596 100.519 82.9796 102.469C75.3196 106.409 71.3296 110.479 68.3496 115.489H68.3596Z" fill="#A96D57"/>
<path fill-rule="evenodd" clip-rule="evenodd" d="M134.329 91.4186C136.329 93.8186 137.979 96.5686 139.189 99.6186C141.769 106.119 142.129 112.999 140.589 119.279C134.439 117.059 127.999 115.829 122.199 114.869C115.039 113.679 109.809 106.479 110.719 99.3786C111.279 94.9686 114.099 91.5486 118.299 90.8686C124.999 89.7886 129.919 90.1286 134.339 91.4286L134.329 91.4186Z" fill="#A96D57"/>
<path d="M90.6993 139.67C93.1183 139.67 95.0793 137.709 95.0793 135.29C95.0793 132.871 93.1183 130.91 90.6993 130.91C88.2803 130.91 86.3193 132.871 86.3193 135.29C86.3193 137.709 88.2803 139.67 90.6993 139.67Z" fill="#FAB79F"/>
<path d="M131.6 126.229C134.019 126.229 135.98 124.268 135.98 121.849C135.98 119.43 134.019 117.469 131.6 117.469C129.181 117.469 127.22 119.43 127.22 121.849C127.22 124.268 129.181 126.229 131.6 126.229Z" fill="#FAB79F"/>
<path d="M56.2895 89.2696C60.2995 88.7896 65.1995 91.9996 65.1995 91.9996C65.1995 91.9996 61.1895 96.2696 57.1795 96.7496C53.1695 97.2296 48.2695 94.0196 48.2695 94.0196C48.2695 94.0196 52.2795 89.7496 56.2895 89.2696V89.2696Z" fill="#35866F"/>
<path d="M66.6695 81.2104C66.8995 85.2404 63.6695 89.9204 63.6695 89.9204C63.6695 89.9204 59.9295 85.6404 59.6895 81.6104C59.4595 77.5804 62.6895 72.9004 62.6895 72.9004C62.6895 72.9004 66.4295 77.1804 66.6695 81.2104V81.2104Z" fill="#35866F"/>
<path d="M79.6792 80.1995C79.7492 80.0895 79.8192 79.9695 79.8792 79.8495C80.9492 77.7995 80.1792 75.2795 78.1492 74.2095C76.1192 73.1395 73.5992 73.9395 72.5292 75.9795C72.4292 76.1795 72.3392 76.3795 72.2692 76.5895C71.4292 75.1995 69.8492 74.3595 68.1792 74.5595C65.9092 74.8295 64.3292 76.9195 64.6392 79.2195C64.8092 80.4495 65.4792 81.4895 66.4092 82.1495C66.2492 82.2095 66.0892 82.2795 65.9292 82.3595C63.8592 83.4095 63.0392 85.8995 64.0992 87.9195C65.1592 89.9395 67.6992 90.7295 69.7792 89.6795C69.8892 89.6195 69.9992 89.5595 70.0992 89.4995C70.0992 89.6195 70.1192 89.7495 70.1292 89.8695C70.4392 92.1695 72.5292 93.8195 74.7992 93.5495C77.0692 93.2795 78.6492 91.1895 78.3392 88.8895C78.3092 88.6895 78.2692 88.4895 78.2192 88.2895C79.2092 88.5595 80.2992 88.4695 81.2792 87.9695C83.3492 86.9195 84.1692 84.4295 83.1092 82.4095C82.4192 81.0895 81.0892 80.2995 79.6792 80.1995V80.1995Z" fill="#F8A487"/>
<path d="M73.6398 86.4397C75.3684 86.4397 76.7698 85.0383 76.7698 83.3097C76.7698 81.581 75.3684 80.1797 73.6398 80.1797C71.9111 80.1797 70.5098 81.581 70.5098 83.3097C70.5098 85.0383 71.9111 86.4397 73.6398 86.4397Z" fill="black"/>
<path d="M71 92.6312C71.07 92.5212 71.13 92.4112 71.19 92.3012C72.21 90.3612 71.47 87.9612 69.54 86.9512C67.61 85.9412 65.22 86.6912 64.2 88.6312C64.1 88.8212 64.02 89.0112 63.95 89.2112C63.16 87.8912 61.66 87.0912 60.06 87.2812C57.91 87.5412 56.4 89.5212 56.7 91.7112C56.86 92.8812 57.5 93.8612 58.38 94.4912C58.23 94.5512 58.08 94.6112 57.93 94.6912C55.96 95.6912 55.18 98.0512 56.19 99.9712C57.2 101.891 59.61 102.641 61.58 101.641C61.69 101.591 61.79 101.531 61.89 101.471C61.89 101.591 61.91 101.701 61.92 101.821C62.22 104.011 64.2 105.571 66.36 105.311C68.51 105.051 70.02 103.071 69.72 100.881C69.69 100.691 69.65 100.501 69.6 100.311C70.54 100.561 71.57 100.481 72.51 100.011C74.48 99.0112 75.26 96.6512 74.25 94.7312C73.59 93.4812 72.33 92.7212 70.99 92.6312H71Z" fill="#FDCD08"/>
<path d="M65.2593 98.5596C66.9051 98.5596 68.2393 97.2254 68.2393 95.5796C68.2393 93.9338 66.9051 92.5996 65.2593 92.5996C63.6135 92.5996 62.2793 93.9338 62.2793 95.5796C62.2793 97.2254 63.6135 98.5596 65.2593 98.5596Z" fill="#FCD30A"/>
<path d="M141.06 53.8793C143.42 46.8093 162.69 46.9893 165.92 48.3693C169.15 49.7493 171.91 54.5993 169.59 57.3793C167.27 60.1593 150.4 60.3493 145.58 60.3493C142.99 60.3493 139.2 59.4293 141.05 53.8793H141.06Z" fill="#ECD298"/>
<path d="M217.59 56.9691C219.95 49.8991 239.22 50.0791 242.45 51.4591C245.69 52.8491 248.44 57.6891 246.12 60.4691C243.8 63.2491 226.93 63.4391 222.11 63.4391C219.52 63.4391 215.73 62.5191 217.58 56.9691H217.59Z" fill="#ECD298"/>
<path d="M58.2003 55.0695C58.2003 55.0695 51.6103 49.9995 48.0703 44.9395" stroke="#895343" stroke-width="4.79" stroke-linecap="round" stroke-linejoin="round"/>
<path d="M43.5098 57.6003C43.5098 57.6003 36.9198 57.0903 30.0898 62.6103" stroke="#895343" stroke-width="4.79" stroke-linecap="round" stroke-linejoin="round"/>
<path d="M57.98 25.5802C56.59 30.7502 48.26 38.6202 48.26 38.6202C48.26 38.6202 44.99 27.6302 46.37 22.4602C47.75 17.2902 54.68 14.6602 54.68 14.6602C54.68 14.6602 59.36 20.4102 57.97 25.5802H57.98Z" fill="#BAD265"/>
<path d="M32.7802 25.8294C36.5402 29.6394 39.1302 40.8094 39.1302 40.8094C39.1302 40.8094 27.9902 38.0794 24.2302 34.2694C20.4702 30.4594 21.7002 23.1494 21.7002 23.1494C21.7002 23.1494 29.0202 22.0194 32.7802 25.8194V25.8294Z" fill="#BAD265"/>
<path d="M44.2301 9.87C44.0601 15.22 37.7601 24.79 37.7601 24.79C37.7601 24.79 32.0601 14.84 32.2201 9.49C32.3801 4.14 38.5301 0 38.5301 0C38.5301 0 44.4001 4.52 44.2301 9.87V9.87Z" fill="#88B253"/>
<path d="M21.0399 86.2995C20.2299 81.0095 24.6799 70.4395 24.6799 70.4395C24.6799 70.4395 32.0999 79.1795 32.9199 84.4695C33.7299 89.7595 28.4599 94.9594 28.4599 94.9594C28.4599 94.9594 21.8599 91.5895 21.0499 86.2995H21.0399Z" fill="#88B253"/>
<path d="M6.77 66.7302C11.74 64.7402 23.04 66.7002 23.04 66.7002C23.04 66.7002 16.2 75.9002 11.23 77.8902C6.26 79.8802 0 75.9102 0 75.9102C0 75.9102 1.8 68.7202 6.77 66.7302V66.7302Z" fill="#BAD265"/>
<path d="M118.971 127.16C118.971 127.16 119.231 131.07 113.811 133.15C108.391 135.23 105.971 132.15 105.971 132.15" stroke="#7A5751" stroke-width="1.73" stroke-miterlimit="10" stroke-linecap="round"/>
<path d="M110.29 125.48C107.31 126.62 103.97 125.13 102.83 122.15C101.69 119.17 112.48 115.04 113.62 118.02C114.76 121 113.27 124.34 110.29 125.48Z" fill="#7A5751"/>
<g style="mix-blend-mode:soft-light" opacity="0.4">
<path d="M107.96 119.409C105.67 120.289 104.16 122.209 103.87 121.129C103.49 119.749 111.6 116.499 112.16 117.959C112.56 118.999 110.25 118.529 107.96 119.409Z" fill="#F0E1A0"/>
</g>
<path d="M79.2402 124.589C81.2402 117.679 89.8502 113.919 94.2602 118.199" stroke="#7A5751" stroke-width="1.73" stroke-miterlimit="10" stroke-linecap="round"/>
<path d="M133.48 103.82C127.37 100.02 118.46 102.97 118.03 109.1" stroke="#7A5751" stroke-width="1.73" stroke-miterlimit="10" stroke-linecap="round"/>
</g>
<defs>
<clipPath id="clip0_316_16578">
<rect width="368.14" height="245.93" fill="white"/>
</clipPath>
</defs>
</svg>
