<svg width="188" height="343" viewBox="0 0 188 343" fill="none" xmlns="http://www.w3.org/2000/svg">
<g clip-path="url(#clip0_316_19006)">
<path d="M147.811 248.56C147.811 290.99 139.941 322.82 96.3105 322.82C52.6805 322.82 44.8105 290.99 44.8105 248.56C44.8105 206.13 67.8705 190.08 96.3105 190.08C124.751 190.08 147.811 206.13 147.811 248.56Z" fill="#807E89"/>
<path d="M45.4607 237.289C45.4607 237.289 19.1207 251.269 19.1207 280.219C19.1207 309.169 18.1407 322.169 32.4507 322.169C46.7607 322.169 62.3707 325.419 60.0907 292.579C57.8107 259.739 61.3907 228.519 45.4607 237.299V237.289Z" fill="#F1CF14"/>
<path d="M8.71028 310.46C8.71028 317.64 6.43028 323.47 24.3203 323.47C42.2103 323.47 39.9303 317.65 39.9303 310.46C39.9303 303.27 32.9403 295.32 24.3203 295.32C15.7003 295.32 8.71028 303.27 8.71028 310.46Z" fill="#F5F2DD"/>
<path d="M146.4 237.289C146.4 237.289 172.74 251.269 172.74 280.219C172.74 309.169 173.72 322.169 159.41 322.169C145.1 322.169 129.49 325.419 131.77 292.579C134.05 259.739 130.47 228.519 146.4 237.299V237.289Z" fill="#807E89"/>
<path d="M183.15 310.46C183.15 317.64 185.43 323.47 167.54 323.47C149.65 323.47 151.93 317.65 151.93 310.46C151.93 303.28 158.92 295.32 167.54 295.32C176.16 295.32 183.15 303.27 183.15 310.46V310.46Z" fill="#F7F8F8"/>
<path d="M45.4607 237.289C45.4607 237.289 19.1207 251.269 19.1207 280.219C19.1207 309.169 18.1407 322.169 32.4507 322.169C46.7607 322.169 62.3707 325.419 60.0907 292.579C57.8107 259.739 61.3907 228.519 45.4607 237.299V237.289Z" fill="#807E89"/>
<path d="M162.3 211.2C149.81 251.75 146.83 298.75 96.3 298.75C45.77 298.75 43.29 251.14 28.96 211.2C58.01 201.56 63.36 166.01 96.3 166.01C129.24 166.01 132.38 197.91 162.3 211.2Z" fill="#F7F8F8"/>
<path d="M54.7004 267.02C77.6804 288.65 87.3304 290 87.3304 290C87.3304 290 86.8804 303.01 85.0804 322.85C83.2804 342.69 77.4204 341.78 70.2004 342.68C62.9904 343.58 53.6504 343.39 49.4604 323.75C31.9404 241.56 36.6704 231.65 36.6704 231.65C36.6704 231.65 41.1104 254.24 54.6904 267.02H54.7004Z" fill="#F7F8F8"/>
<path d="M54.7005 267.02C77.6805 288.65 87.3305 290 87.3305 290C87.3305 290 86.8805 303.01 85.0805 322.85C79.6005 303.31 53.5905 303.96 42.3205 287.74C33.4205 238.48 36.6805 231.65 36.6805 231.65C36.6805 231.65 41.1205 254.24 54.7005 267.02V267.02Z" fill="#807E89"/>
<path d="M137.021 267.02C114.041 288.65 104.391 290 104.391 290C104.391 290 104.841 303.01 106.641 322.85C108.441 342.68 114.301 341.78 121.521 342.68C128.731 343.58 138.071 343.39 142.261 323.75C159.781 241.56 155.051 231.65 155.051 231.65C155.051 231.65 150.611 254.24 137.031 267.02H137.021Z" fill="#F7F8F8"/>
<path d="M137.021 267.02C114.041 288.65 104.391 290 104.391 290C104.391 290 104.841 303.01 106.641 322.85C112.121 303.31 138.131 303.96 149.401 287.74C158.301 238.48 155.041 231.65 155.041 231.65C155.041 231.65 150.601 254.24 137.021 267.02V267.02Z" fill="#807E89"/>
<path d="M8.71028 310.46C8.71028 317.64 6.43028 323.47 24.3203 323.47C42.2103 323.47 39.9303 317.65 39.9303 310.46C39.9303 303.27 32.9403 295.32 24.3203 295.32C15.7003 295.32 8.71028 303.27 8.71028 310.46Z" fill="#F7F8F8"/>
<path fill-rule="evenodd" clip-rule="evenodd" d="M128.21 51.0994C138.7 40.0894 151.48 30.3694 161.35 34.4194C177.92 41.2194 169.46 85.0993 165.86 100.739C167.16 105.879 167.85 111.069 167.85 116.189C167.85 151.609 134.77 184.879 93.9696 184.879C53.1696 184.879 20.0796 151.609 20.0796 116.179C20.0796 111.499 20.6596 106.749 21.7496 102.029C18.3696 87.6994 8.89964 41.4194 25.9596 34.4094C35.8996 30.3294 48.7796 40.2094 59.3196 51.3194C69.6496 45.1694 81.4396 41.4794 93.9596 41.4794C106.48 41.4794 117.97 45.0794 128.21 51.0894V51.0994Z" fill="#807E89"/>
<path fill-rule="evenodd" clip-rule="evenodd" d="M99.5201 183.941C100.04 184.381 100.72 184.581 101.4 184.511C132.52 181.401 157.95 159.071 165.53 132.461C165.62 132.131 165.65 131.791 165.61 131.451C162.58 105.581 144.75 85.7109 123.21 85.7109C113.11 85.7109 103.82 90.0809 96.5001 97.3909C95.3601 98.5309 93.4801 98.5309 92.3401 97.3909C85.0101 90.0809 75.7301 85.7109 65.6301 85.7109C43.4401 85.7109 25.1901 106.791 22.9901 133.801C22.9601 134.141 23.0001 134.491 23.1101 134.811C31.5601 160.611 56.7901 181.881 87.3701 184.581C88.0401 184.641 88.7001 184.441 89.2201 184.011C90.3001 183.121 91.3401 182.171 92.3401 181.171C93.4801 180.031 95.3601 180.031 96.5001 181.171C97.4701 182.141 98.4801 183.061 99.5201 183.931V183.941Z" fill="#F7F8F8"/>
<path fill-rule="evenodd" clip-rule="evenodd" d="M58.0701 175.72C40.5301 166.2 27.3801 150.2 22.3301 132.28C27.1801 128.29 33.4001 125.9 40.1701 125.9C55.7001 125.9 68.3001 138.49 68.3001 154.03C68.3001 162.77 64.3201 170.57 58.0701 175.73V175.72Z" fill="#FCD7D7"/>
<path fill-rule="evenodd" clip-rule="evenodd" d="M165.75 131.681C160.88 149.661 147.86 165.751 130.4 175.411C124.36 170.251 120.53 162.581 120.53 154.011C120.53 138.481 133.12 125.881 148.66 125.881C155.09 125.881 161.01 128.041 165.75 131.671V131.681Z" fill="#FCD7D7"/>
<path d="M26.5397 82.9596C24.6797 73.8096 20.5497 49.1696 28.7897 44.1996C37.3097 39.0696 52.5897 53.3496 57.3197 58.1096C58.0597 58.8596 57.8597 60.0896 56.9397 60.6096C45.6697 67.0096 36.7597 74.3296 29.4097 83.5896C28.5497 84.6696 26.8097 84.3096 26.5397 82.9596V82.9596Z" fill="#DBDCDB"/>
<path d="M161.22 82.8202C162.84 73.5702 166.24 49.1402 158.04 44.2002C149.52 39.0602 134.93 53.3602 130.44 58.1202C129.73 58.8702 129.94 60.0802 130.85 60.5902C142.11 66.9702 151 74.2702 158.35 83.5002C159.22 84.6002 160.99 84.2102 161.23 82.8302L161.22 82.8202Z" fill="#DBDCDB"/>
<path d="M132.78 174.83H56.4399C54.2197 174.83 52.4199 176.63 52.4199 178.85V181.52C52.4199 183.74 54.2197 185.54 56.4399 185.54H132.78C135 185.54 136.8 183.74 136.8 181.52V178.85C136.8 176.63 135 174.83 132.78 174.83Z" fill="#EB663B"/>
<path d="M93.9405 196.26C99.8554 196.26 104.65 191.465 104.65 185.55C104.65 179.635 99.8554 174.84 93.9405 174.84C88.0255 174.84 83.2305 179.635 83.2305 185.55C83.2305 191.465 88.0255 196.26 93.9405 196.26Z" fill="#FDCD08"/>
<path d="M89.7401 189.599C89.1001 189.599 88.5501 189.479 88.0801 189.249C87.6101 189.009 87.2501 188.679 87.0001 188.249C86.7501 187.819 86.6201 187.319 86.6201 186.759C86.6201 185.969 86.7701 185.269 87.0601 184.659C87.3601 184.049 87.7601 183.579 88.2701 183.249C88.7801 182.909 89.3401 182.739 89.9701 182.739C90.5501 182.739 90.9901 182.889 91.2901 183.189C91.5901 183.479 91.7401 183.879 91.7401 184.359C91.7401 184.689 91.6801 184.949 91.5601 185.149C91.4501 185.349 91.2801 185.449 91.0701 185.449C90.9201 185.449 90.8001 185.419 90.7201 185.349C90.6301 185.279 90.5901 185.179 90.5901 185.039C90.5901 184.989 90.6001 184.899 90.6201 184.769C90.6501 184.609 90.6701 184.479 90.6701 184.379C90.6701 183.889 90.4101 183.649 89.8901 183.649C89.5401 183.649 89.2001 183.769 88.8801 183.999C88.5601 184.229 88.3001 184.569 88.1001 185.019C87.9001 185.459 87.8001 185.989 87.8001 186.609C87.8001 187.229 87.9801 187.749 88.3401 188.099C88.7001 188.449 89.2301 188.619 89.9301 188.619C90.2801 188.619 90.6301 188.579 90.9801 188.489C91.3401 188.399 91.7401 188.259 92.1701 188.079C92.2501 188.049 92.3201 188.029 92.3701 188.029C92.4601 188.029 92.5201 188.059 92.5601 188.129C92.6001 188.189 92.6201 188.279 92.6201 188.379C92.6201 188.709 92.4401 188.949 92.0901 189.099C91.7101 189.269 91.3101 189.389 90.9001 189.469C90.4901 189.539 90.1001 189.579 89.7301 189.579L89.7401 189.599ZM92.8101 189.599C92.5701 189.599 92.3701 189.489 92.2201 189.269C92.0701 189.049 92.0001 188.769 92.0001 188.429C92.0001 188.029 92.0301 187.659 92.0801 187.329C92.1301 186.989 92.2201 186.639 92.3501 186.259C92.4001 186.099 92.4801 185.979 92.5701 185.909C92.6601 185.839 92.8201 185.809 93.0301 185.809C93.1501 185.809 93.2301 185.829 93.2701 185.869C93.3201 185.909 93.3401 185.959 93.3401 186.039C93.3401 186.079 93.3101 186.229 93.2501 186.469C93.2001 186.669 93.1501 186.849 93.1201 187.009C93.0101 187.569 92.9601 187.949 92.9601 188.129C92.9601 188.239 92.9701 188.319 93.0001 188.369C93.0301 188.409 93.0701 188.429 93.1301 188.429C93.2101 188.429 93.3101 188.349 93.4301 188.189C93.5501 188.029 93.6801 187.789 93.8201 187.459C93.9601 187.129 94.0901 186.729 94.2201 186.249C94.2601 186.089 94.3301 185.969 94.4101 185.899C94.5001 185.829 94.6301 185.799 94.8101 185.799C94.9301 185.799 95.0201 185.819 95.0701 185.849C95.1201 185.879 95.1401 185.929 95.1401 186.009C95.1401 186.139 95.0701 186.509 94.9401 187.109C94.7901 187.799 94.7201 188.219 94.7201 188.379C94.7201 188.479 94.7401 188.559 94.7801 188.619C94.8201 188.669 94.8801 188.699 94.9501 188.699C95.0601 188.699 95.1801 188.639 95.3301 188.509C95.4801 188.379 95.6801 188.159 95.9201 187.869C95.9801 187.799 96.0601 187.759 96.1401 187.759C96.2101 187.759 96.2601 187.789 96.3001 187.859C96.3401 187.919 96.3601 188.009 96.3601 188.129C96.3601 188.339 96.3101 188.509 96.2101 188.629C95.9801 188.909 95.7301 189.149 95.4601 189.329C95.2001 189.509 94.9001 189.599 94.5601 189.599C94.3001 189.599 94.1101 189.499 93.9901 189.299C93.8701 189.099 93.8101 188.819 93.8101 188.459C93.7201 188.819 93.5801 189.109 93.4001 189.299C93.2201 189.489 93.0201 189.589 92.8101 189.589V189.599ZM99.2901 187.769C99.3601 187.769 99.4101 187.799 99.4501 187.869C99.4901 187.929 99.5101 188.019 99.5101 188.139C99.5101 188.349 99.4601 188.519 99.3601 188.639C99.1301 188.919 98.8801 189.159 98.6001 189.339C98.3301 189.519 98.0101 189.609 97.6601 189.609C96.5701 189.609 96.0201 188.839 96.0201 187.299C96.0201 187.059 96.0201 186.829 96.0401 186.579H95.7301C95.5701 186.579 95.4601 186.549 95.4001 186.489C95.3501 186.429 95.3201 186.339 95.3201 186.209C95.3201 185.909 95.4401 185.759 95.6801 185.759H96.1401C96.2301 185.169 96.3701 184.629 96.5601 184.139C96.7501 183.649 96.9701 183.259 97.2301 182.969C97.5001 182.679 97.7801 182.539 98.0901 182.539C98.3101 182.539 98.4901 182.639 98.6201 182.839C98.7501 183.039 98.8101 183.289 98.8101 183.589C98.8101 184.419 98.4601 185.139 97.7701 185.759H98.6701C98.7601 185.759 98.8201 185.779 98.8501 185.819C98.8801 185.859 98.9101 185.929 98.9101 186.029C98.9101 186.399 98.6101 186.579 98.0001 186.579H97.0201C97.0101 186.849 97.0001 187.059 97.0001 187.209C97.0001 187.769 97.0601 188.159 97.1901 188.379C97.3201 188.599 97.5301 188.719 97.8201 188.719C98.0501 188.719 98.2501 188.649 98.4301 188.509C98.6101 188.369 98.8201 188.159 99.0601 187.879C99.1201 187.809 99.2001 187.769 99.2801 187.769H99.2901ZM97.8801 183.319C97.8001 183.319 97.7101 183.419 97.6101 183.629C97.5101 183.829 97.4201 184.109 97.3301 184.469C97.2401 184.819 97.1701 185.219 97.1101 185.649C97.4301 185.379 97.6601 185.069 97.8201 184.729C97.9801 184.389 98.0601 184.079 98.0601 183.799C98.0601 183.479 98.0001 183.329 97.8801 183.329V183.319ZM101.73 188.009C101.8 188.009 101.85 188.039 101.89 188.109C101.93 188.169 101.95 188.259 101.95 188.379C101.95 188.569 101.9 188.739 101.81 188.879C101.66 189.109 101.46 189.289 101.22 189.419C100.98 189.549 100.69 189.609 100.35 189.609C99.8401 189.609 99.4401 189.459 99.1501 189.149C98.8701 188.839 98.7201 188.419 98.7201 187.899C98.7201 187.529 98.8001 187.189 98.9501 186.869C99.1101 186.549 99.3201 186.289 99.5901 186.109C99.8701 185.919 100.18 185.829 100.53 185.829C100.84 185.829 101.09 185.919 101.28 186.109C101.47 186.289 101.56 186.539 101.56 186.859C101.56 187.229 101.43 187.549 101.16 187.819C100.9 188.079 100.45 188.289 99.8101 188.449C99.9401 188.699 100.16 188.819 100.46 188.819C100.68 188.819 100.86 188.769 101 188.669C101.14 188.569 101.31 188.399 101.5 188.159C101.56 188.079 101.64 188.039 101.72 188.039L101.73 188.009ZM100.41 186.599C100.21 186.599 100.04 186.719 99.9001 186.949C99.7701 187.179 99.7001 187.459 99.7001 187.789V187.809C100.02 187.739 100.27 187.619 100.45 187.469C100.63 187.319 100.72 187.149 100.72 186.949C100.72 186.849 100.69 186.769 100.63 186.709C100.58 186.649 100.5 186.609 100.41 186.609V186.599Z" fill="black"/>
<path d="M80.9802 112.209C80.9802 128.809 66.8902 142.389 49.3602 142.389C31.8302 142.389 17.7402 128.809 17.7402 112.209C17.7402 95.6093 31.8302 82.0293 49.3602 82.0293C66.8902 82.0293 80.9802 95.6093 80.9802 112.209V112.209Z" stroke="#333232" stroke-width="3.35"/>
<path d="M169.75 112.209C169.75 128.809 155.66 142.389 138.13 142.389C120.6 142.389 106.51 128.809 106.51 112.209C106.51 95.6093 120.59 82.0293 138.13 82.0293C155.67 82.0293 169.75 95.6093 169.75 112.209V112.209Z" stroke="#333232" stroke-width="3.35"/>
<path d="M81.1699 109.87C90.6399 108.26 96.1999 108.29 106.32 109.87V115.75C96.6599 114.28 91.1499 114.26 81.1699 115.75V109.87V109.87Z" fill="#262525"/>
<path d="M94.45 141.12C89.53 141.12 85.54 137.13 85.54 132.21C85.54 127.29 103.36 127.29 103.36 132.21C103.36 137.13 99.37 141.12 94.45 141.12V141.12Z" fill="#7A5751"/>
<path d="M84.5596 150.06C84.5596 150.06 86.3396 148.32 95.2996 148.32C104.26 148.32 106.04 150.06 106.04 150.06" stroke="#7A5751" stroke-width="2.66" stroke-miterlimit="10" stroke-linecap="round"/>
<path d="M70.7791 129.18C73.1191 126.77 75.9391 121.81 70.5391 119.54C62.6991 116.25 57.1691 112.93 58.3091 125.11C58.7991 130.41 67.0691 133 70.7791 129.18Z" fill="url(#paint0_linear_316_19006)"/>
<path d="M70.8395 129.251C70.8395 129.251 70.8195 129.221 70.7695 129.271V129.331L70.8395 129.251Z" fill="#7A5751"/>
<path d="M70.4298 129.491C70.3798 129.561 70.3298 129.651 70.3998 129.651C70.4298 129.561 70.4598 129.561 70.4898 129.471C70.5398 129.421 70.5898 129.401 70.5898 129.421C70.5998 129.401 70.6798 129.361 70.6898 129.311C70.5998 129.341 70.5098 129.421 70.4398 129.521C70.4098 129.521 70.4298 129.501 70.4198 129.491H70.4298Z" fill="#7A5751"/>
<path d="M64.0693 130.701L64.1093 130.721L64.0693 130.701Z" fill="#7A5751"/>
<path d="M60.4092 128.83L60.4492 128.85C60.4292 128.83 60.4092 128.82 60.4092 128.83Z" fill="#7A5751"/>
<path d="M59.9395 128.311L59.9595 128.341L59.9395 128.311Z" fill="#7A5751"/>
<path d="M64.0697 130.7L63.9697 130.66C63.9697 130.66 64.0197 130.68 64.0697 130.7Z" fill="#7A5751"/>
<path d="M69.7393 130.13C69.7393 130.13 69.7693 130.1 69.7893 130.09L69.7393 130.12V130.13Z" fill="#7A5751"/>
<path d="M65.8799 130.891H65.9099L65.9399 130.881L65.8799 130.891Z" fill="#7A5751"/>
<path d="M67.2697 130.811C67.2697 130.811 67.2297 130.851 67.2197 130.871C67.2397 130.851 67.2597 130.841 67.2897 130.841C67.2897 130.841 67.2897 130.821 67.2697 130.821V130.811Z" fill="#7A5751"/>
<path d="M69.3896 130.17L69.4196 130.15L69.3896 130.17Z" fill="#7A5751"/>
<path d="M64.8791 130.801C64.8791 130.801 64.8791 130.791 64.8691 130.781C64.8691 130.781 64.8691 130.781 64.8791 130.801Z" fill="#7A5751"/>
<path d="M70.7695 129.181L70.7795 129.161L70.7695 129.141V129.181Z" fill="#7A5751"/>
<path d="M59.2197 127.26C59.2197 127.26 59.2297 127.28 59.2197 127.26V127.26Z" fill="#7A5751"/>
<path d="M60.7895 116.74C60.6495 116.74 60.9895 116.66 60.7895 116.66C60.8095 116.67 60.6295 116.75 60.7895 116.74Z" fill="#7A5751"/>
<path d="M69.6994 130.15L69.6494 130.18L69.6994 130.15Z" fill="#7A5751"/>
<path d="M58.4192 124.48C58.4192 124.48 58.4092 124.5 58.4092 124.51C58.4092 124.51 58.4092 124.51 58.4192 124.48Z" fill="#7A5751"/>
<path d="M58.8198 126.63L58.7998 126.58L58.8198 126.63Z" fill="#7A5751"/>
<path d="M58.2698 122.109L58.2598 122.139V122.169L58.2698 122.109Z" fill="#7A5751"/>
<path d="M73.6291 124.701C73.6291 124.701 73.5991 124.741 73.5791 124.751C73.6091 124.741 73.5791 124.921 73.6291 124.701Z" fill="#7A5751"/>
<path d="M69.7192 130.121C69.7192 130.121 69.7192 130.141 69.6992 130.151L69.7292 130.131C69.7292 130.131 69.7292 130.121 69.7192 130.131V130.121Z" fill="#7A5751"/>
<path d="M57.9795 122.511C57.9795 122.511 57.9995 122.441 57.9995 122.401V122.381V122.511H57.9795Z" fill="#7A5751"/>
<path d="M73.239 126C73.319 125.83 73.239 125.9 73.219 125.85C73.299 125.64 73.299 125.77 73.349 125.71C73.389 125.57 73.379 125.46 73.419 125.36C73.429 125.36 73.439 125.34 73.439 125.36C73.459 125.21 73.589 124.95 73.569 124.76C73.569 124.75 73.589 124.74 73.589 124.74C73.559 124.76 73.529 124.76 73.519 124.74C73.539 124.66 73.519 124.58 73.559 124.56C73.549 124.61 73.559 124.62 73.559 124.64V124.55C73.629 124.48 73.559 124.67 73.589 124.68C73.609 124.51 73.639 124.31 73.649 124.18C73.709 124.16 73.619 124.49 73.689 124.32L73.629 124.51C73.739 124.37 73.599 124.63 73.699 124.51C73.779 124.25 73.729 124.21 73.779 123.94C73.759 123.88 73.739 123.96 73.719 123.89C73.719 123.51 73.859 123.59 73.789 123.31C73.759 123.24 73.699 123.21 73.719 123.01L73.769 123.07C73.769 122.8 73.689 122.93 73.669 122.66C73.699 122.7 73.729 122.86 73.729 122.82C73.729 122.64 73.669 122.7 73.639 122.57L73.679 122.53C73.629 122.25 73.459 121.98 73.329 121.7C73.349 121.7 73.379 121.75 73.369 121.68C73.149 121.36 72.939 120.95 72.669 120.69L72.539 120.62C72.539 120.62 72.509 120.56 72.539 120.58C72.439 120.47 72.519 120.59 72.459 120.55C72.399 120.49 72.399 120.46 72.439 120.48C72.239 120.31 71.809 120.11 71.609 119.91L71.659 119.93C71.499 119.79 71.419 119.88 71.259 119.76H71.299C70.899 119.55 70.439 119.36 70.149 119.19C70.069 119.22 69.749 118.99 69.699 119.06C69.479 118.92 69.549 118.94 69.229 118.77C69.139 118.73 69.079 118.76 68.969 118.72V118.68L68.819 118.66L68.759 118.58L68.649 118.55C68.649 118.55 68.729 118.6 68.719 118.61C68.549 118.56 68.339 118.42 68.349 118.4L67.959 118.27C67.959 118.27 68.039 118.28 68.089 118.29C67.869 118.24 68.069 118.23 67.869 118.19C67.889 118.21 67.849 118.21 67.839 118.21C67.759 118.15 67.549 118.06 67.389 118H67.429C67.149 117.86 66.829 117.75 66.509 117.62C66.619 117.68 66.569 117.71 66.479 117.68L66.459 117.62C66.389 117.62 66.549 117.67 66.419 117.66C66.299 117.61 66.359 117.58 66.429 117.6L66.279 117.56C66.279 117.56 66.309 117.56 66.329 117.54C66.259 117.54 66.099 117.4 65.989 117.41V117.39C65.669 117.26 65.509 117.23 65.249 117.13C65.229 117.16 65.129 117.12 65.039 117.12C64.849 117.04 64.649 116.93 64.409 116.86C64.239 116.82 64.349 116.87 64.269 116.87C64.269 116.83 64.029 116.76 64.159 116.78C63.869 116.7 63.789 116.68 63.419 116.61C63.459 116.63 63.499 116.65 63.469 116.66C63.399 116.65 63.319 116.61 63.329 116.6H63.349C62.929 116.54 62.399 116.31 62.049 116.35H62.069C61.949 116.35 61.829 116.35 61.709 116.37C61.549 116.36 61.809 116.35 61.689 116.32C61.309 116.37 61.069 116.32 60.759 116.43C60.489 116.37 59.899 116.69 59.609 116.88H59.639C59.579 116.96 59.539 116.94 59.489 116.97C59.509 116.97 59.579 116.93 59.539 116.97C58.979 117.47 58.569 118.16 58.339 118.87C58.259 119.13 58.409 119.05 58.279 119.37L58.259 119.27C58.189 119.81 58.059 120.37 58.069 120.9C58.069 120.87 58.049 120.87 58.049 120.81C58.009 120.92 58.019 121.22 58.049 121.22C58.049 121.3 58.029 121.24 58.009 121.29C57.989 121.4 58.039 121.57 58.009 121.63C58.009 121.63 58.009 121.6 57.999 121.58C58.009 121.65 57.989 121.92 58.019 121.85C57.989 122.05 58.029 122.23 58.019 122.39C58.059 122.49 57.999 122.73 58.059 122.76C57.999 122.75 58.019 123.11 58.059 123.23C58.039 123.19 58.049 123.34 58.019 123.29C58.019 123.43 58.049 123.56 58.069 123.54C58.009 123.81 58.149 124.06 58.069 124.21C58.149 124.63 58.159 125.01 58.259 125.39C58.189 125.39 58.179 124.97 58.129 124.99C58.199 125.35 58.299 125.55 58.349 125.91C58.349 126 58.309 125.86 58.299 125.83C58.359 126.19 58.519 126.5 58.649 126.8C58.649 126.8 58.629 126.77 58.609 126.74C58.639 126.8 58.659 126.88 58.679 126.87L58.649 126.81C58.649 126.7 58.809 127.02 58.849 127.01C58.719 126.95 58.999 127.29 58.819 127.19C58.849 127.22 58.879 127.26 58.899 127.25C58.929 127.31 58.929 127.33 58.879 127.28C59.009 127.47 58.989 127.39 59.099 127.56C59.089 127.56 59.059 127.53 59.039 127.52C59.119 127.6 59.189 127.67 59.279 127.83C59.269 127.83 59.269 127.85 59.239 127.81C59.429 128.04 59.619 128.16 59.809 128.43C59.709 128.39 59.869 128.53 59.839 128.58C59.879 128.62 59.929 128.65 59.979 128.69L59.939 128.63C60.059 128.73 60.179 128.8 60.269 128.9L60.169 128.84L60.389 129.03L60.279 128.91C60.409 128.99 60.309 128.85 60.449 129C60.419 128.98 60.559 129.1 60.609 129.18C60.669 129.22 60.749 129.24 60.839 129.32C60.849 129.35 60.789 129.35 60.799 129.37C60.889 129.37 61.109 129.57 61.209 129.58C61.179 129.58 61.159 129.59 61.169 129.6H61.239C61.289 129.66 61.299 129.67 61.279 129.68C61.449 129.81 61.259 129.59 61.449 129.76C61.429 129.76 61.439 129.76 61.399 129.74C61.609 129.89 61.849 129.95 62.039 130.08C62.079 130.16 61.849 130 61.899 130.08C62.199 130.24 62.549 130.34 62.859 130.46L62.799 130.43C62.869 130.38 63.019 130.55 63.179 130.58C63.139 130.58 63.119 130.6 63.129 130.59C63.329 130.69 63.579 130.7 63.909 130.77H63.859C63.979 130.82 64.189 130.88 64.329 130.91C64.379 130.9 64.459 130.91 64.409 130.88C64.829 131.03 65.239 130.98 65.629 131.05C65.579 131.05 65.519 131.06 65.549 131.06H65.879C65.879 131.06 65.839 131.03 65.769 131.01C65.809 130.99 65.909 130.98 65.989 130.98C65.839 131 65.989 131.03 66.059 131.05C66.049 131.05 66.069 131.03 66.059 131.02C66.229 131.08 66.089 130.96 66.329 131V131.02C66.409 131.01 66.489 130.98 66.579 130.97C66.619 131 66.489 131 66.479 131.03C66.609 131.02 66.739 130.94 66.859 130.96L66.669 131C66.809 131.03 66.819 131.02 66.919 131.01H67.079C67.239 130.9 67.419 130.95 67.629 130.83C67.429 130.94 67.599 130.87 67.589 130.91C67.649 130.91 67.739 130.9 67.719 130.91C67.819 130.85 67.899 130.89 68.039 130.81C68.049 130.82 68.149 130.78 68.139 130.82C68.269 130.78 68.099 130.81 68.109 130.79C68.309 130.72 68.609 130.68 68.879 130.51C69.119 130.38 69.149 130.35 69.349 130.19C69.429 130.17 69.309 130.27 69.309 130.27C69.429 130.22 69.519 130.16 69.619 130.08C69.599 130.1 69.629 130.1 69.669 130.09C69.759 130.03 69.699 130.01 69.829 129.96C69.819 129.98 69.809 130.02 69.769 130.06L70.059 129.83C70.059 129.83 70.019 129.9 69.989 129.93C70.109 129.86 70.259 129.68 70.279 129.63L70.199 129.68C70.199 129.68 70.239 129.68 70.209 129.72C70.139 129.82 70.069 129.82 70.059 129.82L70.119 129.76C70.019 129.77 69.829 129.96 69.679 130.05L69.709 129.97L69.579 130.1C69.579 130.1 69.499 130.1 69.579 130.04C69.459 130.08 69.489 130.11 69.389 130.14C69.379 130.14 69.389 130.14 69.389 130.13L69.289 130.21C69.289 130.21 69.249 130.19 69.319 130.15C69.119 130.24 69.019 130.34 68.919 130.34H68.939C68.659 130.46 68.929 130.38 68.729 130.51L68.549 130.47V130.52C68.549 130.52 68.449 130.55 68.449 130.53C68.349 130.6 68.469 130.53 68.419 130.59C68.269 130.63 68.019 130.72 67.969 130.67C67.919 130.71 68.119 130.66 67.969 130.72C67.909 130.66 67.789 130.77 67.649 130.78C67.679 130.74 67.819 130.72 67.669 130.72C67.599 130.8 67.409 130.77 67.289 130.8C67.289 130.85 67.039 130.84 66.849 130.88C66.859 130.86 66.479 130.89 66.299 130.88C66.299 130.88 66.079 130.91 65.939 130.91C65.939 130.88 65.969 130.87 66.039 130.86H65.909C65.909 130.86 65.839 130.88 65.749 130.88L65.779 130.84C65.609 130.84 65.429 130.89 65.209 130.83C65.189 130.86 65.379 130.95 65.139 130.94C65.139 130.92 65.129 130.89 65.189 130.89C65.169 130.89 65.119 130.89 65.079 130.89L65.179 130.87C65.079 130.84 65.119 130.89 65.049 130.87C65.049 130.84 64.989 130.84 65.009 130.82C65.029 130.82 65.079 130.84 65.109 130.84C65.019 130.82 64.909 130.79 64.879 130.77C64.879 130.79 64.879 130.81 64.809 130.8C64.639 130.78 64.759 130.76 64.659 130.73C64.619 130.74 64.509 130.71 64.499 130.75C64.449 130.75 64.439 130.72 64.429 130.71C64.339 130.72 64.029 130.62 64.109 130.69C63.819 130.66 63.519 130.53 63.249 130.45C63.079 130.39 62.889 130.31 62.759 130.29C62.709 130.27 62.659 130.22 62.679 130.22C62.549 130.18 62.529 130.19 62.369 130.1C62.499 130.13 62.329 130.07 62.499 130.14C62.339 130.07 62.329 130.02 62.139 129.97C62.209 129.97 62.049 129.87 61.969 129.84L62.069 129.92C61.989 129.88 61.919 129.84 61.849 129.8L61.909 129.78C61.619 129.59 61.319 129.55 61.149 129.32C61.059 129.29 61.289 129.45 61.209 129.43C61.079 129.33 60.979 129.19 60.939 129.16C60.769 129.02 60.729 129.1 60.569 128.93C60.579 128.96 60.569 129.01 60.439 128.91C60.319 128.8 60.339 128.73 60.419 128.79C60.449 128.81 60.459 128.83 60.459 128.83C60.499 128.86 60.559 128.9 60.519 128.85H60.489C60.439 128.78 60.279 128.64 60.329 128.65C60.229 128.58 60.269 128.63 60.329 128.7C60.199 128.54 60.079 128.5 59.959 128.32C59.979 128.35 59.979 128.39 59.959 128.36C59.779 128.11 59.849 128.28 59.709 128.12C59.649 128.01 59.779 128.12 59.629 127.97C59.559 127.86 59.649 127.92 59.689 127.95C59.549 127.82 59.469 127.67 59.419 127.57L59.479 127.65C59.479 127.65 59.419 127.56 59.389 127.52V127.59C59.369 127.54 59.339 127.49 59.349 127.49C59.299 127.45 59.329 127.56 59.239 127.47C59.209 127.39 59.099 127.27 59.119 127.23C59.239 127.45 59.139 127.19 59.259 127.36C59.239 127.33 59.209 127.29 59.179 127.23C59.179 127.23 59.189 127.23 59.199 127.25C59.109 127.03 59.099 127.18 58.979 126.97C59.019 126.99 58.979 126.9 58.969 126.87C59.019 126.95 58.949 126.93 58.899 126.85C58.859 126.69 58.829 126.7 58.799 126.62L58.829 126.71C58.829 126.71 58.769 126.61 58.719 126.51C58.729 126.49 58.769 126.6 58.759 126.56C58.679 126.46 58.699 126.29 58.609 126.14C58.599 126.06 58.649 126.12 58.639 126.05C58.559 125.87 58.639 125.84 58.569 125.65C58.549 125.71 58.559 125.72 58.499 125.59L58.579 125.91L58.499 125.71C58.519 125.81 58.559 125.91 58.559 125.97C58.519 125.88 58.529 125.88 58.509 125.94C58.529 125.79 58.429 125.68 58.429 125.51H58.509C58.509 125.26 58.379 125.1 58.389 124.78V124.88C58.389 124.88 58.359 124.69 58.339 124.59C58.369 124.59 58.369 124.53 58.379 124.49C58.359 124.49 58.359 124.26 58.309 124.24L58.329 124.1C58.329 123.85 58.239 123.82 58.239 123.57C58.269 123.64 58.289 123.53 58.309 123.69C58.309 123.61 58.309 123.54 58.289 123.54C58.299 123.49 58.239 123.32 58.259 123.24C58.249 123.21 58.219 123.2 58.219 123.1C58.219 123.09 58.229 123.1 58.229 123.1C58.219 123.1 58.209 122.96 58.179 123.04C58.259 122.79 58.159 122.34 58.229 122.12V121.57C58.229 121.57 58.229 121.57 58.229 121.6C58.259 121.38 58.159 121.46 58.189 121.21C58.239 121.08 58.199 121.35 58.229 121.27C58.319 121.24 58.239 120.97 58.309 120.8V120.84C58.349 120.71 58.299 120.52 58.339 120.31C58.339 120.31 58.339 120.32 58.349 120.31C58.329 120.16 58.349 119.89 58.369 119.68C58.389 119.75 58.369 119.77 58.409 119.74C58.419 119.65 58.349 119.76 58.379 119.58C58.409 119.53 58.449 119.4 58.489 119.39L58.459 119.56C58.519 119.48 58.499 119.34 58.529 119.26L58.549 119.28C58.609 119.03 58.569 119.01 58.649 118.74L58.629 118.76C58.629 118.59 58.699 118.65 58.719 118.49L58.789 118.47C58.809 118.37 58.879 118.12 58.969 117.96C58.949 118.07 58.869 118.26 58.849 118.39C58.879 118.29 58.979 118.08 58.989 118.03C58.969 118.07 58.959 118.12 58.939 118.15C58.969 118.03 59.019 117.87 59.129 117.7C59.179 117.78 59.469 117.3 59.639 117.28C59.879 117.03 60.189 116.89 60.569 116.78C60.409 116.75 60.679 116.74 60.639 116.67C60.729 116.64 60.769 116.64 60.779 116.64H61.069C61.139 116.65 60.979 116.67 60.999 116.69C61.199 116.66 61.089 116.71 61.219 116.72C61.189 116.69 61.289 116.67 61.399 116.68L61.229 116.65C61.519 116.58 61.479 116.7 61.769 116.67L61.679 116.69C61.829 116.67 62.229 116.73 62.379 116.69C62.409 116.7 62.439 116.73 62.379 116.73C62.729 116.79 63.189 116.81 63.449 116.92H63.419C63.489 116.94 63.539 116.92 63.619 116.97C63.619 116.97 63.589 116.98 63.619 116.99C63.659 116.99 63.799 117.01 63.889 117.04H63.809C64.139 117.16 64.349 117.15 64.639 117.23C64.619 117.29 64.879 117.4 65.009 117.45C65.399 117.61 65.689 117.66 66.059 117.78C66.259 117.93 66.799 118.11 67.149 118.29C67.099 118.26 67.179 118.25 67.239 118.27C67.319 118.32 67.489 118.33 67.449 118.37H67.419C67.459 118.43 67.639 118.49 67.769 118.55L67.819 118.49C68.129 118.73 68.749 118.85 68.909 119.01L69.199 119.09L69.179 119.12C69.409 119.23 69.529 119.28 69.819 119.4H69.749C69.909 119.47 69.999 119.39 70.149 119.45L70.169 119.52C70.459 119.63 70.709 119.82 70.999 119.91C70.999 119.91 70.979 119.93 70.929 119.91C71.059 119.98 71.409 120.19 71.399 120.1C71.379 120.15 71.649 120.28 71.799 120.36L71.759 120.38C71.899 120.42 71.909 120.41 72.079 120.51C72.119 120.54 72.089 120.56 72.049 120.51C72.169 120.61 72.169 120.56 72.289 120.7L72.229 120.67C72.339 120.78 72.339 120.76 72.419 120.8C72.499 120.86 72.629 121.02 72.619 121.05C72.649 121.05 72.739 121.09 72.779 121.18C72.779 121.2 72.749 121.18 72.739 121.16C72.869 121.39 72.999 121.45 73.069 121.62C73.069 121.62 73.069 121.64 73.069 121.66C72.949 121.49 72.859 121.35 72.869 121.36C72.839 121.38 72.929 121.52 72.819 121.44C72.909 121.54 73.109 121.68 73.149 121.85V121.87H73.139C73.139 121.87 73.169 121.92 73.189 121.95C73.209 122 73.209 122.03 73.229 122.08C73.209 122.11 73.289 122.26 73.319 122.33C73.349 122.31 73.369 122.42 73.379 122.31C73.379 122.32 73.379 122.3 73.349 122.25L73.329 122.22L73.239 122.04C73.279 122.09 73.329 122.15 73.339 122.24C73.379 122.27 73.419 122.31 73.439 122.33C73.419 122.46 73.439 122.68 73.409 122.71C73.509 122.95 73.479 123.3 73.569 123.46C73.579 123.53 73.549 123.54 73.539 123.57C73.539 123.53 73.529 123.48 73.519 123.46C73.559 123.61 73.499 123.89 73.549 123.93C73.509 124.11 73.519 123.82 73.499 124.07V124.03C73.339 124.5 73.469 124.86 73.179 125.35C73.199 125.32 73.209 125.3 73.219 125.29C72.979 125.87 72.729 126.51 72.339 127.01C72.229 127.15 72.249 127.18 72.209 127.29H72.159L72.099 127.48C71.969 127.72 71.749 127.79 71.599 128.1L71.649 128.08C71.569 128.17 71.419 128.38 71.409 128.35C71.409 128.36 71.409 128.4 71.369 128.43H71.349L71.189 128.67C71.019 128.83 71.149 128.59 70.919 128.83C70.839 128.93 70.729 129.13 70.769 129.11C70.799 129.07 70.869 129.02 70.879 129.04L70.809 129.13C70.839 129.19 70.829 129.3 71.049 129.12L71.159 128.95L71.229 128.92L71.119 129.04C71.199 128.99 71.229 128.93 71.259 128.87C71.279 128.87 71.309 128.86 71.339 128.83L71.419 128.64C71.419 128.64 71.399 128.74 71.489 128.64C71.529 128.55 71.389 128.67 71.479 128.54C71.559 128.49 71.559 128.52 71.609 128.42C71.629 128.42 71.629 128.44 71.609 128.48C71.659 128.39 71.769 128.27 71.779 128.21C71.869 128.15 71.969 127.94 72.009 127.98C72.009 127.95 72.079 127.81 72.129 127.74C72.089 127.92 72.329 127.47 72.359 127.54C72.369 127.4 72.579 127.15 72.669 126.95C72.669 126.96 72.669 126.99 72.649 127C72.709 126.9 72.749 126.87 72.799 126.81C72.759 126.77 72.849 126.6 72.869 126.49C72.989 126.38 72.869 126.6 72.939 126.58C72.899 126.57 73.029 126.33 72.969 126.36C73.049 126.27 73.029 126.28 73.089 126.24C73.039 126.19 73.129 126.14 73.129 126.03C73.229 125.89 73.199 126.02 73.259 125.84C73.319 125.77 73.259 125.93 73.259 125.93L73.239 126ZM73.319 121.73L73.359 121.81L73.319 121.73ZM73.129 121.41L73.219 121.54C73.219 121.54 73.199 121.55 73.179 121.52C73.199 121.53 73.159 121.46 73.129 121.41ZM73.239 122.2C73.239 122.2 73.209 122.13 73.219 122.12L73.259 122.21C73.259 122.21 73.239 122.21 73.229 122.21L73.239 122.2Z" fill="#7A5751"/>
<path d="M73.3196 122.27L73.3396 122.29L73.3296 122.26L73.3096 122.25L73.3196 122.27Z" fill="#7A5751"/>
<path d="M68.9697 118.701V118.711H68.9997L68.9697 118.701Z" fill="#7A5751"/>
<path d="M66.0693 131.07C66.0693 131.07 66.0793 131.07 66.0993 131.08C66.0993 131.08 66.0893 131.08 66.0693 131.07Z" fill="#7A5751"/>
<path d="M58.5993 126.771V126.751C58.5593 126.701 58.5793 126.731 58.5993 126.771Z" fill="#7A5751"/>
<path d="M60.5998 129.191L60.5098 129.141C60.5098 129.141 60.5798 129.211 60.5998 129.191Z" fill="#7A5751"/>
<path d="M60.3994 129.041C60.3994 129.041 60.4694 129.111 60.5094 129.141C60.4794 129.111 60.4394 129.071 60.3994 129.041Z" fill="#7A5751"/>
<path d="M70.2295 129.801L70.2595 129.791V129.781L70.2295 129.801Z" fill="#7A5751"/>
<path d="M70.2598 129.78L70.2798 129.75C70.2798 129.75 70.2598 129.77 70.2598 129.78Z" fill="#7A5751"/>
<path d="M70.3391 129.689L70.2891 129.749C70.2891 129.749 70.3391 129.709 70.3391 129.689Z" fill="#7A5751"/>
<path d="M69.249 130.411C69.309 130.381 69.399 130.351 69.479 130.301C69.479 130.301 69.289 130.361 69.249 130.411Z" fill="#7A5751"/>
<path d="M68.1494 130.651C68.2194 130.641 68.2994 130.621 68.3594 130.601C68.3194 130.601 68.2694 130.601 68.3594 130.561C68.0894 130.611 68.4294 130.591 68.1494 130.651Z" fill="#7A5751"/>
<path d="M67.4792 130.78C67.5892 130.75 67.4792 130.76 67.4792 130.75C67.4092 130.78 67.3892 130.79 67.4792 130.78Z" fill="#7A5751"/>
<path d="M62.6595 130.22L62.6795 130.19C62.5895 130.16 62.6795 130.2 62.6595 130.22Z" fill="#7A5751"/>
<path d="M61.7197 129.961L61.7897 130.021H61.8497L61.7197 129.961Z" fill="#7A5751"/>
<path d="M61.3695 129.47L61.3995 129.49L61.2695 129.41L61.3695 129.47Z" fill="#7A5751"/>
<path d="M58.2998 122.33L58.2598 122.36C58.2598 122.42 58.3198 122.43 58.2998 122.33Z" fill="#7A5751"/>
<path d="M58.6895 118.789C58.6895 118.789 58.7595 118.669 58.7695 118.609C58.7295 118.679 58.6995 118.749 58.6895 118.789Z" fill="#7A5751"/>
<path d="M67.9596 118.629L67.8896 118.609L68.0196 118.659L67.9596 118.629Z" fill="#7A5751"/>
<path d="M52.6396 112.67L74.9296 121.6" stroke="#7A5751" stroke-width="2.66" stroke-miterlimit="10" stroke-linecap="round"/>
<path d="M118.409 129.18C116.069 126.77 113.249 121.81 118.649 119.54C126.489 116.25 132.019 112.93 130.879 125.11C130.389 130.41 122.119 133 118.409 129.18Z" fill="url(#paint1_linear_316_19006)"/>
<path d="M118.48 129.119C118.48 129.119 118.44 129.139 118.5 129.179H118.57L118.48 129.119V129.119Z" fill="#7A5751"/>
<path d="M118.77 129.48C118.85 129.52 118.94 129.55 118.93 129.48C118.84 129.46 118.84 129.43 118.74 129.42C118.68 129.38 118.66 129.33 118.68 129.33C118.65 129.33 118.61 129.25 118.56 129.25C118.6 129.33 118.69 129.41 118.8 129.46C118.81 129.48 118.79 129.48 118.78 129.48H118.77Z" fill="#7A5751"/>
<path d="M128.889 128.961L128.859 129.001C128.879 128.981 128.899 128.961 128.889 128.961Z" fill="#7A5751"/>
<path d="M129.45 128.49L129.42 128.52C129.42 128.52 129.45 128.5 129.45 128.49Z" fill="#7A5751"/>
<path d="M125.149 130.821H125.259C125.259 130.821 125.199 130.811 125.149 130.821Z" fill="#7A5751"/>
<path d="M119.57 129.94C119.57 129.94 119.53 129.92 119.51 129.92L119.56 129.94H119.57Z" fill="#7A5751"/>
<path d="M123.32 131.09H123.28L123.25 131.11L123.32 131.09Z" fill="#7A5751"/>
<path d="M121.89 131.011C121.89 131.011 121.94 130.981 121.95 130.961C121.93 130.971 121.9 130.981 121.88 130.981C121.88 130.981 121.88 131.001 121.89 131.011V131.011Z" fill="#7A5751"/>
<path d="M119.769 130.231L119.729 130.211L119.769 130.231Z" fill="#7A5751"/>
<path d="M124.34 131.01C124.34 131.01 124.34 131.01 124.35 131.02C124.35 131.02 124.35 131.02 124.34 131.01Z" fill="#7A5751"/>
<path d="M118.41 129.19L118.39 129.18L118.37 129.19H118.41Z" fill="#7A5751"/>
<path d="M128.47 116.439C128.6 116.499 128.24 116.439 128.44 116.519C128.42 116.499 128.64 116.499 128.47 116.439Z" fill="#7A5751"/>
<path d="M119.6 129.961L119.65 129.991L119.6 129.961Z" fill="#7A5751"/>
<path d="M128.43 116.51L128.45 116.52L128.43 116.51Z" fill="#7A5751"/>
<path d="M131.089 124.5C131.089 124.5 131.079 124.52 131.069 124.53C131.069 124.53 131.069 124.53 131.089 124.5Z" fill="#7A5751"/>
<path d="M130.569 126.71L130.599 126.66L130.569 126.71Z" fill="#7A5751"/>
<path d="M131.109 123.33C131.109 123.33 131.119 123.29 131.109 123.25C131.109 123.25 131.109 123.3 131.109 123.33Z" fill="#7A5751"/>
<path d="M131.14 122.109L131.13 122.129V122.169L131.14 122.109Z" fill="#7A5751"/>
<path d="M115.87 124.619C115.87 124.619 115.86 124.669 115.85 124.679C115.87 124.659 115.92 124.819 115.87 124.619Z" fill="#7A5751"/>
<path d="M119.56 129.959C119.56 129.959 119.58 129.959 119.6 129.959L119.56 129.939C119.56 129.939 119.56 129.939 119.56 129.949V129.959Z" fill="#7A5751"/>
<path d="M120.71 118.84L120.67 118.86C120.67 118.86 120.7 118.85 120.71 118.84Z" fill="#7A5751"/>
<path d="M130.84 122.511C130.84 122.511 130.86 122.441 130.87 122.401V122.381L130.85 122.511H130.84Z" fill="#7A5751"/>
<path d="M116.34 125.82C116.27 125.66 116.26 125.76 116.22 125.74C116.12 125.55 116.22 125.64 116.21 125.56C116.15 125.44 116.08 125.36 116.04 125.26C116.04 125.26 116.04 125.23 116.06 125.25C115.97 125.13 115.92 124.86 115.84 124.71C115.84 124.7 115.84 124.69 115.84 124.69C115.82 124.72 115.8 124.73 115.78 124.73C115.76 124.65 115.71 124.59 115.74 124.55C115.75 124.6 115.76 124.6 115.78 124.62L115.75 124.54C115.78 124.46 115.79 124.65 115.83 124.64C115.78 124.48 115.68 124.3 115.69 124.17C115.72 124.14 115.75 124.46 115.76 124.29L115.79 124.48C115.82 124.32 115.81 124.6 115.86 124.45C115.81 124.2 115.79 124.17 115.77 123.92C115.74 123.87 115.74 123.94 115.7 123.89C115.61 123.53 115.79 123.6 115.74 123.34C115.71 123.27 115.66 123.24 115.7 123.05L115.75 123.12C115.76 122.88 115.69 122.97 115.77 122.72C115.77 122.77 115.74 122.91 115.76 122.88C115.84 122.73 115.76 122.76 115.79 122.64L115.84 122.62C115.87 122.36 115.97 122.09 116.08 121.82C116.08 121.84 116.08 121.89 116.12 121.84C116.28 121.52 116.52 121.17 116.81 120.97L116.88 120.85C116.88 120.85 116.93 120.82 116.91 120.85C117.02 120.77 116.9 120.83 116.93 120.77C116.98 120.71 117.02 120.71 116.99 120.76C117.13 120.55 117.51 120.29 117.74 120.17L117.7 120.21C117.87 120.1 117.86 120.03 118.04 119.97L118.01 119.99C118.41 119.81 118.83 119.56 119.18 119.49C119.22 119.41 119.6 119.34 119.59 119.26C119.84 119.2 119.78 119.24 120.12 119.12C120.21 119.09 120.23 119.02 120.34 118.96L120.36 119L120.49 118.9H120.59L120.69 118.86C120.69 118.86 120.6 118.88 120.6 118.86C120.75 118.77 121 118.72 121.01 118.74L121.37 118.55C121.37 118.55 121.31 118.6 121.26 118.63C121.45 118.51 121.31 118.65 121.48 118.54C121.45 118.54 121.48 118.51 121.48 118.5C121.58 118.48 121.79 118.4 121.94 118.32L121.92 118.36C122.2 118.24 122.51 118.11 122.82 117.97C122.7 118 122.71 117.95 122.8 117.91L122.85 117.94C122.85 117.94 122.75 117.96 122.85 117.88C122.97 117.84 122.95 117.89 122.89 117.93L123.03 117.86C123.03 117.86 123.01 117.89 123.01 117.91C123.06 117.86 123.27 117.85 123.34 117.77H123.35C123.66 117.65 123.81 117.59 124.07 117.49C124.07 117.45 124.17 117.42 124.23 117.37C124.43 117.31 124.65 117.26 124.88 117.19C125.04 117.12 124.92 117.14 124.99 117.1C125.01 117.13 125.24 117.05 125.13 117.11L125.84 116.88C125.84 116.88 125.75 116.88 125.77 116.86C125.83 116.84 125.92 116.84 125.92 116.86H125.9C126.3 116.71 126.85 116.77 127.17 116.68H127.15C127.26 116.66 127.37 116.65 127.49 116.63C127.65 116.63 127.4 116.66 127.51 116.68C127.87 116.62 128.08 116.7 128.37 116.72C128.57 116.85 129.15 116.95 129.34 117.21V117.18C129.42 117.21 129.41 117.24 129.45 117.28C129.45 117.26 129.4 117.21 129.45 117.23C129.99 117.64 130.27 118.34 130.44 119.01C130.51 119.26 130.61 119.11 130.62 119.45L130.56 119.37C130.73 119.87 130.75 120.42 130.83 120.93C130.82 120.9 130.8 120.9 130.8 120.85C130.78 120.96 130.83 121.25 130.86 121.25C130.86 121.33 130.84 121.27 130.83 121.32C130.81 121.43 130.88 121.59 130.85 121.65C130.85 121.66 130.84 121.62 130.84 121.6C130.86 121.67 130.84 121.93 130.88 121.86C130.88 122.05 130.9 122.23 130.88 122.39C130.92 122.49 130.86 122.72 130.91 122.76C130.85 122.74 130.86 123.1 130.88 123.22C130.86 123.18 130.86 123.33 130.83 123.28C130.83 123.42 130.83 123.55 130.86 123.53C130.78 123.78 130.89 124.05 130.79 124.19C130.78 124.61 130.81 125.01 130.74 125.37C130.69 125.35 130.81 124.97 130.74 124.97C130.72 125.32 130.72 125.52 130.65 125.86C130.63 125.95 130.63 125.8 130.63 125.77C130.62 126.13 130.41 126.4 130.35 126.71C130.35 126.71 130.35 126.67 130.35 126.64C130.33 126.7 130.29 126.77 130.32 126.77V126.71C130.4 126.63 130.33 126.98 130.32 126.99C130.3 126.86 130.14 127.25 130.14 127.06C130.12 127.1 130.11 127.15 130.13 127.15C130.09 127.2 130.08 127.21 130.09 127.15C129.99 127.35 130.05 127.29 129.95 127.46C129.94 127.46 129.95 127.41 129.95 127.39C129.92 127.49 129.89 127.59 129.79 127.73C129.79 127.72 129.77 127.73 129.79 127.69C129.61 127.92 129.53 128.11 129.3 128.34C129.32 128.23 129.22 128.41 129.17 128.39C129.14 128.44 129.09 128.47 129.06 128.52L129.13 128.49C129.02 128.59 128.94 128.71 128.83 128.78L128.9 128.69L128.7 128.89L128.83 128.8C128.73 128.92 128.88 128.84 128.72 128.96C128.75 128.93 128.61 129.06 128.53 129.09C128.49 129.15 128.43 129.2 128.33 129.26C128.3 129.26 128.32 129.2 128.29 129.2C128.25 129.28 128 129.41 127.95 129.5C127.97 129.47 127.95 129.45 127.95 129.45L127.92 129.51C127.86 129.54 127.84 129.54 127.84 129.51C127.66 129.62 127.93 129.53 127.71 129.64C127.72 129.63 127.71 129.63 127.75 129.6C127.53 129.72 127.33 129.85 127.12 129.95C127.04 129.94 127.29 129.85 127.2 129.84C126.92 130.01 126.61 130.2 126.3 130.3L126.36 130.28C126.34 130.36 126.12 130.33 125.98 130.42C126.02 130.4 126.02 130.36 126.01 130.38C125.8 130.46 125.58 130.52 125.27 130.64L125.31 130.61C125.18 130.63 124.98 130.69 124.84 130.71C124.8 130.73 124.72 130.74 124.78 130.76C124.33 130.71 123.97 130.97 123.57 130.87C123.62 130.87 123.68 130.85 123.64 130.85L123.31 130.88C123.31 130.88 123.35 130.9 123.42 130.92C123.38 130.94 123.29 130.96 123.2 130.96C123.35 130.94 123.2 130.91 123.13 130.9C123.14 130.9 123.12 130.92 123.13 130.93C122.96 130.88 123.1 130.99 122.87 130.96V130.94C122.8 130.94 122.71 130.95 122.62 130.94C122.58 130.9 122.71 130.94 122.72 130.9C122.59 130.89 122.45 130.94 122.34 130.9H122.54C122.41 130.84 122.4 130.85 122.3 130.84L122.08 130.8L122.14 130.82C121.96 130.9 121.8 130.8 121.57 130.8C121.79 130.8 121.61 130.78 121.64 130.74C121.59 130.72 121.51 130.68 121.53 130.68C121.42 130.68 121.37 130.62 121.21 130.63C121.21 130.62 121.1 130.6 121.13 130.58C120.99 130.56 121.16 130.61 121.13 130.62C120.9 130.63 120.68 130.41 120.38 130.36C120.13 130.28 120.06 130.32 119.84 130.21C119.78 130.15 119.92 130.21 119.92 130.21C119.81 130.12 119.73 130.08 119.61 130.03C119.64 130.03 119.62 130.01 119.59 129.98C119.5 129.93 119.51 129.98 119.4 129.9C119.43 129.9 119.47 129.9 119.51 129.9C119.4 129.85 119.29 129.81 119.18 129.76C119.17 129.72 119.26 129.77 119.31 129.78C119.18 129.73 119.02 129.57 118.96 129.58L119.02 129.65C119.02 129.65 119.02 129.61 119.05 129.63C119.16 129.68 119.17 129.75 119.17 129.77L119.1 129.72C119.11 129.85 119.4 129.9 119.55 130H119.46L119.64 130.06C119.64 130.06 119.67 130.13 119.59 130.09C119.69 130.18 119.7 130.13 119.78 130.21C119.78 130.22 119.78 130.21 119.78 130.21L119.89 130.26C119.89 130.26 119.89 130.31 119.83 130.26C120 130.41 120.17 130.37 120.23 130.45H120.21C120.51 130.54 120.25 130.42 120.49 130.46L120.6 130.61L120.64 130.58C120.64 130.58 120.73 130.62 120.71 130.63C120.83 130.65 120.7 130.61 120.77 130.61C120.9 130.72 121.18 130.7 121.2 130.78C121.26 130.76 121.06 130.72 121.23 130.74C121.26 130.82 121.42 130.77 121.55 130.83C121.5 130.86 121.37 130.81 121.5 130.87C121.6 130.83 121.76 130.95 121.89 130.96C121.9 130.91 122.15 130.96 122.35 130.96C122.34 130.97 122.72 131.03 122.91 131.05C122.91 131.05 123.14 131.01 123.28 131C123.28 131.03 123.25 131.04 123.17 131.06H123.3C123.3 131.06 123.37 131.03 123.46 131.02L123.43 131.06C123.61 131.05 123.78 131.02 124.01 131.01C124.01 130.97 123.83 130.94 124.06 130.88C124.07 130.9 124.08 130.93 124.02 130.94C124.04 130.94 124.09 130.91 124.13 130.92L124.04 130.96C124.14 130.96 124.09 130.93 124.17 130.92C124.17 130.95 124.23 130.93 124.22 130.95C124.2 130.95 124.15 130.95 124.12 130.96C124.21 130.96 124.32 130.96 124.36 130.96C124.35 130.95 124.36 130.92 124.42 130.91C124.59 130.88 124.48 130.93 124.59 130.93C124.63 130.91 124.74 130.91 124.74 130.87C124.79 130.87 124.8 130.87 124.82 130.89C124.91 130.87 125.23 130.78 125.12 130.77C125.39 130.65 125.72 130.65 126 130.53C126.16 130.47 126.36 130.39 126.47 130.32C126.52 130.3 126.59 130.3 126.58 130.32C126.7 130.26 126.71 130.25 126.9 130.19C126.79 130.27 126.95 130.19 126.78 130.26C126.95 130.21 126.99 130.2 127.14 130.08C127.1 130.14 127.28 130.06 127.35 130.01L127.23 130.05C127.31 130 127.38 129.97 127.46 129.93L127.44 129.99C127.79 129.88 127.95 129.59 128.23 129.51C128.29 129.43 128.06 129.6 128.11 129.52C128.25 129.43 128.43 129.39 128.47 129.36C128.67 129.25 128.61 129.19 128.79 129.05C128.76 129.05 128.71 129.05 128.83 128.92C128.96 128.82 129.02 128.83 128.96 128.92C128.93 128.95 128.91 128.96 128.91 128.95C128.87 128.99 128.83 129.04 128.89 129.01V128.98C128.97 128.94 129.14 128.78 129.11 128.84C129.19 128.75 129.13 128.79 129.06 128.84C129.23 128.71 129.32 128.63 129.47 128.47C129.44 128.49 129.41 128.5 129.43 128.47C129.65 128.24 129.5 128.34 129.63 128.17C129.73 128.09 129.65 128.24 129.77 128.06C129.87 127.97 129.82 128.06 129.8 128.11C129.9 127.93 130.07 127.84 130.12 127.74L130.08 127.84C130.11 127.78 130.13 127.74 130.16 127.69L130.1 127.72C130.14 127.67 130.16 127.62 130.17 127.63C130.19 127.56 130.1 127.64 130.14 127.52C130.2 127.46 130.25 127.3 130.3 127.29C130.15 127.51 130.35 127.29 130.24 127.48C130.26 127.44 130.28 127.4 130.32 127.35C130.32 127.35 130.32 127.36 130.32 127.38C130.48 127.18 130.34 127.26 130.47 127.04C130.47 127.08 130.54 127.01 130.56 126.97C130.51 127.06 130.51 127 130.52 126.9C130.6 126.75 130.57 126.73 130.61 126.65L130.57 126.74C130.57 126.74 130.59 126.62 130.63 126.51C130.65 126.51 130.6 126.61 130.63 126.58C130.63 126.45 130.77 126.33 130.81 126.15C130.85 126.08 130.86 126.15 130.89 126.09C130.91 125.89 130.97 125.88 130.98 125.67C130.94 125.72 130.94 125.73 130.94 125.58L130.9 125.92V125.69C130.88 125.79 130.87 125.91 130.86 125.97C130.86 125.86 130.86 125.87 130.83 125.91C130.9 125.78 130.85 125.63 130.92 125.48L131 125.5C131.08 125.26 131.05 125.06 131.09 124.75L131.07 124.85C131.07 124.85 131.08 124.66 131.07 124.55C131.1 124.56 131.11 124.5 131.13 124.46C131.11 124.46 131.15 124.23 131.1 124.2L131.15 124.06C131.18 123.81 131.09 123.76 131.11 123.52C131.13 123.6 131.16 123.48 131.17 123.65C131.17 123.57 131.18 123.49 131.17 123.49C131.19 123.44 131.15 123.26 131.17 123.19C131.17 123.16 131.13 123.14 131.14 123.05H131.15C131.14 123.05 131.14 122.91 131.11 122.99C131.2 122.74 131.11 122.29 131.19 122.07C131.18 121.89 131.17 121.67 131.16 121.51C131.16 121.52 131.17 121.51 131.17 121.54C131.19 121.31 131.09 121.41 131.11 121.15C131.14 121.02 131.14 121.28 131.15 121.2C131.24 121.16 131.11 120.89 131.15 120.72V120.76C131.17 120.63 131.11 120.44 131.08 120.23C131.08 120.23 131.08 120.23 131.09 120.23C131.02 120.09 130.98 119.82 130.92 119.62C130.97 119.68 130.96 119.71 130.98 119.66C130.96 119.57 130.93 119.7 130.88 119.52C130.88 119.46 130.88 119.32 130.91 119.3L130.95 119.47C130.98 119.37 130.9 119.25 130.89 119.16H130.91C130.84 118.91 130.78 118.92 130.7 118.64V118.67C130.6 118.54 130.68 118.53 130.59 118.4L130.62 118.34C130.57 118.25 130.44 118.02 130.33 117.87C130.42 117.94 130.54 118.13 130.61 118.25C130.58 118.15 130.46 117.93 130.4 117.89C130.42 117.92 130.46 117.96 130.48 118C130.38 117.91 130.29 117.77 130.17 117.6C130.28 117.56 129.86 117.16 129.79 117.01C129.48 116.8 129.19 116.54 128.76 116.43C128.88 116.55 128.64 116.39 128.64 116.48C128.54 116.46 128.5 116.46 128.5 116.45L128.21 116.35C128.14 116.32 128.31 116.35 128.3 116.33C128.08 116.29 128.21 116.28 128.07 116.25C128.1 116.28 127.99 116.29 127.86 116.27L128.04 116.32C127.73 116.34 127.77 116.23 127.46 116.28L127.56 116.25C127.4 116.25 126.97 116.29 126.83 116.37C126.8 116.37 126.76 116.35 126.83 116.33C126.45 116.38 126.02 116.55 125.73 116.59L125.75 116.56C125.68 116.58 125.64 116.63 125.55 116.63C125.55 116.63 125.57 116.6 125.55 116.61C125.52 116.63 125.38 116.69 125.29 116.71L125.36 116.67C125 116.75 124.84 116.89 124.56 116.99C124.54 116.93 124.27 117.01 124.13 117.05C123.73 117.18 123.48 117.33 123.12 117.5C122.87 117.53 122.35 117.78 121.98 117.9C122.04 117.89 121.98 117.95 121.93 117.98C121.84 118 121.71 118.11 121.71 118.06H121.74C121.66 118.03 121.49 118.11 121.35 118.17V118.24C120.96 118.3 120.45 118.67 120.22 118.67L119.96 118.82V118.78C119.71 118.87 119.59 118.92 119.31 119.05L119.36 119C119.2 119.07 119.2 119.19 119.05 119.25L118.98 119.22C118.7 119.33 118.39 119.44 118.13 119.62C118.13 119.62 118.13 119.59 118.18 119.57C118.05 119.64 117.64 119.79 117.73 119.84C117.7 119.8 117.46 120.02 117.33 120.14V120.09C117.24 120.21 117.24 120.22 117.09 120.35C117.05 120.37 117.04 120.35 117.09 120.32C116.95 120.39 117.02 120.42 116.86 120.54L116.9 120.47C116.78 120.58 116.8 120.58 116.75 120.67C116.69 120.75 116.52 120.88 116.48 120.87C116.48 120.9 116.43 120.98 116.38 121.05C116.36 121.05 116.38 121.02 116.38 121C116.2 121.21 116.18 121.36 116.04 121.49C116.03 121.49 116.01 121.49 116 121.51C116.13 121.33 116.23 121.19 116.22 121.2C116.19 121.18 116.08 121.32 116.13 121.18C116.06 121.34 115.95 121.56 115.89 121.69C115.89 121.69 115.88 121.7 115.87 121.71V121.69C115.87 121.69 115.84 121.76 115.83 121.79L115.76 121.92C115.76 121.92 115.66 122.1 115.63 122.19C115.67 122.19 115.63 122.31 115.69 122.21C115.69 122.22 115.69 122.19 115.71 122.14V122.1H115.72L115.81 121.9C115.8 121.97 115.79 122.04 115.73 122.13C115.73 122.18 115.73 122.23 115.75 122.26C115.67 122.36 115.6 122.58 115.56 122.61C115.5 122.88 115.51 123.25 115.56 123.42C115.56 123.5 115.54 123.51 115.52 123.54C115.52 123.5 115.52 123.44 115.51 123.42C115.51 123.57 115.55 123.87 115.59 123.9C115.59 124.09 115.53 123.8 115.57 124.06L115.55 124.03C115.55 124.56 115.82 124.83 115.92 125.39C115.92 125.35 115.91 125.33 115.92 125.32C116.09 125.95 116.49 126.52 116.76 127.1C116.85 127.26 116.88 127.26 116.96 127.34V127.4L117.09 127.53C117.27 127.73 117.28 127.96 117.54 128.2V128.15C117.61 128.25 117.79 128.44 117.75 128.44C117.76 128.44 117.8 128.45 117.82 128.5V128.52L118.03 128.73C118.18 128.91 117.94 128.76 118.17 129.01C118.26 129.1 118.46 129.23 118.44 129.19C118.41 129.15 118.36 129.09 118.37 129.07L118.46 129.15C118.52 129.12 118.62 129.15 118.46 128.91L118.3 128.79L118.28 128.72L118.39 128.84C118.35 128.75 118.29 128.73 118.23 128.69C118.23 128.67 118.23 128.64 118.2 128.61L118.03 128.5C118.03 128.5 118.12 128.53 118.05 128.43C117.97 128.38 118.06 128.53 117.96 128.43C117.92 128.34 117.96 128.35 117.87 128.28C117.87 128.26 117.9 128.27 117.93 128.3C117.85 128.24 117.76 128.11 117.7 128.09C117.67 127.99 117.5 127.83 117.55 127.81C117.52 127.79 117.41 127.7 117.36 127.63C117.51 127.72 117.17 127.36 117.26 127.35C117.14 127.28 117 127.01 116.86 126.84C116.87 126.84 116.89 126.86 116.9 126.88C116.85 126.77 116.85 126.73 116.82 126.66C116.77 126.67 116.67 126.52 116.59 126.44C116.56 126.29 116.69 126.49 116.71 126.43C116.68 126.46 116.55 126.23 116.54 126.29C116.52 126.18 116.51 126.2 116.53 126.13C116.46 126.14 116.48 126.04 116.4 125.97C116.36 125.81 116.44 125.91 116.35 125.75C116.33 125.67 116.42 125.8 116.42 125.8L116.34 125.82ZM116.05 121.82L116.02 121.9L116.05 121.82ZM116.23 121.52L116.14 121.64C116.14 121.64 116.12 121.63 116.14 121.6C116.14 121.62 116.19 121.56 116.23 121.52ZM115.65 122.08C115.67 122.02 115.68 122.01 115.69 122L115.65 122.1C115.65 122.1 115.65 122.1 115.65 122.08Z" fill="#7A5751"/>
<path d="M115.659 122.2L115.649 122.22L115.669 122.2V122.17L115.659 122.2Z" fill="#7A5751"/>
<path d="M120.349 119.01V119L120.319 119.02L120.349 119.01Z" fill="#7A5751"/>
<path d="M122.28 130.87L122.16 130.85L122.28 130.87Z" fill="#7A5751"/>
<path d="M121.64 130.75L121.62 130.76H121.64V130.75Z" fill="#7A5751"/>
<path d="M130.319 126.66V126.64C130.339 126.58 130.329 126.62 130.319 126.66Z" fill="#7A5751"/>
<path d="M128.52 129.1L128.58 129.02C128.58 129.02 128.51 129.08 128.52 129.1Z" fill="#7A5751"/>
<path d="M128.69 128.92C128.69 128.92 128.61 128.98 128.58 129.02C128.62 128.99 128.66 128.96 128.69 128.92Z" fill="#7A5751"/>
<path d="M119.099 129.62L119.069 129.6L119.099 129.62Z" fill="#7A5751"/>
<path d="M119.07 129.6L119.04 129.58C119.04 129.58 119.06 129.6 119.07 129.6Z" fill="#7A5751"/>
<path d="M118.979 129.539L119.039 129.579C119.039 129.579 118.999 129.539 118.979 129.539Z" fill="#7A5751"/>
<path d="M120.029 130.23C119.979 130.2 119.909 130.12 119.829 130.09H119.819C119.819 130.09 119.969 130.22 120.029 130.23V130.23Z" fill="#7A5751"/>
<path d="M121 130.769C120.93 130.749 120.86 130.729 120.79 130.689C120.82 130.719 120.86 130.759 120.77 130.719C121.02 130.859 120.72 130.679 121 130.759V130.769Z" fill="#7A5751"/>
<path d="M121.67 130.951C121.55 130.931 121.67 130.971 121.66 130.981C121.74 130.981 121.76 130.981 121.67 130.951Z" fill="#7A5751"/>
<path d="M126.6 130.381V130.421C126.69 130.381 126.6 130.411 126.6 130.381Z" fill="#7A5751"/>
<path d="M127.38 129.801L127.29 129.831L127.27 129.871L127.38 129.801Z" fill="#7A5751"/>
<path d="M127.99 129.73L127.96 129.75L128.08 129.65L127.99 129.73Z" fill="#7A5751"/>
<path d="M131.17 122.33L131.13 122.36C131.13 122.42 131.18 122.44 131.17 122.33Z" fill="#7A5751"/>
<path d="M130.68 118.729C130.68 118.729 130.68 118.579 130.62 118.529C130.65 118.609 130.66 118.689 130.68 118.729Z" fill="#7A5751"/>
<path d="M121.1 118.319L121.16 118.279L121.04 118.349L121.1 118.319Z" fill="#7A5751"/>
<path d="M136.55 112.67L114.26 121.6" stroke="#7A5751" stroke-width="2.66" stroke-miterlimit="10" stroke-linecap="round"/>
</g>
<defs>
<linearGradient id="paint0_linear_316_19006" x1="63.1519" y1="134.561" x2="70.2863" y2="104.023" gradientUnits="userSpaceOnUse">
<stop stop-color="#7A5751"/>
<stop offset="0.41" stop-color="#7E5C57"/>
<stop offset="0.73" stop-color="#846460"/>
</linearGradient>
<linearGradient id="paint1_linear_316_19006" x1="126.031" y1="134.604" x2="118.897" y2="104.066" gradientUnits="userSpaceOnUse">
<stop stop-color="#7A5751"/>
<stop offset="0.41" stop-color="#7E5C57"/>
<stop offset="0.73" stop-color="#846460"/>
</linearGradient>
<clipPath id="clip0_316_19006">
<rect width="187.5" height="342.95" fill="white"/>
</clipPath>
</defs>
</svg>
