<svg width="188" height="343" viewBox="0 0 188 343" fill="none" xmlns="http://www.w3.org/2000/svg">
<g clip-path="url(#clip0_316_19180)">
<path d="M147.811 248.56C147.811 290.99 139.941 322.82 96.3105 322.82C52.6805 322.82 44.8105 290.99 44.8105 248.56C44.8105 206.13 67.8705 190.08 96.3105 190.08C124.751 190.08 147.811 206.13 147.811 248.56Z" fill="#807E89"/>
<path d="M45.4607 237.289C45.4607 237.289 19.1207 251.269 19.1207 280.219C19.1207 309.169 18.1407 322.169 32.4507 322.169C46.7607 322.169 62.3707 325.419 60.0907 292.579C57.8107 259.739 61.3907 228.519 45.4607 237.299V237.289Z" fill="#F1CF14"/>
<path d="M8.71028 310.46C8.71028 317.64 6.43028 323.47 24.3203 323.47C42.2103 323.47 39.9303 317.65 39.9303 310.46C39.9303 303.27 32.9403 295.32 24.3203 295.32C15.7003 295.32 8.71028 303.27 8.71028 310.46Z" fill="#F5F2DD"/>
<path d="M146.4 237.289C146.4 237.289 172.74 251.269 172.74 280.219C172.74 309.159 173.72 322.169 159.41 322.169C145.1 322.169 129.49 325.419 131.77 292.579C134.05 259.739 130.47 228.519 146.4 237.299V237.289Z" fill="#807E89"/>
<path d="M183.15 310.46C183.15 317.64 185.43 323.47 167.54 323.47C149.65 323.47 151.93 317.65 151.93 310.46C151.93 303.28 158.92 295.32 167.54 295.32C176.16 295.32 183.15 303.27 183.15 310.46V310.46Z" fill="#F7F8F8"/>
<path d="M45.4607 237.289C45.4607 237.289 19.1207 251.269 19.1207 280.219C19.1207 309.169 18.1407 322.169 32.4507 322.169C46.7607 322.169 62.3707 325.419 60.0907 292.579C57.8107 259.739 61.3907 228.519 45.4607 237.299V237.289Z" fill="#807E89"/>
<path d="M162.3 211.2C149.81 251.75 146.83 298.75 96.3 298.75C45.77 298.75 43.29 251.14 28.96 211.2C58.01 201.56 63.36 166.01 96.3 166.01C129.24 166.01 132.38 197.91 162.3 211.2Z" fill="#F7F8F8"/>
<path d="M54.7004 267.02C77.6804 288.65 87.3304 290 87.3304 290C87.3304 290 86.8804 303.01 85.0804 322.85C83.2804 342.68 77.4204 341.78 70.2004 342.68C62.9904 343.58 53.6504 343.39 49.4604 323.75C31.9404 241.56 36.6704 231.65 36.6704 231.65C36.6704 231.65 41.1104 254.24 54.6904 267.02H54.7004Z" fill="#F7F8F8"/>
<path d="M54.7005 267.02C77.6805 288.65 87.3305 290 87.3305 290C87.3305 290 86.8805 303.01 85.0805 322.85C79.6005 303.31 53.5905 303.96 42.3205 287.74C33.4205 238.48 36.6805 231.65 36.6805 231.65C36.6805 231.65 41.1205 254.24 54.7005 267.02V267.02Z" fill="#807E89"/>
<path d="M137.021 267.02C114.041 288.65 104.391 290 104.391 290C104.391 290 104.841 303.01 106.641 322.85C108.441 342.68 114.301 341.78 121.521 342.68C128.741 343.58 138.071 343.39 142.261 323.75C159.781 241.56 155.051 231.65 155.051 231.65C155.051 231.65 150.611 254.24 137.031 267.02H137.021Z" fill="#F7F8F8"/>
<path d="M137.021 267.02C114.041 288.65 104.391 290 104.391 290C104.391 290 104.841 303.01 106.641 322.85C112.121 303.31 138.131 303.96 149.401 287.74C158.301 238.48 155.041 231.65 155.041 231.65C155.041 231.65 150.601 254.24 137.021 267.02V267.02Z" fill="#807E89"/>
<path d="M8.71028 310.46C8.71028 317.64 6.43028 323.47 24.3203 323.47C42.2103 323.47 39.9303 317.65 39.9303 310.46C39.9303 303.27 32.9403 295.32 24.3203 295.32C15.7003 295.32 8.71028 303.27 8.71028 310.46Z" fill="#F7F8F8"/>
<path fill-rule="evenodd" clip-rule="evenodd" d="M128.21 51.0994C138.7 40.0894 151.48 30.3694 161.35 34.4194C177.92 41.2194 169.46 85.0993 165.86 100.739C167.16 105.879 167.85 111.069 167.85 116.189C167.85 151.609 134.77 184.879 93.9696 184.879C53.1696 184.879 20.0796 151.609 20.0796 116.179C20.0796 111.499 20.6596 106.749 21.7496 102.029C18.3696 87.6994 8.89964 41.4194 25.9596 34.4094C35.8996 30.3294 48.7796 40.2094 59.3196 51.3194C69.6496 45.1694 81.4396 41.4794 93.9596 41.4794C106.48 41.4794 117.97 45.0794 128.21 51.0894V51.0994Z" fill="#807E89"/>
<path fill-rule="evenodd" clip-rule="evenodd" d="M99.5201 183.941C100.04 184.381 100.72 184.581 101.4 184.511C132.52 181.401 157.95 159.071 165.53 132.461C165.62 132.131 165.65 131.791 165.61 131.451C162.58 105.581 144.75 85.7109 123.21 85.7109C113.11 85.7109 103.82 90.0809 96.5001 97.3909C95.3601 98.5309 93.4801 98.5309 92.3401 97.3909C85.0101 90.0809 75.7301 85.7109 65.6301 85.7109C43.4401 85.7109 25.1901 106.791 22.9901 133.801C22.9601 134.141 23.0001 134.491 23.1101 134.811C31.5601 160.611 56.7901 181.881 87.3701 184.581C88.0401 184.641 88.7001 184.441 89.2201 184.011C90.3001 183.121 91.3401 182.171 92.3401 181.171C93.4801 180.031 95.3601 180.031 96.5001 181.171C97.4701 182.141 98.4801 183.061 99.5201 183.931V183.941Z" fill="#F7F8F8"/>
<path fill-rule="evenodd" clip-rule="evenodd" d="M58.0701 175.72C40.5301 166.2 27.3801 150.2 22.3301 132.28C27.1801 128.29 33.4001 125.9 40.1701 125.9C55.7001 125.9 68.3001 138.49 68.3001 154.03C68.3001 162.77 64.3201 170.57 58.0701 175.73V175.72Z" fill="#FCD7D7"/>
<path fill-rule="evenodd" clip-rule="evenodd" d="M165.75 131.681C160.88 149.661 147.86 165.751 130.4 175.411C124.36 170.251 120.53 162.581 120.53 154.011C120.53 138.481 133.12 125.881 148.66 125.881C155.09 125.881 161.01 128.041 165.75 131.671V131.681Z" fill="#FCD7D7"/>
<path d="M26.5397 82.9596C24.6797 73.8096 20.5497 49.1696 28.7897 44.1996C37.3097 39.0696 52.5897 53.3496 57.3197 58.1096C58.0597 58.8596 57.8597 60.0896 56.9397 60.6096C45.6697 67.0096 36.7597 74.3296 29.4097 83.5896C28.5497 84.6696 26.8097 84.3096 26.5397 82.9596V82.9596Z" fill="#DBDCDB"/>
<path d="M161.22 82.8202C162.84 73.5702 166.24 49.1402 158.04 44.2002C149.52 39.0602 134.93 53.3602 130.44 58.1202C129.73 58.8702 129.94 60.0802 130.85 60.5902C142.11 66.9702 151 74.2702 158.35 83.5002C159.22 84.6002 160.99 84.2102 161.23 82.8302L161.22 82.8202Z" fill="#DBDCDB"/>
<path d="M132.78 174.83H56.4399C54.2197 174.83 52.4199 176.63 52.4199 178.85V181.52C52.4199 183.74 54.2197 185.54 56.4399 185.54H132.78C135 185.54 136.8 183.74 136.8 181.52V178.85C136.8 176.63 135 174.83 132.78 174.83Z" fill="#EB663B"/>
<path d="M93.9405 196.26C99.8554 196.26 104.65 191.465 104.65 185.55C104.65 179.635 99.8554 174.84 93.9405 174.84C88.0255 174.84 83.2305 179.635 83.2305 185.55C83.2305 191.465 88.0255 196.26 93.9405 196.26Z" fill="#FDCD08"/>
<path d="M89.7401 189.599C89.1001 189.599 88.5501 189.479 88.0801 189.249C87.6101 189.009 87.2501 188.679 87.0001 188.249C86.7501 187.819 86.6201 187.319 86.6201 186.759C86.6201 185.969 86.7701 185.269 87.0601 184.659C87.3601 184.049 87.7601 183.579 88.2701 183.249C88.7801 182.909 89.3401 182.739 89.9701 182.739C90.5501 182.739 90.9901 182.889 91.2901 183.189C91.5901 183.479 91.7401 183.879 91.7401 184.359C91.7401 184.689 91.6801 184.949 91.5601 185.149C91.4501 185.349 91.2801 185.449 91.0701 185.449C90.9201 185.449 90.8001 185.419 90.7201 185.349C90.6301 185.279 90.5901 185.179 90.5901 185.039C90.5901 184.989 90.6001 184.899 90.6201 184.769C90.6501 184.609 90.6701 184.479 90.6701 184.379C90.6701 183.889 90.4101 183.649 89.8901 183.649C89.5401 183.649 89.2001 183.769 88.8801 183.999C88.5601 184.229 88.3001 184.569 88.1001 185.019C87.9001 185.459 87.8001 185.989 87.8001 186.609C87.8001 187.229 87.9801 187.749 88.3401 188.099C88.7001 188.449 89.2301 188.619 89.9301 188.619C90.2801 188.619 90.6301 188.579 90.9801 188.489C91.3401 188.399 91.7401 188.259 92.1701 188.079C92.2501 188.049 92.3201 188.029 92.3701 188.029C92.4601 188.029 92.5201 188.059 92.5601 188.129C92.6001 188.189 92.6201 188.279 92.6201 188.379C92.6201 188.709 92.4401 188.949 92.0901 189.099C91.7101 189.269 91.3101 189.389 90.9001 189.469C90.4901 189.539 90.1001 189.579 89.7301 189.579L89.7401 189.599ZM92.8101 189.599C92.5701 189.599 92.3701 189.489 92.2201 189.269C92.0701 189.049 92.0001 188.769 92.0001 188.429C92.0001 188.029 92.0301 187.659 92.0801 187.329C92.1301 186.989 92.2201 186.639 92.3501 186.259C92.4001 186.099 92.4801 185.979 92.5701 185.909C92.6601 185.839 92.8201 185.809 93.0301 185.809C93.1501 185.809 93.2301 185.829 93.2701 185.869C93.3201 185.909 93.3401 185.959 93.3401 186.039C93.3401 186.079 93.3101 186.229 93.2501 186.469C93.2001 186.669 93.1501 186.849 93.1201 187.009C93.0101 187.569 92.9601 187.949 92.9601 188.129C92.9601 188.239 92.9701 188.319 93.0001 188.369C93.0301 188.409 93.0701 188.429 93.1301 188.429C93.2101 188.429 93.3101 188.349 93.4301 188.189C93.5501 188.029 93.6801 187.789 93.8201 187.459C93.9601 187.129 94.0901 186.729 94.2201 186.249C94.2601 186.089 94.3301 185.969 94.4101 185.899C94.5001 185.829 94.6301 185.799 94.8101 185.799C94.9301 185.799 95.0201 185.819 95.0701 185.849C95.1201 185.879 95.1401 185.929 95.1401 186.009C95.1401 186.139 95.0701 186.509 94.9401 187.109C94.7901 187.799 94.7201 188.219 94.7201 188.379C94.7201 188.479 94.7401 188.559 94.7801 188.619C94.8201 188.669 94.8801 188.699 94.9501 188.699C95.0601 188.699 95.1801 188.639 95.3301 188.509C95.4801 188.379 95.6801 188.159 95.9201 187.869C95.9801 187.799 96.0601 187.759 96.1401 187.759C96.2101 187.759 96.2601 187.789 96.3001 187.859C96.3401 187.919 96.3601 188.009 96.3601 188.129C96.3601 188.339 96.3101 188.509 96.2101 188.629C95.9801 188.909 95.7301 189.149 95.4601 189.329C95.2001 189.509 94.9001 189.599 94.5601 189.599C94.3001 189.599 94.1101 189.499 93.9901 189.299C93.8701 189.099 93.8101 188.819 93.8101 188.459C93.7201 188.819 93.5801 189.109 93.4001 189.299C93.2201 189.489 93.0201 189.589 92.8101 189.589V189.599ZM99.2901 187.769C99.3601 187.769 99.4101 187.799 99.4501 187.869C99.4901 187.929 99.5101 188.019 99.5101 188.139C99.5101 188.349 99.4601 188.519 99.3601 188.639C99.1301 188.919 98.8801 189.159 98.6001 189.339C98.3301 189.519 98.0101 189.609 97.6601 189.609C96.5701 189.609 96.0201 188.839 96.0201 187.299C96.0201 187.059 96.0201 186.829 96.0401 186.579H95.7301C95.5701 186.579 95.4601 186.549 95.4001 186.489C95.3501 186.429 95.3201 186.339 95.3201 186.209C95.3201 185.909 95.4401 185.759 95.6801 185.759H96.1401C96.2301 185.169 96.3701 184.629 96.5601 184.139C96.7501 183.649 96.9701 183.259 97.2301 182.969C97.5001 182.679 97.7801 182.539 98.0901 182.539C98.3101 182.539 98.4901 182.639 98.6201 182.839C98.7501 183.039 98.8101 183.289 98.8101 183.589C98.8101 184.419 98.4601 185.139 97.7701 185.759H98.6701C98.7601 185.759 98.8201 185.779 98.8501 185.819C98.8801 185.859 98.9101 185.929 98.9101 186.029C98.9101 186.399 98.6101 186.579 98.0001 186.579H97.0201C97.0101 186.849 97.0001 187.059 97.0001 187.209C97.0001 187.769 97.0601 188.159 97.1901 188.379C97.3201 188.599 97.5301 188.719 97.8201 188.719C98.0501 188.719 98.2501 188.649 98.4301 188.509C98.6101 188.369 98.8201 188.159 99.0601 187.879C99.1201 187.809 99.2001 187.769 99.2801 187.769H99.2901ZM97.8801 183.319C97.8001 183.319 97.7101 183.419 97.6101 183.629C97.5101 183.829 97.4201 184.109 97.3301 184.469C97.2401 184.819 97.1701 185.219 97.1101 185.649C97.4301 185.379 97.6601 185.069 97.8201 184.729C97.9801 184.389 98.0601 184.079 98.0601 183.799C98.0601 183.479 98.0001 183.329 97.8801 183.329V183.319ZM101.73 188.009C101.8 188.009 101.85 188.039 101.89 188.109C101.93 188.169 101.95 188.259 101.95 188.379C101.95 188.569 101.9 188.739 101.81 188.879C101.66 189.109 101.46 189.289 101.22 189.419C100.98 189.549 100.69 189.609 100.35 189.609C99.8401 189.609 99.4401 189.459 99.1501 189.149C98.8701 188.839 98.7201 188.419 98.7201 187.899C98.7201 187.529 98.8001 187.189 98.9501 186.869C99.1101 186.549 99.3201 186.289 99.5901 186.109C99.8701 185.919 100.18 185.829 100.53 185.829C100.84 185.829 101.09 185.919 101.28 186.109C101.47 186.289 101.56 186.539 101.56 186.859C101.56 187.229 101.43 187.549 101.16 187.819C100.9 188.079 100.45 188.289 99.8101 188.449C99.9401 188.699 100.16 188.819 100.46 188.819C100.68 188.819 100.86 188.769 101 188.669C101.14 188.569 101.31 188.399 101.5 188.159C101.56 188.079 101.64 188.039 101.72 188.039L101.73 188.009ZM100.41 186.599C100.21 186.599 100.04 186.719 99.9001 186.949C99.7701 187.179 99.7001 187.459 99.7001 187.789V187.809C100.02 187.739 100.27 187.619 100.45 187.469C100.63 187.319 100.72 187.149 100.72 186.949C100.72 186.849 100.69 186.769 100.63 186.709C100.58 186.649 100.5 186.609 100.41 186.609V186.599Z" fill="black"/>
<path d="M80.9802 112.209C80.9802 128.809 66.8902 142.389 49.3602 142.389C31.8302 142.389 17.7402 128.809 17.7402 112.209C17.7402 95.6093 31.8302 82.0293 49.3602 82.0293C66.8902 82.0293 80.9802 95.6093 80.9802 112.209V112.209Z" stroke="#333232" stroke-width="3.35"/>
<path d="M169.75 112.209C169.75 128.809 155.66 142.389 138.13 142.389C120.6 142.389 106.51 128.809 106.51 112.209C106.51 95.6093 120.59 82.0293 138.13 82.0293C155.67 82.0293 169.75 95.6093 169.75 112.209V112.209Z" stroke="#333232" stroke-width="3.35"/>
<path d="M81.1699 109.87C90.6399 108.26 96.1999 108.29 106.32 109.87V115.75C96.6599 114.28 91.1499 114.26 81.1699 115.75V109.87V109.87Z" fill="#262525"/>
<path d="M106.04 141.84C106.04 141.84 104.26 147.61 95.2996 147.61C86.3396 147.61 84.5596 141.84 84.5596 141.84" stroke="#7A5751" stroke-width="2.66" stroke-miterlimit="10" stroke-linecap="round"/>
<g style="mix-blend-mode:soft-light" opacity="0.4">
<g style="mix-blend-mode:soft-light" opacity="0.4">
<path d="M60.65 113.06C59.37 113.49 58.77 115.09 60.23 115.85C61.15 116.33 62.08 115.83 62.16 114.81C62.24 113.79 62.17 112.55 60.65 113.06Z" fill="#F0E1A0"/>
</g>
</g>
<path d="M94.45 136.229C89.53 136.229 85.54 132.239 85.54 127.319C85.54 122.399 103.36 122.399 103.36 127.319C103.36 132.239 99.37 136.229 94.45 136.229V136.229Z" fill="#7A5751"/>
<g style="mix-blend-mode:soft-light" opacity="0.4">
<path d="M94.4499 126.19C90.6699 126.19 87.4399 128.13 87.6099 126.41C87.8299 124.22 101.3 124.01 101.3 126.41C101.3 128.14 98.2399 126.19 94.4599 126.19H94.4499Z" fill="#F0E1A0"/>
</g>
<path d="M139.82 115.59C133.12 124.44 118.65 125.1 114.66 116.51" stroke="#7A5751" stroke-width="2.66" stroke-miterlimit="10" stroke-linecap="round"/>
<path d="M50.2197 115.59C56.9197 124.44 71.3897 125.1 75.3797 116.51" stroke="#7A5751" stroke-width="2.66" stroke-miterlimit="10" stroke-linecap="round"/>
</g>
<defs>
<clipPath id="clip0_316_19180">
<rect width="187.5" height="342.95" fill="white"/>
</clipPath>
</defs>
</svg>
