<svg width="180" height="274" viewBox="0 0 180 274" fill="none" xmlns="http://www.w3.org/2000/svg">
<g clip-path="url(#clip0_316_17557)">
<path d="M141.59 178.9C141.59 221.33 133.72 253.16 90.0898 253.16C46.4598 253.16 38.5898 221.33 38.5898 178.9C38.5898 136.47 61.6498 120.42 90.0898 120.42C118.53 120.42 141.59 136.47 141.59 178.9V178.9Z" fill="#FDD800"/>
<path d="M39.24 167.629C39.24 167.629 12.9 181.609 12.9 210.559C12.9 239.509 11.92 252.509 26.23 252.509C40.54 252.509 56.15 255.759 53.87 222.919C51.59 190.079 55.17 158.859 39.24 167.639V167.629Z" fill="#F1CF14"/>
<path d="M2.49006 240.8C2.49006 247.98 0.210063 253.81 18.1001 253.81C35.9901 253.81 33.7101 247.99 33.7101 240.8C33.7101 233.61 26.7201 225.66 18.1001 225.66C9.48006 225.66 2.49006 233.61 2.49006 240.8V240.8Z" fill="#F5F2DD"/>
<path d="M140.18 167.629C140.18 167.629 166.52 181.609 166.52 210.559C166.52 239.499 167.5 252.509 153.19 252.509C138.88 252.509 123.27 255.759 125.55 222.919C127.83 190.079 124.25 158.859 140.18 167.639V167.629Z" fill="#FDD800"/>
<path d="M176.93 240.8C176.93 247.98 179.21 253.81 161.32 253.81C143.43 253.81 145.71 247.99 145.71 240.8C145.71 233.62 152.7 225.66 161.32 225.66C169.94 225.66 176.93 233.61 176.93 240.8Z" fill="#F7F4E5"/>
<path d="M39.24 167.629C39.24 167.629 12.9 181.609 12.9 210.559C12.9 239.509 11.92 252.509 26.23 252.509C40.54 252.509 56.15 255.759 53.87 222.919C51.59 190.079 55.17 158.859 39.24 167.639V167.629Z" fill="#FDD800"/>
<path d="M156.09 141.54C143.6 182.09 140.62 229.09 90.09 229.09C39.56 229.09 37.08 181.48 22.75 141.54C51.8 131.9 57.15 96.3496 90.09 96.3496C123.03 96.3496 126.17 128.25 156.09 141.54V141.54Z" fill="#F7F4E5"/>
<path d="M48.4802 197.36C71.4602 218.99 81.1102 220.34 81.1102 220.34C81.1102 220.34 80.6602 233.35 78.8602 253.19C77.0602 273.03 71.2002 272.12 63.9802 273.02C56.7702 273.92 47.4302 273.73 43.2402 254.09C25.7202 171.9 30.4502 161.99 30.4502 161.99C30.4502 161.99 34.8902 184.58 48.4702 197.36H48.4802Z" fill="#F7F4E5"/>
<path d="M48.4803 197.36C71.4603 218.99 81.1103 220.34 81.1103 220.34C81.1103 220.34 80.6603 233.35 78.8603 253.19C73.3803 233.65 47.3703 234.3 36.1003 218.08C27.2003 168.82 30.4603 161.99 30.4603 161.99C30.4603 161.99 34.9003 184.58 48.4803 197.36V197.36Z" fill="#FDD800"/>
<path d="M130.8 197.36C107.82 218.99 98.1699 220.34 98.1699 220.34C98.1699 220.34 98.6199 233.35 100.42 253.19C102.22 273.02 108.08 272.12 115.3 273.02C122.51 273.92 131.85 273.73 136.04 254.09C153.56 171.9 148.83 161.99 148.83 161.99C148.83 161.99 144.39 184.58 130.81 197.36H130.8Z" fill="#F7F4E5"/>
<path d="M130.8 197.36C107.82 218.99 98.1699 220.34 98.1699 220.34C98.1699 220.34 98.6199 233.35 100.42 253.19C105.9 233.65 131.91 234.3 143.18 218.08C152.08 168.82 148.82 161.99 148.82 161.99C148.82 161.99 144.38 184.58 130.8 197.36V197.36Z" fill="#FDD800"/>
<path d="M2.49006 240.8C2.49006 247.98 0.210063 253.81 18.1001 253.81C35.9901 253.81 33.7101 247.99 33.7101 240.8C33.7101 233.61 26.7201 225.66 18.1001 225.66C9.48006 225.66 2.49006 233.61 2.49006 240.8V240.8Z" fill="#F7F4E5"/>
<path fill-rule="evenodd" clip-rule="evenodd" d="M117.12 21.7606C134.3 8.03062 156.57 -5.46938 170.8 2.26062C190.1 12.7406 172.41 59.4006 162.14 82.4806C162.29 84.1106 162.36 85.7306 162.36 87.3506C162.36 121.681 128.67 149.501 89.85 149.501C51.03 149.501 16.6 121.681 16.6 87.3506C16.6 85.4506 16.71 83.5506 16.91 81.6406C6.6 58.2906 -10.45 12.6106 8.62 2.26062C22.87 -5.46938 45.17 8.06062 62.36 21.8106C70.95 17.8606 80.27 15.5806 89.85 15.5806C99.43 15.5806 108.62 17.8406 117.12 21.7606V21.7606Z" fill="#F7F4E5"/>
<path fill-rule="evenodd" clip-rule="evenodd" d="M24.79 115.449C61.27 114.559 90.59 82.1092 90.59 42.2192C90.59 32.8692 88.98 23.9292 86.04 15.6992C77.8 16.2192 69.81 18.3892 62.36 21.8092C45.18 8.05918 22.87 -5.48082 8.62 2.25918C-10.45 12.6092 6.6 58.2892 16.91 81.6392C16.71 83.5492 16.6 85.4492 16.6 87.3492C16.6 97.4592 19.59 107.009 24.8 115.449H24.79Z" fill="#FDD800"/>
<path fill-rule="evenodd" clip-rule="evenodd" d="M97.95 16.1206C104.61 17.0106 111.05 18.9606 117.12 21.7606C134.3 8.03062 156.57 -5.46938 170.8 2.26062C190.1 12.7406 172.41 59.4006 162.14 82.4806C162.29 84.1106 162.36 85.7306 162.36 87.3506C162.36 97.3406 159.51 106.781 154.5 115.141C120.3 111.641 93.54 80.3306 93.54 42.2106C93.54 33.0206 95.1 24.2206 97.94 16.1106L97.95 16.1206Z" fill="#FDD800"/>
<path d="M13.4801 13.7602C3.56013 20.1802 13.3401 47.7702 18.1501 59.6702C19.0701 61.9402 22.1601 62.0602 23.4201 59.9602C30.8101 47.6102 38.5301 40.1602 50.8701 29.4402C52.2801 28.2202 52.2301 26.0402 50.7101 24.9602C43.3501 19.7302 23.6901 7.14022 13.4701 13.7602H13.4801Z" fill="#F2BB00"/>
<path d="M166.22 13.7602C176.14 20.1802 166.36 47.7702 161.55 59.6702C160.63 61.9402 157.54 62.0602 156.28 59.9602C148.89 47.6102 141.17 40.1602 128.83 29.4402C127.42 28.2202 127.47 26.0402 128.99 24.9602C136.35 19.7302 156.01 7.14022 166.23 13.7602H166.22Z" fill="#F2BB00"/>
<path d="M53.59 102.15C60.1291 102.15 65.43 98.8365 65.43 94.7496C65.43 90.6627 60.1291 87.3496 53.59 87.3496C47.0509 87.3496 41.75 90.6627 41.75 94.7496C41.75 98.8365 47.0509 102.15 53.59 102.15Z" fill="#F8AEA9"/>
<path d="M130.55 102.15C137.089 102.15 142.39 98.8365 142.39 94.7496C142.39 90.6627 137.089 87.3496 130.55 87.3496C124.011 87.3496 118.71 90.6627 118.71 94.7496C118.71 98.8365 124.011 102.15 130.55 102.15Z" fill="#F8AEA9"/>
<path d="M103.12 110.449C103.12 110.449 101.34 116.219 92.3801 116.219C83.4201 116.219 81.6401 110.449 81.6401 110.449" stroke="#7A5751" stroke-width="2.66" stroke-miterlimit="10" stroke-linecap="round"/>
<path d="M91.5399 103.241C86.6199 103.241 82.6299 99.2506 82.6299 94.3306C82.6299 89.4106 100.45 89.4106 100.45 94.3306C100.45 99.2506 96.4599 103.241 91.5399 103.241V103.241Z" fill="#7A5751"/>
<g style="mix-blend-mode:soft-light" opacity="0.4">
<path d="M91.5398 93.2092C87.7598 93.2092 84.5298 95.1492 84.6998 93.4292C84.9198 91.2392 98.3898 91.0292 98.3898 93.4292C98.3898 95.1592 95.3298 93.2092 91.5498 93.2092H91.5398Z" fill="#F0E1A0"/>
</g>
<path d="M129.78 75.989C132.63 79.749 132.77 84.899 131.14 88.659C129.03 93.549 121.99 94.929 118.23 91.169C114.47 87.409 113.43 79.749 117.2 75.989C120.96 72.229 126.57 71.739 129.79 75.989H129.78Z" fill="url(#paint0_linear_316_17557)"/>
<path d="M129.71 76.0392C129.71 76.0392 129.75 76.0292 129.69 75.9692L129.62 75.9492L129.72 76.0392H129.71Z" fill="#7A5751"/>
<path d="M129.4 75.5489C129.32 75.4889 129.21 75.4189 129.23 75.4989C129.33 75.5489 129.33 75.5789 129.44 75.6289C129.5 75.6889 129.53 75.7489 129.5 75.7489C129.53 75.7689 129.58 75.8589 129.63 75.8789C129.58 75.7689 129.49 75.6589 129.37 75.5689C129.36 75.5389 129.39 75.5589 129.4 75.5589V75.5489Z" fill="#7A5751"/>
<path d="M117.21 75.8586L117.25 75.8086C117.22 75.8386 117.2 75.8586 117.21 75.8586Z" fill="#7A5751"/>
<path d="M116.57 76.499L116.61 76.459C116.61 76.459 116.58 76.489 116.57 76.499Z" fill="#7A5751"/>
<path d="M121.72 73.2285L121.58 73.2585C121.58 73.2585 121.65 73.2485 121.72 73.2285Z" fill="#7A5751"/>
<path d="M128.51 74.7988C128.51 74.7988 128.55 74.8288 128.57 74.8388L128.52 74.7988H128.51Z" fill="#7A5751"/>
<path d="M124.02 72.8891H124.06L124.1 72.8691L124.02 72.8891V72.8891Z" fill="#7A5751"/>
<path d="M125.8 73.1289C125.8 73.1289 125.74 73.1489 125.72 73.1589C125.75 73.1589 125.78 73.1589 125.81 73.1589C125.81 73.1589 125.81 73.1389 125.8 73.1289Z" fill="#7A5751"/>
<path d="M128.3 74.4395L128.34 74.4695L128.3 74.4395Z" fill="#7A5751"/>
<path d="M122.74 72.9592C122.74 72.9592 122.73 72.9592 122.72 72.9492C122.72 72.9492 122.72 72.9492 122.74 72.9592Z" fill="#7A5751"/>
<path d="M130.7 77.8091C130.7 77.8091 130.69 77.7991 130.7 77.8091V77.8091Z" fill="#7A5751"/>
<path d="M129.79 75.9785L129.81 75.9985L129.83 75.9885L129.79 75.9785Z" fill="#7A5751"/>
<path d="M118.76 91.8282C118.65 91.6882 119 91.9782 118.83 91.7782C118.83 91.8082 118.61 91.6682 118.76 91.8282Z" fill="#7A5751"/>
<path d="M128.48 74.7687L128.43 74.7188L128.48 74.7687Z" fill="#7A5751"/>
<path d="M118.83 91.7895L118.81 91.7695L118.83 91.7895Z" fill="#7A5751"/>
<path d="M114.71 81.5888C114.71 81.5888 114.72 81.5688 114.73 81.5488C114.73 81.5488 114.73 81.5488 114.71 81.5888Z" fill="#7A5751"/>
<path d="M115.34 78.8184L115.31 78.8784L115.34 78.8184Z" fill="#7A5751"/>
<path d="M114.91 84.5798L114.92 84.5598L114.91 84.5098V84.5798Z" fill="#7A5751"/>
<path d="M131.96 82.1598C131.96 82.1598 131.98 82.0998 131.99 82.0898C131.97 82.1198 131.93 81.8998 131.96 82.1598Z" fill="#7A5751"/>
<path d="M128.52 74.7895C128.52 74.7895 128.5 74.7895 128.48 74.7695L128.52 74.7995C128.52 74.7995 128.53 74.7995 128.52 74.7895Z" fill="#7A5751"/>
<path d="M128.35 91.7292L128.39 91.6992C128.39 91.6992 128.36 91.7192 128.35 91.7292Z" fill="#7A5751"/>
<path d="M115.14 84.0488C115.14 84.0488 115.14 84.1388 115.14 84.1888C115.14 84.1888 115.14 84.2088 115.15 84.2188V84.0588L115.14 84.0488Z" fill="#7A5751"/>
<path d="M131.65 80.5592C131.7 80.7792 131.72 80.6492 131.76 80.6892C131.82 80.9492 131.75 80.8192 131.74 80.9192C131.78 81.0792 131.85 81.1992 131.87 81.3292C131.87 81.3392 131.87 81.3692 131.85 81.3292C131.93 81.4992 131.92 81.8592 132 82.0592C132 82.0792 132 82.0792 132 82.0892C132.02 82.0492 132.04 82.0492 132.06 82.0492C132.07 82.1492 132.11 82.2392 132.09 82.2792C132.09 82.2192 132.07 82.2092 132.06 82.1892L132.09 82.2992C132.06 82.3992 132.06 82.1592 132.02 82.1592C132.07 82.3692 132.11 82.6092 132.1 82.7692C132.06 82.8092 132.07 82.3992 132.04 82.6092V82.3592C131.98 82.5492 132.04 82.2092 131.97 82.3892C131.97 82.7092 132.01 82.7492 132.02 83.0692C132.05 83.1392 132.06 83.0392 132.08 83.1192C132.13 83.5792 131.96 83.4792 132.02 83.8192C132.05 83.9092 132.11 83.9492 132.06 84.1892L132.01 84.1092C131.98 84.4192 132.07 84.2892 132.01 84.6192C131.99 84.5592 132.01 84.3692 132.01 84.4192C131.96 84.6292 132.03 84.5692 132.01 84.7392L131.96 84.7692C131.92 85.0992 131.92 85.4792 131.86 85.8392C131.86 85.8192 131.85 85.7492 131.82 85.8392C131.76 86.3092 131.61 86.8192 131.46 87.2392L131.44 87.4192C131.44 87.4192 131.4 87.4892 131.41 87.4392C131.34 87.5992 131.43 87.4592 131.41 87.5392C131.38 87.6392 131.35 87.6592 131.36 87.5892C131.31 87.8992 131.13 88.4492 130.95 88.7292L130.97 88.6692C130.84 88.8892 130.91 88.9592 130.77 89.1492V89.1092C130.66 89.3592 130.52 89.6092 130.35 89.8192C130.19 90.0392 130.05 90.2592 129.88 90.3892C129.87 90.4892 129.49 90.7692 129.53 90.8492C129.29 91.0592 129.33 90.9692 128.98 91.2392C128.89 91.3092 128.88 91.3892 128.77 91.4892L128.74 91.4592C128.7 91.5092 128.66 91.5692 128.61 91.6092L128.49 91.6292L128.38 91.7092C128.38 91.7092 128.49 91.6592 128.49 91.6792C128.32 91.8092 128.04 91.9392 128.02 91.9292C127.89 92.0392 127.74 92.1192 127.6 92.2092C127.6 92.1892 127.68 92.1492 127.73 92.1092C127.51 92.2692 127.67 92.0892 127.46 92.2392C127.49 92.2392 127.46 92.2692 127.46 92.2792C127.34 92.3092 127.1 92.4592 126.9 92.5292L126.93 92.4892C126.58 92.6092 126.2 92.7992 125.79 92.8792C125.94 92.8592 125.92 92.9092 125.79 92.9492L125.73 92.9192C125.66 92.9692 125.86 92.8992 125.71 92.9792C125.56 93.0092 125.6 92.9592 125.68 92.9192L125.5 92.9792C125.5 92.9792 125.53 92.9492 125.54 92.9292C125.47 92.9692 125.21 92.9692 125.11 93.0292H125.1C124.68 93.0692 124.5 93.1392 124.16 93.1492C124.16 93.1892 124.02 93.1792 123.92 93.2192C123.67 93.2192 123.39 93.2092 123.09 93.1692C122.88 93.1692 123.03 93.1992 122.93 93.2092C122.92 93.1692 122.61 93.1492 122.77 93.1392C122.41 93.1292 122.31 93.0792 121.85 93.0192C121.9 93.0392 121.95 93.0592 121.92 93.0692C121.84 93.0592 121.74 93.0192 121.75 92.9992H121.77C121.25 92.9292 120.66 92.5692 120.27 92.4392H120.29L119.89 92.2992C119.72 92.2092 120.01 92.3292 119.89 92.2492C119.48 92.0492 119.28 91.8592 118.96 91.6592C118.8 91.3992 118.17 90.9892 117.97 90.6292V90.6592C117.88 90.5992 117.89 90.5592 117.85 90.4992C117.85 90.5192 117.91 90.5992 117.85 90.5592C117.26 89.9192 116.8 89.0992 116.43 88.2892C116.29 87.9892 116.24 88.1792 116.11 87.7792L116.2 87.8692C115.88 87.2892 115.69 86.6192 115.48 86.0092C115.5 86.0392 115.51 86.0392 115.53 86.0992C115.53 85.9592 115.38 85.6192 115.37 85.6192C115.35 85.5192 115.39 85.5892 115.39 85.5292C115.38 85.3892 115.28 85.1992 115.29 85.1292C115.29 85.1192 115.31 85.1692 115.32 85.1892C115.29 85.1092 115.24 84.7792 115.22 84.8692C115.18 84.6292 115.13 84.4092 115.12 84.2192C115.06 84.0992 115.09 83.8092 115.02 83.7692C115.07 83.7792 115.02 83.3392 115 83.1892C115.02 83.2392 115.01 83.0592 115.04 83.1092C115.04 82.9392 115.01 82.7792 114.98 82.8092C115.02 82.4892 114.93 82.1592 115.02 81.9792C114.99 81.4592 115.06 80.9792 115.1 80.5092C115.16 80.5392 115.04 81.0192 115.1 81.0092C115.12 80.5692 115.12 80.3092 115.24 79.8792C115.27 79.7692 115.25 79.9492 115.25 79.9892C115.31 79.5492 115.48 79.1692 115.58 78.7892C115.58 78.7892 115.58 78.8392 115.57 78.8692C115.59 78.7992 115.64 78.6992 115.61 78.6992L115.59 78.7692C115.52 78.8792 115.61 78.4392 115.61 78.4292C115.62 78.5792 115.8 78.0892 115.8 78.3192C115.82 78.2692 115.83 78.2092 115.81 78.2092C115.85 78.1392 115.87 78.1292 115.85 78.2092C115.96 77.9492 115.89 78.0292 116 77.7992C116.01 77.7992 116 77.8592 116 77.8892C116.03 77.7592 116.06 77.6292 116.19 77.4592C116.19 77.4692 116.21 77.4592 116.18 77.5092C116.39 77.2092 116.44 76.9292 116.73 76.6392C116.7 76.7692 116.83 76.5492 116.89 76.5592L117.02 76.3892L116.95 76.4392C117.08 76.2992 117.15 76.1392 117.28 76.0392C117.25 76.0792 117.23 76.1192 117.2 76.1592C117.27 76.0592 117.36 75.9892 117.45 75.8992L117.29 76.0192C117.41 75.8692 117.23 75.9892 117.43 75.8292C117.4 75.8692 117.57 75.6992 117.66 75.6592C117.72 75.5892 117.78 75.5092 117.89 75.4192C117.93 75.4092 117.9 75.4792 117.93 75.4692C117.97 75.3692 118.27 75.1892 118.34 75.0792C118.32 75.1092 118.33 75.1292 118.34 75.1292L118.38 75.0592C118.46 75.0092 118.47 75.0092 118.47 75.0392C118.68 74.8792 118.37 75.0392 118.63 74.8692C118.61 74.8892 118.63 74.8792 118.59 74.9192C118.85 74.7392 119.09 74.5692 119.34 74.4192C119.44 74.4192 119.13 74.5692 119.24 74.5492C119.58 74.2992 119.97 74.0792 120.33 73.8992L120.26 73.9292C120.28 73.8292 120.55 73.8392 120.73 73.7292C120.69 73.7492 120.68 73.7892 120.69 73.7792C120.95 73.6892 121.2 73.5392 121.61 73.4192L121.57 73.4492C121.73 73.4292 121.98 73.3192 122.16 73.3092C122.21 73.2792 122.31 73.2692 122.24 73.2492C122.79 73.2292 123.26 73.0392 123.75 73.0892C123.69 73.0892 123.61 73.1192 123.66 73.1092C123.8 73.0892 123.93 73.1092 124.07 73.0992C124.04 73.0692 124.02 73.0792 123.93 73.0492C123.98 73.0292 124.1 73.0192 124.2 73.0292C124.01 73.0392 124.2 73.0792 124.28 73.0992C124.27 73.0992 124.29 73.0792 124.28 73.0692C124.49 73.1292 124.32 72.9992 124.61 73.0692H124.59C124.7 73.0892 124.8 73.0792 124.92 73.1092C124.96 73.1492 124.8 73.1092 124.79 73.1392C124.95 73.1592 125.13 73.1192 125.27 73.1792L125.03 73.1592C125.19 73.2192 125.21 73.2192 125.32 73.2392H125.31C125.4 73.2492 125.49 73.2892 125.58 73.3192L125.51 73.2892C125.73 73.2492 125.92 73.3792 126.21 73.3992C125.93 73.3792 126.16 73.4192 126.12 73.4492C126.19 73.4692 126.28 73.5392 126.25 73.5292C126.38 73.5492 126.44 73.6392 126.63 73.6592C126.63 73.6792 126.76 73.7092 126.72 73.7292C126.88 73.7792 126.69 73.6892 126.72 73.6792C126.99 73.7192 127.25 74.0092 127.61 74.1292C127.9 74.2792 127.97 74.2892 128.23 74.4492C128.3 74.5292 128.13 74.4392 128.13 74.4392C128.25 74.5592 128.36 74.6192 128.49 74.7092C128.46 74.6992 128.48 74.7292 128.5 74.7692C128.59 74.8492 128.59 74.7892 128.7 74.9192C128.67 74.9192 128.63 74.8992 128.57 74.8692L128.93 75.1392C128.93 75.1392 128.84 75.0992 128.79 75.0792C128.92 75.1892 129.13 75.3592 129.19 75.3892L129.13 75.2992C129.13 75.2992 129.13 75.3392 129.09 75.3192C128.96 75.2392 128.94 75.1692 128.95 75.1492L129.04 75.2192C129.01 75.0892 128.71 74.9292 128.55 74.7792L128.65 74.7992L128.45 74.6792C128.45 74.6792 128.41 74.5892 128.5 74.6592C128.39 74.5392 128.37 74.5892 128.28 74.4892C128.28 74.4792 128.28 74.4792 128.29 74.4892L128.15 74.4092C128.15 74.4092 128.15 74.3592 128.23 74.4292C128.02 74.2392 127.84 74.1992 127.78 74.0992H127.8C127.45 73.9292 127.75 74.1192 127.47 74.0192L127.35 73.8392L127.3 73.8592C127.3 73.8592 127.2 73.7992 127.22 73.7892C127.08 73.7392 127.23 73.8192 127.15 73.7892C127 73.6492 126.66 73.5992 126.65 73.5092C126.57 73.5092 126.81 73.5992 126.61 73.5392C126.58 73.4492 126.39 73.4592 126.23 73.3692C126.29 73.3592 126.44 73.4392 126.29 73.3392C126.17 73.3492 125.96 73.2292 125.82 73.1992C125.8 73.2492 125.5 73.1192 125.25 73.0992C125.27 73.0892 124.79 73.0092 124.56 72.9592C124.56 72.9592 124.27 72.9792 124.1 72.9892C124.1 72.9592 124.14 72.9492 124.24 72.9392H124.07C124.07 72.9392 123.98 72.9592 123.87 72.9592L123.91 72.9192C123.69 72.8992 123.47 72.9792 123.19 72.9692C123.18 73.0092 123.42 73.0492 123.13 73.0892C123.12 73.0692 123.1 73.0392 123.18 73.0292C123.15 73.0292 123.09 73.0492 123.04 73.0492L123.15 73.0092C123.02 73.0092 123.09 73.0392 122.98 73.0492C122.98 73.0192 122.9 73.0392 122.91 73.0192C122.94 73.0192 123 73.0192 123.04 73.0192C122.92 73.0192 122.78 73.0192 122.73 73.0192C122.74 73.0292 122.73 73.0592 122.65 73.0692C122.44 73.1092 122.57 73.0492 122.44 73.0692C122.39 73.0992 122.25 73.1092 122.25 73.1392C122.19 73.1492 122.17 73.1392 122.14 73.1392C122.03 73.1692 121.63 73.2692 121.76 73.2792H121.77C121.43 73.4192 121.02 73.4692 120.69 73.6392C120.49 73.7292 120.24 73.8092 120.11 73.9192C120.05 73.9492 119.96 73.9692 119.98 73.9392C119.84 74.0292 119.83 74.0492 119.6 74.1392C119.74 74.0392 119.54 74.1392 119.75 74.0492C119.55 74.1392 119.49 74.1392 119.31 74.2892C119.36 74.2192 119.15 74.3392 119.07 74.4092L119.21 74.3492C119.11 74.4192 119.03 74.4692 118.94 74.5192L118.96 74.4492C118.54 74.6392 118.35 74.9892 118.03 75.1192C117.96 75.2192 118.24 74.9892 118.17 75.0792C118.01 75.1992 117.79 75.2792 117.75 75.3292C117.53 75.4992 117.6 75.5592 117.37 75.7392C117.41 75.7292 117.46 75.7392 117.31 75.8892C117.16 76.0192 117.08 76.0092 117.16 75.9192C117.2 75.8892 117.22 75.8692 117.22 75.8792C117.26 75.8292 117.32 75.7692 117.25 75.8092V75.8392C117.15 75.8892 116.96 76.0992 116.99 76.0392C116.9 76.1692 116.96 76.1092 117.05 76.0292C116.86 76.2192 116.78 76.3392 116.59 76.5392C116.63 76.5092 116.67 76.4892 116.64 76.5292C116.37 76.8192 116.54 76.6692 116.39 76.8992C116.29 77.0092 116.37 76.8192 116.24 77.0592C116.14 77.1892 116.19 77.0592 116.21 76.9992C116.1 77.2292 115.94 77.3792 115.85 77.4992L115.91 77.3792L115.8 77.5592C115.8 77.5592 115.84 77.5292 115.87 77.5092C115.82 77.5692 115.8 77.6292 115.79 77.6192C115.77 77.6992 115.86 77.5892 115.82 77.7492C115.76 77.8292 115.7 78.0392 115.65 78.0492C115.8 77.7692 115.6 78.0592 115.71 77.8092C115.69 77.8592 115.66 77.9192 115.62 77.9892C115.62 77.9892 115.62 77.9792 115.62 77.9592C115.45 78.2192 115.6 78.1092 115.46 78.3992C115.46 78.3492 115.38 78.4492 115.37 78.4992C115.42 78.3792 115.42 78.4592 115.4 78.5792C115.32 78.7692 115.34 78.7992 115.3 78.8992L115.35 78.7892C115.35 78.7892 115.32 78.9292 115.28 79.0692C115.26 79.0692 115.31 78.9392 115.28 78.9892C115.28 79.1492 115.12 79.3092 115.08 79.5292C115.04 79.6292 115.03 79.5292 115 79.6092C114.97 79.8592 114.91 79.8592 114.87 80.1292C114.92 80.0592 114.91 80.0492 114.9 80.2292L114.97 79.8092L114.95 80.0892C114.98 79.9592 114.99 79.8192 115.01 79.7492C115.01 79.8792 115.01 79.8692 115.04 79.8092C114.95 79.9692 114.99 80.1592 114.91 80.3492L114.83 80.3292C114.73 80.6192 114.79 80.8792 114.71 81.2692L114.74 81.1392C114.76 81.1992 114.71 81.3792 114.71 81.5092C114.68 81.4992 114.67 81.5792 114.65 81.6292C114.67 81.6292 114.64 81.9192 114.69 81.9592L114.65 82.1392C114.63 82.4592 114.7 82.5092 114.71 82.8092C114.68 82.7192 114.67 82.8592 114.63 82.6492C114.63 82.7492 114.63 82.8492 114.65 82.8492C114.64 82.9092 114.7 83.1292 114.68 83.2292C114.69 83.2692 114.72 83.2892 114.73 83.3992C114.73 83.4092 114.72 83.3992 114.72 83.3992C114.73 83.3992 114.75 83.5792 114.77 83.4792C114.7 83.7992 114.88 84.3592 114.84 84.6392C114.88 84.8592 114.96 85.1192 115 85.3192C114.99 85.3092 114.99 85.3192 114.98 85.2792C115.01 85.5592 115.09 85.4292 115.13 85.7492C115.13 85.9192 115.07 85.5892 115.08 85.6892C115 85.7592 115.19 86.0592 115.21 86.2792L115.19 86.2292C115.21 86.3992 115.33 86.6092 115.41 86.8692H115.4C115.51 87.0292 115.65 87.3492 115.75 87.5792C115.69 87.5192 115.69 87.4792 115.68 87.5392C115.73 87.6492 115.72 87.4892 115.81 87.6992C115.81 87.7792 115.87 87.9392 115.85 87.9692C115.82 87.8992 115.78 87.8392 115.76 87.7692C115.76 87.8992 115.88 88.0292 115.92 88.1292H115.89C116.04 88.4192 116.09 88.4092 116.25 88.7292V88.6892C116.38 88.8392 116.3 88.8492 116.43 88.9992L116.41 89.0792C116.49 89.1892 116.69 89.4392 116.81 89.6392C116.71 89.5492 116.55 89.3292 116.45 89.1892C116.52 89.2992 116.68 89.5592 116.73 89.6092C116.7 89.5692 116.65 89.5192 116.64 89.4692C116.75 89.5892 116.88 89.7492 117.03 89.9492C116.93 89.9692 117.39 90.5092 117.46 90.6992C117.79 91.0092 118.04 91.3992 118.47 91.7292C118.38 91.5492 118.59 91.8292 118.62 91.7492C118.72 91.8292 118.75 91.8592 118.76 91.8692C118.84 91.9692 118.94 92.0492 119.03 92.1292C119.09 92.1992 118.92 92.0792 118.92 92.0992C119.15 92.2492 119 92.1892 119.14 92.3092C119.13 92.2692 119.24 92.3292 119.37 92.4192L119.21 92.2692C119.56 92.4292 119.44 92.5292 119.81 92.6592L119.69 92.6292C119.88 92.6992 120.35 92.9492 120.55 92.9692C120.58 92.9892 120.62 93.0292 120.53 92.9992C120.98 93.1592 121.54 93.2792 121.9 93.3592H121.86C121.95 93.3792 122.02 93.3592 122.12 93.4092C122.12 93.4092 122.08 93.4192 122.12 93.4292C122.17 93.4292 122.35 93.4492 122.47 93.4692C122.44 93.4692 122.4 93.4792 122.37 93.4792C122.83 93.5392 123.08 93.4992 123.46 93.4892C123.46 93.5492 123.82 93.5592 124 93.5592C124.54 93.5592 124.9 93.4292 125.38 93.3292C125.69 93.3292 126.4 93.1092 126.86 92.9492C126.79 92.9692 126.86 92.8992 126.93 92.8692C127.05 92.8492 127.21 92.7092 127.21 92.7692L127.17 92.7892C127.27 92.7892 127.48 92.6792 127.64 92.5992V92.5192C127.88 92.4692 128.15 92.2892 128.38 92.1192C128.62 91.9492 128.83 91.7992 128.95 91.7392L129.22 91.4692L129.24 91.4992C129.5 91.2992 129.62 91.1892 129.88 90.8792L129.84 90.9592C130 90.7892 129.95 90.6792 130.09 90.5192H130.18C130.4 90.1792 130.7 89.8992 130.84 89.5192C130.84 89.5192 130.85 89.5492 130.83 89.6092C130.92 89.4492 131.2 88.9792 131.1 89.0092C131.16 89.0292 131.29 88.6492 131.33 88.4392L131.35 88.4792C131.37 88.2992 131.36 88.2892 131.44 88.0492C131.46 87.9992 131.49 88.0092 131.44 88.0792C131.52 87.8992 131.45 87.9192 131.55 87.6992V87.7892C131.61 87.5992 131.59 87.6092 131.6 87.4992C131.63 87.3792 131.72 87.1392 131.76 87.1092C131.75 87.0792 131.75 86.9592 131.79 86.8492C131.81 86.8392 131.8 86.8792 131.8 86.8992C131.91 86.5792 131.88 86.3992 131.96 86.1792C131.97 86.1792 131.98 86.1592 131.99 86.1492C131.94 86.4092 131.89 86.6292 131.89 86.5992C131.93 86.5992 131.98 86.3992 131.99 86.5792C132 86.3992 132 86.0992 132.06 85.8892C132.06 85.8892 132.07 85.8692 132.08 85.8592V85.8792C132.08 85.8792 132.1 85.7892 132.1 85.7492C132.12 85.6792 132.13 85.6392 132.13 85.5792C132.16 85.5592 132.18 85.3292 132.19 85.2292C132.15 85.2292 132.18 85.0892 132.13 85.2292C132.13 85.2092 132.13 85.2492 132.13 85.3192V85.3692L132.1 85.6292C132.1 85.5392 132.09 85.4492 132.12 85.3392L132.08 85.1792C132.16 85.0392 132.21 84.7592 132.24 84.7192C132.24 84.3892 132.28 83.9392 132.2 83.7292C132.2 83.6392 132.22 83.6192 132.23 83.5892C132.23 83.6392 132.23 83.7092 132.24 83.7392C132.22 83.5492 132.24 83.1792 132.18 83.1392C132.18 82.8992 132.23 83.2692 132.21 82.9492L132.23 82.9892C132.28 82.3392 132.04 81.9592 132.02 81.2492C132.02 81.2992 132.02 81.3192 132.02 81.3392C131.95 80.5292 131.62 79.7292 131.41 78.9592C131.34 78.7392 131.3 78.7292 131.23 78.6092L131.25 78.5492L131.12 78.3492C130.95 78.0592 130.96 77.7792 130.7 77.4292V77.4892C130.63 77.3592 130.45 77.0792 130.49 77.0892C130.48 77.0792 130.44 77.0592 130.42 76.9992H130.44C130.36 76.8792 130.3 76.7792 130.21 76.6892C130.06 76.4392 130.31 76.6892 130.07 76.3292C129.97 76.1992 129.76 75.9992 129.79 76.0492C129.83 76.0992 129.87 76.1892 129.86 76.2092L129.77 76.0992C129.71 76.1192 129.59 76.0692 129.76 76.3792L129.93 76.5592L129.95 76.6392L129.83 76.4692C129.87 76.5792 129.93 76.6292 130 76.6792C130 76.6992 130 76.7392 130.03 76.7792C130.09 76.8292 130.15 76.8892 130.21 76.9492C130.21 76.9892 130.12 76.8792 130.18 77.0292C130.26 77.1092 130.18 76.9092 130.28 77.0592C130.31 77.1692 130.28 77.1592 130.37 77.2592C130.37 77.2792 130.34 77.2592 130.31 77.2192C130.39 77.3092 130.48 77.4892 130.54 77.5292C130.57 77.6492 130.73 77.8892 130.68 77.9092C130.71 77.9392 130.82 78.0792 130.87 78.1792C130.72 78.0292 131.05 78.5592 130.95 78.5392C131.06 78.6592 131.19 79.0292 131.3 79.2692C131.3 79.2592 131.27 79.2292 131.27 79.2092C131.31 79.3492 131.31 79.3992 131.32 79.4992C131.38 79.4992 131.46 79.7192 131.53 79.8292C131.53 80.0192 131.44 79.7392 131.41 79.8092C131.45 79.7892 131.55 80.0992 131.56 80.0292C131.56 80.1692 131.57 80.1492 131.56 80.2292C131.63 80.2292 131.6 80.3492 131.67 80.4592C131.69 80.6592 131.62 80.5192 131.7 80.7392C131.7 80.8492 131.64 80.6592 131.64 80.6592L131.65 80.5592ZM131.88 85.8292L131.9 85.7192L131.88 85.8292ZM131.8 86.2692L131.84 86.0792C131.84 86.0792 131.87 86.0792 131.86 86.1292C131.86 86.0992 131.83 86.2092 131.81 86.2692H131.8ZM132.22 85.3692C132.22 85.4392 132.21 85.4692 132.2 85.4692V85.3392C132.2 85.3392 132.21 85.3392 132.21 85.3592L132.22 85.3692Z" fill="#7A5751"/>
<path d="M121.79 73.209L121.78 73.219L121.8 73.209H121.79Z" fill="#7A5751"/>
<path d="M128.75 91.4282V91.4382L128.78 91.4082L128.75 91.4282Z" fill="#7A5751"/>
<path d="M124.26 73.0684C124.26 73.0684 124.27 73.0684 124.29 73.0784C124.29 73.0784 124.27 73.0784 124.26 73.0684Z" fill="#7A5751"/>
<path d="M125.31 73.1992C125.31 73.1992 125.41 73.2292 125.45 73.2492C125.39 73.2192 125.34 73.2092 125.31 73.1992Z" fill="#7A5751"/>
<path d="M126.1 73.4182C126.1 73.4182 126.12 73.4182 126.12 73.4082H126.1V73.4182Z" fill="#7A5751"/>
<path d="M115.59 78.8496V78.8796C115.56 78.9496 115.58 78.8996 115.59 78.8496Z" fill="#7A5751"/>
<path d="M117.66 75.6387L117.58 75.7387C117.63 75.6987 117.67 75.6587 117.66 75.6387Z" fill="#7A5751"/>
<path d="M117.44 75.8583C117.5 75.8183 117.54 75.7783 117.57 75.7383C117.53 75.7783 117.47 75.8183 117.44 75.8583Z" fill="#7A5751"/>
<path d="M129.04 75.2988L129.07 75.3288L129.04 75.2988Z" fill="#7A5751"/>
<path d="M129.07 75.3301L129.1 75.3601C129.1 75.3601 129.08 75.3301 129.07 75.3301Z" fill="#7A5751"/>
<path d="M129.17 75.4194L129.1 75.3594C129.1 75.3594 129.14 75.4094 129.17 75.4194Z" fill="#7A5751"/>
<path d="M127.98 74.3789C128.04 74.4289 128.12 74.5189 128.21 74.5789H128.22C128.17 74.5589 128.04 74.4089 127.97 74.3789H127.98Z" fill="#7A5751"/>
<path d="M126.87 73.5488C126.96 73.5888 127.04 73.6288 127.12 73.6788C127.08 73.6388 127.04 73.5888 127.15 73.6488C126.85 73.4488 127.21 73.6988 126.87 73.5488Z" fill="#7A5751"/>
<path d="M126.06 73.2198C126.21 73.2498 126.06 73.1998 126.07 73.1898C125.97 73.1798 125.95 73.1698 126.06 73.2198Z" fill="#7A5751"/>
<path d="M119.95 73.8896V73.8496C119.85 73.9096 119.95 73.8596 119.95 73.8896Z" fill="#7A5751"/>
<path d="M119 74.6391L119.11 74.5891L119.14 74.5391L119 74.6391Z" fill="#7A5751"/>
<path d="M118.29 74.8486L118.33 74.8086L118.18 74.9386L118.29 74.8486Z" fill="#7A5751"/>
<path d="M114.85 84.3199L114.89 84.2799C114.87 84.1999 114.82 84.1899 114.85 84.3199Z" fill="#7A5751"/>
<path d="M116.27 88.6289C116.27 88.6889 116.32 88.8089 116.38 88.8589C116.33 88.7689 116.3 88.6689 116.27 88.6289Z" fill="#7A5751"/>
<path d="M127.93 92.3699L127.85 92.4298L128 92.3398L127.93 92.3699Z" fill="#7A5751"/>
<path d="M53.9999 75.9909C51.1499 79.7509 51.0099 84.9009 52.6399 88.6609C54.7499 93.5509 61.7899 94.9309 65.5499 91.1709C69.3099 87.4109 70.3499 79.7509 66.5799 75.9909C62.8199 72.2309 57.2099 71.7409 53.9899 75.9909H53.9999Z" fill="url(#paint1_linear_316_17557)"/>
<path d="M53.9302 75.9303C53.9302 75.9303 53.9502 75.9603 54.0002 75.8903V75.8203L53.9302 75.9303Z" fill="#7A5751"/>
<path d="M54.3703 75.5402C54.4203 75.4502 54.4703 75.3302 54.4003 75.3602C54.3703 75.4702 54.3403 75.4702 54.3003 75.5902C54.2503 75.6602 54.1903 75.7002 54.1903 75.6802C54.1803 75.7102 54.0903 75.7802 54.0903 75.8302C54.1903 75.7602 54.2803 75.6602 54.3603 75.5202C54.3903 75.5002 54.3803 75.5302 54.3803 75.5402H54.3703Z" fill="#7A5751"/>
<path d="M62.03 73.3403L61.98 73.3203L62.03 73.3403Z" fill="#7A5751"/>
<path d="M66.4499 75.9812L66.3999 75.9512C66.4299 75.9712 66.4499 75.9912 66.4499 75.9812Z" fill="#7A5751"/>
<path d="M67.0002 76.6709L66.9702 76.6309C66.9702 76.6309 66.9902 76.6609 67.0002 76.6709Z" fill="#7A5751"/>
<path d="M62.0303 73.3398L62.1603 73.3898C62.1603 73.3898 62.0903 73.3598 62.0303 73.3398Z" fill="#7A5751"/>
<path d="M55.1301 74.6309C55.1301 74.6309 55.0901 74.6709 55.0801 74.6909L55.1301 74.6409V74.6309Z" fill="#7A5751"/>
<path d="M59.7599 73.0898H59.7199L59.6899 73.1098L59.7599 73.0898Z" fill="#7A5751"/>
<path d="M58.0403 73.3298C58.0403 73.3298 58.0803 73.2798 58.0903 73.2598C58.0703 73.2798 58.0503 73.2998 58.0103 73.3098C58.0103 73.3098 58.0103 73.3198 58.0303 73.3298H58.0403Z" fill="#7A5751"/>
<path d="M55.5302 74.5L55.4902 74.53L55.5302 74.5Z" fill="#7A5751"/>
<path d="M61.0103 73.1699C61.0103 73.1699 61.0103 73.1799 61.0203 73.1899C61.0203 73.1899 61.0203 73.1799 61.0103 73.1699Z" fill="#7A5751"/>
<path d="M67.8101 78.0499C67.8101 78.0499 67.8001 78.0299 67.8101 78.0499V78.0499Z" fill="#7A5751"/>
<path d="M64.8303 91.5911C64.9803 91.5111 64.6503 91.8011 64.8603 91.6711C64.8303 91.6711 65.0003 91.4711 64.8303 91.5911Z" fill="#7A5751"/>
<path d="M55.1602 74.6008L55.2102 74.5508L55.1602 74.6008Z" fill="#7A5751"/>
<path d="M64.8701 91.6704L64.8901 91.6504L64.8701 91.6704Z" fill="#7A5751"/>
<path d="M68.75 81.6103C68.75 81.6103 68.76 81.5903 68.76 81.5703C68.76 81.5703 68.76 81.5803 68.75 81.6103Z" fill="#7A5751"/>
<path d="M68.25 78.8906L68.27 78.9606L68.25 78.8906Z" fill="#7A5751"/>
<path d="M68.8101 83.051C68.8101 83.051 68.8001 83.101 68.8101 83.151V83.131C68.8101 83.131 68.8101 83.091 68.8101 83.041V83.051Z" fill="#7A5751"/>
<path d="M68.6602 84.5505L68.6702 84.5205L68.6802 84.4805L68.6602 84.5505Z" fill="#7A5751"/>
<path d="M51.5103 82.1298C51.5103 82.1298 51.5403 82.0798 51.5503 82.0598C51.5203 82.0798 51.5403 81.8598 51.5103 82.1298Z" fill="#7A5751"/>
<path d="M55.1401 74.6513C55.1401 74.6513 55.1401 74.6213 55.1601 74.6113L55.1201 74.6513C55.1201 74.6513 55.1201 74.6613 55.1301 74.6513H55.1401Z" fill="#7A5751"/>
<path d="M69.1103 83.1309L69.0903 83.3709L69.1103 83.1309Z" fill="#7A5751"/>
<path d="M55.26 91.9812L55.21 91.9512C55.21 91.9512 55.25 91.9712 55.26 91.9812Z" fill="#7A5751"/>
<path d="M69.02 84.1016C69.02 84.1016 68.99 84.1916 68.98 84.2316C68.98 84.2416 68.98 84.2516 68.98 84.2616L69.02 84.1016Z" fill="#7A5751"/>
<path d="M51.7201 80.4606C51.6601 80.6906 51.7401 80.5806 51.7601 80.6306C51.7201 80.9106 51.7001 80.7506 51.6601 80.8406C51.6401 81.0106 51.6601 81.1506 51.6401 81.2806C51.6401 81.2806 51.6201 81.3106 51.6201 81.2806C51.6201 81.4606 51.5501 81.8206 51.5701 82.0406C51.5701 82.0606 51.5601 82.0606 51.5501 82.0706C51.5801 82.0406 51.6001 82.0406 51.6201 82.0406C51.6101 82.1406 51.6201 82.2306 51.5901 82.2706C51.5901 82.2106 51.5901 82.2006 51.5801 82.1706V82.2806C51.5201 82.3706 51.5801 82.1306 51.5501 82.1306C51.5301 82.3406 51.5701 82.5906 51.5501 82.7506C51.5001 82.7806 51.5501 82.3706 51.5001 82.5806L51.5301 82.3306C51.4501 82.5206 51.5401 82.1806 51.4601 82.3506C51.4301 82.6806 51.4601 82.7206 51.4301 83.0506C51.4501 83.1306 51.4701 83.0306 51.4901 83.1006C51.5301 83.5706 51.3801 83.4706 51.4401 83.8206C51.4701 83.9106 51.5201 83.9406 51.5101 84.1906L51.4501 84.1106C51.4701 84.4306 51.5401 84.2906 51.5201 84.6306C51.5001 84.5706 51.4901 84.3806 51.4801 84.4306C51.4501 84.6506 51.5201 84.5806 51.5301 84.7506L51.4901 84.7906C51.5401 85.1306 51.6101 85.5006 51.6901 85.8706C51.6701 85.8506 51.6501 85.7906 51.6501 85.8706L51.9601 87.3206L52.0501 87.4806C52.0501 87.4806 52.0501 87.5606 52.0401 87.5206C52.0801 87.7006 52.0701 87.5206 52.1101 87.6006C52.1401 87.7006 52.1301 87.7406 52.1001 87.6806C52.2201 87.9806 52.4701 88.5106 52.5701 88.8306L52.5301 88.7806C52.6401 89.0206 52.7401 89.0106 52.8201 89.2406L52.7901 89.2006C52.9001 89.4606 53.0601 89.7206 53.2301 89.9406C53.4001 90.1706 53.5301 90.4006 53.6601 90.5706C53.7601 90.5906 54.0201 91.0006 54.1001 90.9806C54.2901 91.2506 54.2301 91.1806 54.5601 91.5006C54.6501 91.5806 54.7301 91.5806 54.8501 91.6706L54.8301 91.7006C54.8901 91.7306 54.9501 91.7706 55.0201 91.7906L55.0801 91.8906L55.2001 91.9606C55.2001 91.9606 55.1101 91.8806 55.1201 91.8706C55.3101 91.9806 55.5501 92.1906 55.5501 92.2106C55.7001 92.3006 55.8601 92.3706 56.0201 92.4406C56.0001 92.4406 55.9201 92.4106 55.8501 92.3906C56.1201 92.4806 55.8801 92.4506 56.1201 92.5306C56.0901 92.5106 56.1501 92.5206 56.1601 92.5106C56.2701 92.5806 56.5201 92.7406 56.7301 92.7906H56.6801C57.0501 92.9406 57.4501 93.1006 57.8801 93.1906C57.7301 93.1406 57.7801 93.1006 57.9001 93.1306L57.9401 93.1806C58.0301 93.1806 57.8201 93.1306 57.9901 93.1406C58.1501 93.1806 58.0801 93.2106 57.9901 93.2106L58.1901 93.2406C58.1901 93.2406 58.1501 93.2506 58.1401 93.2606C58.2201 93.2606 58.4601 93.3906 58.5901 93.3506C59.0201 93.4206 59.2201 93.4606 59.5801 93.4606C59.5801 93.4206 59.7301 93.4406 59.8301 93.4106C60.0901 93.4306 60.3801 93.4806 60.6901 93.4406C60.9101 93.4006 60.7501 93.4006 60.8501 93.3706C60.8701 93.4006 61.1801 93.3706 61.0201 93.4106C61.4001 93.3806 61.5001 93.3406 61.9601 93.2206C61.9101 93.2206 61.8501 93.2206 61.8801 93.2006C61.9601 93.1806 62.0801 93.1806 62.0701 93.2006H62.0501C62.5501 93.0406 63.2701 92.9506 63.6201 92.6806H63.6001L63.9801 92.4706C64.1701 92.3906 63.8801 92.5506 64.0301 92.5006C64.4001 92.1906 64.6801 92.1106 64.9701 91.8406C65.2701 91.7206 65.7901 91.1306 66.0801 90.8506H66.0501C66.1001 90.7606 66.1501 90.7706 66.2001 90.7106C66.1801 90.7106 66.1101 90.7806 66.1401 90.7206C66.7001 90.0206 67.2801 89.2606 67.7101 88.4406C67.8601 88.1406 67.6801 88.2206 67.9201 87.8606V87.9906C68.1301 87.3506 68.4301 86.7106 68.5601 86.0506C68.5601 86.0906 68.5701 86.1006 68.5601 86.1606C68.6301 86.0306 68.7101 85.6606 68.6801 85.6506C68.7001 85.5506 68.7101 85.6306 68.7301 85.5706C68.7801 85.4406 68.7601 85.2206 68.8101 85.1506C68.8101 85.1406 68.8101 85.1906 68.8101 85.2206C68.8101 85.1306 68.9001 84.8006 68.8501 84.8806C68.9301 84.6406 68.9101 84.4106 68.9601 84.2206C68.9401 84.0906 69.0401 83.8006 68.9801 83.7506C69.0501 83.7806 69.0701 83.3206 69.0401 83.1606C69.0601 83.2106 69.0701 83.0206 69.0901 83.0906C69.0901 82.9106 69.0901 82.7506 69.0601 82.7806C69.1601 82.4506 68.9901 82.1206 69.0901 81.9306C69.0601 81.4006 68.9401 80.9106 68.8701 80.4406C68.9301 80.4406 68.9401 80.9606 69.0001 80.9406C68.9301 80.4906 68.8301 80.2406 68.7301 79.8006C68.7101 79.6806 68.7701 79.8606 68.7901 79.8906C68.6801 79.4506 68.5601 79.0406 68.4001 78.6706C68.4001 78.6706 68.4301 78.7106 68.4401 78.7506C68.4101 78.6806 68.3901 78.5706 68.3601 78.5906L68.3901 78.6606C68.3901 78.7906 68.2201 78.3906 68.1801 78.3906C68.3101 78.4806 68.0201 78.0206 68.2101 78.1806C68.1801 78.1306 68.1401 78.0806 68.1301 78.1006C68.1001 78.0306 68.1001 78.0006 68.1501 78.0606C68.0101 77.8106 68.0301 77.9106 67.9201 77.6806C67.9301 77.6806 67.9601 77.7206 67.9801 77.7406C67.9001 77.6306 67.8301 77.5206 67.7101 77.3406C67.7201 77.3406 67.7101 77.3206 67.7501 77.3806C67.5301 77.0706 67.3701 76.8706 67.1201 76.5406C67.2401 76.6006 67.0401 76.4206 67.0701 76.3706L66.9101 76.2106L66.9501 76.2906C66.8201 76.1406 66.6901 76.0406 66.5801 75.9006C66.6201 75.9306 66.6501 75.9606 66.6901 75.9906C66.6101 75.9006 66.5101 75.8206 66.4301 75.7406L66.5701 75.8906C66.4101 75.7806 66.5401 75.9506 66.3601 75.7706C66.4001 75.8006 66.2201 75.6406 66.1601 75.5506C66.0801 75.5006 66.0001 75.4406 65.9001 75.3406C65.8801 75.3006 65.9601 75.3206 65.9501 75.2906C65.8601 75.2506 65.5901 75.0206 65.4701 74.9806C65.5101 75.0006 65.5301 74.9806 65.5201 74.9606L65.4401 74.9406C65.3801 74.8806 65.3701 74.8606 65.3901 74.8606C65.1801 74.6906 65.4201 74.9606 65.1801 74.7506C65.2001 74.7606 65.1901 74.7506 65.2401 74.7806C65.0001 74.5706 64.7101 74.4606 64.4801 74.2806C64.4301 74.1906 64.7001 74.4106 64.6401 74.3206C64.2801 74.0806 63.8401 73.9506 63.4901 73.7406L63.5601 73.7806C63.4801 73.8106 63.2901 73.6306 63.0901 73.5806C63.1401 73.5906 63.1701 73.5706 63.1501 73.5806C62.8901 73.4606 62.6101 73.3706 62.1901 73.2806H62.2501C62.0901 73.2206 61.8401 73.1306 61.6601 73.1006C61.6001 73.1006 61.5001 73.0906 61.5601 73.1206C61.0401 72.9006 60.5101 73.0206 60.0301 72.9006C60.0901 72.9006 60.1701 72.9006 60.1201 72.8906C59.9801 72.8906 59.8401 72.9106 59.7001 72.9106C59.7301 72.9406 59.7601 72.9306 59.8401 72.9506C59.7901 72.9706 59.6701 72.9906 59.5701 72.9906C59.7601 72.9606 59.5701 72.9406 59.4801 72.9306C59.4901 72.9306 59.4701 72.9506 59.4801 72.9606C59.2601 72.9106 59.4501 73.0206 59.1501 73.0006V72.9806C59.0501 73.0006 58.9601 73.0406 58.8401 73.0506C58.7901 73.0206 58.9501 73.0206 58.9601 72.9906C58.7901 73.0206 58.6401 73.1006 58.4901 73.0906L58.7301 73.0406C58.5601 73.0206 58.5401 73.0406 58.4201 73.0406H58.4301C58.3301 73.0406 58.2401 73.0706 58.1501 73.0906H58.2201C58.0401 73.2306 57.8101 73.2106 57.5501 73.3406C57.8001 73.2106 57.5801 73.3006 57.5901 73.2506C57.5101 73.2506 57.4101 73.2906 57.4301 73.2706C57.3201 73.3506 57.2101 73.3306 57.0501 73.4506C57.0401 73.4506 56.9201 73.5006 56.9301 73.4606C56.7701 73.5406 56.9801 73.4606 56.9701 73.4906C56.7301 73.6106 56.3801 73.7306 56.0601 73.9606C55.7901 74.1506 55.7701 74.2406 55.5301 74.4406C55.4301 74.4806 55.5701 74.3506 55.5701 74.3506C55.4201 74.4406 55.3201 74.5106 55.2101 74.6206C55.2301 74.5906 55.2001 74.6006 55.1501 74.6206C55.0601 74.7106 55.1201 74.7106 54.9801 74.8106C54.9901 74.7806 55.0001 74.7406 55.0401 74.6806L54.7401 75.0306C54.7401 75.0306 54.7801 74.9406 54.8201 74.8906C54.7001 75.0206 54.5001 75.2106 54.5001 75.2906L54.5801 75.2106C54.5801 75.2106 54.5301 75.2106 54.5601 75.1706C54.6501 75.0506 54.7301 75.0306 54.7401 75.0306L54.6601 75.1106C54.8001 75.0906 54.9801 74.8006 55.1401 74.6506L55.1101 74.7606L55.2501 74.5706C55.2501 74.5706 55.3401 74.5506 55.2601 74.6306C55.4001 74.5506 55.3601 74.5306 55.4901 74.4706C55.5101 74.4706 55.5001 74.4706 55.4901 74.4806L55.6101 74.3806C55.6101 74.3806 55.6501 74.4006 55.5701 74.4506C55.8101 74.3106 55.9101 74.1506 56.0201 74.1306L56.0001 74.1506C56.3201 73.9406 56.0001 74.1006 56.2401 73.9106H56.4601V73.8506C56.4601 73.8506 56.5801 73.8006 56.5701 73.8206C56.6901 73.7206 56.5401 73.8206 56.6001 73.7506C56.7801 73.6806 57.0801 73.5206 57.1401 73.5606C57.1901 73.5106 56.9601 73.6106 57.1401 73.5106C57.2201 73.5506 57.3601 73.4106 57.5301 73.3706C57.4901 73.4206 57.3301 73.4706 57.5001 73.4306C57.5801 73.3306 57.8301 73.3506 57.9701 73.3006C57.9701 73.2606 58.2701 73.1806 58.5101 73.1406C58.5001 73.1606 58.9701 73.1006 59.2001 73.0806C59.2001 73.0806 59.4801 73.0406 59.6501 73.0306C59.6501 73.0606 59.6101 73.0706 59.5201 73.0906H59.6801C59.6801 73.0906 59.7701 73.0606 59.8701 73.0506L59.8301 73.0906C60.0401 73.0706 60.2601 73.0606 60.5401 73.1106C60.5601 73.0806 60.3301 73.0006 60.6201 73.0006C60.6201 73.0206 60.6401 73.0506 60.5601 73.0506C60.5901 73.0506 60.6501 73.0506 60.7001 73.0506L60.5801 73.0706C60.7001 73.0906 60.6501 73.0506 60.7501 73.0706C60.7501 73.1006 60.8201 73.0906 60.8101 73.1106C60.7801 73.1106 60.7201 73.0906 60.6801 73.1006C60.7901 73.1106 60.9301 73.1406 60.9701 73.1706C60.9701 73.1506 60.9701 73.1306 61.0601 73.1506C61.2701 73.1906 61.1301 73.1906 61.2501 73.2306C61.3001 73.2306 61.4401 73.2706 61.4501 73.2306C61.5101 73.2406 61.5201 73.2606 61.5401 73.2806C61.6601 73.2806 62.0401 73.4006 61.9301 73.3306C62.2901 73.3906 62.6601 73.5506 62.9901 73.6806L63.5901 73.9106C63.6501 73.9406 63.7101 74.0006 63.6801 74.0006C63.8301 74.0706 63.8601 74.0606 64.0601 74.1906C63.9001 74.1306 64.1001 74.2306 63.9001 74.1306C64.0801 74.2406 64.1201 74.2706 64.3401 74.3606C64.2601 74.3506 64.4501 74.4806 64.5501 74.5306L64.4401 74.4306C64.5401 74.4906 64.6201 74.5406 64.7101 74.6006H64.6401C64.9901 74.8706 65.3401 74.9906 65.5501 75.2606C65.6601 75.3106 65.3701 75.1006 65.4801 75.1306C65.6401 75.2606 65.7701 75.4306 65.8101 75.4806C66.0001 75.6806 66.0401 75.6106 66.2401 75.8106C66.2201 75.7706 66.2301 75.7206 66.4001 75.8606C66.5501 76.0006 66.5401 76.0806 66.4301 76.0006C66.3901 75.9706 66.3801 75.9506 66.3801 75.9506C66.3301 75.9106 66.2601 75.8606 66.3101 75.9206H66.3401C66.4101 76.0006 66.6001 76.2006 66.5301 76.1706C66.6401 76.2706 66.5901 76.2006 66.5301 76.1106C66.6801 76.3206 66.7901 76.4106 66.9501 76.6206C66.9301 76.5806 66.9201 76.5406 66.9501 76.5706C67.1901 76.8806 67.1001 76.6706 67.2501 76.8906C67.3101 77.0306 67.1701 76.8806 67.3401 77.0906C67.4201 77.2306 67.3201 77.1406 67.2801 77.0906C67.4401 77.2706 67.5101 77.4806 67.5801 77.5906L67.5001 77.4906C67.5501 77.5506 67.5801 77.6006 67.6101 77.6506C67.6101 77.6206 67.6101 77.6006 67.6101 77.5706C67.6501 77.6306 67.6701 77.6906 67.6601 77.7006C67.7101 77.7606 67.6801 77.6206 67.7701 77.7506C67.8001 77.8506 67.9201 78.0206 67.9001 78.0706C67.7801 77.7806 67.8801 78.1206 67.7601 77.8806C67.7901 77.9206 67.8101 77.9806 67.8401 78.0506C67.8401 78.0606 67.8301 78.0506 67.8201 78.0306C67.9201 78.3106 67.9201 78.1306 68.0601 78.4106C68.0201 78.3806 68.0601 78.4906 68.0701 78.5406C68.0201 78.4306 68.0901 78.4706 68.1401 78.5706C68.1901 78.7706 68.2201 78.7706 68.2601 78.8706L68.2301 78.7506C68.2301 78.7506 68.3001 78.8806 68.3501 79.0106C68.3401 79.0306 68.3001 78.8906 68.3101 78.9406C68.4001 79.0706 68.3901 79.2806 68.4801 79.4806C68.4801 79.5806 68.4401 79.5006 68.4501 79.5906C68.5301 79.8206 68.4801 79.8506 68.5601 80.0906C68.5701 80.0106 68.5601 80.0006 68.6301 80.1706L68.5101 79.7706L68.6201 80.0206C68.5901 79.9006 68.5401 79.7606 68.5301 79.6906C68.5801 79.8106 68.5701 79.8006 68.5901 79.7306C68.5901 79.9106 68.6901 80.0606 68.7101 80.2606H68.6301C68.6601 80.5706 68.7501 80.7906 68.7801 81.1806V81.0506C68.7801 81.0506 68.8101 81.2906 68.8401 81.4106C68.8101 81.4106 68.8101 81.4806 68.7901 81.5406C68.8101 81.5406 68.7901 81.8206 68.8501 81.8606L68.8201 82.0406C68.8201 82.3506 68.9201 82.4006 68.8901 82.7006C68.8701 82.6106 68.8401 82.7506 68.8301 82.5406C68.8301 82.6406 68.8201 82.7306 68.8301 82.7306C68.8101 82.7906 68.8501 83.0106 68.8301 83.1006C68.8301 83.1406 68.8701 83.1606 68.8601 83.2706C68.8601 83.2806 68.8501 83.2706 68.8501 83.2706C68.8601 83.2706 68.8501 83.4506 68.8901 83.3506C68.8001 83.6606 68.7901 84.2206 68.6901 84.4806C68.6701 84.7006 68.6101 84.9606 68.5701 85.1606C68.5701 85.1506 68.5601 85.1606 68.5701 85.1206C68.4901 85.3906 68.6101 85.3006 68.5201 85.6106C68.4401 85.7606 68.5301 85.4406 68.5001 85.5306C68.4201 85.5506 68.4101 85.9006 68.3001 86.0906V86.0406C68.2301 86.1906 68.2301 86.4306 68.1501 86.6806C68.1501 86.6806 68.1501 86.6706 68.1401 86.6806C68.1201 86.8606 68.0101 87.1906 67.9201 87.4306C67.9201 87.3406 67.9501 87.3106 67.9001 87.3506C67.8601 87.4606 67.9601 87.3406 67.8901 87.5606C67.8501 87.6206 67.7701 87.7706 67.7201 87.7706C67.7501 87.7106 67.7801 87.6406 67.8101 87.5706C67.7301 87.6606 67.6901 87.8206 67.6401 87.9206V87.9006C67.4901 88.2006 67.5301 88.2306 67.3801 88.5406L67.4101 88.5106C67.3701 88.7106 67.3101 88.6406 67.2401 88.8306L67.1601 88.8506C67.1101 88.9706 66.9701 89.2606 66.8601 89.4606C66.8901 89.3306 67.0101 89.0906 67.0801 88.9306C67.0101 89.0406 66.8601 89.3006 66.8501 89.3706C66.8701 89.3206 66.8901 89.2606 66.9301 89.2206C66.8901 89.3806 66.8001 89.5606 66.6401 89.7606C66.5801 89.6606 66.2401 90.2906 66.0501 90.3706C65.7801 90.7206 65.4601 91.0306 65.0701 91.3506C65.2601 91.2906 64.9601 91.4506 65.0301 91.4906C64.9401 91.5706 64.9101 91.6006 64.9001 91.6106C64.8001 91.6806 64.6901 91.7306 64.5801 91.7806C64.4901 91.8106 64.6701 91.7006 64.6501 91.6906C64.4301 91.8306 64.5401 91.7206 64.3801 91.8006C64.4301 91.8006 64.3301 91.8806 64.2001 91.9606L64.4001 91.8806C64.1101 92.1106 64.1101 92.0206 63.8001 92.2106L63.8901 92.1406C63.7301 92.2306 63.2701 92.4406 63.1201 92.5806C63.0801 92.5806 63.0301 92.5806 63.1201 92.5406C62.6901 92.6706 62.1901 92.9406 61.8201 92.9406L61.8501 92.9106C61.7701 92.9306 61.7101 92.9806 61.6101 92.9806C61.6101 92.9806 61.6401 92.9506 61.6101 92.9606C61.5701 92.9706 61.4001 93.0506 61.2801 93.0406C61.3101 93.0306 61.3401 93.0206 61.3701 93.0106C60.9301 93.0206 60.7001 93.1306 60.3301 93.1606C60.3301 93.1006 59.9801 93.0706 59.8101 93.0606C59.3001 93.0406 58.9401 93.0106 58.4601 92.9606C58.1801 92.8306 57.4901 92.7006 57.0601 92.4706C57.1201 92.5106 57.0301 92.5106 56.9501 92.4806C56.8501 92.4406 56.6501 92.4006 56.6901 92.3606L56.7301 92.3806C56.6801 92.2906 56.4701 92.2006 56.3101 92.1206L56.2501 92.1706C56.0601 92.0306 55.7901 91.8806 55.5601 91.7306C55.3201 91.5906 55.1001 91.4606 55.0301 91.3306L54.7301 91.1206L54.7601 91.1006C54.5201 90.9006 54.4201 90.7806 54.1501 90.5006L54.2201 90.5406C54.0801 90.3806 53.9501 90.4106 53.8101 90.2606V90.1806C53.6001 89.8606 53.3901 89.5406 53.1801 89.2306C53.1801 89.2306 53.2101 89.2306 53.2401 89.2906C53.1601 89.1306 52.9601 88.6606 52.9201 88.7506C52.9601 88.7306 52.7501 88.4006 52.6601 88.2106L52.7101 88.2306C52.6001 88.0806 52.5901 88.0806 52.4901 87.8606C52.4801 87.8006 52.5001 87.8006 52.5201 87.8806C52.4801 87.6906 52.4401 87.7506 52.3901 87.5206L52.4401 87.6006C52.3801 87.4106 52.3701 87.4306 52.3101 87.3306C52.2501 87.2206 52.2101 86.9606 52.2401 86.9306C52.2101 86.9106 52.1601 86.8106 52.1401 86.6906C52.1401 86.6706 52.1701 86.7106 52.1801 86.7306C52.1201 86.4006 52.0201 86.2606 52.0101 86.0206C52.0201 86.0206 52.0201 86.0006 52.0201 85.9806L52.1101 86.4306C52.1101 86.4306 52.1001 86.2106 52.1801 86.3706C52.1201 86.2106 52.0101 85.9306 51.9901 85.7206C51.9901 85.7206 51.9901 85.6306 51.9701 85.5906V85.4206C51.9701 85.4206 51.9401 85.1806 51.9301 85.0706C51.8901 85.0806 51.8801 84.9406 51.8701 85.0706C51.8701 85.0506 51.8701 85.0906 51.8901 85.1606V85.2006L51.9301 85.4606C51.9001 85.3806 51.8701 85.2906 51.8801 85.1706L51.8001 85.0306C51.8301 84.8806 51.8301 84.6006 51.8601 84.5506C51.8101 84.2306 51.7901 83.7906 51.7301 83.5806C51.7301 83.4906 51.7501 83.4706 51.7601 83.4406C51.7601 83.4906 51.7601 83.5606 51.7801 83.5906C51.7601 83.4106 51.7601 83.0406 51.7301 83.0006C51.7601 82.7706 51.7701 83.1306 51.7801 82.8106V82.8506C51.9001 82.2306 51.7301 81.8106 51.9501 81.1306C51.9401 81.1806 51.9301 81.2006 51.9201 81.2106C52.0801 80.4306 52.2401 79.5906 52.5701 78.8706C52.6701 78.6706 52.6501 78.6306 52.6801 78.5006L52.7401 78.4706L52.7801 78.2306C52.8901 77.9206 53.1101 77.7506 53.2501 77.3606L53.2001 77.3906C53.2801 77.2606 53.4301 76.9706 53.4401 77.0106C53.4401 76.9906 53.4401 76.9506 53.4801 76.9106H53.5001C53.5501 76.8106 53.6001 76.6906 53.6601 76.5806C53.8401 76.3506 53.7001 76.6606 53.9501 76.3206C54.0301 76.1906 54.1501 75.9206 54.1101 75.9606C54.0701 76.0106 54.0101 76.0806 53.9901 76.0806L54.0601 75.9606C54.0301 75.9006 54.0401 75.7706 53.8001 76.0406L53.6901 76.2706L53.6201 76.3206L53.7401 76.1506C53.6501 76.2306 53.6301 76.3106 53.5901 76.3906C53.5701 76.3906 53.5401 76.4206 53.5001 76.4606C53.4701 76.5406 53.4401 76.6106 53.4201 76.7006C53.3801 76.7106 53.4301 76.5806 53.3401 76.7106C53.3101 76.8206 53.4401 76.6406 53.3601 76.8206C53.2801 76.9106 53.2701 76.8706 53.2201 77.0006C53.2001 77.0006 53.2001 76.9806 53.2201 76.9306C53.1701 77.0506 53.0601 77.2206 53.0601 77.2906C52.9601 77.3806 52.8801 77.6706 52.8301 77.6306C52.8301 77.6706 52.7801 77.8506 52.7301 77.9506C52.7601 77.7306 52.5401 78.3306 52.5001 78.2606C52.5001 78.4306 52.3101 78.7906 52.2601 79.0606C52.2601 79.0406 52.2601 79.0106 52.2701 78.9906C52.2201 79.1306 52.1901 79.1706 52.1401 79.2606C52.1801 79.3006 52.1201 79.5306 52.1101 79.6606C52.0001 79.8206 52.0901 79.5306 52.0201 79.5806C52.0601 79.5806 51.9601 79.9006 52.0201 79.8506C51.9601 79.9806 51.9801 79.9706 51.9201 80.0306C51.9801 80.0706 51.9001 80.1606 51.9101 80.2906C51.8301 80.4806 51.8401 80.3306 51.8001 80.5506C51.7501 80.6506 51.7801 80.4506 51.7801 80.4506L51.7201 80.4606ZM51.7201 85.8606L51.7001 85.7506L51.7201 85.8606ZM51.8101 86.3106L51.7701 86.1206C51.7701 86.1206 51.8001 86.1206 51.8001 86.1606C51.7901 86.1406 51.8001 86.2406 51.8001 86.3106H51.8101ZM51.9001 85.3306C51.9101 85.4006 51.9101 85.4206 51.9001 85.4306L51.8801 85.3106C51.8801 85.3106 51.9001 85.3106 51.9001 85.3306V85.3306Z" fill="#7A5751"/>
<path d="M61.97 73.3205H61.98L61.96 73.3105L61.97 73.3205Z" fill="#7A5751"/>
<path d="M54.8303 91.7097L54.8403 91.6997L54.8003 91.6797L54.8303 91.7097Z" fill="#7A5751"/>
<path d="M58.44 73.041C58.39 73.041 58.34 73.051 58.29 73.061C58.36 73.051 58.4 73.041 58.44 73.041Z" fill="#7A5751"/>
<path d="M57.6301 73.2305C57.6301 73.2305 57.6301 73.2405 57.6201 73.2505V73.2305H57.6301Z" fill="#7A5751"/>
<path d="M68.4702 78.75V78.78C68.5102 78.85 68.4902 78.8 68.4702 78.75Z" fill="#7A5751"/>
<path d="M66.2002 75.5615L66.3102 75.6315C66.3102 75.6315 66.2202 75.5415 66.2002 75.5615Z" fill="#7A5751"/>
<path d="M66.4401 75.7509C66.3901 75.7009 66.3501 75.6609 66.3101 75.6309C66.3501 75.6709 66.4001 75.7209 66.4401 75.7509Z" fill="#7A5751"/>
<path d="M54.5803 75.1406L54.5503 75.1606V75.1706L54.5803 75.1406Z" fill="#7A5751"/>
<path d="M54.55 75.1699L54.52 75.2099C54.52 75.2099 54.54 75.1799 54.55 75.1699Z" fill="#7A5751"/>
<path d="M54.4702 75.2909L54.5202 75.2109C54.5202 75.2109 54.4702 75.2609 54.4702 75.2909Z" fill="#7A5751"/>
<path d="M55.6899 74.2109C55.6199 74.2509 55.5099 74.3109 55.4199 74.3809C55.4199 74.3809 55.6399 74.2709 55.6899 74.2109Z" fill="#7A5751"/>
<path d="M56.9702 73.6602C56.8802 73.6902 56.8002 73.7201 56.7202 73.7701C56.7702 73.7601 56.8302 73.7502 56.7202 73.8102C57.0502 73.6902 56.6402 73.8002 56.9702 73.6602Z" fill="#7A5751"/>
<path d="M57.78 73.3811C57.64 73.4211 57.78 73.4011 57.78 73.4111C57.87 73.3711 57.89 73.3611 57.78 73.3811Z" fill="#7A5751"/>
<path d="M63.76 74.041L63.73 74.061C63.83 74.111 63.73 74.051 63.76 74.041Z" fill="#7A5751"/>
<path d="M64.88 74.4804L64.8 74.4104L64.73 74.4004L64.88 74.4804Z" fill="#7A5751"/>
<path d="M65.31 75.0905L65.27 75.0605L65.43 75.1705L65.31 75.0905Z" fill="#7A5751"/>
<path d="M68.6602 84.2813L68.7102 84.2513C68.7102 84.1713 68.6702 84.1513 68.6602 84.2813Z" fill="#7A5751"/>
<path d="M67.34 88.541C67.34 88.541 67.23 88.681 67.21 88.761C67.27 88.681 67.33 88.591 67.34 88.541Z" fill="#7A5751"/>
<path d="M56.0202 92.0808L56.1002 92.1108L55.9502 92.0508L56.0202 92.0808Z" fill="#7A5751"/>
<path d="M124.22 78.4794C125.58 75.6294 127.85 77.7494 127.94 79.3194C128.03 80.8894 127.77 83.1094 126.08 82.9494C124.39 82.7894 123.55 79.8894 124.22 78.4794Z" fill="white"/>
<path d="M124.3 78.5198C124.3 78.5198 124.27 78.4998 124.26 78.5198L124.29 78.5498V78.5098L124.3 78.5198Z" fill="white"/>
<path d="M124.17 78.6308C124.17 78.6308 124.2 78.7008 124.25 78.7008C124.22 78.6608 124.24 78.6608 124.2 78.6208C124.2 78.6008 124.23 78.5908 124.24 78.6008C124.24 78.5908 124.26 78.5708 124.24 78.5508C124.2 78.5608 124.18 78.6008 124.2 78.6408C124.19 78.6408 124.18 78.6408 124.17 78.6308Z" fill="white"/>
<path d="M123.93 80.2309V80.2209L123.91 80.2109L123.93 80.2309Z" fill="white"/>
<path d="M123.88 79.75C123.88 79.75 123.92 79.76 123.93 79.77C123.91 79.77 123.91 79.76 123.9 79.75C123.9 79.75 123.88 79.75 123.87 79.75H123.88Z" fill="white"/>
<path d="M124.21 78.4809V78.4709L124.2 78.4609L124.21 78.4809Z" fill="white"/>
<path d="M128.01 81.0599C128.01 81.0599 127.98 80.9799 127.93 81.0399C127.95 81.0399 127.98 81.1099 128.01 81.0599Z" fill="white"/>
<path d="M127.94 81.0391L127.93 81.0491L127.94 81.0391Z" fill="white"/>
<path d="M126.86 82.9397L126.85 82.9297L126.84 82.9397H126.86Z" fill="white"/>
<path d="M125.42 77.3403C125.42 77.3403 125.4 77.3303 125.39 77.3203C125.41 77.3403 125.36 77.3803 125.42 77.3403Z" fill="white"/>
<path d="M124.16 78.9395C124.16 78.9395 124.17 78.9394 124.17 78.9494L124.16 78.9395Z" fill="white"/>
<path d="M126.63 82.7109C126.63 82.7109 126.66 82.7209 126.67 82.7209H126.63V82.7109Z" fill="white"/>
<path d="M125.13 77.5891C125.13 77.5891 125.12 77.5291 125.11 77.4991C125.15 77.4391 125.15 77.4991 125.19 77.5091C125.22 77.4791 125.22 77.4291 125.25 77.4091C125.25 77.4091 125.26 77.4091 125.26 77.4291C125.28 77.3691 125.37 77.3591 125.39 77.2891H125.4C125.4 77.2891 125.37 77.2591 125.36 77.2391C125.38 77.2191 125.39 77.1891 125.41 77.2191C125.39 77.2191 125.4 77.2391 125.4 77.2491L125.42 77.2291C125.42 77.2291 125.39 77.2491 125.41 77.2891C125.45 77.2591 125.5 77.2091 125.54 77.2091C125.56 77.2491 125.46 77.2491 125.52 77.2691H125.46C125.53 77.3191 125.42 77.2691 125.49 77.3391C125.57 77.3391 125.56 77.2891 125.64 77.2891C125.65 77.2591 125.63 77.2591 125.64 77.2291C125.74 77.1491 125.74 77.3291 125.81 77.2591C125.83 77.2291 125.83 77.1691 125.89 77.1991L125.87 77.2491C125.94 77.2491 125.91 77.1691 125.99 77.2091C125.97 77.2191 125.93 77.2291 125.94 77.2291C125.99 77.2691 125.98 77.1991 126.02 77.2091V77.2591C126.1 77.2691 126.2 77.2391 126.29 77.2591C126.29 77.2691 126.26 77.2791 126.28 77.2991C126.39 77.3191 126.51 77.3791 126.58 77.4691H126.64V77.4791C126.67 77.5091 126.65 77.4591 126.68 77.4591C126.7 77.4691 126.7 77.4991 126.68 77.4991C126.77 77.4991 126.9 77.5691 126.94 77.6591H126.92C126.96 77.7091 127.03 77.6391 127.05 77.7091H127.04C127.12 77.8191 127.27 77.8991 127.28 78.0291C127.34 78.0091 127.34 78.1591 127.41 78.1191C127.43 78.2091 127.41 78.1891 127.44 78.2991C127.45 78.3291 127.5 78.3091 127.53 78.3391L127.49 78.3591L127.55 78.3791L127.52 78.4291L127.55 78.4491C127.55 78.4491 127.55 78.4191 127.56 78.4091C127.61 78.4491 127.59 78.5391 127.57 78.5491L127.65 78.6491C127.65 78.6491 127.62 78.6391 127.6 78.6291C127.67 78.6791 127.56 78.6591 127.62 78.6991C127.62 78.6891 127.64 78.6991 127.65 78.6991C127.65 78.7391 127.67 78.7991 127.69 78.8491H127.66C127.67 78.9391 127.74 79.0291 127.74 79.1291C127.74 79.0891 127.8 79.0891 127.81 79.1291L127.77 79.1491C127.77 79.1491 127.78 79.1191 127.82 79.1491C127.82 79.1891 127.77 79.1791 127.76 79.1591L127.78 79.1991C127.78 79.1991 127.76 79.1991 127.74 79.1991C127.77 79.2191 127.71 79.2791 127.76 79.3091H127.75L127.78 79.5591C127.78 79.5591 127.81 79.5991 127.84 79.6191C127.83 79.6891 127.8 79.7591 127.8 79.8391C127.82 79.8991 127.83 79.8591 127.85 79.8791C127.82 79.8791 127.82 79.9591 127.79 79.9191C127.79 80.0191 127.79 80.0391 127.82 80.1591C127.83 80.1491 127.84 80.1291 127.85 80.1391C127.85 80.1591 127.83 80.1891 127.82 80.1891C127.87 80.3191 127.7 80.4891 127.76 80.5991L127.78 80.7091C127.77 80.7591 127.76 80.6791 127.73 80.7091C127.77 80.8391 127.7 80.8991 127.72 80.9991C127.61 81.0591 127.68 81.2691 127.59 81.3491H127.61C127.61 81.3491 127.59 81.3791 127.58 81.3991C127.6 81.3991 127.61 81.3791 127.62 81.3991C127.59 81.6291 127.46 81.8291 127.34 82.0091C127.3 82.0791 127.43 82.1091 127.33 82.1691L127.31 82.1191C127.27 82.2891 127.13 82.3891 127.05 82.5191C127.05 82.5091 127.05 82.4991 127.05 82.4891C127.01 82.4891 126.96 82.5691 126.98 82.5891C126.96 82.5991 126.96 82.5691 126.94 82.5691C126.9 82.5691 126.9 82.6491 126.87 82.6291C126.87 82.6291 126.87 82.6191 126.87 82.6091C126.87 82.6291 126.79 82.6591 126.82 82.6791C126.76 82.6791 126.73 82.7291 126.68 82.7291C126.67 82.7791 126.59 82.7491 126.59 82.7991C126.58 82.7391 126.48 82.7691 126.45 82.7991C126.45 82.7791 126.42 82.7891 126.43 82.7591C126.39 82.7691 126.35 82.7791 126.36 82.8091C126.28 82.7391 126.2 82.8691 126.16 82.7691C126.04 82.7991 125.92 82.7891 125.8 82.7691C125.82 82.7191 125.93 82.7891 125.93 82.7291C125.82 82.7391 125.75 82.7591 125.65 82.6991C125.63 82.6791 125.68 82.6791 125.69 82.6791C125.58 82.6691 125.51 82.5891 125.41 82.5591C125.41 82.5591 125.43 82.5591 125.44 82.5591C125.42 82.5591 125.41 82.5291 125.39 82.5591H125.41C125.41 82.6091 125.3 82.5891 125.28 82.5991C125.35 82.5591 125.21 82.5291 125.31 82.4791C125.3 82.4791 125.28 82.4791 125.27 82.4891C125.26 82.4691 125.27 82.4591 125.29 82.4591C125.23 82.4291 125.23 82.4591 125.18 82.4191C125.18 82.4191 125.2 82.4191 125.22 82.4091C125.18 82.4091 125.14 82.4091 125.1 82.3591C125.1 82.3591 125.11 82.3391 125.12 82.3591C125.05 82.3091 124.96 82.2891 124.91 82.1991C124.97 82.1891 124.91 82.1591 124.94 82.1291L124.89 82.0991V82.1291C124.89 82.1291 124.8 82.0791 124.79 82.0291L124.83 82.0491L124.77 81.9791V82.0291C124.77 82.0291 124.73 82.0691 124.71 82.0091C124.72 82.0091 124.68 81.9691 124.69 81.9291C124.69 81.9291 124.63 81.9091 124.62 81.8691C124.62 81.8491 124.67 81.8491 124.68 81.8391C124.63 81.8391 124.61 81.7491 124.56 81.7391C124.57 81.7391 124.6 81.7391 124.6 81.7291H124.56C124.56 81.7291 124.56 81.6991 124.58 81.6891C124.55 81.6291 124.53 81.7391 124.52 81.6491C124.52 81.6491 124.52 81.6491 124.54 81.6491C124.52 81.5691 124.44 81.5191 124.43 81.4391C124.47 81.3991 124.47 81.4991 124.49 81.4491C124.44 81.3591 124.35 81.2691 124.32 81.1591V81.1791C124.25 81.1891 124.32 81.0891 124.28 81.0491C124.28 81.0591 124.32 81.0491 124.31 81.0491C124.3 80.9791 124.25 80.9191 124.19 80.8191H124.21C124.21 80.8191 124.19 80.7191 124.19 80.6691C124.17 80.6691 124.17 80.6291 124.14 80.6591C124.21 80.4991 124.02 80.4091 124.09 80.2691C124.09 80.2791 124.11 80.2991 124.11 80.2891L124.08 80.1891C124.08 80.1891 124.06 80.2091 124.04 80.2291C124.02 80.2191 124 80.1891 124 80.1591C124.03 80.2091 124.05 80.1591 124.06 80.1291C124.06 80.1291 124.04 80.1291 124.03 80.1291C124.08 80.0691 123.96 80.1291 124 80.0491H124.02C124.02 80.0491 123.99 79.9991 123.99 79.9691C124.02 79.9491 124.01 79.9991 124.04 79.9991C124.04 79.9591 123.97 79.9191 124 79.8791L124.02 79.9391C124.02 79.9391 124.05 79.8891 124.05 79.8591V79.8091C123.96 79.7591 124.03 79.6991 123.97 79.6291C124.03 79.6991 124 79.6391 124.04 79.6491C124.05 79.6291 124.06 79.5991 124.08 79.6091C124.05 79.5791 124.11 79.5491 124.06 79.4991C124.07 79.4991 124.06 79.4591 124.09 79.4691C124.09 79.4291 124.07 79.4691 124.05 79.4691C124 79.3991 124.12 79.3191 124.07 79.2091C124.06 79.1191 124.01 79.0991 124.01 79.0191C124.04 78.9991 124.05 79.0491 124.05 79.0491C124.08 79.0091 124.08 78.9791 124.08 78.9391C124.08 78.9491 124.1 78.9391 124.12 78.9391C124.12 78.9091 124.08 78.9091 124.11 78.8691C124.12 78.8791 124.14 78.8991 124.15 78.9091L124.13 78.7891C124.13 78.7891 124.16 78.8191 124.17 78.8391C124.17 78.7891 124.18 78.7291 124.16 78.6991L124.14 78.7191C124.14 78.7191 124.17 78.7191 124.17 78.7391C124.18 78.7791 124.14 78.7891 124.13 78.7891V78.7591C124.05 78.7591 124.11 78.8791 124.1 78.9291L124.05 78.8891L124.08 78.9591C124.08 78.9591 124.03 78.9691 124.03 78.9391C123.99 78.9791 124.04 78.9791 124 79.0091V79.0491C124 79.0491 123.97 79.0491 123.98 79.0291C123.93 79.0991 124 79.1591 123.96 79.1791C123.96 79.2791 124 79.1791 124.04 79.2691L123.93 79.3091H123.97C123.97 79.3091 123.97 79.3491 123.95 79.3491C123.97 79.3891 123.97 79.3491 123.99 79.3691C123.94 79.4191 124 79.5091 123.94 79.5191C123.97 79.5391 123.96 79.4691 123.99 79.5191C123.92 79.5291 124 79.5791 123.97 79.6291C123.93 79.6191 123.95 79.5691 123.92 79.6191C123.98 79.6491 123.9 79.7091 123.92 79.7491C123.97 79.7491 123.95 79.8391 123.97 79.8991C123.95 79.8991 123.95 80.0291 123.94 80.0891C123.94 80.0891 123.99 80.1591 124 80.1991C123.97 80.1991 123.96 80.1991 123.94 80.1691V80.2091C123.94 80.2091 123.97 80.2291 123.98 80.2591H123.94C123.95 80.3091 124 80.3591 123.99 80.4391C124.02 80.4391 124.07 80.3691 124.11 80.4391C124.09 80.4391 124.06 80.4491 124.05 80.4391C124.05 80.4391 124.07 80.4591 124.06 80.4791L124.02 80.4491C124.02 80.4491 124.05 80.4591 124.05 80.4891C124.02 80.4891 124.04 80.5091 124.01 80.5091C124.01 80.5091 124.01 80.4891 124.01 80.4791C124.01 80.5091 124.01 80.5491 123.99 80.5691C124 80.5691 124.02 80.5691 124.03 80.5791C124.04 80.6391 124 80.6091 124 80.6391C124.02 80.6391 124.01 80.6891 124.05 80.6791C124.05 80.6991 124.04 80.6991 124.03 80.7091C124.05 80.7391 124.07 80.8491 124.1 80.7991C124.16 80.8791 124.14 80.9991 124.18 81.0791H124.17C124.2 81.1291 124.22 81.1991 124.26 81.2291C124.26 81.2491 124.26 81.2791 124.24 81.2691C124.27 81.3091 124.28 81.3091 124.29 81.3691C124.25 81.3391 124.28 81.3891 124.26 81.3291C124.27 81.3891 124.26 81.4091 124.31 81.4491C124.27 81.4491 124.29 81.5091 124.31 81.5291V81.4791C124.31 81.4791 124.34 81.5291 124.35 81.5591H124.3C124.3 81.6991 124.48 81.7091 124.45 81.8391C124.49 81.8491 124.44 81.7691 124.48 81.7791C124.5 81.8291 124.48 81.9091 124.48 81.9291C124.5 82.0091 124.57 81.9491 124.6 82.0291C124.6 82.0091 124.64 81.9791 124.68 82.0291C124.71 82.0791 124.66 82.1191 124.63 82.0991C124.63 82.0891 124.63 82.0791 124.63 82.0791C124.62 82.0691 124.6 82.0491 124.59 82.0791H124.61C124.61 82.0791 124.66 82.1691 124.63 82.1691C124.67 82.1991 124.66 82.1691 124.65 82.1391C124.67 82.2091 124.72 82.2291 124.75 82.2991C124.75 82.2891 124.75 82.2691 124.76 82.2691C124.81 82.3591 124.81 82.2891 124.87 82.3391C124.87 82.3891 124.82 82.3691 124.88 82.4091C124.9 82.4591 124.86 82.4491 124.83 82.4391C124.89 82.4691 124.91 82.5391 124.93 82.5791L124.89 82.5591C124.89 82.5591 124.92 82.5791 124.94 82.5891V82.5491C124.94 82.5491 124.97 82.5791 124.96 82.5891C124.99 82.5891 124.98 82.5391 125.03 82.5491C125.04 82.5791 125.1 82.5891 125.08 82.6291C125.02 82.5591 125.06 82.6691 125 82.6291C125.01 82.6291 125.03 82.6491 125.04 82.6691C125.04 82.6691 125.04 82.6691 125.03 82.6691C125.07 82.7491 125.09 82.6691 125.16 82.7091C125.14 82.7191 125.16 82.7591 125.16 82.7591C125.13 82.7391 125.16 82.7191 125.21 82.7191C125.25 82.7691 125.27 82.7391 125.29 82.7591L125.27 82.7291C125.27 82.7291 125.31 82.7291 125.35 82.7491C125.35 82.7691 125.31 82.7491 125.32 82.7491C125.38 82.7391 125.38 82.8391 125.45 82.8391C125.47 82.8691 125.43 82.8791 125.45 82.8991C125.53 82.8991 125.51 82.9591 125.59 82.9591C125.59 82.9191 125.58 82.9291 125.63 82.9191L125.51 82.8891H125.6C125.6 82.8891 125.52 82.8691 125.51 82.8491C125.55 82.8491 125.55 82.8491 125.54 82.8191C125.57 82.8791 125.64 82.8291 125.68 82.8791L125.65 82.9491C125.72 83.0191 125.81 82.9491 125.91 82.9991L125.88 82.9791C125.88 82.9791 125.95 82.9791 125.98 82.9791C125.98 83.0091 125.99 83.0191 126.01 83.0391C126.01 83.0191 126.09 83.0491 126.11 82.9991L126.16 83.0391C126.25 83.0591 126.26 82.9691 126.34 82.9791C126.32 83.0091 126.36 83.0291 126.3 83.0491C126.33 83.0491 126.36 83.0491 126.35 83.0391C126.37 83.0591 126.43 82.9891 126.45 83.0191C126.46 83.0091 126.46 82.9791 126.49 82.9691V82.9791C126.49 82.9691 126.54 82.9491 126.5 82.9291C126.61 82.9991 126.73 82.8691 126.82 82.8991C126.88 82.8691 126.94 82.8291 126.98 82.7891V82.7991C127.06 82.7791 126.98 82.7091 127.07 82.6891C127.13 82.6891 127.05 82.7291 127.07 82.7291C127.14 82.7891 127.15 82.6591 127.22 82.6491C127.27 82.6491 127.28 82.5591 127.33 82.5091C127.33 82.4391 127.37 82.3591 127.4 82.2891C127.42 82.3291 127.4 82.3291 127.43 82.3291C127.44 82.2991 127.38 82.3091 127.41 82.2491C127.44 82.2491 127.47 82.2091 127.51 82.2291L127.48 82.2791C127.54 82.2791 127.52 82.2091 127.54 82.1891H127.56C127.6 82.1191 127.56 82.0891 127.6 82.0091H127.58C127.55 81.9391 127.62 81.9791 127.61 81.9191H127.66C127.66 81.9191 127.66 81.7891 127.67 81.7291C127.69 81.7791 127.68 81.8491 127.69 81.8991C127.7 81.8691 127.73 81.7891 127.71 81.7591C127.71 81.7691 127.71 81.7991 127.71 81.8091C127.69 81.7591 127.69 81.6991 127.71 81.6291C127.8 81.6691 127.79 81.4691 127.88 81.4391C127.87 81.3091 127.96 81.2091 127.97 81.0691C127.88 81.1091 127.97 81.0291 127.89 81.0191C127.89 80.9891 127.89 80.9791 127.89 80.9691L127.95 80.8791C127.95 80.8791 127.96 80.9091 127.98 80.9091C128 80.8391 128.02 80.8891 128.05 80.8391C128.02 80.8391 128.01 80.8091 128.03 80.7691L127.99 80.8191C127.96 80.7091 128.07 80.7391 128.04 80.6391L128.06 80.6691C128.06 80.6191 128.08 80.4791 128.02 80.4191C128.03 80.4191 128.05 80.3991 128.06 80.4191C128.08 80.2991 128.01 80.1391 128.06 80.0491H128.08C128.08 80.0491 128.04 80.0191 128.06 79.9891H128.08C128.08 79.9791 128.05 79.9291 128.06 79.8991L128.08 79.9291C128.11 79.8091 128.03 79.7391 128.01 79.6391C128.07 79.6391 128.09 79.5391 128.09 79.4991C128.09 79.3591 128.04 79.2691 127.99 79.1291C128.05 79.0391 127.98 78.8391 127.96 78.6991C127.96 78.7191 127.92 78.6991 127.9 78.6891C127.9 78.6591 127.84 78.6191 127.89 78.6091C127.89 78.6091 127.89 78.5191 127.88 78.4791L127.81 78.4991C127.86 78.3291 127.63 78.2091 127.67 78.0991C127.64 78.0791 127.62 78.0491 127.59 78.0291L127.62 78.0091C127.59 77.9291 127.56 77.8891 127.49 77.8091H127.53C127.53 77.8091 127.4 77.8091 127.36 77.7691L127.39 77.7191C127.32 77.6391 127.28 77.5291 127.17 77.4791C127.17 77.4791 127.19 77.4691 127.2 77.4791C127.17 77.4391 127.08 77.3091 127.04 77.3891C127.07 77.3491 126.96 77.3091 126.9 77.2991L126.93 77.2791C126.86 77.2791 126.86 77.2891 126.79 77.2691C126.78 77.2591 126.79 77.2391 126.81 77.2591C126.77 77.2191 126.75 77.2591 126.71 77.2191H126.74C126.74 77.2191 126.69 77.1891 126.65 77.1991C126.61 77.1991 126.57 77.1391 126.57 77.0991C126.55 77.1191 126.52 77.1191 126.49 77.0991C126.49 77.0891 126.51 77.0791 126.51 77.0791C126.43 77.0191 126.36 77.0691 126.32 77.0091C126.32 76.9991 126.32 76.9891 126.32 76.9891C126.39 77.0191 126.44 77.0391 126.44 77.0391C126.45 77.0091 126.4 76.9791 126.46 76.9491C126.4 76.9491 126.31 76.9791 126.26 76.9491V76.9291C126.26 76.9291 126.24 76.9191 126.23 76.9291C126.21 76.9291 126.2 76.9091 126.18 76.9091C126.18 76.8791 126.11 76.8791 126.08 76.8791C126.08 76.9191 126.04 76.8991 126.07 76.9391C126.07 76.9391 126.07 76.9391 126.1 76.9391H126.19C126.19 76.9391 126.13 76.9791 126.11 76.9491L126.06 76.9991C126.03 76.9391 125.95 76.8991 125.94 76.8691C125.84 76.8791 125.71 76.8891 125.66 76.9591C125.64 76.9691 125.63 76.9391 125.62 76.9291C125.63 76.9291 125.65 76.9291 125.66 76.9091C125.61 76.9191 125.51 76.9391 125.51 76.9991C125.44 76.9991 125.53 76.9491 125.45 76.9791V76.9591C125.25 76.9291 125.24 77.1691 125.03 77.1791C125.05 77.1791 125.05 77.1791 125.06 77.1791C124.85 77.2591 124.73 77.4891 124.55 77.6091C124.5 77.6491 124.52 77.6691 124.52 77.7191H124.48V77.7791C124.45 77.8691 124.3 77.8491 124.3 77.9791H124.33C124.33 77.9791 124.28 78.0991 124.26 78.0791C124.26 78.0791 124.28 78.1091 124.26 78.1091H124.24L124.22 78.1991C124.17 78.2591 124.15 78.1491 124.09 78.2491C124.08 78.2891 124.09 78.3791 124.11 78.3691C124.11 78.3591 124.14 78.3391 124.16 78.3491V78.3891C124.16 78.3891 124.25 78.4691 124.33 78.4191V78.3491H124.36L124.34 78.3891C124.34 78.3891 124.37 78.3491 124.36 78.3191C124.38 78.3191 124.39 78.3191 124.4 78.3191L124.38 78.2391C124.38 78.2391 124.41 78.2891 124.44 78.2591C124.43 78.2191 124.38 78.2591 124.39 78.2091C124.43 78.1991 124.44 78.2091 124.44 78.1691C124.46 78.1691 124.46 78.1891 124.46 78.1991C124.46 78.1591 124.49 78.1191 124.47 78.0891C124.51 78.0891 124.51 77.9891 124.56 78.0291C124.56 78.0091 124.56 77.9591 124.56 77.9391C124.59 78.0191 124.63 77.8591 124.68 77.9091C124.65 77.8391 124.74 77.7891 124.75 77.7091V77.7291C124.78 77.6991 124.8 77.7091 124.82 77.6991C124.78 77.6591 124.82 77.6091 124.82 77.5691C124.89 77.5691 124.84 77.6291 124.89 77.6591C124.86 77.6291 124.92 77.5791 124.89 77.5591C124.94 77.5591 124.92 77.5591 124.97 77.5691C124.93 77.5191 124.99 77.5391 124.98 77.4891C125.04 77.4891 125.03 77.5291 125.06 77.4791C125.09 77.4791 125.07 77.5291 125.07 77.5291L125.13 77.5891ZM126.38 77.2791L126.34 77.2591C126.34 77.2591 126.34 77.2391 126.36 77.2391C126.36 77.2391 126.37 77.2591 126.39 77.2791H126.38ZM126.21 76.9591C126.21 76.9591 126.24 76.9591 126.24 76.9691H126.21V76.9591Z" fill="white"/>
<path d="M127.45 78.3694L127.46 78.3594H127.45V78.3694Z" fill="white"/>
<path d="M124.69 81.92L124.72 81.94C124.72 81.94 124.71 81.91 124.69 81.92Z" fill="white"/>
<path d="M124.75 81.9795C124.75 81.9795 124.74 81.9495 124.72 81.9395C124.72 81.9495 124.73 81.9695 124.75 81.9795Z" fill="white"/>
<path d="M124.14 79.1091C124.14 79.1091 124.18 79.0691 124.18 79.0391C124.18 79.0391 124.13 79.0891 124.15 79.1091H124.14Z" fill="white"/>
<path d="M123.93 79.4509C123.93 79.4509 123.93 79.4009 123.94 79.3809C123.92 79.3909 123.9 79.4109 123.9 79.3809C123.85 79.4709 123.93 79.3609 123.92 79.4609L123.93 79.4509Z" fill="white"/>
<path d="M123.9 79.6797C123.9 79.6797 123.88 79.6797 123.87 79.6797C123.88 79.7097 123.89 79.7097 123.9 79.6797Z" fill="white"/>
<path d="M124.51 81.5302V81.4902H124.48L124.51 81.5302Z" fill="white"/>
<path d="M124.38 81.7991L124.37 81.7891L124.4 81.8291L124.38 81.7991Z" fill="white"/>
<path d="M126.8 83.0009L126.78 82.9609C126.78 82.9609 126.78 83.0209 126.8 83.0009Z" fill="white"/>
<path d="M127.65 82.0893C127.65 82.0893 127.7 82.0593 127.69 82.0293C127.68 82.0493 127.65 82.0693 127.65 82.0893Z" fill="white"/>
<path d="M127.9 78.5005L127.92 78.5105L127.89 78.4805L127.9 78.5005Z" fill="white"/>
<g style="mix-blend-mode:soft-light" opacity="0.4">
<g style="mix-blend-mode:soft-light" opacity="0.4">
<path d="M120.5 80.0794C119.22 80.5094 118.62 82.1094 120.08 82.8694C121 83.3494 121.93 82.8494 122.01 81.8294C122.09 80.8094 122.02 79.5694 120.5 80.0794Z" fill="#F0E1A0"/>
</g>
</g>
<path d="M61.45 78.4794C62.81 75.6294 65.08 77.7494 65.17 79.3194C65.26 80.8894 65 83.1094 63.31 82.9494C61.62 82.7894 60.78 79.8894 61.45 78.4794Z" fill="white"/>
<path d="M61.5302 78.5198C61.5302 78.5198 61.5002 78.4998 61.4902 78.5198L61.5202 78.5498V78.5098L61.5302 78.5198Z" fill="white"/>
<path d="M61.3999 78.6288C61.3999 78.6288 61.4299 78.6988 61.4799 78.6988C61.4499 78.6588 61.4699 78.6588 61.4299 78.6188C61.4299 78.5988 61.4599 78.5888 61.4699 78.5988C61.4699 78.5888 61.4899 78.5688 61.4699 78.5488C61.4299 78.5588 61.4099 78.5988 61.4299 78.6388C61.4199 78.6388 61.4099 78.6388 61.3999 78.6288Z" fill="white"/>
<path d="M61.1601 80.229V80.219L61.1401 80.209L61.1601 80.229Z" fill="white"/>
<path d="M61.1101 79.75C61.1101 79.75 61.1501 79.76 61.1601 79.77C61.1401 79.77 61.1401 79.76 61.1301 79.75C61.1301 79.75 61.1101 79.75 61.1001 79.75H61.1101Z" fill="white"/>
<path d="M61.4399 78.479V78.469L61.4199 78.459L61.4399 78.479Z" fill="white"/>
<path d="M65.2402 81.0599C65.2402 81.0599 65.2102 80.9799 65.1602 81.0399C65.1802 81.0399 65.2102 81.1099 65.2402 81.0599Z" fill="white"/>
<path d="M64.0901 82.9397L64.0701 82.9297L64.0601 82.9397H64.0901Z" fill="white"/>
<path d="M62.6499 77.3384C62.6499 77.3384 62.6299 77.3284 62.6199 77.3184C62.6399 77.3384 62.5899 77.3784 62.6499 77.3384Z" fill="white"/>
<path d="M61.3901 78.9395C61.3901 78.9395 61.4001 78.9394 61.4001 78.9494L61.3901 78.9395Z" fill="white"/>
<path d="M63.8599 82.709C63.8599 82.709 63.8899 82.719 63.8999 82.719H63.8599V82.709Z" fill="white"/>
<path d="M62.3603 77.5891C62.3603 77.5891 62.3503 77.5291 62.3403 77.4991C62.3803 77.4391 62.3803 77.4991 62.4203 77.5091C62.4503 77.4791 62.4503 77.4291 62.4803 77.4091C62.4803 77.4091 62.4903 77.4091 62.4903 77.4291C62.5103 77.3691 62.6003 77.3591 62.6203 77.2891H62.6303C62.6303 77.2891 62.6003 77.2591 62.5903 77.2391C62.6103 77.2191 62.6203 77.1891 62.6403 77.2191C62.6203 77.2191 62.6303 77.2391 62.6303 77.2491L62.6503 77.2291C62.6503 77.2291 62.6203 77.2491 62.6403 77.2891C62.6803 77.2591 62.7303 77.2091 62.7703 77.2091C62.7903 77.2491 62.6903 77.2491 62.7503 77.2691H62.6903C62.7603 77.3191 62.6503 77.2691 62.7203 77.3391C62.8003 77.3391 62.7903 77.2891 62.8703 77.2891C62.8803 77.2591 62.8603 77.2591 62.8703 77.2291C62.9703 77.1491 62.9703 77.3291 63.0403 77.2591C63.0603 77.2291 63.0603 77.1691 63.1203 77.1991L63.1003 77.2491C63.1703 77.2491 63.1403 77.1691 63.2203 77.2091C63.2003 77.2191 63.1603 77.2291 63.1703 77.2291C63.2203 77.2691 63.2103 77.1991 63.2503 77.2091V77.2591C63.3303 77.2691 63.4303 77.2391 63.5203 77.2591C63.5203 77.2691 63.4903 77.2791 63.5103 77.2991C63.6203 77.3191 63.7403 77.3791 63.8103 77.4691H63.8703V77.4791C63.9003 77.5091 63.8803 77.4591 63.9103 77.4591C63.9303 77.4691 63.9303 77.4991 63.9103 77.4991C64.0003 77.4991 64.1303 77.5691 64.1703 77.6591H64.1503C64.1903 77.7091 64.2603 77.6391 64.2803 77.7091H64.2703C64.3503 77.8191 64.5003 77.8991 64.5103 78.0291C64.5703 78.0091 64.5703 78.1591 64.6403 78.1191C64.6603 78.2091 64.6403 78.1891 64.6703 78.2991C64.6803 78.3291 64.7303 78.3091 64.7603 78.3391L64.7203 78.3591L64.7803 78.3791L64.7503 78.4291L64.7803 78.4491C64.7803 78.4491 64.7803 78.4191 64.7903 78.4091C64.8403 78.4491 64.8203 78.5391 64.8003 78.5491L64.8803 78.6491C64.8803 78.6491 64.8503 78.6391 64.8303 78.6291C64.9003 78.6791 64.7903 78.6591 64.8503 78.6991C64.8503 78.6891 64.8703 78.6991 64.8803 78.6991C64.8803 78.7391 64.9003 78.7991 64.9203 78.8491H64.8903C64.9003 78.9391 64.9703 79.0291 64.9703 79.1291C64.9703 79.0891 65.0303 79.0891 65.0403 79.1291L65.0003 79.1491C65.0003 79.1491 65.0103 79.1191 65.0503 79.1491C65.0503 79.1891 65.0003 79.1791 64.9903 79.1591L65.0103 79.1991C65.0103 79.1991 64.9903 79.1991 64.9703 79.1991C65.0003 79.2191 64.9403 79.2791 64.9903 79.3091H64.9803L65.0103 79.5591C65.0103 79.5591 65.0403 79.5991 65.0703 79.6191C65.0603 79.6891 65.0303 79.7591 65.0303 79.8391C65.0503 79.8991 65.0603 79.8591 65.0803 79.8791C65.0503 79.8791 65.0503 79.9591 65.0203 79.9191C65.0203 80.0191 65.0203 80.0391 65.0503 80.1591C65.0603 80.1491 65.0703 80.1291 65.0803 80.1391C65.0803 80.1591 65.0603 80.1891 65.0503 80.1891C65.1003 80.3191 64.9303 80.4891 64.9903 80.5991L65.0103 80.7091C65.0003 80.7591 64.9903 80.6791 64.9603 80.7091C65.0003 80.8391 64.9303 80.8991 64.9503 80.9991C64.8403 81.0591 64.9103 81.2691 64.8203 81.3491H64.8403C64.8403 81.3491 64.8203 81.3791 64.8103 81.3991C64.8303 81.3991 64.8403 81.3791 64.8503 81.3991C64.8203 81.6291 64.6903 81.8291 64.5703 82.0091C64.5303 82.0791 64.6603 82.1091 64.5603 82.1691L64.5403 82.1191C64.5003 82.2891 64.3603 82.3891 64.2803 82.5191C64.2803 82.5091 64.2803 82.4991 64.2803 82.4891C64.2403 82.4891 64.1903 82.5691 64.2103 82.5891C64.1903 82.5991 64.1903 82.5691 64.1703 82.5691C64.1303 82.5691 64.1303 82.6491 64.1003 82.6291C64.1003 82.6291 64.1003 82.6191 64.1003 82.6091C64.1003 82.6291 64.0203 82.6591 64.0503 82.6791C63.9903 82.6791 63.9603 82.7291 63.9103 82.7291C63.9003 82.7791 63.8203 82.7491 63.8203 82.7991C63.8103 82.7391 63.7103 82.7691 63.6803 82.7991C63.6803 82.7791 63.6503 82.7891 63.6603 82.7591C63.6203 82.7691 63.5803 82.7791 63.5903 82.8091C63.5103 82.7391 63.4303 82.8691 63.3903 82.7691C63.2703 82.7991 63.1503 82.7891 63.0303 82.7691C63.0503 82.7191 63.1603 82.7891 63.1603 82.7291C63.0503 82.7391 62.9803 82.7591 62.8803 82.6991C62.8603 82.6791 62.9103 82.6791 62.9203 82.6791C62.8103 82.6691 62.7403 82.5891 62.6403 82.5591C62.6403 82.5591 62.6603 82.5591 62.6703 82.5591C62.6503 82.5591 62.6403 82.5291 62.6203 82.5591H62.6403C62.6403 82.6091 62.5303 82.5891 62.5103 82.5991C62.5803 82.5591 62.4403 82.5291 62.5403 82.4791C62.5303 82.4791 62.5103 82.4791 62.5003 82.4891C62.4903 82.4691 62.5003 82.4591 62.5203 82.4591C62.4603 82.4291 62.4603 82.4591 62.4103 82.4191C62.4103 82.4191 62.4303 82.4191 62.4503 82.4091C62.4103 82.4091 62.3703 82.4091 62.3303 82.3591C62.3303 82.3591 62.3403 82.3391 62.3503 82.3591C62.2803 82.3091 62.1903 82.2891 62.1403 82.1991C62.2003 82.1891 62.1403 82.1591 62.1703 82.1291L62.1203 82.0991V82.1291C62.1203 82.1291 62.0303 82.0791 62.0203 82.0291L62.0603 82.0491L62.0003 81.9791V82.0291C62.0003 82.0291 61.9603 82.0691 61.9403 82.0091C61.9503 82.0091 61.9103 81.9691 61.9203 81.9291C61.9203 81.9291 61.8603 81.9091 61.8503 81.8691C61.8503 81.8491 61.9003 81.8491 61.9103 81.8391C61.8603 81.8391 61.8403 81.7491 61.7903 81.7391C61.8003 81.7391 61.8303 81.7391 61.8303 81.7291H61.7903C61.7903 81.7291 61.7903 81.6991 61.8103 81.6891C61.7803 81.6291 61.7603 81.7391 61.7503 81.6491C61.7503 81.6491 61.7503 81.6491 61.7703 81.6491C61.7503 81.5691 61.6703 81.5191 61.6603 81.4391C61.7003 81.3991 61.7003 81.4991 61.7203 81.4491C61.6703 81.3591 61.5803 81.2691 61.5503 81.1591V81.1791C61.4803 81.1891 61.5503 81.0891 61.5103 81.0491C61.5103 81.0591 61.5503 81.0491 61.5403 81.0491C61.5303 80.9791 61.4803 80.9191 61.4203 80.8191H61.4403C61.4403 80.8191 61.4203 80.7191 61.4203 80.6691C61.4003 80.6691 61.4003 80.6291 61.3703 80.6591C61.4403 80.4991 61.2503 80.4091 61.3203 80.2691C61.3203 80.2791 61.3403 80.2991 61.3403 80.2891L61.3103 80.1891C61.3103 80.1891 61.2903 80.2091 61.2703 80.2291C61.2503 80.2191 61.2303 80.1891 61.2303 80.1591C61.2603 80.2091 61.2803 80.1591 61.2903 80.1291C61.2903 80.1291 61.2703 80.1291 61.2603 80.1291C61.3103 80.0691 61.1903 80.1291 61.2303 80.0491H61.2503C61.2503 80.0491 61.2203 79.9991 61.2203 79.9691C61.2503 79.9491 61.2403 79.9991 61.2703 79.9991C61.2703 79.9591 61.2003 79.9191 61.2303 79.8791L61.2503 79.9391C61.2503 79.9391 61.2803 79.8891 61.2803 79.8591V79.8091C61.1903 79.7591 61.2603 79.6991 61.2003 79.6291C61.2603 79.6991 61.2303 79.6391 61.2703 79.6491C61.2803 79.6291 61.2903 79.5991 61.3103 79.6091C61.2803 79.5791 61.3403 79.5491 61.2903 79.4991C61.3003 79.4991 61.2903 79.4591 61.3203 79.4691C61.3203 79.4291 61.3003 79.4691 61.2803 79.4691C61.2303 79.3991 61.3503 79.3191 61.3003 79.2091C61.2903 79.1191 61.2403 79.0991 61.2403 79.0191C61.2703 78.9991 61.2803 79.0491 61.2803 79.0491C61.3103 79.0091 61.3103 78.9791 61.3103 78.9391C61.3103 78.9491 61.3303 78.9391 61.3503 78.9391C61.3503 78.9091 61.3103 78.9091 61.3403 78.8691C61.3503 78.8791 61.3703 78.8991 61.3803 78.9091L61.3603 78.7891C61.3603 78.7891 61.3903 78.8191 61.4003 78.8391C61.4003 78.7891 61.4103 78.7291 61.3903 78.6991L61.3703 78.7191C61.3703 78.7191 61.4003 78.7191 61.4003 78.7391C61.4103 78.7791 61.3703 78.7891 61.3603 78.7891V78.7591C61.2803 78.7591 61.3403 78.8791 61.3303 78.9291L61.2803 78.8891L61.3103 78.9591C61.3103 78.9591 61.2603 78.9691 61.2603 78.9391C61.2203 78.9791 61.2703 78.9791 61.2303 79.0091V79.0491C61.2303 79.0491 61.2003 79.0491 61.2103 79.0291C61.1603 79.0991 61.2303 79.1591 61.1903 79.1791C61.1903 79.2791 61.2303 79.1791 61.2703 79.2691L61.1603 79.3091H61.2003C61.2003 79.3091 61.2003 79.3491 61.1803 79.3491C61.2003 79.3891 61.2003 79.3491 61.2203 79.3691C61.1703 79.4191 61.2303 79.5091 61.1703 79.5191C61.2003 79.5391 61.1903 79.4691 61.2203 79.5191C61.1503 79.5291 61.2303 79.5791 61.2003 79.6291C61.1603 79.6191 61.1803 79.5691 61.1503 79.6191C61.2103 79.6491 61.1303 79.7091 61.1503 79.7491C61.2003 79.7491 61.1803 79.8391 61.2003 79.8991C61.1803 79.8991 61.1803 80.0291 61.1703 80.0891C61.1703 80.0891 61.2203 80.1591 61.2303 80.1991C61.2003 80.1991 61.1903 80.1991 61.1703 80.1691V80.2091C61.1703 80.2091 61.2003 80.2291 61.2103 80.2591H61.1703C61.1803 80.3091 61.2303 80.3591 61.2203 80.4391C61.2503 80.4391 61.3003 80.3691 61.3403 80.4391C61.3203 80.4391 61.2903 80.4491 61.2803 80.4391C61.2803 80.4391 61.3003 80.4591 61.2903 80.4791L61.2503 80.4491C61.2503 80.4491 61.2803 80.4591 61.2803 80.4891C61.2503 80.4891 61.2703 80.5091 61.2403 80.5091C61.2403 80.5091 61.2403 80.4891 61.2403 80.4791C61.2403 80.5091 61.2403 80.5491 61.2203 80.5691C61.2303 80.5691 61.2503 80.5691 61.2603 80.5791C61.2703 80.6391 61.2303 80.6091 61.2303 80.6391C61.2503 80.6391 61.2403 80.6891 61.2803 80.6791C61.2803 80.6991 61.2703 80.6991 61.2603 80.7091C61.2803 80.7391 61.3003 80.8491 61.3303 80.7991C61.3903 80.8791 61.3703 80.9991 61.4103 81.0791H61.4003C61.4303 81.1291 61.4503 81.1991 61.4903 81.2291C61.4903 81.2491 61.4903 81.2791 61.4703 81.2691C61.5003 81.3091 61.5103 81.3091 61.5203 81.3691C61.4803 81.3391 61.5103 81.3891 61.4903 81.3291C61.5003 81.3891 61.4903 81.4091 61.5403 81.4491C61.5003 81.4491 61.5203 81.5091 61.5403 81.5291V81.4791C61.5403 81.4791 61.5703 81.5291 61.5803 81.5591H61.5303C61.5303 81.6991 61.7103 81.7091 61.6803 81.8391C61.7203 81.8491 61.6703 81.7691 61.7103 81.7791C61.7303 81.8291 61.7103 81.9091 61.7103 81.9291C61.7303 82.0091 61.8003 81.9491 61.8303 82.0291C61.8303 82.0091 61.8703 81.9791 61.9103 82.0291C61.9403 82.0791 61.8903 82.1191 61.8603 82.0991C61.8603 82.0891 61.8603 82.0791 61.8603 82.0791C61.8503 82.0691 61.8303 82.0491 61.8203 82.0791H61.8403C61.8403 82.0791 61.8903 82.1691 61.8603 82.1691C61.9003 82.1991 61.8903 82.1691 61.8803 82.1391C61.9003 82.2091 61.9503 82.2291 61.9803 82.2991C61.9803 82.2891 61.9803 82.2691 61.9903 82.2691C62.0403 82.3591 62.0403 82.2891 62.1003 82.3391C62.1003 82.3891 62.0503 82.3691 62.1103 82.4091C62.1303 82.4591 62.0903 82.4491 62.0603 82.4391C62.1203 82.4691 62.1403 82.5391 62.1603 82.5791L62.1203 82.5591C62.1203 82.5591 62.1503 82.5791 62.1703 82.5891V82.5491C62.1703 82.5491 62.2003 82.5791 62.1903 82.5891C62.2203 82.5891 62.2103 82.5391 62.2603 82.5491C62.2703 82.5791 62.3303 82.5891 62.3103 82.6291C62.2503 82.5591 62.2903 82.6691 62.2303 82.6291C62.2403 82.6291 62.2603 82.6491 62.2703 82.6691C62.2703 82.6691 62.2703 82.6691 62.2603 82.6691C62.3003 82.7491 62.3203 82.6691 62.3903 82.7091C62.3703 82.7191 62.3903 82.7591 62.3903 82.7591C62.3603 82.7391 62.3903 82.7191 62.4403 82.7191C62.4803 82.7691 62.5003 82.7391 62.5203 82.7591L62.5003 82.7291C62.5003 82.7291 62.5403 82.7291 62.5803 82.7491C62.5803 82.7691 62.5403 82.7491 62.5503 82.7491C62.6103 82.7391 62.6103 82.8391 62.6803 82.8391C62.7003 82.8691 62.6603 82.8791 62.6803 82.8991C62.7603 82.8991 62.7403 82.9591 62.8203 82.9591C62.8203 82.9191 62.8103 82.9291 62.8603 82.9191L62.7403 82.8891H62.8303C62.8303 82.8891 62.7503 82.8691 62.7403 82.8491C62.7803 82.8491 62.7803 82.8491 62.7703 82.8191C62.8003 82.8791 62.8703 82.8291 62.9103 82.8791L62.8803 82.9491C62.9503 83.0191 63.0403 82.9491 63.1403 82.9991L63.1103 82.9791C63.1103 82.9791 63.1803 82.9791 63.2103 82.9791C63.2103 83.0091 63.2203 83.0191 63.2403 83.0391C63.2403 83.0191 63.3203 83.0491 63.3403 82.9991L63.3903 83.0391C63.4803 83.0591 63.4903 82.9691 63.5703 82.9791C63.5503 83.0091 63.5903 83.0291 63.5303 83.0491C63.5603 83.0491 63.5903 83.0491 63.5803 83.0391C63.6003 83.0591 63.6603 82.9891 63.6803 83.0191C63.6903 83.0091 63.6903 82.9791 63.7203 82.9691V82.9791C63.7203 82.9691 63.7703 82.9491 63.7303 82.9291C63.8403 82.9991 63.9603 82.8691 64.0503 82.8991C64.1103 82.8691 64.1703 82.8291 64.2103 82.7891V82.7991C64.2903 82.7791 64.2103 82.7091 64.3003 82.6891C64.3603 82.6891 64.2803 82.7291 64.3003 82.7291C64.3703 82.7891 64.3803 82.6591 64.4503 82.6491C64.5003 82.6491 64.5103 82.5591 64.5603 82.5091C64.5603 82.4391 64.6003 82.3591 64.6303 82.2891C64.6503 82.3291 64.6303 82.3291 64.6603 82.3291C64.6703 82.2991 64.6103 82.3091 64.6403 82.2491C64.6703 82.2491 64.7003 82.2091 64.7403 82.2291L64.7103 82.2791C64.7703 82.2791 64.7503 82.2091 64.7703 82.1891H64.7903C64.8303 82.1191 64.7903 82.0891 64.8303 82.0091H64.8103C64.7803 81.9391 64.8503 81.9791 64.8403 81.9191H64.8903C64.8903 81.9191 64.8903 81.7891 64.9003 81.7291C64.9203 81.7791 64.9103 81.8491 64.9203 81.8991C64.9303 81.8691 64.9603 81.7891 64.9403 81.7591C64.9403 81.7691 64.9403 81.7991 64.9403 81.8091C64.9203 81.7591 64.9203 81.6991 64.9403 81.6291C65.0303 81.6691 65.0203 81.4691 65.1103 81.4391C65.1003 81.3091 65.1903 81.2091 65.2003 81.0691C65.1103 81.1091 65.2003 81.0291 65.1203 81.0191C65.1203 80.9891 65.1203 80.9791 65.1203 80.9691L65.1803 80.8791C65.1803 80.8791 65.1903 80.9091 65.2103 80.9091C65.2303 80.8391 65.2503 80.8891 65.2803 80.8391C65.2503 80.8391 65.2403 80.8091 65.2603 80.7691L65.2203 80.8191C65.1903 80.7091 65.3003 80.7391 65.2703 80.6391L65.2903 80.6691C65.2903 80.6191 65.3103 80.4791 65.2503 80.4191C65.2503 80.4191 65.2803 80.3991 65.2903 80.4191C65.3103 80.2991 65.2403 80.1391 65.2903 80.0491H65.3103C65.3103 80.0491 65.2703 80.0191 65.2903 79.9891H65.3103C65.3103 79.9791 65.2803 79.9291 65.2903 79.8991L65.3103 79.9291C65.3403 79.8091 65.2603 79.7391 65.2403 79.6391C65.3003 79.6391 65.3203 79.5391 65.3203 79.4991C65.3203 79.3591 65.2703 79.2691 65.2203 79.1291C65.2803 79.0391 65.2103 78.8391 65.1903 78.6991C65.1903 78.7191 65.1503 78.6991 65.1303 78.6891C65.1303 78.6591 65.0703 78.6191 65.1203 78.6091C65.1203 78.6091 65.1203 78.5191 65.1103 78.4791L65.0403 78.4991C65.0903 78.3291 64.8603 78.2091 64.9003 78.0991C64.8703 78.0791 64.8503 78.0491 64.8203 78.0291L64.8503 78.0091C64.8203 77.9291 64.7903 77.8891 64.7203 77.8091H64.7603C64.7603 77.8091 64.6303 77.8091 64.5903 77.7691L64.6203 77.7191C64.5503 77.6391 64.5103 77.5291 64.4003 77.4791C64.4003 77.4791 64.4203 77.4691 64.4303 77.4791C64.4003 77.4391 64.3103 77.3091 64.2703 77.3891C64.3003 77.3491 64.1903 77.3091 64.1303 77.2991L64.1603 77.2791C64.0903 77.2791 64.0903 77.2891 64.0203 77.2691C64.0103 77.2591 64.0203 77.2391 64.0403 77.2591C64.0003 77.2191 63.9803 77.2591 63.9403 77.2191H63.9703C63.9703 77.2191 63.9203 77.1891 63.8803 77.1991C63.8403 77.1991 63.8003 77.1391 63.8003 77.0991C63.7803 77.1191 63.7503 77.1191 63.7203 77.0991C63.7203 77.0891 63.7403 77.0791 63.7403 77.0791C63.6603 77.0191 63.5903 77.0691 63.5503 77.0091C63.5503 76.9991 63.5503 76.9891 63.5503 76.9891C63.6203 77.0191 63.6703 77.0391 63.6703 77.0391C63.6803 77.0091 63.6303 76.9791 63.6903 76.9491C63.6303 76.9491 63.5403 76.9791 63.4903 76.9491V76.9291C63.4903 76.9291 63.4703 76.9191 63.4603 76.9291C63.4403 76.9291 63.4303 76.9091 63.4103 76.9091C63.4103 76.8791 63.3403 76.8791 63.3103 76.8791C63.3103 76.9191 63.2703 76.8991 63.3003 76.9391C63.3003 76.9391 63.3003 76.9391 63.3303 76.9391H63.4203C63.4203 76.9391 63.3603 76.9791 63.3403 76.9491L63.2903 76.9991C63.2603 76.9391 63.1803 76.8991 63.1703 76.8691C63.0703 76.8791 62.9403 76.8891 62.8903 76.9591C62.8703 76.9691 62.8603 76.9391 62.8503 76.9291C62.8603 76.9291 62.8803 76.9291 62.8903 76.9091C62.8403 76.9191 62.7403 76.9391 62.7403 76.9991C62.6703 76.9991 62.7603 76.9491 62.6803 76.9791V76.9591C62.4803 76.9291 62.4703 77.1691 62.2603 77.1791C62.2803 77.1791 62.2803 77.1791 62.2903 77.1791C62.0803 77.2591 61.9603 77.4891 61.7803 77.6091C61.7303 77.6491 61.7503 77.6691 61.7503 77.7191H61.7103V77.7791C61.6803 77.8691 61.5303 77.8491 61.5303 77.9791H61.5603C61.5603 77.9791 61.5103 78.0991 61.4903 78.0791C61.4903 78.0791 61.5103 78.1091 61.4903 78.1091H61.4703L61.4503 78.1991C61.4003 78.2591 61.3803 78.1491 61.3203 78.2491C61.3103 78.2891 61.3203 78.3791 61.3403 78.3691C61.3403 78.3591 61.3703 78.3391 61.3903 78.3491V78.3891C61.3903 78.3891 61.4803 78.4691 61.5603 78.4191V78.3491H61.5903L61.5703 78.3891C61.5703 78.3891 61.6003 78.3491 61.5903 78.3191C61.6103 78.3191 61.6203 78.3191 61.6303 78.3191L61.6103 78.2391C61.6103 78.2391 61.6403 78.2891 61.6703 78.2591C61.6603 78.2191 61.6103 78.2591 61.6203 78.2091C61.6603 78.1991 61.6703 78.2091 61.6703 78.1691C61.6903 78.1691 61.6903 78.1891 61.6903 78.1991C61.6903 78.1591 61.7203 78.1191 61.7003 78.0891C61.7403 78.0891 61.7403 77.9891 61.7903 78.0291C61.7903 78.0091 61.7903 77.9591 61.7903 77.9391C61.8203 78.0191 61.8603 77.8591 61.9103 77.9091C61.8803 77.8391 61.9703 77.7891 61.9803 77.7091V77.7291C62.0103 77.6991 62.0303 77.7091 62.0503 77.6991C62.0103 77.6591 62.0503 77.6091 62.0503 77.5691C62.1203 77.5691 62.0703 77.6291 62.1203 77.6591C62.0903 77.6291 62.1503 77.5791 62.1203 77.5591C62.1703 77.5591 62.1503 77.5591 62.2003 77.5691C62.1603 77.5191 62.2203 77.5391 62.2103 77.4891C62.2703 77.4891 62.2603 77.5291 62.2903 77.4791C62.3203 77.4791 62.3003 77.5291 62.3003 77.5291L62.3603 77.5891ZM63.6103 77.2791L63.5703 77.2591C63.5703 77.2591 63.5703 77.2391 63.5903 77.2391C63.5903 77.2391 63.6003 77.2591 63.6203 77.2791H63.6103ZM63.4403 76.9591C63.4403 76.9591 63.4703 76.9591 63.4703 76.9691H63.4403V76.9591Z" fill="white"/>
<path d="M61.3101 80.8088L61.3201 80.7988L61.3101 80.8088Z" fill="white"/>
<path d="M64.6802 78.3694L64.6902 78.3594H64.6802V78.3694Z" fill="white"/>
<path d="M61.9199 81.92L61.9499 81.94C61.9499 81.94 61.9399 81.91 61.9199 81.92Z" fill="white"/>
<path d="M61.9802 81.9795C61.9802 81.9795 61.9702 81.9495 61.9502 81.9395C61.9502 81.9495 61.9602 81.9695 61.9802 81.9795Z" fill="white"/>
<path d="M61.46 78.76H61.47L61.46 78.75V78.76Z" fill="white"/>
<path d="M61.3599 79.1091C61.3599 79.1091 61.3999 79.0691 61.3999 79.0391C61.3999 79.0391 61.3499 79.0891 61.3699 79.1091H61.3599Z" fill="white"/>
<path d="M61.1599 79.4489C61.1599 79.4489 61.1599 79.3989 61.1699 79.3789C61.1499 79.3889 61.1299 79.4089 61.1299 79.3789C61.0799 79.4689 61.1599 79.3589 61.1499 79.4589L61.1599 79.4489Z" fill="white"/>
<path d="M61.1301 79.6797C61.1301 79.6797 61.1101 79.6797 61.1001 79.6797C61.1101 79.7097 61.1201 79.7097 61.1301 79.6797Z" fill="white"/>
<path d="M61.7302 81.5283L61.7402 81.4883H61.7002L61.7302 81.5283Z" fill="white"/>
<path d="M61.6103 81.7991L61.5903 81.7891L61.6303 81.8291L61.6103 81.7991Z" fill="white"/>
<path d="M64.0303 82.999L64.0103 82.959C64.0103 82.959 64.0103 83.019 64.0303 82.999Z" fill="white"/>
<path d="M64.8799 82.0893C64.8799 82.0893 64.9299 82.0593 64.9199 82.0293C64.9099 82.0493 64.8799 82.0693 64.8799 82.0893Z" fill="white"/>
<path d="M65.1201 78.4985L65.1501 78.5085L65.1201 78.4785V78.4985Z" fill="white"/>
<g style="mix-blend-mode:soft-light" opacity="0.4">
<g style="mix-blend-mode:soft-light" opacity="0.4">
<path d="M57.7301 80.0794C56.4501 80.5094 55.8501 82.1094 57.3101 82.8694C58.2301 83.3494 59.1601 82.8494 59.2401 81.8294C59.3201 80.8094 59.2501 79.5694 57.7301 80.0794Z" fill="#F0E1A0"/>
</g>
</g>
</g>
<defs>
<linearGradient id="paint0_linear_316_17557" x1="123.51" y1="66.819" x2="123.51" y2="114.089" gradientUnits="userSpaceOnUse">
<stop stop-color="#7A5751"/>
<stop offset="0.42" stop-color="#7E5C57"/>
<stop offset="0.75" stop-color="#846460"/>
</linearGradient>
<linearGradient id="paint1_linear_316_17557" x1="60.2699" y1="67.0309" x2="60.2699" y2="114.301" gradientUnits="userSpaceOnUse">
<stop stop-color="#7A5751"/>
<stop offset="0.41" stop-color="#7E5C57"/>
<stop offset="0.73" stop-color="#846460"/>
</linearGradient>
<clipPath id="clip0_316_17557">
<rect width="179.42" height="273.29" fill="white"/>
</clipPath>
</defs>
</svg>
