<svg width="191" height="467" viewBox="0 0 191 467" fill="none" xmlns="http://www.w3.org/2000/svg">
<g clip-path="url(#clip0_316_15290)">
<path d="M113.2 123.19C84.4398 127.73 70.7498 113.32 70.7498 113.32C70.7498 113.32 85.0598 128.13 60.3898 148.36C35.7098 168.6 37.3198 190.96 45.2098 208.23C53.1098 225.5 47.5198 249.8 40.8698 270.06C31.1798 299.62 50.9998 318 69.3698 327.33C76.5098 330.95 81.5898 337.68 83.3598 345.49C88.6198 368.74 62.8098 413.84 13.4098 444.43C4.80984 449.76 -3.53016 453.88 1.52984 462.45C3.50984 465.79 8.33984 469.95 22.9498 461.68C93.3698 421.82 121.03 392.52 127.91 362.03C132.56 341.44 146.11 341.36 151.37 339.94C171.47 334.52 201.61 304.86 186.37 266.37C169.94 224.85 184.96 237.78 184.06 179.12C183.39 135.78 137.86 143.44 144.28 115.8C144.28 115.8 150.7 117.28 113.19 123.2L113.2 123.19Z" fill="#997964"/>
<path d="M89.5196 131.211C89.5196 131.211 71.8796 151.191 62.7496 176.531C57.7196 190.511 76.6496 214.451 68.5296 245.101C42.9196 341.751 167.74 326.701 163.53 281.451C160.23 245.931 170.14 220.321 164.36 180.671C158.95 143.561 133.11 133.251 133.11 133.251L89.5196 131.221V131.211Z" fill="#F2E6CD"/>
<path d="M54.6294 257.729C54.6294 257.729 69.7094 266.079 81.0394 256.719C92.3694 247.359 92.0594 237.159 100.859 243.299C109.659 249.439 109.729 270.659 106.389 279.979C99.9294 297.999 77.0994 298.099 80.7394 312.409C80.7394 312.409 44.8594 305.049 54.6394 257.729H54.6294Z" fill="#997964"/>
<path d="M57.1699 162.73C68.9099 170.28 84.1899 161.4 96.3899 158.57C107.73 155.93 112.97 173.07 101.98 182.78C90.9999 192.48 68.3599 190.86 58.7299 211.12" fill="#997964"/>
<path d="M172.35 257.729C172.35 257.729 157.27 266.079 145.94 256.719C134.61 247.359 134.92 237.159 126.12 243.299C117.32 249.439 117.25 270.659 120.59 279.979C127.05 297.999 142.87 302.099 146.24 312.409C146.24 312.409 168.49 308.709 175.92 289.709C183.35 270.709 172.34 257.729 172.34 257.729H172.35Z" fill="#997964"/>
<path d="M169.81 162.73C158.07 170.28 142.79 161.4 130.59 158.57C119.25 155.93 114.01 173.07 125 182.78C135.98 192.48 158.62 190.86 168.25 211.12" fill="#997964"/>
<path d="M48.0703 66.5508C57.5972 66.5508 65.3203 58.8277 65.3203 49.3008C65.3203 39.7739 57.5972 32.0508 48.0703 32.0508C38.5434 32.0508 30.8203 39.7739 30.8203 49.3008C30.8203 58.8277 38.5434 66.5508 48.0703 66.5508Z" fill="#997964"/>
<path d="M48.07 61.6205C54.8741 61.6205 60.39 56.1046 60.39 49.3005C60.39 42.4963 54.8741 36.9805 48.07 36.9805C41.2659 36.9805 35.75 42.4963 35.75 49.3005C35.75 56.1046 41.2659 61.6205 48.07 61.6205Z" fill="#3C301F"/>
<path d="M171.31 66.5508C180.836 66.5508 188.56 58.8277 188.56 49.3008C188.56 39.7739 180.836 32.0508 171.31 32.0508C161.783 32.0508 154.06 39.7739 154.06 49.3008C154.06 58.8277 161.783 66.5508 171.31 66.5508Z" fill="#997964"/>
<path d="M171.31 61.6205C178.114 61.6205 183.63 56.1046 183.63 49.3005C183.63 42.4963 178.114 36.9805 171.31 36.9805C164.506 36.9805 158.99 42.4963 158.99 49.3005C158.99 56.1046 164.506 61.6205 171.31 61.6205Z" fill="#3C301F"/>
<path d="M107.43 5.01002C107.38 2.30001 109.15 0.060015 111.38 0.010015C113.61 -0.049985 115.46 2.10001 115.51 4.80001L115.58 8.64002L116.65 5.07001C117.41 2.53001 119.73 1.22002 121.83 2.14002C123.93 3.07002 125.01 5.88002 124.24 8.42002L120.56 20.7C119.8 23.24 117.48 24.55 115.38 23.63C114.71 23.33 114.14 22.84 113.71 22.23C113.14 22.62 112.49 22.85 111.79 22.87C111.22 22.88 110.67 22.75 110.17 22.51C109.8 23.89 108.92 25.06 107.71 25.6C105.61 26.53 103.3 25.21 102.53 22.67L98.8498 10.39C98.0898 7.85002 99.1698 5.04001 101.26 4.11001C103.36 3.18001 105.67 4.50001 106.44 7.04001L107.53 10.67L107.43 5.02001V5.01002Z" fill="#997964"/>
<path d="M109.69 139.26C147.124 139.26 177.47 111.121 177.47 76.4096C177.47 41.6985 147.124 13.5596 109.69 13.5596C72.2563 13.5596 41.9102 41.6985 41.9102 76.4096C41.9102 111.121 72.2563 139.26 109.69 139.26Z" fill="#997964"/>
<path fill-rule="evenodd" clip-rule="evenodd" d="M45.5002 96.6406C52.0502 85.3106 64.5902 77.6406 78.9902 77.6406C87.0802 77.6406 94.5902 80.0606 100.78 84.2006C106.52 88.0406 115.32 88.0406 121.06 84.2006C127.25 80.0706 134.75 77.6406 142.85 77.6406C156.15 77.6406 167.87 84.1806 174.74 94.1106C166.49 120.201 140.49 139.261 109.68 139.261C78.8702 139.261 54.5702 121.431 45.4902 96.6406H45.5002Z" fill="#F2E6CD"/>
<path d="M72.1101 88.7301C75.8546 88.7301 78.8901 87.0735 78.8901 85.0301C78.8901 82.9866 75.8546 81.3301 72.1101 81.3301C68.3656 81.3301 65.3301 82.9866 65.3301 85.0301C65.3301 87.0735 68.3656 88.7301 72.1101 88.7301Z" fill="#FCCCB8"/>
<path d="M148.509 88.7301C152.254 88.7301 155.289 87.0735 155.289 85.0301C155.289 82.9866 152.254 81.3301 148.509 81.3301C144.765 81.3301 141.729 82.9866 141.729 85.0301C141.729 87.0735 144.765 88.7301 148.509 88.7301Z" fill="#FCCCB8"/>
<path d="M69.6994 103.16L41.5894 109.62M67.4694 92.3604L40.3594 89.9004L67.4694 92.3604ZM68.4094 97.8804L40.3594 99.7604L68.4094 97.8804Z" stroke="#3C301F" stroke-width="2.46" stroke-linecap="round"/>
<path d="M150.92 103.16L179.03 109.62M153.15 92.3604L180.26 89.9004L153.15 92.3604ZM152.21 97.8804L180.26 99.7604L152.21 97.8804Z" stroke="#3C301F" stroke-width="2.46" stroke-linecap="round"/>
<path d="M122.8 98.8203C122.8 98.8203 121.02 104.59 112.06 104.59C103.1 104.59 101.32 98.8203 101.32 98.8203" stroke="#7A5751" stroke-width="2.66" stroke-miterlimit="10" stroke-linecap="round"/>
<path d="M149.46 65.9499C152.31 69.7099 152.45 74.8599 150.82 78.6199C148.71 83.5099 141.67 84.8899 137.91 81.1299C134.15 77.3699 133.11 69.7099 136.88 65.9499C140.64 62.1899 146.25 61.6999 149.47 65.9499H149.46Z" fill="url(#paint0_linear_316_15290)"/>
<path d="M149.39 66.0002C149.39 66.0002 149.43 65.9902 149.37 65.9302L149.3 65.9102L149.4 66.0002H149.39Z" fill="#7A5751"/>
<path d="M149.08 65.5098C149 65.4498 148.89 65.3798 148.91 65.4598C149.01 65.5098 149.01 65.5398 149.12 65.5898C149.18 65.6498 149.21 65.7098 149.18 65.7098C149.21 65.7298 149.26 65.8198 149.31 65.8398C149.26 65.7298 149.17 65.6198 149.05 65.5298C149.04 65.4998 149.07 65.5198 149.08 65.5198V65.5098Z" fill="#7A5751"/>
<path d="M136.889 65.8195L136.929 65.7695C136.899 65.7995 136.879 65.8195 136.889 65.8195Z" fill="#7A5751"/>
<path d="M136.25 66.4599L136.29 66.4199C136.29 66.4199 136.26 66.4499 136.25 66.4599Z" fill="#7A5751"/>
<path d="M141.4 63.1895L141.26 63.2195C141.26 63.2195 141.33 63.2095 141.4 63.1895Z" fill="#7A5751"/>
<path d="M148.189 64.7598C148.189 64.7598 148.229 64.7898 148.249 64.7998L148.199 64.7598H148.189Z" fill="#7A5751"/>
<path d="M143.699 62.8598H143.739L143.779 62.8398L143.699 62.8598V62.8598Z" fill="#7A5751"/>
<path d="M145.479 63.0898C145.479 63.0898 145.419 63.1098 145.399 63.1198C145.429 63.1198 145.459 63.1198 145.489 63.1198C145.489 63.1198 145.489 63.0998 145.479 63.0898Z" fill="#7A5751"/>
<path d="M147.979 64.4004L148.02 64.4304L147.979 64.4004Z" fill="#7A5751"/>
<path d="M142.419 62.9202C142.419 62.9202 142.409 62.9202 142.399 62.9102C142.399 62.9102 142.399 62.9102 142.419 62.9202Z" fill="#7A5751"/>
<path d="M150.379 67.7701C150.379 67.7701 150.369 67.7601 150.379 67.7701V67.7701Z" fill="#7A5751"/>
<path d="M149.47 65.9395L149.49 65.9594H149.51L149.47 65.9395Z" fill="#7A5751"/>
<path d="M138.44 81.7989C138.33 81.6589 138.68 81.9489 138.51 81.7489C138.51 81.7789 138.29 81.6389 138.44 81.7989Z" fill="#7A5751"/>
<path d="M148.159 64.7297L148.109 64.6797L148.159 64.7297Z" fill="#7A5751"/>
<path d="M138.499 81.7505L138.489 81.7305L138.499 81.7505Z" fill="#7A5751"/>
<path d="M134.39 71.5498C134.39 71.5498 134.4 71.5298 134.41 71.5098C134.41 71.5098 134.41 71.5098 134.39 71.5498Z" fill="#7A5751"/>
<path d="M135.009 68.7793L134.979 68.8393L135.009 68.7793Z" fill="#7A5751"/>
<path d="M134.59 74.5507L134.6 74.5207L134.59 74.4707V74.5507Z" fill="#7A5751"/>
<path d="M151.64 72.1207C151.64 72.1207 151.66 72.0607 151.67 72.0507C151.65 72.0807 151.61 71.8607 151.64 72.1207Z" fill="#7A5751"/>
<path d="M148.199 64.7505C148.199 64.7505 148.179 64.7505 148.159 64.7305L148.199 64.7605C148.199 64.7605 148.209 64.7605 148.199 64.7505Z" fill="#7A5751"/>
<path d="M148.029 81.6902L148.069 81.6602C148.069 81.6602 148.039 81.6802 148.029 81.6902Z" fill="#7A5751"/>
<path d="M134.819 74.0098C134.819 74.0098 134.819 74.0998 134.819 74.1498C134.819 74.1498 134.819 74.1698 134.829 74.1798V74.0198L134.819 74.0098Z" fill="#7A5751"/>
<path d="M151.33 70.5202C151.38 70.7402 151.4 70.6102 151.44 70.6502C151.5 70.9102 151.43 70.7802 151.42 70.8802C151.46 71.0402 151.53 71.1602 151.55 71.2902C151.55 71.3002 151.55 71.3302 151.53 71.2902C151.61 71.4602 151.6 71.8202 151.68 72.0202C151.68 72.0402 151.68 72.0402 151.68 72.0502C151.7 72.0102 151.72 72.0102 151.74 72.0102C151.75 72.1102 151.79 72.2002 151.77 72.2402C151.77 72.1802 151.75 72.1702 151.74 72.1502L151.77 72.2602C151.74 72.3602 151.74 72.1202 151.7 72.1202C151.75 72.3302 151.79 72.5702 151.78 72.7302C151.74 72.7702 151.74 72.3602 151.72 72.5702V72.3202C151.66 72.5102 151.72 72.1702 151.65 72.3502C151.65 72.6702 151.69 72.7102 151.7 73.0302C151.73 73.1002 151.74 73.0002 151.76 73.0802C151.81 73.5402 151.64 73.4402 151.7 73.7802C151.73 73.8702 151.79 73.9102 151.74 74.1502L151.69 74.0702C151.66 74.3802 151.75 74.2502 151.69 74.5802C151.67 74.5202 151.69 74.3302 151.69 74.3802C151.64 74.5902 151.71 74.5302 151.69 74.7002L151.64 74.7302C151.6 75.0602 151.6 75.4402 151.54 75.8002C151.54 75.7802 151.53 75.7102 151.5 75.8002C151.44 76.2702 151.29 76.7802 151.14 77.2002L151.12 77.3802C151.12 77.3802 151.08 77.4502 151.09 77.4002C151.02 77.5602 151.11 77.4202 151.09 77.5002C151.06 77.6002 151.03 77.6202 151.04 77.5502C150.99 77.8602 150.81 78.4102 150.63 78.6902L150.65 78.6302C150.52 78.8502 150.59 78.9202 150.45 79.1102V79.0702C150.34 79.3202 150.2 79.5702 150.03 79.7802C149.87 80.0002 149.73 80.2202 149.56 80.3502C149.55 80.4502 149.17 80.7302 149.21 80.8102C148.97 81.0202 149.01 80.9302 148.66 81.2002C148.57 81.2702 148.56 81.3502 148.45 81.4502L148.42 81.4202C148.38 81.4802 148.34 81.5302 148.29 81.5702L148.17 81.5902L148.06 81.6702C148.06 81.6702 148.17 81.6202 148.17 81.6402C148 81.7702 147.72 81.9002 147.7 81.8902C147.57 82.0002 147.42 82.0802 147.28 82.1702C147.28 82.1502 147.36 82.1102 147.41 82.0702C147.19 82.2302 147.35 82.0502 147.14 82.2002C147.17 82.2002 147.14 82.2302 147.14 82.2402C147.02 82.2702 146.78 82.4202 146.58 82.4902L146.61 82.4502C146.26 82.5702 145.88 82.7602 145.47 82.8402C145.62 82.8202 145.6 82.8702 145.47 82.9102L145.41 82.8802C145.34 82.9302 145.54 82.8602 145.39 82.9402C145.24 82.9702 145.28 82.9202 145.36 82.8802L145.18 82.9402C145.18 82.9402 145.21 82.9102 145.22 82.8902C145.15 82.9302 144.89 82.9302 144.79 82.9902H144.78C144.36 83.0302 144.18 83.1002 143.84 83.1102C143.84 83.1502 143.7 83.1402 143.6 83.1802C143.35 83.1802 143.07 83.1702 142.77 83.1302C142.56 83.1302 142.71 83.1602 142.61 83.1702C142.6 83.1302 142.29 83.1102 142.45 83.1002C142.09 83.0902 141.99 83.0402 141.53 82.9802C141.58 83.0002 141.63 83.0202 141.6 83.0302C141.52 83.0202 141.42 82.9802 141.43 82.9602H141.45C140.93 82.8902 140.34 82.5302 139.95 82.4002H139.97L139.57 82.2602C139.4 82.1702 139.69 82.2902 139.57 82.2102C139.16 82.0102 138.96 81.8202 138.64 81.6202C138.48 81.3602 137.85 80.9502 137.65 80.5902V80.6202C137.56 80.5602 137.57 80.5202 137.53 80.4602C137.53 80.4802 137.59 80.5602 137.53 80.5202C136.94 79.8802 136.48 79.0602 136.11 78.2502C135.97 77.9502 135.92 78.1402 135.79 77.7402L135.88 77.8302C135.56 77.2502 135.37 76.5802 135.16 75.9702C135.18 76.0002 135.19 76.0002 135.21 76.0602C135.21 75.9202 135.06 75.5802 135.05 75.5802C135.03 75.4802 135.07 75.5502 135.07 75.4902C135.06 75.3502 134.96 75.1602 134.97 75.0902C134.97 75.0802 134.99 75.1302 135 75.1502C134.97 75.0702 134.92 74.7402 134.9 74.8302C134.86 74.5902 134.81 74.3702 134.8 74.1802C134.74 74.0602 134.77 73.7702 134.7 73.7302C134.75 73.7402 134.7 73.3002 134.68 73.1502C134.7 73.2002 134.69 73.0202 134.72 73.0702C134.72 72.9002 134.69 72.7402 134.66 72.7702C134.7 72.4502 134.61 72.1202 134.7 71.9402C134.67 71.4202 134.74 70.9402 134.78 70.4702C134.84 70.5002 134.72 70.9802 134.78 70.9702C134.8 70.5302 134.8 70.2702 134.92 69.8402C134.95 69.7302 134.93 69.9102 134.93 69.9502C134.99 69.5102 135.16 69.1302 135.26 68.7502C135.26 68.7502 135.26 68.8002 135.25 68.8302C135.27 68.7602 135.32 68.6602 135.29 68.6602L135.27 68.7302C135.2 68.8402 135.29 68.4002 135.29 68.3902C135.3 68.5402 135.48 68.0502 135.48 68.2802C135.5 68.2302 135.51 68.1702 135.49 68.1702C135.53 68.1002 135.55 68.0902 135.53 68.1702C135.64 67.9102 135.57 67.9902 135.68 67.7602C135.69 67.7602 135.68 67.8202 135.68 67.8502C135.71 67.7202 135.74 67.5902 135.87 67.4202C135.87 67.4302 135.89 67.4202 135.86 67.4702C136.07 67.1702 136.12 66.8902 136.41 66.6002C136.38 66.7302 136.51 66.5102 136.57 66.5202L136.7 66.3502L136.63 66.4002C136.76 66.2602 136.83 66.1002 136.96 66.0002C136.93 66.0402 136.91 66.0802 136.88 66.1202C136.95 66.0202 137.04 65.9502 137.13 65.8602L136.97 65.9802C137.09 65.8302 136.91 65.9502 137.11 65.7902C137.08 65.8302 137.25 65.6602 137.34 65.6202C137.4 65.5502 137.46 65.4702 137.57 65.3802C137.61 65.3702 137.58 65.4402 137.61 65.4302C137.65 65.3302 137.95 65.1502 138.02 65.0402C138 65.0702 138.01 65.0902 138.02 65.0902L138.06 65.0202C138.14 64.9702 138.15 64.9702 138.15 65.0002C138.36 64.8402 138.05 65.0002 138.31 64.8302C138.29 64.8502 138.31 64.8402 138.27 64.8802C138.53 64.7002 138.77 64.5302 139.02 64.3802C139.12 64.3802 138.81 64.5302 138.92 64.5102C139.26 64.2602 139.65 64.0402 140.01 63.8602L139.94 63.8902C139.96 63.7902 140.23 63.8002 140.41 63.6902C140.37 63.7102 140.36 63.7502 140.37 63.7402C140.63 63.6502 140.88 63.5002 141.29 63.3802L141.25 63.4102C141.41 63.3902 141.66 63.2802 141.84 63.2702C141.89 63.2402 141.99 63.2302 141.92 63.2102C142.47 63.1902 142.94 63.0002 143.43 63.0502C143.37 63.0502 143.29 63.0802 143.34 63.0702C143.48 63.0502 143.61 63.0702 143.75 63.0602C143.72 63.0302 143.7 63.0402 143.61 63.0102C143.66 62.9902 143.78 62.9802 143.88 62.9902C143.69 63.0002 143.88 63.0402 143.96 63.0602C143.95 63.0602 143.97 63.0402 143.96 63.0302C144.17 63.0902 144 62.9602 144.29 63.0302H144.27C144.38 63.0502 144.48 63.0402 144.6 63.0702C144.64 63.1102 144.48 63.0702 144.47 63.1002C144.63 63.1202 144.81 63.0802 144.95 63.1402L144.71 63.1202C144.87 63.1802 144.89 63.1802 145 63.2002H144.99C145.08 63.2102 145.17 63.2502 145.26 63.2802L145.19 63.2502C145.41 63.2102 145.6 63.3402 145.89 63.3602C145.61 63.3402 145.84 63.3802 145.8 63.4102C145.87 63.4302 145.96 63.5002 145.93 63.4902C146.06 63.5102 146.12 63.6002 146.31 63.6202C146.31 63.6402 146.44 63.6702 146.4 63.6902C146.56 63.7402 146.37 63.6502 146.4 63.6402C146.67 63.6802 146.93 63.9702 147.29 64.0902C147.58 64.2402 147.65 64.2502 147.91 64.4102C147.98 64.4902 147.81 64.4002 147.81 64.4002C147.93 64.5202 148.04 64.5802 148.17 64.6702C148.14 64.6602 148.16 64.6902 148.18 64.7302C148.27 64.8102 148.27 64.7502 148.38 64.8802C148.35 64.8802 148.31 64.8602 148.25 64.8302L148.61 65.1002C148.61 65.1002 148.52 65.0602 148.47 65.0402C148.6 65.1502 148.81 65.3202 148.87 65.3502L148.81 65.2602C148.81 65.2602 148.81 65.3002 148.77 65.2802C148.64 65.2002 148.62 65.1302 148.63 65.1102L148.72 65.1802C148.69 65.0502 148.39 64.8902 148.23 64.7402L148.33 64.7602L148.13 64.6402C148.13 64.6402 148.09 64.5502 148.18 64.6202C148.07 64.5002 148.05 64.5502 147.96 64.4502C147.96 64.4402 147.96 64.4402 147.97 64.4502L147.83 64.3702C147.83 64.3702 147.83 64.3202 147.91 64.3902C147.7 64.2002 147.52 64.1602 147.46 64.0602H147.48C147.13 63.8902 147.43 64.0802 147.15 63.9802L147.03 63.8002L146.98 63.8202C146.98 63.8202 146.88 63.7602 146.9 63.7502C146.76 63.7002 146.91 63.7802 146.83 63.7502C146.68 63.6102 146.34 63.5602 146.33 63.4702C146.25 63.4702 146.49 63.5602 146.29 63.5002C146.26 63.4102 146.07 63.4202 145.91 63.3302C145.97 63.3202 146.12 63.4002 145.97 63.3002C145.85 63.3102 145.64 63.1902 145.5 63.1602C145.48 63.2102 145.18 63.0802 144.93 63.0602C144.95 63.0502 144.47 62.9702 144.24 62.9202C144.24 62.9202 143.95 62.9402 143.78 62.9502C143.78 62.9202 143.82 62.9102 143.92 62.9002H143.75C143.75 62.9002 143.66 62.9202 143.55 62.9202L143.59 62.8802C143.37 62.8602 143.15 62.9402 142.87 62.9302C142.86 62.9702 143.1 63.0102 142.81 63.0502C142.8 63.0302 142.78 63.0002 142.86 62.9902C142.83 62.9902 142.77 63.0102 142.72 63.0102L142.83 62.9702C142.7 62.9702 142.77 63.0002 142.66 63.0102C142.66 62.9802 142.58 63.0002 142.59 62.9802C142.62 62.9802 142.68 62.9802 142.72 62.9802C142.6 62.9802 142.46 62.9802 142.41 62.9802C142.42 62.9902 142.41 63.0202 142.33 63.0302C142.12 63.0702 142.25 63.0102 142.12 63.0302C142.07 63.0602 141.93 63.0702 141.93 63.1002C141.87 63.1102 141.85 63.1002 141.82 63.1002C141.71 63.1302 141.31 63.2302 141.44 63.2402H141.45C141.11 63.3802 140.7 63.4302 140.37 63.6002C140.17 63.6902 139.92 63.7702 139.79 63.8802C139.73 63.9102 139.64 63.9302 139.66 63.9002C139.52 63.9902 139.51 64.0102 139.28 64.1002C139.42 64.0002 139.22 64.1002 139.43 64.0102C139.23 64.1002 139.17 64.1002 138.99 64.2502C139.04 64.1802 138.83 64.3002 138.75 64.3702L138.89 64.3102C138.79 64.3802 138.71 64.4302 138.62 64.4802L138.64 64.4102C138.22 64.6002 138.03 64.9502 137.71 65.0802C137.64 65.1802 137.92 64.9502 137.85 65.0402C137.69 65.1602 137.47 65.2402 137.43 65.2902C137.21 65.4602 137.28 65.5202 137.05 65.7002C137.09 65.6902 137.14 65.7002 136.99 65.8502C136.84 65.9802 136.76 65.9702 136.84 65.8802C136.88 65.8502 136.9 65.8302 136.9 65.8402C136.94 65.7902 137 65.7302 136.93 65.7702V65.8002C136.83 65.8502 136.64 66.0602 136.67 66.0002C136.58 66.1302 136.64 66.0702 136.73 65.9902C136.54 66.1802 136.46 66.3002 136.27 66.5002C136.31 66.4702 136.35 66.4502 136.32 66.4902C136.05 66.7802 136.22 66.6302 136.07 66.8602C135.97 66.9702 136.05 66.7802 135.92 67.0202C135.82 67.1502 135.87 67.0202 135.89 66.9602C135.78 67.1902 135.62 67.3402 135.53 67.4602L135.59 67.3402L135.48 67.5202C135.48 67.5202 135.52 67.4902 135.55 67.4702C135.5 67.5302 135.48 67.5902 135.47 67.5802C135.45 67.6602 135.54 67.5502 135.5 67.7102C135.44 67.7902 135.38 68.0002 135.33 68.0102C135.48 67.7302 135.28 68.0202 135.39 67.7702C135.37 67.8202 135.34 67.8802 135.3 67.9502C135.3 67.9502 135.3 67.9402 135.3 67.9202C135.13 68.1802 135.28 68.0702 135.14 68.3602C135.14 68.3102 135.06 68.4102 135.05 68.4602C135.1 68.3402 135.1 68.4202 135.08 68.5402C135 68.7302 135.02 68.7602 134.98 68.8602L135.03 68.7502C135.03 68.7502 135 68.8902 134.96 69.0302C134.94 69.0302 134.99 68.9002 134.96 68.9502C134.96 69.1102 134.8 69.2702 134.76 69.4902C134.72 69.5902 134.71 69.4902 134.68 69.5702C134.65 69.8202 134.59 69.8202 134.55 70.0902C134.6 70.0202 134.59 70.0102 134.58 70.1902L134.65 69.7702L134.63 70.0502C134.66 69.9202 134.67 69.7802 134.69 69.7102C134.69 69.8402 134.69 69.8302 134.72 69.7702C134.63 69.9302 134.67 70.1202 134.59 70.3102L134.51 70.2902C134.41 70.5802 134.47 70.8402 134.39 71.2302L134.42 71.1002C134.44 71.1602 134.39 71.3402 134.39 71.4702C134.36 71.4602 134.35 71.5402 134.33 71.5902C134.35 71.5902 134.32 71.8802 134.37 71.9202L134.33 72.1002C134.31 72.4202 134.38 72.4702 134.39 72.7702C134.36 72.6802 134.35 72.8202 134.31 72.6102C134.31 72.7102 134.31 72.8102 134.33 72.8102C134.32 72.8702 134.38 73.0902 134.36 73.1902C134.37 73.2302 134.4 73.2502 134.41 73.3602C134.41 73.3702 134.4 73.3602 134.4 73.3602C134.41 73.3602 134.43 73.5402 134.45 73.4402C134.38 73.7602 134.56 74.3202 134.52 74.6002C134.56 74.8202 134.64 75.0802 134.68 75.2802C134.67 75.2702 134.67 75.2802 134.66 75.2402C134.69 75.5202 134.77 75.3902 134.81 75.7102C134.81 75.8802 134.75 75.5502 134.76 75.6502C134.68 75.7202 134.87 76.0202 134.89 76.2402L134.87 76.1902C134.89 76.3602 135.01 76.5702 135.09 76.8202H135.08C135.19 76.9802 135.33 77.3002 135.43 77.5302C135.37 77.4702 135.37 77.4302 135.36 77.4902C135.41 77.6002 135.4 77.4402 135.49 77.6502C135.49 77.7302 135.55 77.8902 135.53 77.9202C135.5 77.8502 135.46 77.7902 135.44 77.7202C135.44 77.8502 135.56 77.9802 135.6 78.0802H135.57C135.72 78.3702 135.77 78.3602 135.93 78.6802V78.6402C136.06 78.7902 135.98 78.8002 136.11 78.9502L136.09 79.0302C136.17 79.1402 136.37 79.3902 136.49 79.5902C136.39 79.5002 136.23 79.2802 136.13 79.1402C136.2 79.2502 136.36 79.5102 136.41 79.5602C136.38 79.5202 136.33 79.4702 136.32 79.4202C136.43 79.5402 136.56 79.7002 136.71 79.9002C136.61 79.9202 137.07 80.4602 137.14 80.6502C137.47 80.9602 137.72 81.3502 138.15 81.6802C138.06 81.5002 138.27 81.7802 138.3 81.7002C138.4 81.7802 138.43 81.8102 138.44 81.8202C138.52 81.9202 138.62 82.0002 138.71 82.0802C138.77 82.1502 138.6 82.0302 138.6 82.0502C138.83 82.2002 138.68 82.1402 138.82 82.2602C138.81 82.2202 138.92 82.2802 139.05 82.3702L138.89 82.2202C139.24 82.3802 139.12 82.4802 139.49 82.6102L139.37 82.5802C139.56 82.6502 140.03 82.9002 140.23 82.9202C140.26 82.9402 140.3 82.9802 140.21 82.9502C140.66 83.1102 141.22 83.2302 141.58 83.3102H141.54C141.63 83.3302 141.7 83.3102 141.8 83.3602C141.8 83.3602 141.76 83.3702 141.8 83.3802C141.85 83.3802 142.03 83.4002 142.15 83.4202C142.12 83.4202 142.08 83.4302 142.05 83.4302C142.51 83.4902 142.76 83.4502 143.14 83.4402C143.14 83.5002 143.5 83.5102 143.68 83.5102C144.22 83.5102 144.58 83.3802 145.06 83.2802C145.37 83.2802 146.08 83.0602 146.54 82.9002C146.47 82.9202 146.54 82.8502 146.61 82.8202C146.73 82.8002 146.89 82.6602 146.89 82.7202L146.85 82.7402C146.95 82.7402 147.16 82.6302 147.32 82.5502V82.4702C147.56 82.4202 147.83 82.2402 148.06 82.0702C148.3 81.9002 148.51 81.7502 148.63 81.6902L148.9 81.4202L148.92 81.4502C149.18 81.2502 149.3 81.1402 149.56 80.8302L149.52 80.9102C149.68 80.7402 149.63 80.6302 149.77 80.4702H149.86C150.08 80.1302 150.38 79.8502 150.52 79.4702C150.52 79.4702 150.53 79.5002 150.51 79.5602C150.6 79.4002 150.88 78.9302 150.78 78.9602C150.84 78.9802 150.97 78.6002 151.01 78.3902L151.03 78.4302C151.05 78.2502 151.04 78.2402 151.12 78.0002C151.14 77.9502 151.17 77.9602 151.12 78.0302C151.2 77.8502 151.13 77.8702 151.23 77.6502V77.7402C151.29 77.5502 151.27 77.5602 151.28 77.4502C151.31 77.3302 151.4 77.0902 151.44 77.0602C151.43 77.0302 151.43 76.9102 151.47 76.8002C151.49 76.7902 151.48 76.8302 151.48 76.8502C151.59 76.5302 151.56 76.3502 151.64 76.1302C151.65 76.1302 151.66 76.1102 151.67 76.1002C151.62 76.3602 151.57 76.5802 151.57 76.5502C151.61 76.5502 151.66 76.3502 151.67 76.5302C151.68 76.3502 151.68 76.0502 151.74 75.8402C151.74 75.8402 151.75 75.8202 151.76 75.8102V75.8302C151.76 75.8302 151.78 75.7402 151.78 75.7002C151.8 75.6302 151.81 75.5902 151.81 75.5302C151.84 75.5102 151.86 75.2802 151.87 75.1802C151.83 75.1802 151.86 75.0402 151.81 75.1802C151.81 75.1602 151.81 75.2002 151.81 75.2702V75.3202L151.78 75.5802C151.78 75.4902 151.77 75.4002 151.8 75.2902L151.76 75.1302C151.84 74.9902 151.89 74.7102 151.92 74.6702C151.92 74.3402 151.96 73.8902 151.88 73.6802C151.88 73.5902 151.9 73.5702 151.91 73.5402C151.91 73.5902 151.91 73.6602 151.92 73.6902C151.9 73.5002 151.92 73.1302 151.86 73.0902C151.86 72.8502 151.91 73.2202 151.89 72.9002L151.91 72.9402C151.96 72.2902 151.72 71.9102 151.7 71.2002C151.7 71.2502 151.7 71.2702 151.7 71.2902C151.63 70.4802 151.3 69.6802 151.09 68.9102C151.02 68.6902 150.98 68.6802 150.91 68.5602L150.93 68.5002L150.8 68.3002C150.63 68.0102 150.64 67.7302 150.38 67.3802V67.4402C150.31 67.3102 150.13 67.0302 150.17 67.0402C150.16 67.0302 150.12 67.0102 150.1 66.9502H150.12C150.04 66.8302 149.98 66.7302 149.89 66.6402C149.74 66.3902 149.99 66.6402 149.75 66.2802C149.65 66.1502 149.44 65.9502 149.47 66.0002C149.51 66.0502 149.55 66.1402 149.54 66.1602L149.45 66.0502C149.39 66.0702 149.27 66.0202 149.44 66.3302L149.61 66.5102L149.63 66.5902L149.51 66.4202C149.55 66.5302 149.61 66.5802 149.68 66.6302C149.68 66.6502 149.68 66.6902 149.71 66.7302C149.77 66.7802 149.83 66.8402 149.89 66.9002C149.89 66.9402 149.8 66.8302 149.86 66.9802C149.94 67.0602 149.86 66.8602 149.96 67.0102C149.99 67.1202 149.96 67.1102 150.05 67.2102C150.05 67.2302 150.02 67.2102 149.99 67.1702C150.07 67.2602 150.16 67.4402 150.22 67.4802C150.25 67.6002 150.41 67.8402 150.36 67.8602C150.39 67.8902 150.5 68.0302 150.55 68.1302C150.4 67.9802 150.73 68.5102 150.63 68.4902C150.74 68.6102 150.87 68.9802 150.98 69.2202C150.98 69.2102 150.95 69.1802 150.95 69.1602C150.99 69.3002 150.99 69.3502 151 69.4502C151.06 69.4502 151.14 69.6702 151.21 69.7802C151.21 69.9702 151.12 69.6902 151.09 69.7602C151.13 69.7402 151.23 70.0502 151.24 69.9802C151.24 70.1202 151.25 70.1002 151.24 70.1802C151.31 70.1802 151.28 70.3002 151.35 70.4102C151.37 70.6102 151.3 70.4702 151.38 70.6902C151.38 70.8002 151.32 70.6102 151.32 70.6102L151.33 70.5202ZM151.56 75.7902L151.58 75.6802L151.56 75.7902ZM151.48 76.2302L151.52 76.0402C151.52 76.0402 151.55 76.0402 151.54 76.0902C151.54 76.0602 151.51 76.1702 151.49 76.2302H151.48ZM151.9 75.3302C151.9 75.4002 151.89 75.4302 151.88 75.4302V75.3002C151.88 75.3002 151.89 75.3002 151.89 75.3202L151.9 75.3302Z" fill="#7A5751"/>
<path d="M141.46 63.1699V63.1799H141.48L141.46 63.1699Z" fill="#7A5751"/>
<path d="M148.42 81.3991H148.43L148.45 81.3691L148.42 81.3991Z" fill="#7A5751"/>
<path d="M143.939 63.0293C143.939 63.0293 143.949 63.0293 143.969 63.0393C143.969 63.0393 143.949 63.0393 143.939 63.0293Z" fill="#7A5751"/>
<path d="M144.989 63.1602C144.989 63.1602 145.089 63.1902 145.129 63.2102C145.069 63.1802 145.019 63.1702 144.989 63.1602Z" fill="#7A5751"/>
<path d="M145.77 63.3791C145.77 63.3791 145.79 63.3791 145.79 63.3691H145.77V63.3791Z" fill="#7A5751"/>
<path d="M135.27 68.8105V68.8405C135.24 68.9105 135.26 68.8605 135.27 68.8105Z" fill="#7A5751"/>
<path d="M137.33 65.5996L137.25 65.6996C137.3 65.6596 137.34 65.6196 137.33 65.5996Z" fill="#7A5751"/>
<path d="M137.119 65.8192C137.179 65.7792 137.219 65.7392 137.249 65.6992C137.209 65.7392 137.149 65.7792 137.119 65.8192Z" fill="#7A5751"/>
<path d="M148.72 65.2598L148.75 65.2898L148.72 65.2598Z" fill="#7A5751"/>
<path d="M148.75 65.2891L148.78 65.3191C148.78 65.3191 148.76 65.2891 148.75 65.2891Z" fill="#7A5751"/>
<path d="M148.849 65.3803L148.779 65.3203C148.779 65.3203 148.819 65.3703 148.849 65.3803Z" fill="#7A5751"/>
<path d="M147.659 64.3398C147.719 64.3898 147.799 64.4798 147.889 64.5398H147.899C147.849 64.5198 147.719 64.3698 147.649 64.3398H147.659Z" fill="#7A5751"/>
<path d="M146.55 63.5098C146.64 63.5498 146.72 63.5898 146.8 63.6398C146.76 63.5998 146.72 63.5498 146.83 63.6098C146.53 63.4098 146.89 63.6598 146.55 63.5098Z" fill="#7A5751"/>
<path d="M145.739 63.1807C145.889 63.2107 145.739 63.1607 145.749 63.1507C145.649 63.1407 145.629 63.1307 145.739 63.1807Z" fill="#7A5751"/>
<path d="M139.629 63.8505V63.8105C139.529 63.8705 139.629 63.8205 139.629 63.8505Z" fill="#7A5751"/>
<path d="M138.68 64.6L138.79 64.56L138.82 64.5L138.68 64.6Z" fill="#7A5751"/>
<path d="M137.969 64.8095L137.999 64.7695L137.859 64.8995L137.969 64.8095Z" fill="#7A5751"/>
<path d="M134.519 74.2808L134.559 74.2408C134.539 74.1608 134.489 74.1508 134.519 74.2808Z" fill="#7A5751"/>
<path d="M135.949 78.5898C135.949 78.6498 135.999 78.7698 136.059 78.8198C136.009 78.7298 135.979 78.6298 135.949 78.5898Z" fill="#7A5751"/>
<path d="M147.609 82.3308L147.529 82.3908L147.679 82.3008L147.609 82.3308Z" fill="#7A5751"/>
<path d="M73.6801 65.9499C70.8301 69.7099 70.6901 74.8599 72.3201 78.6199C74.4301 83.5099 81.4701 84.8899 85.2301 81.1299C88.9901 77.3699 90.0301 69.7099 86.2601 65.9499C82.5001 62.1899 76.8901 61.6999 73.6701 65.9499H73.6801Z" fill="url(#paint1_linear_316_15290)"/>
<path d="M73.6094 65.8893C73.6094 65.8893 73.6294 65.9193 73.6794 65.8493V65.7793L73.6094 65.8893Z" fill="#7A5751"/>
<path d="M74.0495 65.4992C74.0995 65.4092 74.1495 65.2892 74.0795 65.3192C74.0495 65.4292 74.0195 65.4292 73.9795 65.5492C73.9295 65.6192 73.8695 65.6592 73.8695 65.6392C73.8595 65.6692 73.7695 65.7392 73.7695 65.7892C73.8695 65.7192 73.9595 65.6192 74.0395 65.4792C74.0695 65.4592 74.0595 65.4892 74.0595 65.4992H74.0495Z" fill="#7A5751"/>
<path d="M81.7102 63.3091L81.6602 63.2891L81.7102 63.3091Z" fill="#7A5751"/>
<path d="M86.1301 65.9402L86.0801 65.9102C86.1101 65.9302 86.1301 65.9502 86.1301 65.9402Z" fill="#7A5751"/>
<path d="M86.6794 66.6298L86.6494 66.5898C86.6494 66.5898 86.6694 66.6198 86.6794 66.6298Z" fill="#7A5751"/>
<path d="M81.71 63.3105L81.84 63.3605C81.84 63.3605 81.77 63.3305 81.71 63.3105Z" fill="#7A5751"/>
<path d="M74.8 64.5898C74.8 64.5898 74.76 64.6298 74.75 64.6498L74.8 64.5998V64.5898Z" fill="#7A5751"/>
<path d="M79.4401 63.0488H79.4001L79.3701 63.0688L79.4401 63.0488Z" fill="#7A5751"/>
<path d="M77.7195 63.2887C77.7195 63.2887 77.7594 63.2387 77.7694 63.2188C77.7494 63.2387 77.7295 63.2587 77.6895 63.2687C77.6895 63.2687 77.6894 63.2787 77.7094 63.2887H77.7195Z" fill="#7A5751"/>
<path d="M75.2099 64.459L75.1699 64.489L75.2099 64.459Z" fill="#7A5751"/>
<path d="M80.6895 63.1289C80.6895 63.1289 80.6894 63.1389 80.6994 63.1489C80.6994 63.1489 80.6995 63.1389 80.6895 63.1289Z" fill="#7A5751"/>
<path d="M87.4898 68.0089C87.4898 68.0089 87.4798 67.9889 87.4898 68.0089V68.0089Z" fill="#7A5751"/>
<path d="M84.51 81.5501C84.66 81.4701 84.33 81.7601 84.54 81.6301C84.51 81.6301 84.68 81.4301 84.51 81.5501Z" fill="#7A5751"/>
<path d="M74.8398 64.5598L74.8898 64.5098L74.8398 64.5598Z" fill="#7A5751"/>
<path d="M84.5498 81.6291L84.5698 81.6191L84.5498 81.6291Z" fill="#7A5751"/>
<path d="M88.4297 71.5693C88.4297 71.5693 88.4397 71.5493 88.4397 71.5293C88.4397 71.5293 88.4397 71.5393 88.4297 71.5693Z" fill="#7A5751"/>
<path d="M87.9297 68.8496L87.9497 68.9196L87.9297 68.8496Z" fill="#7A5751"/>
<path d="M88.4898 73.01C88.4898 73.01 88.4798 73.06 88.4898 73.11V73.09C88.4898 73.09 88.4898 73.05 88.4898 73V73.01Z" fill="#7A5751"/>
<path d="M88.3398 74.5095L88.3498 74.4795V74.4395L88.3398 74.5095Z" fill="#7A5751"/>
<path d="M71.1895 72.0887C71.1895 72.0887 71.2195 72.0387 71.2295 72.0187C71.1995 72.0387 71.2195 71.8187 71.1895 72.0887Z" fill="#7A5751"/>
<path d="M74.8198 64.6103C74.8198 64.6103 74.8198 64.5803 74.8398 64.5703L74.7998 64.6103C74.7998 64.6103 74.7998 64.6203 74.8098 64.6103H74.8198Z" fill="#7A5751"/>
<path d="M88.7798 73.0898L88.7598 73.3298L88.7798 73.0898Z" fill="#7A5751"/>
<path d="M74.9397 81.9499L74.8896 81.9199C74.8896 81.9199 74.9297 81.9399 74.9397 81.9499Z" fill="#7A5751"/>
<path d="M88.7001 74.0605C88.7001 74.0605 88.6702 74.1506 88.6602 74.1906C88.6602 74.2006 88.6602 74.2106 88.6602 74.2206L88.7001 74.0605Z" fill="#7A5751"/>
<path d="M71.3998 70.4196C71.3398 70.6496 71.4198 70.5396 71.4398 70.5896C71.3998 70.8696 71.3798 70.7096 71.3398 70.7996C71.3198 70.9696 71.3398 71.1096 71.3198 71.2396C71.3198 71.2396 71.2998 71.2696 71.2998 71.2396C71.2998 71.4196 71.2298 71.7796 71.2498 71.9996C71.2498 72.0196 71.2398 72.0196 71.2298 72.0296C71.2598 71.9996 71.2798 71.9996 71.2998 71.9996C71.2898 72.0996 71.2998 72.1896 71.2698 72.2296C71.2698 72.1696 71.2698 72.1596 71.2598 72.1296V72.2396C71.1998 72.3296 71.2598 72.0896 71.2298 72.0896C71.2098 72.2996 71.2498 72.5496 71.2298 72.7096C71.1798 72.7396 71.2298 72.3296 71.1798 72.5396L71.2098 72.2896C71.1298 72.4796 71.2198 72.1396 71.1398 72.3096C71.1098 72.6396 71.1398 72.6796 71.1098 73.0096C71.1298 73.0896 71.1498 72.9896 71.1698 73.0596C71.2098 73.5296 71.0598 73.4296 71.1198 73.7796C71.1498 73.8696 71.1998 73.8996 71.1898 74.1496L71.1298 74.0696C71.1498 74.3896 71.2198 74.2496 71.1998 74.5896C71.1798 74.5296 71.1698 74.3396 71.1598 74.3896C71.1298 74.6096 71.1998 74.5396 71.2098 74.7096L71.1698 74.7496C71.2198 75.0896 71.2898 75.4596 71.3698 75.8296C71.3498 75.8096 71.3298 75.7496 71.3298 75.8296C71.4298 76.3096 71.5398 76.8096 71.6398 77.2796L71.7298 77.4396C71.7298 77.4396 71.7298 77.5196 71.7198 77.4796C71.7598 77.6596 71.7498 77.4796 71.7898 77.5596C71.8198 77.6596 71.8098 77.6996 71.7798 77.6396C71.8998 77.9396 72.1498 78.4696 72.2498 78.7896L72.2098 78.7396C72.3198 78.9796 72.4198 78.9696 72.4998 79.1996L72.4698 79.1596C72.5798 79.4196 72.7398 79.6796 72.9098 79.8996C73.0798 80.1296 73.2098 80.3596 73.3398 80.5296C73.4398 80.5496 73.6998 80.9596 73.7798 80.9396C73.9698 81.2096 73.9098 81.1396 74.2398 81.4596C74.3298 81.5396 74.4098 81.5396 74.5298 81.6296L74.5098 81.6596C74.5698 81.6896 74.6298 81.7296 74.6998 81.7496L74.7598 81.8496L74.8798 81.9196C74.8798 81.9196 74.7898 81.8396 74.7998 81.8296C74.9898 81.9396 75.2298 82.1496 75.2298 82.1696C75.3798 82.2596 75.5398 82.3296 75.6998 82.3996C75.6798 82.3996 75.5998 82.3696 75.5298 82.3496C75.7998 82.4396 75.5598 82.4096 75.7998 82.4896C75.7698 82.4696 75.8298 82.4796 75.8398 82.4696C75.9498 82.5396 76.1998 82.6996 76.4098 82.7496H76.3598C76.7298 82.8996 77.1298 83.0596 77.5598 83.1496C77.4098 83.0996 77.4598 83.0596 77.5798 83.0896L77.6198 83.1396C77.7098 83.1396 77.4998 83.0896 77.6698 83.0996C77.8298 83.1396 77.7598 83.1696 77.6698 83.1696L77.8698 83.1996C77.8698 83.1996 77.8298 83.2096 77.8198 83.2196C77.8998 83.2196 78.1398 83.3496 78.2698 83.3096C78.6998 83.3796 78.8998 83.4196 79.2598 83.4196C79.2598 83.3796 79.4098 83.3996 79.5098 83.3696C79.7698 83.3896 80.0598 83.4396 80.3698 83.3996C80.5898 83.3596 80.4298 83.3596 80.5298 83.3296C80.5498 83.3596 80.8598 83.3296 80.6998 83.3696C81.0798 83.3396 81.1798 83.2996 81.6398 83.1796C81.5898 83.1796 81.5298 83.1796 81.5598 83.1596C81.6398 83.1396 81.7598 83.1396 81.7498 83.1596H81.7298C82.2298 82.9996 82.9498 82.9096 83.2998 82.6396H83.2798L83.6598 82.4296C83.8498 82.3496 83.5598 82.5096 83.7098 82.4596C84.0798 82.1496 84.3598 82.0696 84.6498 81.7996C84.9498 81.6796 85.4698 81.0896 85.7598 80.8096H85.7298C85.7798 80.7196 85.8298 80.7296 85.8798 80.6696C85.8598 80.6696 85.7898 80.7396 85.8198 80.6796C86.3798 79.9796 86.9598 79.2196 87.3898 78.3996C87.5398 78.0996 87.3598 78.1796 87.5998 77.8196V77.9496C87.8098 77.3096 88.1098 76.6696 88.2398 76.0096C88.2398 76.0496 88.2498 76.0596 88.2398 76.1196C88.3098 75.9896 88.3898 75.6196 88.3598 75.6096C88.3798 75.5096 88.3898 75.5896 88.4098 75.5296C88.4598 75.3996 88.4398 75.1796 88.4898 75.1096C88.4898 75.0996 88.4898 75.1496 88.4898 75.1796C88.4898 75.0896 88.5798 74.7596 88.5298 74.8396C88.6098 74.5996 88.5898 74.3696 88.6398 74.1796C88.6198 74.0496 88.7198 73.7596 88.6598 73.7096C88.7298 73.7396 88.7498 73.2796 88.7198 73.1196C88.7398 73.1696 88.7498 72.9796 88.7698 73.0496C88.7698 72.8696 88.7698 72.7096 88.7398 72.7396C88.8398 72.4096 88.6698 72.0796 88.7698 71.8896C88.7398 71.3596 88.6198 70.8696 88.5498 70.3996C88.6098 70.3996 88.6198 70.9196 88.6798 70.8996C88.6098 70.4496 88.5098 70.1996 88.4098 69.7596C88.3898 69.6396 88.4498 69.8196 88.4698 69.8496C88.3598 69.4096 88.2398 68.9996 88.0798 68.6296C88.0798 68.6296 88.1098 68.6696 88.1198 68.7096C88.0898 68.6396 88.0698 68.5296 88.0398 68.5496L88.0698 68.6196C88.0698 68.7496 87.8998 68.3496 87.8598 68.3496C87.9898 68.4396 87.6998 67.9796 87.8898 68.1396C87.8598 68.0896 87.8198 68.0396 87.8098 68.0596C87.7798 67.9896 87.7798 67.9596 87.8298 68.0196C87.6898 67.7696 87.7098 67.8696 87.5998 67.6396C87.6098 67.6396 87.6398 67.6796 87.6598 67.6996C87.5798 67.5896 87.5098 67.4796 87.3898 67.2996C87.3998 67.2996 87.3898 67.2796 87.4298 67.3396C87.2098 67.0296 87.0498 66.8296 86.7998 66.4996C86.9198 66.5596 86.7198 66.3796 86.7498 66.3296L86.5898 66.1696L86.6298 66.2496C86.4998 66.0996 86.3698 65.9996 86.2598 65.8596C86.2998 65.8896 86.3298 65.9196 86.3698 65.9496C86.2898 65.8596 86.1898 65.7796 86.1098 65.6996L86.2498 65.8496C86.0898 65.7396 86.2198 65.9096 86.0398 65.7296C86.0798 65.7596 85.8998 65.5996 85.8398 65.5096C85.7598 65.4596 85.6798 65.3996 85.5798 65.2996C85.5598 65.2596 85.6398 65.2796 85.6298 65.2496C85.5398 65.2096 85.2698 64.9796 85.1498 64.9396C85.1898 64.9596 85.2098 64.9396 85.1998 64.9196L85.1198 64.8996C85.0598 64.8396 85.0498 64.8196 85.0698 64.8196C84.8598 64.6496 85.0998 64.9196 84.8598 64.7096C84.8798 64.7196 84.8698 64.7096 84.9198 64.7396C84.6798 64.5296 84.3898 64.4196 84.1598 64.2396C84.1098 64.1496 84.3798 64.3696 84.3198 64.2796C83.9598 64.0396 83.5198 63.9096 83.1698 63.6996L83.2398 63.7396C83.1598 63.7696 82.9698 63.5896 82.7698 63.5396C82.8198 63.5496 82.8498 63.5296 82.8298 63.5396C82.5698 63.4196 82.2898 63.3296 81.8698 63.2396H81.9298C81.7698 63.1796 81.5198 63.0896 81.3398 63.0596C81.2798 63.0596 81.1798 63.0496 81.2398 63.0796C80.7198 62.8596 80.1898 62.9796 79.7098 62.8596C79.7698 62.8596 79.8498 62.8596 79.7998 62.8496C79.6598 62.8496 79.5198 62.8696 79.3798 62.8696C79.4098 62.8996 79.4398 62.8896 79.5198 62.9096C79.4698 62.9296 79.3498 62.9496 79.2498 62.9496C79.4398 62.9196 79.2498 62.8996 79.1598 62.8896C79.1698 62.8896 79.1498 62.9096 79.1598 62.9196C78.9398 62.8696 79.1298 62.9796 78.8298 62.9596V62.9396C78.7298 62.9596 78.6398 62.9996 78.5198 63.0096C78.4698 62.9796 78.6298 62.9796 78.6398 62.9496C78.4698 62.9796 78.3198 63.0596 78.1698 63.0496L78.4098 62.9996C78.2398 62.9796 78.2198 62.9996 78.0998 62.9996H78.1098C78.0098 62.9996 77.9198 63.0296 77.8298 63.0496H77.8998C77.7198 63.1896 77.4898 63.1696 77.2298 63.2996C77.4798 63.1696 77.2598 63.2596 77.2698 63.2096C77.1898 63.2096 77.0898 63.2496 77.1098 63.2296C76.9998 63.3096 76.8898 63.2896 76.7298 63.4096C76.7198 63.4096 76.5998 63.4596 76.6098 63.4196C76.4498 63.4996 76.6598 63.4196 76.6498 63.4496C76.4098 63.5696 76.0598 63.6896 75.7398 63.9196C75.4698 64.1096 75.4498 64.1996 75.2098 64.3996C75.1098 64.4396 75.2498 64.3096 75.2498 64.3096C75.0998 64.3996 74.9998 64.4696 74.8898 64.5796C74.9098 64.5496 74.8798 64.5596 74.8298 64.5796C74.7398 64.6696 74.7998 64.6696 74.6598 64.7696C74.6698 64.7396 74.6798 64.6996 74.7198 64.6396L74.4198 64.9896C74.4198 64.9896 74.4598 64.8996 74.4998 64.8496C74.3798 64.9796 74.1798 65.1696 74.1798 65.2496L74.2598 65.1696C74.2598 65.1696 74.2098 65.1696 74.2398 65.1296C74.3298 65.0096 74.4098 64.9896 74.4198 64.9896L74.3398 65.0696C74.4798 65.0496 74.6598 64.7596 74.8198 64.6096L74.7898 64.7196L74.9298 64.5296C74.9298 64.5296 75.0198 64.5096 74.9398 64.5896C75.0798 64.5096 75.0398 64.4896 75.1698 64.4296C75.1898 64.4296 75.1798 64.4296 75.1698 64.4396L75.2898 64.3396C75.2898 64.3396 75.3298 64.3596 75.2498 64.4096C75.4898 64.2696 75.5898 64.1096 75.6998 64.0896L75.6798 64.1096C75.9998 63.8996 75.6798 64.0596 75.9198 63.8696H76.1398V63.8096C76.1398 63.8096 76.2598 63.7596 76.2498 63.7796C76.3698 63.6796 76.2198 63.7796 76.2798 63.7096C76.4598 63.6396 76.7598 63.4796 76.8198 63.5196C76.8698 63.4696 76.6398 63.5696 76.8198 63.4696C76.8998 63.5096 77.0398 63.3696 77.2098 63.3396C77.1698 63.3896 77.0098 63.4396 77.1798 63.3996C77.2598 63.2996 77.5098 63.3196 77.6498 63.2696C77.6498 63.2296 77.9498 63.1496 78.1898 63.1096C78.1798 63.1296 78.6498 63.0696 78.8798 63.0496C78.8798 63.0496 79.1598 63.0096 79.3298 62.9996C79.3298 63.0296 79.2898 63.0396 79.1998 63.0596H79.3598C79.3598 63.0596 79.4498 63.0296 79.5498 63.0196L79.5098 63.0596C79.7198 63.0396 79.9398 63.0296 80.2198 63.0796C80.2398 63.0496 80.0098 62.9696 80.2998 62.9696C80.2998 62.9896 80.3198 63.0196 80.2398 63.0196C80.2698 63.0196 80.3298 63.0196 80.3798 63.0196L80.2598 63.0396C80.3798 63.0596 80.3298 63.0196 80.4298 63.0396C80.4298 63.0696 80.4998 63.0596 80.4898 63.0796C80.4598 63.0796 80.3998 63.0596 80.3598 63.0696C80.4698 63.0796 80.6098 63.1096 80.6498 63.1396C80.6498 63.1196 80.6498 63.0996 80.7398 63.1196C80.9498 63.1596 80.8098 63.1596 80.9298 63.1996C80.9798 63.1996 81.1198 63.2396 81.1298 63.1996C81.1898 63.2096 81.1998 63.2296 81.2198 63.2496C81.3398 63.2496 81.7198 63.3696 81.6098 63.2996C81.9698 63.3596 82.3398 63.5196 82.6698 63.6496L83.2698 63.8796C83.3298 63.9096 83.3898 63.9696 83.3598 63.9696C83.5098 64.0396 83.5398 64.0296 83.7398 64.1596C83.5798 64.0996 83.7798 64.1996 83.5798 64.0996C83.7598 64.2096 83.7998 64.2396 84.0198 64.3296C83.9398 64.3196 84.1298 64.4496 84.2298 64.4996L84.1198 64.3996C84.2198 64.4596 84.2998 64.5096 84.3898 64.5696H84.3198C84.6698 64.8396 85.0198 64.9596 85.2298 65.2296C85.3398 65.2796 85.0498 65.0696 85.1598 65.0996C85.3198 65.2296 85.4498 65.3996 85.4898 65.4496C85.6798 65.6496 85.7198 65.5796 85.9198 65.7796C85.8998 65.7396 85.9098 65.6896 86.0798 65.8296C86.2298 65.9696 86.2198 66.0496 86.1098 65.9696C86.0698 65.9396 86.0598 65.9196 86.0598 65.9196C86.0098 65.8796 85.9398 65.8296 85.9898 65.8896H86.0198C86.0898 65.9696 86.2798 66.1696 86.2098 66.1396C86.3198 66.2396 86.2698 66.1696 86.2098 66.0796C86.3598 66.2896 86.4698 66.3796 86.6298 66.5896C86.6098 66.5496 86.5998 66.5096 86.6298 66.5396C86.8698 66.8496 86.7798 66.6396 86.9298 66.8596C86.9898 66.9996 86.8498 66.8496 87.0198 67.0596C87.0998 67.1996 86.9998 67.1096 86.9598 67.0596C87.1198 67.2396 87.1898 67.4496 87.2598 67.5596L87.1798 67.4596C87.2298 67.5196 87.2598 67.5696 87.2898 67.6196C87.2898 67.5896 87.2898 67.5696 87.2898 67.5396C87.3298 67.5996 87.3498 67.6596 87.3398 67.6696C87.3898 67.7296 87.3598 67.5896 87.4498 67.7196C87.4798 67.8196 87.5998 67.9896 87.5798 68.0396C87.4598 67.7496 87.5598 68.0896 87.4398 67.8496C87.4698 67.8896 87.4898 67.9496 87.5198 68.0196C87.5198 68.0296 87.5098 68.0196 87.4998 67.9996C87.5998 68.2796 87.5998 68.0996 87.7398 68.3796C87.6998 68.3496 87.7398 68.4596 87.7498 68.5096C87.6998 68.3996 87.7698 68.4396 87.8198 68.5396C87.8698 68.7396 87.8998 68.7396 87.9398 68.8396L87.9098 68.7196C87.9098 68.7196 87.9798 68.8496 88.0298 68.9796C88.0198 68.9996 87.9798 68.8596 87.9898 68.9096C88.0798 69.0396 88.0698 69.2496 88.1598 69.4496C88.1598 69.5496 88.1198 69.4696 88.1298 69.5596C88.2098 69.7896 88.1598 69.8196 88.2398 70.0596C88.2498 69.9796 88.2398 69.9696 88.3098 70.1396L88.1898 69.7396L88.2998 69.9896C88.2698 69.8696 88.2198 69.7296 88.2098 69.6596C88.2598 69.7796 88.2498 69.7696 88.2698 69.6996C88.2698 69.8796 88.3698 70.0296 88.3898 70.2296H88.3098C88.3398 70.5396 88.4298 70.7596 88.4598 71.1496V71.0196C88.4598 71.0196 88.4898 71.2596 88.5198 71.3796C88.4898 71.3796 88.4898 71.4496 88.4698 71.5096C88.4898 71.5096 88.4698 71.7896 88.5298 71.8296L88.4998 72.0096C88.4998 72.3196 88.5998 72.3696 88.5698 72.6696C88.5498 72.5796 88.5198 72.7196 88.5098 72.5096C88.5098 72.6096 88.4998 72.6996 88.5098 72.6996C88.4898 72.7596 88.5298 72.9796 88.5098 73.0696C88.5098 73.1096 88.5498 73.1296 88.5398 73.2396C88.5398 73.2496 88.5298 73.2396 88.5298 73.2396C88.5398 73.2396 88.5298 73.4196 88.5698 73.3196C88.4798 73.6296 88.4698 74.1896 88.3698 74.4496C88.3498 74.6696 88.2898 74.9296 88.2498 75.1296C88.2498 75.1196 88.2398 75.1296 88.2498 75.0896C88.1698 75.3596 88.2898 75.2696 88.1998 75.5796C88.1198 75.7296 88.2098 75.4096 88.1798 75.4996C88.0998 75.5196 88.0898 75.8696 87.9798 76.0596V76.0096C87.9098 76.1596 87.9098 76.3996 87.8298 76.6496C87.8298 76.6496 87.8298 76.6396 87.8198 76.6496C87.7998 76.8296 87.6898 77.1596 87.5998 77.3996C87.5998 77.3096 87.6298 77.2796 87.5798 77.3196C87.5398 77.4296 87.6398 77.3096 87.5698 77.5296C87.5298 77.5896 87.4498 77.7396 87.3998 77.7396C87.4298 77.6796 87.4598 77.6096 87.4898 77.5396C87.4098 77.6296 87.3698 77.7896 87.3198 77.8896V77.8696C87.1698 78.1696 87.2098 78.1996 87.0598 78.5096L87.0898 78.4796C87.0498 78.6796 86.9898 78.6096 86.9198 78.7996L86.8398 78.8196C86.7898 78.9396 86.6498 79.2296 86.5398 79.4296C86.5698 79.2996 86.6898 79.0596 86.7598 78.8996C86.6898 79.0096 86.5398 79.2696 86.5298 79.3396C86.5498 79.2896 86.5698 79.2296 86.6098 79.1896C86.5698 79.3496 86.4798 79.5296 86.3198 79.7296C86.2598 79.6296 85.9198 80.2596 85.7298 80.3396C85.4598 80.6896 85.1398 80.9996 84.7498 81.3196C84.9398 81.2596 84.6398 81.4196 84.7098 81.4596C84.6198 81.5396 84.5898 81.5696 84.5798 81.5796C84.4798 81.6496 84.3698 81.6996 84.2598 81.7496C84.1698 81.7796 84.3498 81.6696 84.3298 81.6596C84.1098 81.7996 84.2198 81.6896 84.0598 81.7696C84.1098 81.7696 84.0098 81.8496 83.8798 81.9296L84.0798 81.8496C83.7898 82.0796 83.7898 81.9896 83.4798 82.1796L83.5698 82.1096C83.4098 82.1996 82.9498 82.4096 82.7998 82.5496C82.7598 82.5496 82.7098 82.5496 82.7998 82.5096C82.3698 82.6396 81.8698 82.9096 81.4998 82.9096L81.5298 82.8796C81.4498 82.8996 81.3898 82.9496 81.2898 82.9496C81.2898 82.9496 81.3198 82.9196 81.2898 82.9296C81.2498 82.9396 81.0798 83.0196 80.9598 83.0096C80.9898 82.9996 81.0198 82.9896 81.0498 82.9796C80.6098 82.9896 80.3798 83.0996 80.0098 83.1296C80.0098 83.0696 79.6598 83.0396 79.4898 83.0296C78.9798 83.0096 78.6198 82.9796 78.1398 82.9296C77.8598 82.7996 77.1698 82.6696 76.7398 82.4396C76.7998 82.4796 76.7098 82.4796 76.6298 82.4496C76.5298 82.4096 76.3298 82.3696 76.3698 82.3296L76.4098 82.3496C76.3598 82.2596 76.1498 82.1696 75.9898 82.0896L75.9298 82.1396C75.7398 81.9996 75.4698 81.8496 75.2398 81.6996C74.9998 81.5596 74.7798 81.4296 74.7098 81.2996L74.4098 81.0896L74.4398 81.0696C74.1998 80.8696 74.0998 80.7496 73.8298 80.4696L73.8998 80.5096C73.7598 80.3496 73.6298 80.3796 73.4898 80.2296V80.1496C73.2798 79.8296 73.0698 79.5096 72.8598 79.1996C72.8598 79.1996 72.8898 79.1996 72.9198 79.2596C72.8398 79.0996 72.6398 78.6296 72.5998 78.7196C72.6398 78.6996 72.4298 78.3696 72.3398 78.1796L72.3898 78.1996C72.2798 78.0496 72.2698 78.0496 72.1698 77.8296C72.1598 77.7696 72.1798 77.7696 72.1998 77.8496C72.1598 77.6596 72.1198 77.7196 72.0698 77.4896L72.1198 77.5696C72.0598 77.3796 72.0498 77.3996 71.9898 77.2996C71.9298 77.1896 71.8898 76.9296 71.9198 76.8996C71.8898 76.8796 71.8398 76.7796 71.8198 76.6596C71.8198 76.6396 71.8498 76.6796 71.8598 76.6996C71.7998 76.3696 71.6998 76.2296 71.6898 75.9896C71.6998 75.9896 71.6998 75.9696 71.6998 75.9496L71.7898 76.3996C71.7898 76.3996 71.7798 76.1796 71.8598 76.3396C71.7998 76.1796 71.6898 75.8996 71.6698 75.6896C71.6698 75.6896 71.6698 75.5996 71.6498 75.5596V75.3896C71.6498 75.3896 71.6198 75.1496 71.6098 75.0396C71.5698 75.0496 71.5598 74.9096 71.5498 75.0396C71.5498 75.0196 71.5498 75.0596 71.5698 75.1296V75.1696L71.6098 75.4296C71.5798 75.3496 71.5498 75.2596 71.5598 75.1396L71.4798 74.9996C71.5098 74.8496 71.5098 74.5696 71.5398 74.5196C71.4898 74.1996 71.4698 73.7596 71.4098 73.5496C71.4098 73.4596 71.4298 73.4396 71.4398 73.4096C71.4398 73.4596 71.4398 73.5296 71.4598 73.5596C71.4398 73.3796 71.4398 73.0096 71.4098 72.9696C71.4398 72.7396 71.4498 73.0996 71.4598 72.7796V72.8196C71.5798 72.1996 71.4098 71.7796 71.6298 71.0996C71.6198 71.1496 71.6098 71.1696 71.5998 71.1796C71.7598 70.3996 71.9198 69.5596 72.2498 68.8396C72.3498 68.6396 72.3298 68.5996 72.3598 68.4696L72.4198 68.4396L72.4598 68.1996C72.5698 67.8896 72.7898 67.7196 72.9298 67.3296L72.8798 67.3596C72.9598 67.2296 73.1098 66.9396 73.1198 66.9796C73.1198 66.9596 73.1198 66.9196 73.1598 66.8796H73.1798C73.2298 66.7796 73.2798 66.6596 73.3398 66.5496C73.5198 66.3196 73.3798 66.6296 73.6298 66.2896C73.7098 66.1596 73.8298 65.8896 73.7898 65.9296C73.7498 65.9796 73.6898 66.0496 73.6698 66.0496L73.7398 65.9296C73.7098 65.8696 73.7198 65.7396 73.4798 66.0096L73.3698 66.2396L73.2998 66.2896L73.4198 66.1196C73.3298 66.1996 73.3098 66.2796 73.2698 66.3596C73.2498 66.3596 73.2198 66.3896 73.1798 66.4296C73.1498 66.5096 73.1198 66.5796 73.0998 66.6696C73.0598 66.6796 73.1098 66.5496 73.0198 66.6796C72.9898 66.7896 73.1198 66.6096 73.0398 66.7896C72.9598 66.8796 72.9498 66.8396 72.8998 66.9696C72.8798 66.9696 72.8798 66.9496 72.8998 66.8996C72.8498 67.0196 72.7398 67.1896 72.7398 67.2596C72.6398 67.3496 72.5598 67.6396 72.5098 67.5996C72.5098 67.6396 72.4598 67.8196 72.4098 67.9196C72.4398 67.6996 72.2198 68.2996 72.1798 68.2296C72.1798 68.3996 71.9898 68.7596 71.9398 69.0296C71.9398 69.0096 71.9398 68.9796 71.9498 68.9596C71.8998 69.0996 71.8698 69.1396 71.8198 69.2296C71.8598 69.2696 71.7998 69.4996 71.7898 69.6296C71.6798 69.7896 71.7698 69.4996 71.6998 69.5496C71.7398 69.5496 71.6398 69.8696 71.6998 69.8196C71.6398 69.9496 71.6598 69.9396 71.5998 69.9996C71.6598 70.0396 71.5798 70.1296 71.5898 70.2596C71.5098 70.4496 71.5198 70.2996 71.4798 70.5196C71.4298 70.6196 71.4598 70.4196 71.4598 70.4196H71.3998ZM71.3998 75.8196L71.3798 75.7096L71.3998 75.8196ZM71.4898 76.2696L71.4498 76.0796C71.4498 76.0796 71.4798 76.0796 71.4798 76.1196C71.4698 76.0996 71.4798 76.1996 71.4798 76.2696H71.4898ZM71.5798 75.2896C71.5898 75.3596 71.5898 75.3796 71.5798 75.3896L71.5598 75.2696C71.5598 75.2696 71.5798 75.2696 71.5798 75.2896V75.2896Z" fill="#7A5751"/>
<path d="M81.6497 63.2793L81.6597 63.2893L81.6396 63.2793H81.6497Z" fill="#7A5751"/>
<path d="M74.5095 81.6687V81.6587L74.4795 81.6387L74.5095 81.6687Z" fill="#7A5751"/>
<path d="M78.1197 63C78.0697 63 78.0197 63.01 77.9697 63.02C78.0397 63.01 78.0797 63 78.1197 63Z" fill="#7A5751"/>
<path d="M77.3098 63.1895C77.3098 63.1895 77.3098 63.1995 77.2998 63.2095V63.1895H77.3098Z" fill="#7A5751"/>
<path d="M88.1396 68.709V68.739C88.1796 68.809 88.1596 68.759 88.1396 68.709Z" fill="#7A5751"/>
<path d="M85.8799 65.5205L85.9899 65.5905C85.9899 65.5905 85.8999 65.5005 85.8799 65.5205Z" fill="#7A5751"/>
<path d="M88.7903 73.0605L88.7803 73.0905L88.7903 73.0605Z" fill="#7A5751"/>
<path d="M86.1202 65.7196C86.0702 65.6696 86.0302 65.6296 85.9902 65.5996C86.0302 65.6396 86.0802 65.6896 86.1202 65.7196Z" fill="#7A5751"/>
<path d="M74.2597 65.0996L74.2197 65.1196L74.2297 65.1296L74.2597 65.0996Z" fill="#7A5751"/>
<path d="M74.2302 65.1289L74.2002 65.1689C74.2002 65.1689 74.2202 65.1389 74.2302 65.1289Z" fill="#7A5751"/>
<path d="M74.1494 65.2499L74.1994 65.1699C74.1994 65.1699 74.1494 65.2199 74.1494 65.2499Z" fill="#7A5751"/>
<path d="M75.3598 64.1699C75.2898 64.2099 75.1798 64.2699 75.0898 64.3399C75.0898 64.3399 75.3098 64.2299 75.3598 64.1699Z" fill="#7A5751"/>
<path d="M76.6494 63.6289C76.5594 63.6589 76.4794 63.6889 76.3994 63.7389C76.4494 63.7289 76.5094 63.7189 76.3994 63.7789C76.7294 63.6589 76.3194 63.7689 76.6494 63.6289Z" fill="#7A5751"/>
<path d="M77.4499 63.3498C77.3099 63.3898 77.4499 63.3698 77.4499 63.3798C77.5399 63.3398 77.5599 63.3298 77.4499 63.3498Z" fill="#7A5751"/>
<path d="M83.4402 64L83.4102 64.02C83.5102 64.07 83.4102 64.01 83.4402 64V64Z" fill="#7A5751"/>
<path d="M84.5602 64.4494L84.4702 64.3694L84.4102 64.3594L84.5602 64.4494Z" fill="#7A5751"/>
<path d="M84.9902 65.0495L84.9502 65.0195L85.1102 65.1295L84.9902 65.0495Z" fill="#7A5751"/>
<path d="M88.3398 74.2403L88.3898 74.2103C88.3898 74.1303 88.3498 74.1103 88.3398 74.2403Z" fill="#7A5751"/>
<path d="M87.0196 78.5C87.0196 78.5 86.9096 78.64 86.8896 78.72C86.9496 78.64 87.0096 78.55 87.0196 78.5Z" fill="#7A5751"/>
<path d="M75.6999 82.0398L75.7799 82.0698L75.6299 82.0098L75.6999 82.0398Z" fill="#7A5751"/>
<path d="M143.9 68.4404C145.26 65.5904 147.53 67.7104 147.62 69.2804C147.71 70.8504 147.45 73.0704 145.76 72.9104C144.07 72.7504 143.23 69.8504 143.9 68.4404V68.4404Z" fill="white"/>
<path d="M143.98 68.4807C143.98 68.4807 143.95 68.4607 143.94 68.4807L143.97 68.5107V68.4707L143.98 68.4807Z" fill="white"/>
<path d="M143.85 68.5898C143.85 68.5898 143.88 68.6598 143.93 68.6598C143.9 68.6198 143.92 68.6198 143.88 68.5798C143.88 68.5598 143.91 68.5498 143.92 68.5598C143.92 68.5498 143.94 68.5298 143.92 68.5098C143.88 68.5198 143.86 68.5598 143.88 68.5998C143.87 68.5998 143.86 68.5998 143.85 68.5898Z" fill="white"/>
<path d="M143.61 70.1899V70.1799L143.59 70.1699L143.61 70.1899Z" fill="white"/>
<path d="M143.56 69.7109C143.56 69.7109 143.6 69.7209 143.61 69.7309C143.59 69.7309 143.59 69.7209 143.58 69.7109C143.58 69.7109 143.56 69.7109 143.55 69.7109H143.56Z" fill="white"/>
<path d="M143.89 68.4399V68.4299L143.87 68.4199L143.89 68.4399Z" fill="white"/>
<path d="M147.69 71.0208C147.69 71.0208 147.66 70.9408 147.61 71.0008C147.63 71.0008 147.66 71.0708 147.69 71.0208Z" fill="white"/>
<path d="M146.54 72.9006L146.53 72.8906L146.51 72.9006H146.54Z" fill="white"/>
<path d="M145.1 67.2993C145.1 67.2993 145.08 67.2893 145.07 67.2793C145.09 67.2993 145.04 67.3393 145.1 67.2993Z" fill="white"/>
<path d="M143.84 68.9004C143.84 68.9004 143.85 68.9004 143.85 68.9104L143.84 68.9004Z" fill="white"/>
<path d="M146.31 72.6699C146.31 72.6699 146.34 72.6799 146.35 72.6799H146.31V72.6699Z" fill="white"/>
<path d="M144.81 67.5501C144.81 67.5501 144.8 67.4901 144.79 67.4601C144.83 67.4001 144.83 67.4601 144.87 67.4701C144.9 67.4401 144.9 67.3901 144.93 67.3701C144.93 67.3701 144.94 67.3701 144.94 67.3901C144.96 67.3301 145.05 67.3201 145.07 67.2501H145.08C145.08 67.2501 145.05 67.2201 145.04 67.2001C145.06 67.1801 145.07 67.1501 145.09 67.1801C145.07 67.1801 145.08 67.2001 145.08 67.2101L145.1 67.1901C145.1 67.1901 145.07 67.2101 145.09 67.2501C145.13 67.2201 145.18 67.1701 145.22 67.1701C145.24 67.2101 145.14 67.2101 145.2 67.2301H145.14C145.21 67.2801 145.1 67.2301 145.17 67.3001C145.25 67.3001 145.24 67.2501 145.32 67.2501C145.33 67.2201 145.31 67.2201 145.32 67.1901C145.42 67.1101 145.42 67.2901 145.49 67.2201C145.51 67.1901 145.51 67.1301 145.57 67.1601L145.55 67.2101C145.62 67.2101 145.59 67.1301 145.67 67.1701C145.65 67.1801 145.61 67.1901 145.62 67.1901C145.67 67.2301 145.66 67.1601 145.7 67.1701V67.2201C145.78 67.2301 145.88 67.2001 145.97 67.2201C145.97 67.2301 145.94 67.2401 145.96 67.2601C146.07 67.2801 146.19 67.3401 146.26 67.4301H146.32V67.4401C146.35 67.4701 146.33 67.4201 146.36 67.4201C146.38 67.4301 146.38 67.4601 146.36 67.4601C146.45 67.4601 146.58 67.5301 146.62 67.6201H146.6C146.64 67.6701 146.71 67.6001 146.73 67.6701H146.72C146.8 67.7801 146.95 67.8601 146.96 67.9901C147.02 67.9701 147.02 68.1201 147.09 68.0801C147.11 68.1701 147.09 68.1501 147.12 68.2601C147.13 68.2901 147.18 68.2701 147.21 68.3001L147.17 68.3201L147.23 68.3401L147.2 68.3901L147.23 68.4101C147.23 68.4101 147.23 68.3801 147.24 68.3701C147.29 68.4101 147.27 68.5001 147.25 68.5101L147.33 68.6101C147.33 68.6101 147.3 68.6001 147.28 68.5901C147.35 68.6401 147.24 68.6201 147.3 68.6601C147.3 68.6501 147.32 68.6601 147.33 68.6601C147.33 68.7001 147.35 68.7601 147.37 68.8101H147.34C147.35 68.9001 147.42 68.9901 147.42 69.0901C147.42 69.0501 147.48 69.0501 147.49 69.0901L147.45 69.1101C147.45 69.1101 147.46 69.0801 147.5 69.1101C147.5 69.1501 147.45 69.1401 147.44 69.1201L147.46 69.1601C147.46 69.1601 147.44 69.1601 147.42 69.1601C147.45 69.1801 147.39 69.2401 147.44 69.2701H147.43L147.46 69.5201C147.46 69.5201 147.49 69.5601 147.52 69.5801C147.51 69.6501 147.48 69.7201 147.48 69.8001C147.5 69.8601 147.51 69.8201 147.53 69.8401C147.5 69.8401 147.5 69.9201 147.47 69.8801C147.47 69.9801 147.47 70.0001 147.5 70.1201C147.51 70.1101 147.52 70.0901 147.53 70.1001C147.53 70.1201 147.51 70.1501 147.5 70.1501C147.55 70.2801 147.38 70.4501 147.44 70.5601L147.46 70.6701C147.45 70.7201 147.44 70.6401 147.41 70.6701C147.45 70.8001 147.38 70.8601 147.4 70.9601C147.29 71.0201 147.36 71.2301 147.27 71.3101H147.29C147.29 71.3101 147.27 71.3401 147.26 71.3601C147.28 71.3601 147.29 71.3401 147.3 71.3601C147.27 71.5901 147.14 71.7901 147.02 71.9701C146.98 72.0401 147.11 72.0701 147.01 72.1301L146.99 72.0801C146.95 72.2501 146.81 72.3501 146.73 72.4801C146.73 72.4701 146.73 72.4601 146.73 72.4501C146.69 72.4501 146.64 72.5301 146.66 72.5501C146.64 72.5601 146.64 72.5301 146.62 72.5301C146.58 72.5301 146.58 72.6101 146.55 72.5901C146.55 72.5901 146.55 72.5801 146.55 72.5701C146.55 72.5901 146.47 72.6201 146.5 72.6401C146.44 72.6401 146.41 72.6901 146.36 72.6901C146.35 72.7401 146.27 72.7101 146.27 72.7601C146.26 72.7001 146.16 72.7301 146.13 72.7601C146.13 72.7401 146.1 72.7501 146.11 72.7201C146.07 72.7301 146.03 72.7401 146.04 72.7701C145.96 72.7001 145.88 72.8301 145.84 72.7301C145.72 72.7601 145.6 72.7501 145.48 72.7301C145.5 72.6801 145.61 72.7501 145.61 72.6901C145.5 72.7001 145.43 72.7201 145.33 72.6601C145.31 72.6401 145.36 72.6401 145.37 72.6401C145.26 72.6301 145.19 72.5501 145.09 72.5201C145.09 72.5201 145.11 72.5201 145.12 72.5201C145.1 72.5201 145.09 72.4901 145.07 72.5201H145.09C145.09 72.5701 144.98 72.5501 144.96 72.5601C145.03 72.5201 144.89 72.4901 144.99 72.4401C144.98 72.4401 144.96 72.4401 144.95 72.4501C144.94 72.4301 144.95 72.4201 144.97 72.4201C144.91 72.3901 144.91 72.4201 144.86 72.3801C144.86 72.3801 144.88 72.3801 144.9 72.3701C144.86 72.3701 144.82 72.3701 144.78 72.3201C144.78 72.3201 144.79 72.3001 144.8 72.3201C144.73 72.2701 144.64 72.2501 144.59 72.1601C144.65 72.1501 144.59 72.1201 144.62 72.0901L144.57 72.0601V72.0901C144.57 72.0901 144.48 72.0401 144.47 71.9901L144.51 72.0101L144.45 71.9401V71.9901C144.45 71.9901 144.41 72.0301 144.39 71.9701C144.4 71.9701 144.36 71.9301 144.37 71.8901C144.37 71.8901 144.31 71.8701 144.3 71.8301C144.3 71.8101 144.35 71.8101 144.36 71.8001C144.31 71.8001 144.29 71.7101 144.24 71.7001C144.25 71.7001 144.28 71.7001 144.28 71.6901H144.24C144.24 71.6901 144.24 71.6601 144.26 71.6501C144.23 71.5901 144.21 71.7001 144.2 71.6101C144.2 71.6101 144.2 71.6101 144.22 71.6101C144.2 71.5301 144.12 71.4801 144.11 71.4001C144.15 71.3601 144.15 71.4601 144.17 71.4101C144.12 71.3201 144.03 71.2301 144 71.1201V71.1401C143.93 71.1501 144 71.0501 143.96 71.0101C143.96 71.0201 144 71.0101 143.99 71.0101C143.98 70.9401 143.93 70.8801 143.87 70.7801H143.89C143.89 70.7801 143.87 70.6801 143.87 70.6301C143.85 70.6301 143.85 70.5901 143.82 70.6201C143.89 70.4601 143.7 70.3701 143.77 70.2301C143.77 70.2401 143.79 70.2601 143.79 70.2501L143.76 70.1501C143.76 70.1501 143.74 70.1701 143.72 70.1901C143.7 70.1801 143.68 70.1501 143.68 70.1201C143.71 70.1701 143.73 70.1201 143.74 70.0901C143.74 70.0901 143.72 70.0901 143.71 70.0901C143.76 70.0301 143.64 70.0901 143.68 70.0101H143.7C143.7 70.0101 143.67 69.9601 143.67 69.9301C143.7 69.9101 143.69 69.9601 143.72 69.9601C143.72 69.9201 143.65 69.8801 143.68 69.8401L143.7 69.9001C143.7 69.9001 143.73 69.8501 143.73 69.8201V69.7701C143.64 69.7201 143.71 69.6601 143.65 69.5901C143.71 69.6601 143.68 69.6001 143.72 69.6101C143.73 69.5901 143.74 69.5601 143.76 69.5701C143.73 69.5401 143.79 69.5101 143.74 69.4601C143.75 69.4601 143.74 69.4201 143.77 69.4301C143.77 69.3901 143.75 69.4301 143.73 69.4301C143.68 69.3601 143.8 69.2801 143.75 69.1701C143.74 69.0801 143.69 69.0601 143.69 68.9801C143.72 68.9601 143.73 69.0101 143.73 69.0101C143.76 68.9701 143.76 68.9401 143.76 68.9001C143.76 68.9101 143.78 68.9001 143.8 68.9001C143.8 68.8701 143.76 68.8701 143.79 68.8301C143.8 68.8401 143.82 68.8601 143.83 68.8701L143.81 68.7501C143.81 68.7501 143.84 68.7801 143.85 68.8001C143.85 68.7501 143.86 68.6901 143.84 68.6601L143.82 68.6801C143.82 68.6801 143.85 68.6801 143.85 68.7001C143.86 68.7401 143.82 68.7501 143.81 68.7501V68.7201C143.73 68.7201 143.79 68.8401 143.78 68.8901L143.73 68.8501L143.76 68.9201C143.76 68.9201 143.71 68.9301 143.71 68.9001C143.67 68.9401 143.72 68.9401 143.68 68.9701V69.0101C143.68 69.0101 143.65 69.0101 143.66 68.9901C143.61 69.0601 143.68 69.1201 143.64 69.1401C143.64 69.2401 143.68 69.1401 143.72 69.2301L143.61 69.2701H143.65C143.65 69.2701 143.65 69.3101 143.63 69.3101C143.65 69.3501 143.65 69.3101 143.67 69.3301C143.62 69.3801 143.68 69.4701 143.62 69.4801C143.65 69.5001 143.64 69.4301 143.67 69.4801C143.6 69.4901 143.68 69.5401 143.65 69.5901C143.61 69.5801 143.63 69.5301 143.6 69.5801C143.66 69.6101 143.58 69.6701 143.6 69.7101C143.65 69.7101 143.63 69.8001 143.65 69.8601C143.63 69.8601 143.63 69.9901 143.62 70.0501C143.62 70.0501 143.67 70.1201 143.68 70.1601C143.65 70.1601 143.64 70.1601 143.62 70.1301V70.1701C143.62 70.1701 143.65 70.1901 143.66 70.2201H143.62C143.63 70.2701 143.68 70.3201 143.67 70.4001C143.7 70.4001 143.75 70.3301 143.79 70.4001C143.77 70.4001 143.74 70.4101 143.73 70.4001C143.73 70.4001 143.75 70.4201 143.74 70.4401L143.7 70.4101C143.7 70.4101 143.73 70.4201 143.73 70.4501C143.7 70.4501 143.72 70.4701 143.69 70.4701C143.69 70.4701 143.69 70.4501 143.69 70.4401C143.69 70.4701 143.69 70.5101 143.67 70.5301C143.68 70.5301 143.7 70.5301 143.71 70.5401C143.72 70.6001 143.68 70.5701 143.68 70.6001C143.7 70.6001 143.69 70.6501 143.73 70.6401C143.73 70.6601 143.72 70.6601 143.71 70.6701C143.73 70.7001 143.75 70.8101 143.78 70.7601C143.84 70.8401 143.82 70.9601 143.86 71.0401H143.85C143.88 71.0901 143.9 71.1601 143.94 71.1901C143.94 71.2101 143.94 71.2401 143.92 71.2301C143.95 71.2701 143.96 71.2701 143.97 71.3301C143.93 71.3001 143.96 71.3501 143.94 71.2901C143.95 71.3501 143.94 71.3701 143.99 71.4101C143.95 71.4101 143.97 71.4701 143.99 71.4901V71.4401C143.99 71.4401 144.02 71.4901 144.03 71.5201H143.98C143.98 71.6601 144.16 71.6701 144.13 71.8001C144.17 71.8101 144.12 71.7301 144.16 71.7401C144.18 71.7901 144.16 71.8701 144.16 71.8901C144.18 71.9701 144.25 71.9101 144.28 71.9901C144.28 71.9701 144.32 71.9401 144.36 71.9901C144.39 72.0401 144.34 72.0801 144.31 72.0601C144.31 72.0501 144.31 72.0401 144.31 72.0401C144.3 72.0301 144.28 72.0101 144.27 72.0401H144.29C144.29 72.0401 144.34 72.1301 144.31 72.1301C144.35 72.1601 144.34 72.1301 144.33 72.1001C144.35 72.1701 144.4 72.1901 144.43 72.2601C144.43 72.2501 144.43 72.2301 144.44 72.2301C144.49 72.3201 144.49 72.2501 144.55 72.3001C144.55 72.3501 144.5 72.3301 144.56 72.3701C144.58 72.4201 144.54 72.4101 144.51 72.4001C144.57 72.4301 144.59 72.5001 144.61 72.5401L144.57 72.5201C144.57 72.5201 144.6 72.5401 144.62 72.5501V72.5101C144.62 72.5101 144.65 72.5401 144.64 72.5501C144.67 72.5501 144.66 72.5001 144.71 72.5101C144.72 72.5401 144.78 72.5501 144.76 72.5901C144.7 72.5201 144.74 72.6301 144.68 72.5901C144.69 72.5901 144.71 72.6101 144.72 72.6301C144.72 72.6301 144.72 72.6301 144.71 72.6301C144.75 72.7101 144.77 72.6301 144.84 72.6701C144.82 72.6801 144.84 72.7201 144.84 72.7201C144.81 72.7001 144.84 72.6801 144.89 72.6801C144.93 72.7301 144.95 72.7001 144.97 72.7201L144.95 72.6901C144.95 72.6901 144.99 72.6901 145.03 72.7101C145.03 72.7301 144.99 72.7101 145 72.7101C145.06 72.7001 145.06 72.8001 145.13 72.8001C145.15 72.8301 145.11 72.8401 145.13 72.8601C145.21 72.8601 145.19 72.9201 145.27 72.9201C145.27 72.8801 145.26 72.8901 145.31 72.8801L145.19 72.8501H145.28C145.28 72.8501 145.2 72.8301 145.19 72.8101C145.23 72.8101 145.23 72.8101 145.22 72.7801C145.25 72.8401 145.32 72.7901 145.36 72.8401L145.33 72.9101C145.4 72.9801 145.49 72.9101 145.59 72.9601L145.56 72.9401C145.56 72.9401 145.63 72.9401 145.66 72.9401C145.66 72.9701 145.67 72.9801 145.69 73.0001C145.69 72.9801 145.77 73.0101 145.79 72.9601L145.84 73.0001C145.93 73.0101 145.94 72.9301 146.02 72.9401C146 72.9701 146.04 72.9901 145.98 73.0101C146.01 73.0101 146.04 73.0101 146.03 73.0001C146.05 73.0201 146.11 72.9501 146.13 72.9801C146.14 72.9701 146.14 72.9401 146.17 72.9301V72.9401C146.17 72.9301 146.22 72.9101 146.18 72.8901C146.29 72.9601 146.41 72.8301 146.5 72.8601C146.56 72.8301 146.62 72.7901 146.66 72.7501V72.7601C146.74 72.7401 146.66 72.6701 146.75 72.6501C146.81 72.6501 146.73 72.6901 146.75 72.6901C146.82 72.7501 146.83 72.6201 146.9 72.6101C146.95 72.6101 146.96 72.5201 147.01 72.4701C147.01 72.4001 147.05 72.3201 147.08 72.2501C147.1 72.2901 147.08 72.2901 147.11 72.2901C147.12 72.2601 147.06 72.2701 147.09 72.2101C147.12 72.2101 147.15 72.1701 147.19 72.1901L147.16 72.2401C147.22 72.2401 147.2 72.1701 147.22 72.1501H147.24C147.28 72.0801 147.24 72.0501 147.28 71.9701H147.26C147.23 71.9001 147.3 71.9401 147.29 71.8801H147.34C147.34 71.8801 147.34 71.7501 147.35 71.6901C147.37 71.7401 147.36 71.8101 147.37 71.8601C147.38 71.8301 147.41 71.7501 147.39 71.7201C147.39 71.7301 147.39 71.7601 147.39 71.7701C147.37 71.7201 147.37 71.6601 147.39 71.5901C147.48 71.6301 147.47 71.4301 147.56 71.4001C147.55 71.2701 147.64 71.1701 147.65 71.0301C147.56 71.0701 147.65 70.9901 147.57 70.9801C147.57 70.9501 147.57 70.9401 147.57 70.9301L147.63 70.8401C147.63 70.8401 147.64 70.8701 147.66 70.8701C147.68 70.8001 147.7 70.8501 147.73 70.8001C147.7 70.8001 147.69 70.7701 147.71 70.7301L147.67 70.7801C147.64 70.6701 147.75 70.7001 147.72 70.6001L147.74 70.6301C147.74 70.5801 147.76 70.4401 147.7 70.3801C147.71 70.3801 147.73 70.3601 147.74 70.3801C147.76 70.2601 147.69 70.1001 147.74 70.0101H147.76C147.76 70.0101 147.72 69.9801 147.74 69.9501H147.76C147.76 69.9401 147.73 69.8901 147.74 69.8601L147.76 69.8901C147.79 69.7701 147.71 69.7001 147.69 69.6001C147.75 69.6001 147.77 69.5001 147.77 69.4601C147.77 69.3201 147.72 69.2301 147.67 69.0901C147.73 69.0001 147.66 68.8001 147.64 68.6601C147.64 68.6801 147.6 68.6601 147.58 68.6501C147.58 68.6201 147.52 68.5801 147.57 68.5701C147.57 68.5701 147.57 68.4801 147.56 68.4401L147.49 68.4601C147.54 68.2901 147.31 68.1701 147.35 68.0601C147.32 68.0401 147.3 68.0101 147.27 67.9901L147.3 67.9701C147.27 67.8901 147.24 67.8501 147.17 67.7701H147.21C147.21 67.7701 147.08 67.7701 147.04 67.7301L147.07 67.6801C147 67.6001 146.96 67.4901 146.85 67.4401C146.85 67.4401 146.87 67.4301 146.88 67.4401C146.85 67.4001 146.76 67.2701 146.72 67.3501C146.75 67.3101 146.64 67.2701 146.58 67.2601L146.61 67.2401C146.54 67.2401 146.54 67.2501 146.47 67.2301C146.46 67.2201 146.47 67.2001 146.49 67.2201C146.45 67.1801 146.43 67.2201 146.39 67.1801H146.42C146.42 67.1801 146.37 67.1501 146.33 67.1601C146.29 67.1601 146.25 67.1001 146.25 67.0601C146.23 67.0801 146.2 67.0801 146.17 67.0601C146.17 67.0501 146.19 67.0401 146.19 67.0401C146.11 66.9801 146.04 67.0301 146 66.9701C146 66.9601 146 66.9501 146 66.9501C146.07 66.9801 146.12 67.0001 146.12 67.0001C146.13 66.9701 146.08 66.9401 146.14 66.9101C146.08 66.9101 145.99 66.9401 145.94 66.9101V66.8901C145.94 66.8901 145.92 66.8801 145.91 66.8901C145.89 66.8901 145.88 66.8701 145.86 66.8701C145.86 66.8401 145.79 66.8401 145.76 66.8401C145.76 66.8801 145.72 66.8601 145.75 66.9001C145.75 66.9001 145.75 66.9001 145.78 66.9001H145.87C145.87 66.9001 145.81 66.9401 145.79 66.9101L145.74 66.9601C145.71 66.9001 145.63 66.8601 145.62 66.8301C145.52 66.8401 145.39 66.8501 145.34 66.9201C145.32 66.9301 145.31 66.9001 145.3 66.8901C145.31 66.8901 145.33 66.8901 145.34 66.8701C145.29 66.8801 145.19 66.9001 145.19 66.9601C145.12 66.9601 145.21 66.9101 145.13 66.9401V66.9201C144.93 66.8901 144.92 67.1301 144.71 67.1401C144.73 67.1401 144.73 67.1401 144.74 67.1401C144.53 67.2201 144.41 67.4501 144.23 67.5701C144.18 67.6101 144.2 67.6301 144.2 67.6801H144.16V67.7401C144.13 67.8301 143.98 67.8101 143.98 67.9401H144.01C144.01 67.9401 143.96 68.0601 143.94 68.0401C143.94 68.0401 143.96 68.0701 143.94 68.0701H143.92L143.9 68.1601C143.85 68.2201 143.83 68.1101 143.77 68.2101C143.76 68.2501 143.77 68.3401 143.79 68.3301C143.79 68.3201 143.82 68.3001 143.84 68.3101V68.3501C143.84 68.3501 143.93 68.4301 144.01 68.3801V68.3101H144.04L144.02 68.3501C144.02 68.3501 144.05 68.3101 144.04 68.2801C144.06 68.2801 144.07 68.2801 144.08 68.2801L144.06 68.2001C144.06 68.2001 144.09 68.2501 144.12 68.2201C144.11 68.1801 144.06 68.2201 144.07 68.1701C144.11 68.1601 144.12 68.1701 144.12 68.1301C144.14 68.1301 144.14 68.1501 144.14 68.1601C144.14 68.1201 144.17 68.0801 144.15 68.0501C144.19 68.0501 144.19 67.9501 144.24 67.9901C144.24 67.9701 144.24 67.9201 144.24 67.9001C144.27 67.9801 144.31 67.8201 144.36 67.8701C144.33 67.8001 144.42 67.7501 144.43 67.6701V67.6901C144.46 67.6601 144.48 67.6701 144.5 67.6601C144.46 67.6201 144.5 67.5701 144.5 67.5301C144.57 67.5301 144.52 67.5901 144.57 67.6201C144.54 67.5901 144.6 67.5401 144.57 67.5201C144.62 67.5201 144.6 67.5201 144.65 67.5301C144.61 67.4801 144.67 67.5001 144.66 67.4501C144.72 67.4501 144.71 67.4901 144.74 67.4401C144.77 67.4401 144.75 67.4901 144.75 67.4901L144.81 67.5501ZM146.06 67.2401L146.02 67.2201C146.02 67.2201 146.02 67.2001 146.04 67.2001C146.04 67.2001 146.05 67.2201 146.07 67.2401H146.06ZM145.89 66.9201C145.89 66.9201 145.92 66.9201 145.92 66.9301H145.89V66.9201Z" fill="white"/>
<path d="M147.13 68.3303L147.14 68.3203H147.13V68.3303Z" fill="white"/>
<path d="M144.37 71.8809L144.4 71.901C144.4 71.901 144.39 71.8709 144.37 71.8809Z" fill="white"/>
<path d="M144.43 71.9404C144.43 71.9404 144.42 71.9104 144.4 71.9004C144.4 71.9104 144.41 71.9304 144.43 71.9404Z" fill="white"/>
<path d="M143.91 68.7309L143.92 68.7209L143.91 68.7109V68.7309Z" fill="white"/>
<path d="M143.82 69.07C143.82 69.07 143.86 69.03 143.86 69C143.86 69 143.81 69.05 143.83 69.07H143.82Z" fill="white"/>
<path d="M143.61 69.4099C143.61 69.4099 143.61 69.3598 143.62 69.3398C143.6 69.3498 143.58 69.3698 143.58 69.3398C143.53 69.4298 143.61 69.3198 143.6 69.4198L143.61 69.4099Z" fill="white"/>
<path d="M143.58 69.6406C143.58 69.6406 143.56 69.6406 143.55 69.6406C143.56 69.6706 143.57 69.6706 143.58 69.6406Z" fill="white"/>
<path d="M144.19 71.4892V71.4492H144.16L144.19 71.4892Z" fill="white"/>
<path d="M144.06 71.76L144.05 71.75L144.08 71.79L144.06 71.76Z" fill="white"/>
<path d="M146.48 72.9599L146.46 72.9199C146.46 72.9199 146.46 72.9799 146.48 72.9599Z" fill="white"/>
<path d="M147.33 72.0502C147.33 72.0502 147.38 72.0202 147.37 71.9902C147.36 72.0102 147.33 72.0302 147.33 72.0502Z" fill="white"/>
<path d="M147.57 68.4594L147.6 68.4795L147.57 68.4395V68.4594Z" fill="white"/>
<g style="mix-blend-mode:soft-light" opacity="0.4">
<g style="mix-blend-mode:soft-light" opacity="0.4">
<path d="M140.18 70.0403C138.9 70.4703 138.3 72.0703 139.76 72.8303C140.68 73.3103 141.61 72.8103 141.69 71.7903C141.77 70.7703 141.7 69.5303 140.18 70.0403V70.0403Z" fill="#F0E1A0"/>
</g>
</g>
<path d="M81.1302 68.4404C82.4902 65.5904 84.7602 67.7104 84.8502 69.2804C84.9402 70.8504 84.6802 73.0704 82.9902 72.9104C81.3002 72.7504 80.4602 69.8504 81.1302 68.4404Z" fill="white"/>
<path d="M81.2099 68.4807C81.2099 68.4807 81.1799 68.4607 81.1699 68.4807L81.1999 68.5107V68.4707L81.2099 68.4807Z" fill="white"/>
<path d="M81.0801 68.5898C81.0801 68.5898 81.1101 68.6598 81.1601 68.6598C81.1301 68.6198 81.1501 68.6198 81.1101 68.5798C81.1101 68.5598 81.1401 68.5498 81.1501 68.5598C81.1501 68.5498 81.1701 68.5298 81.1501 68.5098C81.1101 68.5198 81.0901 68.5598 81.1101 68.5998C81.1001 68.5998 81.0901 68.5998 81.0801 68.5898Z" fill="white"/>
<path d="M80.8403 70.1899L80.8303 70.1799L80.8203 70.1699L80.8403 70.1899Z" fill="white"/>
<path d="M80.7903 69.7109C80.7903 69.7109 80.8303 69.7209 80.8403 69.7309C80.8203 69.7309 80.8203 69.7209 80.8103 69.7109C80.8103 69.7109 80.7903 69.7109 80.7803 69.7109H80.7903Z" fill="white"/>
<path d="M81.1206 68.4399V68.4299L81.1006 68.4199L81.1206 68.4399Z" fill="white"/>
<path d="M84.9198 71.0208C84.9198 71.0208 84.8898 70.9408 84.8398 71.0008C84.8598 71.0008 84.8898 71.0708 84.9198 71.0208Z" fill="white"/>
<path d="M83.7602 72.9006L83.7502 72.8906L83.7402 72.9006H83.7602Z" fill="white"/>
<path d="M82.3305 67.2993C82.3305 67.2993 82.3105 67.2893 82.3005 67.2793C82.3205 67.2993 82.2705 67.3393 82.3305 67.2993Z" fill="white"/>
<path d="M81.0703 68.9004C81.0703 68.9004 81.0803 68.9004 81.0803 68.9104L81.0703 68.9004Z" fill="white"/>
<path d="M83.54 72.6699C83.54 72.6699 83.57 72.6799 83.58 72.6799H83.54V72.6699Z" fill="white"/>
<path d="M82.0307 67.5501C82.0307 67.5501 82.0207 67.4901 82.0107 67.4601C82.0507 67.4001 82.0507 67.4601 82.0907 67.4701C82.1207 67.4401 82.1207 67.3901 82.1507 67.3701C82.1507 67.3701 82.1607 67.3701 82.1607 67.3901C82.1807 67.3301 82.2707 67.3201 82.2907 67.2501H82.3007C82.3007 67.2501 82.2707 67.2201 82.2607 67.2001C82.2807 67.1801 82.2907 67.1501 82.3107 67.1801C82.2907 67.1801 82.3007 67.2001 82.3007 67.2101L82.3207 67.1901C82.3207 67.1901 82.2907 67.2101 82.3107 67.2501C82.3507 67.2201 82.4007 67.1701 82.4407 67.1701C82.4607 67.2101 82.3607 67.2101 82.4207 67.2301H82.3607C82.4307 67.2801 82.3207 67.2301 82.3907 67.3001C82.4707 67.3001 82.4607 67.2501 82.5407 67.2501C82.5507 67.2201 82.5307 67.2201 82.5407 67.1901C82.6407 67.1101 82.6407 67.2901 82.7107 67.2201C82.7307 67.1901 82.7307 67.1301 82.7907 67.1601L82.7707 67.2101C82.8407 67.2101 82.8107 67.1301 82.8907 67.1701C82.8707 67.1801 82.8307 67.1901 82.8407 67.1901C82.8907 67.2301 82.8807 67.1601 82.9207 67.1701V67.2201C83.0007 67.2301 83.1007 67.2001 83.1907 67.2201C83.1907 67.2301 83.1607 67.2401 83.1807 67.2601C83.2907 67.2801 83.4107 67.3401 83.4807 67.4301H83.5407V67.4401C83.5707 67.4701 83.5507 67.4201 83.5807 67.4201C83.6007 67.4301 83.6007 67.4601 83.5807 67.4601C83.6707 67.4601 83.8007 67.5301 83.8407 67.6201H83.8207C83.8607 67.6701 83.9307 67.6001 83.9507 67.6701H83.9407C84.0207 67.7801 84.1707 67.8601 84.1807 67.9901C84.2407 67.9701 84.2407 68.1201 84.3107 68.0801C84.3307 68.1701 84.3107 68.1501 84.3407 68.2601C84.3507 68.2901 84.4007 68.2701 84.4307 68.3001L84.3907 68.3201L84.4507 68.3401L84.4207 68.3901L84.4507 68.4101C84.4507 68.4101 84.4507 68.3801 84.4607 68.3701C84.5107 68.4101 84.4907 68.5001 84.4707 68.5101L84.5507 68.6101C84.5507 68.6101 84.5207 68.6001 84.5007 68.5901C84.5707 68.6401 84.4607 68.6201 84.5207 68.6601C84.5207 68.6501 84.5407 68.6601 84.5507 68.6601C84.5507 68.7001 84.5707 68.7601 84.5907 68.8101H84.5607C84.5707 68.9001 84.6407 68.9901 84.6407 69.0901C84.6407 69.0501 84.7007 69.0501 84.7107 69.0901L84.6707 69.1101C84.6707 69.1101 84.6807 69.0801 84.7207 69.1101C84.7207 69.1501 84.6707 69.1401 84.6607 69.1201L84.6807 69.1601C84.6807 69.1601 84.6607 69.1601 84.6407 69.1601C84.6707 69.1801 84.6107 69.2401 84.6607 69.2701H84.6507L84.6807 69.5201C84.6807 69.5201 84.7107 69.5601 84.7407 69.5801C84.7307 69.6501 84.7007 69.7201 84.7007 69.8001C84.7207 69.8601 84.7307 69.8201 84.7507 69.8401C84.7207 69.8401 84.7207 69.9201 84.6907 69.8801C84.6907 69.9801 84.6907 70.0001 84.7207 70.1201C84.7307 70.1101 84.7407 70.0901 84.7507 70.1001C84.7507 70.1201 84.7307 70.1501 84.7207 70.1501C84.7707 70.2801 84.6007 70.4501 84.6607 70.5601L84.6807 70.6701C84.6707 70.7201 84.6607 70.6401 84.6307 70.6701C84.6707 70.8001 84.6007 70.8601 84.6207 70.9601C84.5107 71.0201 84.5807 71.2301 84.4907 71.3101H84.5107C84.5107 71.3101 84.4907 71.3401 84.4807 71.3601C84.5007 71.3601 84.5107 71.3401 84.5207 71.3601C84.4907 71.5901 84.3607 71.7901 84.2407 71.9701C84.2007 72.0401 84.3307 72.0701 84.2307 72.1301L84.2107 72.0801C84.1707 72.2501 84.0307 72.3501 83.9507 72.4801C83.9507 72.4701 83.9507 72.4601 83.9507 72.4501C83.9107 72.4501 83.8607 72.5301 83.8807 72.5501C83.8607 72.5601 83.8607 72.5301 83.8407 72.5301C83.8007 72.5301 83.8007 72.6101 83.7707 72.5901C83.7707 72.5901 83.7707 72.5801 83.7707 72.5701C83.7707 72.5901 83.6907 72.6201 83.7207 72.6401C83.6607 72.6401 83.6307 72.6901 83.5807 72.6901C83.5707 72.7401 83.4907 72.7101 83.4907 72.7601C83.4807 72.7001 83.3807 72.7301 83.3507 72.7601C83.3507 72.7401 83.3207 72.7501 83.3307 72.7201C83.2907 72.7301 83.2507 72.7401 83.2607 72.7701C83.1807 72.7001 83.1007 72.8301 83.0607 72.7301C82.9407 72.7601 82.8207 72.7501 82.7007 72.7301C82.7207 72.6801 82.8307 72.7501 82.8307 72.6901C82.7207 72.7001 82.6507 72.7201 82.5507 72.6601C82.5307 72.6401 82.5807 72.6401 82.5907 72.6401C82.4807 72.6301 82.4107 72.5501 82.3107 72.5201C82.3107 72.5201 82.3307 72.5201 82.3407 72.5201C82.3207 72.5201 82.3107 72.4901 82.2907 72.5201H82.3107C82.3107 72.5701 82.2007 72.5501 82.1807 72.5601C82.2507 72.5201 82.1107 72.4901 82.2107 72.4401C82.2007 72.4401 82.1807 72.4401 82.1707 72.4501C82.1607 72.4301 82.1707 72.4201 82.1907 72.4201C82.1307 72.3901 82.1307 72.4201 82.0807 72.3801C82.0807 72.3801 82.1007 72.3801 82.1207 72.3701C82.0807 72.3701 82.0407 72.3701 82.0007 72.3201C82.0007 72.3201 82.0107 72.3001 82.0207 72.3201C81.9507 72.2701 81.8607 72.2501 81.8107 72.1601C81.8707 72.1501 81.8107 72.1201 81.8407 72.0901L81.7907 72.0601V72.0901C81.7907 72.0901 81.7007 72.0401 81.6907 71.9901L81.7307 72.0101L81.6707 71.9401V71.9901C81.6707 71.9901 81.6307 72.0301 81.6107 71.9701C81.6207 71.9701 81.5807 71.9301 81.5907 71.8901C81.5907 71.8901 81.5307 71.8701 81.5207 71.8301C81.5207 71.8101 81.5707 71.8101 81.5807 71.8001C81.5307 71.8001 81.5107 71.7101 81.4607 71.7001C81.4707 71.7001 81.5007 71.7001 81.5007 71.6901H81.4607C81.4607 71.6901 81.4607 71.6601 81.4807 71.6501C81.4507 71.5901 81.4307 71.7001 81.4207 71.6101C81.4207 71.6101 81.4207 71.6101 81.4407 71.6101C81.4207 71.5301 81.3407 71.4801 81.3307 71.4001C81.3707 71.3601 81.3707 71.4601 81.3907 71.4101C81.3407 71.3201 81.2507 71.2301 81.2207 71.1201V71.1401C81.1507 71.1501 81.2207 71.0501 81.1807 71.0101C81.1807 71.0201 81.2207 71.0101 81.2107 71.0101C81.2007 70.9401 81.1507 70.8801 81.0907 70.7801H81.1107C81.1107 70.7801 81.0907 70.6801 81.0907 70.6301C81.0707 70.6301 81.0707 70.5901 81.0407 70.6201C81.1107 70.4601 80.9207 70.3701 80.9907 70.2301C80.9907 70.2401 81.0107 70.2601 81.0107 70.2501L80.9807 70.1501C80.9807 70.1501 80.9607 70.1701 80.9407 70.1901C80.9207 70.1801 80.9007 70.1501 80.9007 70.1201C80.9307 70.1701 80.9507 70.1201 80.9607 70.0901C80.9607 70.0901 80.9407 70.0901 80.9307 70.0901C80.9807 70.0301 80.8607 70.0901 80.9007 70.0101H80.9207C80.9207 70.0101 80.8907 69.9601 80.8907 69.9301C80.9207 69.9101 80.9107 69.9601 80.9407 69.9601C80.9407 69.9201 80.8707 69.8801 80.9007 69.8401L80.9207 69.9001C80.9207 69.9001 80.9507 69.8501 80.9507 69.8201V69.7701C80.8607 69.7201 80.9307 69.6601 80.8707 69.5901C80.9307 69.6601 80.9007 69.6001 80.9407 69.6101C80.9507 69.5901 80.9607 69.5601 80.9807 69.5701C80.9507 69.5401 81.0107 69.5101 80.9607 69.4601C80.9707 69.4601 80.9607 69.4201 80.9907 69.4301C80.9907 69.3901 80.9707 69.4301 80.9507 69.4301C80.9007 69.3601 81.0207 69.2801 80.9707 69.1701C80.9607 69.0801 80.9107 69.0601 80.9107 68.9801C80.9407 68.9601 80.9507 69.0101 80.9507 69.0101C80.9807 68.9701 80.9807 68.9401 80.9807 68.9001C80.9807 68.9101 81.0007 68.9001 81.0207 68.9001C81.0207 68.8701 80.9807 68.8701 81.0107 68.8301C81.0207 68.8401 81.0407 68.8601 81.0507 68.8701L81.0307 68.7501C81.0307 68.7501 81.0607 68.7801 81.0707 68.8001C81.0707 68.7501 81.0807 68.6901 81.0607 68.6601L81.0407 68.6801C81.0407 68.6801 81.0707 68.6801 81.0707 68.7001C81.0807 68.7401 81.0407 68.7501 81.0307 68.7501V68.7201C80.9507 68.7201 81.0107 68.8401 81.0007 68.8901L80.9507 68.8501L80.9807 68.9201C80.9807 68.9201 80.9307 68.9301 80.9307 68.9001C80.8907 68.9401 80.9407 68.9401 80.9007 68.9701V69.0101C80.9007 69.0101 80.8707 69.0101 80.8807 68.9901C80.8307 69.0601 80.9007 69.1201 80.8607 69.1401C80.8607 69.2401 80.9007 69.1401 80.9407 69.2301L80.8307 69.2701H80.8707C80.8707 69.2701 80.8707 69.3101 80.8507 69.3101C80.8707 69.3501 80.8707 69.3101 80.8907 69.3301C80.8407 69.3801 80.9007 69.4701 80.8407 69.4801C80.8707 69.5001 80.8607 69.4301 80.8907 69.4801C80.8207 69.4901 80.9007 69.5401 80.8707 69.5901C80.8307 69.5801 80.8507 69.5301 80.8207 69.5801C80.8807 69.6101 80.8007 69.6701 80.8207 69.7101C80.8707 69.7101 80.8507 69.8001 80.8707 69.8601C80.8507 69.8601 80.8507 69.9901 80.8407 70.0501C80.8407 70.0501 80.8907 70.1201 80.9007 70.1601C80.8707 70.1601 80.8607 70.1601 80.8407 70.1301V70.1701C80.8407 70.1701 80.8707 70.1901 80.8807 70.2201H80.8407C80.8507 70.2701 80.9007 70.3201 80.8907 70.4001C80.9207 70.4001 80.9707 70.3301 81.0107 70.4001C80.9907 70.4001 80.9607 70.4101 80.9507 70.4001C80.9507 70.4001 80.9707 70.4201 80.9607 70.4401L80.9207 70.4101C80.9207 70.4101 80.9507 70.4201 80.9507 70.4501C80.9207 70.4501 80.9407 70.4701 80.9107 70.4701C80.9107 70.4701 80.9107 70.4501 80.9107 70.4401C80.9107 70.4701 80.9107 70.5101 80.8907 70.5301C80.9007 70.5301 80.9207 70.5301 80.9307 70.5401C80.9407 70.6001 80.9007 70.5701 80.9007 70.6001C80.9207 70.6001 80.9107 70.6501 80.9507 70.6401C80.9507 70.6601 80.9407 70.6601 80.9307 70.6701C80.9507 70.7001 80.9707 70.8101 81.0007 70.7601C81.0607 70.8401 81.0407 70.9601 81.0807 71.0401H81.0707C81.1007 71.0901 81.1207 71.1601 81.1607 71.1901C81.1607 71.2101 81.1607 71.2401 81.1407 71.2301C81.1707 71.2701 81.1807 71.2701 81.1907 71.3301C81.1507 71.3001 81.1807 71.3501 81.1607 71.2901C81.1707 71.3501 81.1607 71.3701 81.2107 71.4101C81.1707 71.4101 81.1907 71.4701 81.2107 71.4901V71.4401C81.2107 71.4401 81.2407 71.4901 81.2507 71.5201H81.2007C81.2007 71.6601 81.3807 71.6701 81.3507 71.8001C81.3907 71.8101 81.3407 71.7301 81.3807 71.7401C81.4007 71.7901 81.3807 71.8701 81.3807 71.8901C81.4007 71.9701 81.4707 71.9101 81.5007 71.9901C81.5007 71.9701 81.5407 71.9401 81.5807 71.9901C81.6107 72.0401 81.5607 72.0801 81.5307 72.0601C81.5307 72.0501 81.5307 72.0401 81.5307 72.0401C81.5207 72.0301 81.5007 72.0101 81.4907 72.0401H81.5107C81.5107 72.0401 81.5607 72.1301 81.5307 72.1301C81.5707 72.1601 81.5607 72.1301 81.5507 72.1001C81.5707 72.1701 81.6207 72.1901 81.6507 72.2601C81.6507 72.2501 81.6507 72.2301 81.6607 72.2301C81.7107 72.3201 81.7107 72.2501 81.7707 72.3001C81.7707 72.3501 81.7207 72.3301 81.7807 72.3701C81.8007 72.4201 81.7607 72.4101 81.7307 72.4001C81.7907 72.4301 81.8107 72.5001 81.8307 72.5401L81.7907 72.5201C81.7907 72.5201 81.8207 72.5401 81.8407 72.5501V72.5101C81.8407 72.5101 81.8707 72.5401 81.8607 72.5501C81.8907 72.5501 81.8807 72.5001 81.9307 72.5101C81.9407 72.5401 82.0007 72.5501 81.9807 72.5901C81.9207 72.5201 81.9607 72.6301 81.9007 72.5901C81.9107 72.5901 81.9307 72.6101 81.9407 72.6301C81.9407 72.6301 81.9407 72.6301 81.9307 72.6301C81.9707 72.7101 81.9907 72.6301 82.0607 72.6701C82.0407 72.6801 82.0607 72.7201 82.0607 72.7201C82.0307 72.7001 82.0607 72.6801 82.1107 72.6801C82.1507 72.7301 82.1707 72.7001 82.1907 72.7201L82.1707 72.6901C82.1707 72.6901 82.2107 72.6901 82.2507 72.7101C82.2507 72.7301 82.2107 72.7101 82.2207 72.7101C82.2807 72.7001 82.2807 72.8001 82.3507 72.8001C82.3707 72.8301 82.3307 72.8401 82.3507 72.8601C82.4307 72.8601 82.4107 72.9201 82.4907 72.9201C82.4907 72.8801 82.4807 72.8901 82.5307 72.8801L82.4107 72.8501H82.5007C82.5007 72.8501 82.4207 72.8301 82.4107 72.8101C82.4507 72.8101 82.4507 72.8101 82.4407 72.7801C82.4707 72.8401 82.5407 72.7901 82.5807 72.8401L82.5507 72.9101C82.6207 72.9801 82.7107 72.9101 82.8107 72.9601L82.7807 72.9401C82.7807 72.9401 82.8507 72.9401 82.8807 72.9401C82.8807 72.9701 82.8907 72.9801 82.9107 73.0001C82.9107 72.9801 82.9907 73.0101 83.0107 72.9601L83.0607 73.0001C83.1507 73.0101 83.1607 72.9301 83.2407 72.9401C83.2207 72.9701 83.2607 72.9901 83.2007 73.0101C83.2307 73.0101 83.2607 73.0101 83.2507 73.0001C83.2707 73.0201 83.3307 72.9501 83.3507 72.9801C83.3607 72.9701 83.3607 72.9401 83.3907 72.9301V72.9401C83.3907 72.9301 83.4407 72.9101 83.4007 72.8901C83.5107 72.9601 83.6307 72.8301 83.7207 72.8601C83.7807 72.8301 83.8407 72.7901 83.8807 72.7501V72.7601C83.9607 72.7401 83.8807 72.6701 83.9707 72.6501C84.0307 72.6501 83.9507 72.6901 83.9707 72.6901C84.0407 72.7501 84.0507 72.6201 84.1207 72.6101C84.1707 72.6101 84.1807 72.5201 84.2307 72.4701C84.2307 72.4001 84.2707 72.3201 84.3007 72.2501C84.3207 72.2901 84.3007 72.2901 84.3307 72.2901C84.3407 72.2601 84.2807 72.2701 84.3107 72.2101C84.3407 72.2101 84.3707 72.1701 84.4107 72.1901L84.3807 72.2401C84.4407 72.2401 84.4207 72.1701 84.4407 72.1501H84.4607C84.5007 72.0801 84.4607 72.0501 84.5007 71.9701H84.4807C84.4507 71.9001 84.5207 71.9401 84.5107 71.8801H84.5607C84.5607 71.8801 84.5607 71.7501 84.5707 71.6901C84.5907 71.7401 84.5807 71.8101 84.5907 71.8601C84.6007 71.8301 84.6307 71.7501 84.6107 71.7201C84.6107 71.7301 84.6107 71.7601 84.6107 71.7701C84.5907 71.7201 84.5907 71.6601 84.6107 71.5901C84.7007 71.6301 84.6907 71.4301 84.7807 71.4001C84.7707 71.2701 84.8607 71.1701 84.8707 71.0301C84.7807 71.0701 84.8707 70.9901 84.7907 70.9801C84.7907 70.9501 84.7907 70.9401 84.7907 70.9301L84.8507 70.8401C84.8507 70.8401 84.8607 70.8701 84.8807 70.8701C84.9007 70.8001 84.9207 70.8501 84.9507 70.8001C84.9207 70.8001 84.9107 70.7701 84.9307 70.7301L84.8907 70.7801C84.8607 70.6701 84.9707 70.7001 84.9407 70.6001L84.9607 70.6301C84.9607 70.5801 84.9807 70.4401 84.9207 70.3801C84.9207 70.3801 84.9507 70.3601 84.9607 70.3801C84.9807 70.2601 84.9107 70.1001 84.9607 70.0101H84.9807C84.9807 70.0101 84.9407 69.9801 84.9607 69.9501H84.9807C84.9807 69.9401 84.9507 69.8901 84.9607 69.8601L84.9807 69.8901C85.0107 69.7701 84.9307 69.7001 84.9107 69.6001C84.9707 69.6001 84.9907 69.5001 84.9907 69.4601C84.9907 69.3201 84.9407 69.2301 84.8907 69.0901C84.9507 69.0001 84.8807 68.8001 84.8607 68.6601C84.8607 68.6801 84.8207 68.6601 84.8007 68.6501C84.8007 68.6201 84.7407 68.5801 84.7907 68.5701C84.7907 68.5701 84.7907 68.4801 84.7807 68.4401L84.7107 68.4601C84.7607 68.2901 84.5307 68.1701 84.5707 68.0601C84.5407 68.0401 84.5207 68.0101 84.4907 67.9901L84.5207 67.9701C84.4907 67.8901 84.4607 67.8501 84.3907 67.7701H84.4307C84.4307 67.7701 84.3007 67.7701 84.2607 67.7301L84.2907 67.6801C84.2207 67.6001 84.1807 67.4901 84.0707 67.4401C84.0707 67.4401 84.0907 67.4301 84.1007 67.4401C84.0707 67.4001 83.9807 67.2701 83.9407 67.3501C83.9707 67.3101 83.8607 67.2701 83.8007 67.2601L83.8307 67.2401C83.7607 67.2401 83.7607 67.2501 83.6907 67.2301C83.6807 67.2201 83.6907 67.2001 83.7107 67.2201C83.6707 67.1801 83.6507 67.2201 83.6107 67.1801H83.6407C83.6407 67.1801 83.5907 67.1501 83.5507 67.1601C83.5107 67.1601 83.4707 67.1001 83.4707 67.0601C83.4507 67.0801 83.4207 67.0801 83.3907 67.0601C83.3907 67.0501 83.4107 67.0401 83.4107 67.0401C83.3307 66.9801 83.2607 67.0301 83.2207 66.9701C83.2207 66.9601 83.2207 66.9501 83.2207 66.9501C83.2907 66.9801 83.3407 67.0001 83.3407 67.0001C83.3507 66.9701 83.3007 66.9401 83.3607 66.9101C83.3007 66.9101 83.2107 66.9401 83.1607 66.9101V66.8901C83.1607 66.8901 83.1407 66.8801 83.1307 66.8901C83.1107 66.8901 83.1007 66.8701 83.0807 66.8701C83.0807 66.8401 83.0107 66.8401 82.9807 66.8401C82.9807 66.8801 82.9407 66.8601 82.9707 66.9001C82.9707 66.9001 82.9707 66.9001 83.0007 66.9001H83.0907C83.0907 66.9001 83.0307 66.9401 83.0107 66.9101L82.9607 66.9601C82.9307 66.9001 82.8507 66.8601 82.8407 66.8301C82.7407 66.8401 82.6107 66.8501 82.5607 66.9201C82.5407 66.9301 82.5307 66.9001 82.5207 66.8901C82.5307 66.8901 82.5507 66.8901 82.5607 66.8701C82.5107 66.8801 82.4107 66.9001 82.4107 66.9601C82.3407 66.9601 82.4307 66.9101 82.3507 66.9401V66.9201C82.1507 66.8901 82.1407 67.1301 81.9307 67.1401C81.9507 67.1401 81.9507 67.1401 81.9607 67.1401C81.7507 67.2201 81.6307 67.4501 81.4507 67.5701C81.4007 67.6101 81.4207 67.6301 81.4207 67.6801H81.3807V67.7401C81.3507 67.8301 81.2007 67.8101 81.2007 67.9401H81.2307C81.2307 67.9401 81.1807 68.0601 81.1607 68.0401C81.1607 68.0401 81.1807 68.0701 81.1607 68.0701H81.1407L81.1207 68.1601C81.0707 68.2201 81.0507 68.1101 80.9907 68.2101C80.9807 68.2501 80.9907 68.3401 81.0107 68.3301C81.0107 68.3201 81.0407 68.3001 81.0607 68.3101V68.3501C81.0607 68.3501 81.1507 68.4301 81.2307 68.3801V68.3101H81.2607L81.2407 68.3501C81.2407 68.3501 81.2707 68.3101 81.2607 68.2801C81.2807 68.2801 81.2907 68.2801 81.3007 68.2801L81.2807 68.2001C81.2807 68.2001 81.3107 68.2501 81.3407 68.2201C81.3307 68.1801 81.2807 68.2201 81.2907 68.1701C81.3307 68.1601 81.3407 68.1701 81.3407 68.1301C81.3607 68.1301 81.3607 68.1501 81.3607 68.1601C81.3607 68.1201 81.3907 68.0801 81.3707 68.0501C81.4107 68.0501 81.4107 67.9501 81.4607 67.9901C81.4607 67.9701 81.4607 67.9201 81.4607 67.9001C81.4907 67.9801 81.5307 67.8201 81.5807 67.8701C81.5507 67.8001 81.6407 67.7501 81.6507 67.6701V67.6901C81.6807 67.6601 81.7007 67.6701 81.7207 67.6601C81.6807 67.6201 81.7207 67.5701 81.7207 67.5301C81.7907 67.5301 81.7407 67.5901 81.7907 67.6201C81.7607 67.5901 81.8207 67.5401 81.7907 67.5201C81.8407 67.5201 81.8207 67.5201 81.8707 67.5301C81.8307 67.4801 81.8907 67.5001 81.8807 67.4501C81.9407 67.4501 81.9307 67.4901 81.9607 67.4401C81.9907 67.4401 81.9707 67.4901 81.9707 67.4901L82.0307 67.5501ZM83.2807 67.2401L83.2407 67.2201C83.2407 67.2201 83.2407 67.2001 83.2607 67.2001C83.2607 67.2001 83.2707 67.2201 83.2907 67.2401H83.2807ZM83.1107 66.9201C83.1107 66.9201 83.1407 66.9201 83.1407 66.9301H83.1107V66.9201Z" fill="white"/>
<path d="M84.3604 68.3303L84.3704 68.3203H84.3604V68.3303Z" fill="white"/>
<path d="M81.6006 71.8809L81.6306 71.901C81.6306 71.901 81.6206 71.8709 81.6006 71.8809Z" fill="white"/>
<path d="M81.6599 71.9404C81.6599 71.9404 81.6499 71.9104 81.6299 71.9004C81.6299 71.9104 81.6399 71.9304 81.6599 71.9404Z" fill="white"/>
<path d="M81.1406 68.7309L81.1506 68.7209L81.1406 68.7109V68.7309Z" fill="white"/>
<path d="M81.04 69.07C81.04 69.07 81.08 69.03 81.08 69C81.08 69 81.03 69.05 81.05 69.07H81.04Z" fill="white"/>
<path d="M80.8405 69.4099C80.8405 69.4099 80.8405 69.3598 80.8505 69.3398C80.8305 69.3498 80.8105 69.3698 80.8105 69.3398C80.7605 69.4298 80.8405 69.3198 80.8305 69.4198L80.8405 69.4099Z" fill="white"/>
<path d="M80.8103 69.6406C80.8103 69.6406 80.7903 69.6406 80.7803 69.6406C80.7903 69.6706 80.8003 69.6706 80.8103 69.6406Z" fill="white"/>
<path d="M81.4099 71.4892L81.4199 71.4492H81.3799L81.4099 71.4892Z" fill="white"/>
<path d="M81.2805 71.76L81.2705 71.75L81.3105 71.79L81.2805 71.76Z" fill="white"/>
<path d="M83.7007 72.9599L83.6807 72.9199C83.6807 72.9199 83.6807 72.9799 83.7007 72.9599Z" fill="white"/>
<path d="M84.5605 72.0502C84.5605 72.0502 84.6105 72.0202 84.6005 71.9902C84.5905 72.0102 84.5605 72.0302 84.5605 72.0502Z" fill="white"/>
<path d="M84.8 68.4594L84.82 68.4795L84.79 68.4395L84.8 68.4594Z" fill="white"/>
<g style="mix-blend-mode:soft-light" opacity="0.4">
<g style="mix-blend-mode:soft-light" opacity="0.4">
<path d="M77.4098 70.0403C76.1298 70.4703 75.5297 72.0703 76.9898 72.8303C77.9098 73.3103 78.8398 72.8103 78.9198 71.7903C78.9998 70.7703 78.9298 69.5303 77.4098 70.0403Z" fill="#F0E1A0"/>
</g>
</g>
<path d="M111.66 74.9609C118.44 74.9609 123.94 80.4609 123.94 87.2409C123.94 94.0209 99.3799 94.0209 99.3799 87.2409C99.3799 80.4609 104.88 74.9609 111.66 74.9609Z" fill="#7A5751"/>
<g style="mix-blend-mode:soft-light" opacity="0.4">
<path d="M111.66 80.3313C106.45 80.3313 101.35 83.2113 102.52 81.1413C107.29 72.6413 118.77 75.8613 121.1 80.9113C122.1 83.0713 116.88 80.3313 111.67 80.3313H111.66Z" fill="#F0E1A0"/>
</g>
</g>
<defs>
<linearGradient id="paint0_linear_316_15290" x1="143.19" y1="56.7799" x2="143.19" y2="104.05" gradientUnits="userSpaceOnUse">
<stop stop-color="#7A5751"/>
<stop offset="0.42" stop-color="#7E5C57"/>
<stop offset="0.75" stop-color="#846460"/>
</linearGradient>
<linearGradient id="paint1_linear_316_15290" x1="79.9501" y1="56.9899" x2="79.9501" y2="104.27" gradientUnits="userSpaceOnUse">
<stop stop-color="#7A5751"/>
<stop offset="0.41" stop-color="#7E5C57"/>
<stop offset="0.73" stop-color="#846460"/>
</linearGradient>
<clipPath id="clip0_316_15290">
<rect width="190.54" height="466.51" fill="white"/>
</clipPath>
</defs>
</svg>
