<svg width="191" height="467" viewBox="0 0 191 467" fill="none" xmlns="http://www.w3.org/2000/svg">
<g clip-path="url(#clip0_316_15797)">
<path d="M113.2 123.19C84.4398 127.73 70.7498 113.32 70.7498 113.32C70.7498 113.32 85.0598 128.13 60.3898 148.36C35.7098 168.6 37.3198 190.96 45.2098 208.23C53.1098 225.5 47.5198 249.8 40.8698 270.06C31.1798 299.62 50.9998 318 69.3698 327.33C76.5098 330.95 81.5898 337.68 83.3598 345.49C88.6198 368.74 62.8098 413.84 13.4098 444.43C4.80984 449.76 -3.53016 453.88 1.52984 462.45C3.50984 465.79 8.33984 469.95 22.9498 461.68C93.3698 421.82 121.03 392.52 127.91 362.03C132.56 341.44 146.11 341.36 151.37 339.94C171.47 334.52 201.61 304.86 186.37 266.37C169.94 224.85 184.96 237.78 184.06 179.12C183.39 135.78 137.86 143.44 144.28 115.8C144.28 115.8 150.7 117.28 113.19 123.2L113.2 123.19Z" fill="#997964"/>
<path d="M89.5196 131.211C89.5196 131.211 71.8796 151.191 62.7496 176.531C57.7196 190.511 76.6496 214.451 68.5296 245.101C42.9196 341.751 167.74 326.701 163.53 281.451C160.23 245.931 170.14 220.321 164.36 180.671C158.95 143.561 133.11 133.251 133.11 133.251L89.5196 131.221V131.211Z" fill="#F2E6CD"/>
<path d="M54.6294 257.729C54.6294 257.729 69.7094 266.079 81.0394 256.719C92.3694 247.359 92.0594 237.159 100.859 243.299C109.659 249.439 109.729 270.659 106.389 279.979C99.9294 297.999 77.0994 298.099 80.7394 312.409C80.7394 312.409 44.8594 305.049 54.6394 257.729H54.6294Z" fill="#997964"/>
<path d="M57.1699 162.73C68.9099 170.28 84.1899 161.4 96.3899 158.57C107.73 155.93 112.97 173.07 101.98 182.78C90.9999 192.48 68.3599 190.86 58.7299 211.12" fill="#997964"/>
<path d="M172.35 257.729C172.35 257.729 157.27 266.079 145.94 256.719C134.61 247.359 134.92 237.159 126.12 243.299C117.32 249.439 117.25 270.659 120.59 279.979C127.05 297.999 142.87 302.099 146.24 312.409C146.24 312.409 168.49 308.709 175.92 289.709C183.35 270.709 172.34 257.729 172.34 257.729H172.35Z" fill="#997964"/>
<path d="M169.81 162.73C158.07 170.28 142.79 161.4 130.59 158.57C119.25 155.93 114.01 173.07 125 182.78C135.99 192.49 158.62 190.86 168.25 211.12" fill="#997964"/>
<path d="M48.0703 66.5508C57.5972 66.5508 65.3203 58.8277 65.3203 49.3008C65.3203 39.7739 57.5972 32.0508 48.0703 32.0508C38.5434 32.0508 30.8203 39.7739 30.8203 49.3008C30.8203 58.8277 38.5434 66.5508 48.0703 66.5508Z" fill="#997964"/>
<path d="M48.07 61.6205C54.8741 61.6205 60.39 56.1046 60.39 49.3005C60.39 42.4963 54.8741 36.9805 48.07 36.9805C41.2659 36.9805 35.75 42.4963 35.75 49.3005C35.75 56.1046 41.2659 61.6205 48.07 61.6205Z" fill="#3C301F"/>
<path d="M171.31 66.5508C180.836 66.5508 188.56 58.8277 188.56 49.3008C188.56 39.7739 180.836 32.0508 171.31 32.0508C161.783 32.0508 154.06 39.7739 154.06 49.3008C154.06 58.8277 161.783 66.5508 171.31 66.5508Z" fill="#997964"/>
<path d="M171.31 61.6205C178.114 61.6205 183.63 56.1046 183.63 49.3005C183.63 42.4963 178.114 36.9805 171.31 36.9805C164.506 36.9805 158.99 42.4963 158.99 49.3005C158.99 56.1046 164.506 61.6205 171.31 61.6205Z" fill="#3C301F"/>
<path d="M107.43 5.01002C107.38 2.30001 109.15 0.060015 111.38 0.010015C113.61 -0.049985 115.46 2.10001 115.51 4.80001L115.58 8.64002L116.65 5.07001C117.41 2.53001 119.73 1.22002 121.83 2.14002C123.93 3.07002 125.01 5.88002 124.24 8.42002L120.56 20.7C119.8 23.24 117.48 24.55 115.38 23.63C114.71 23.33 114.14 22.84 113.71 22.23C113.14 22.62 112.49 22.85 111.79 22.87C111.22 22.88 110.67 22.75 110.17 22.51C109.8 23.89 108.92 25.06 107.71 25.6C105.61 26.53 103.3 25.21 102.53 22.67L98.8498 10.39C98.0898 7.85002 99.1698 5.04001 101.26 4.11001C103.36 3.18001 105.67 4.50001 106.44 7.04001L107.53 10.67L107.43 5.02001V5.01002Z" fill="#997964"/>
<path d="M109.69 139.26C147.124 139.26 177.47 111.121 177.47 76.4096C177.47 41.6985 147.124 13.5596 109.69 13.5596C72.2563 13.5596 41.9102 41.6985 41.9102 76.4096C41.9102 111.121 72.2563 139.26 109.69 139.26Z" fill="#997964"/>
<path fill-rule="evenodd" clip-rule="evenodd" d="M45.5002 96.6406C52.0502 85.3106 64.5902 77.6406 78.9902 77.6406C87.0802 77.6406 94.5902 80.0606 100.78 84.2006C106.52 88.0406 115.32 88.0406 121.06 84.2006C127.25 80.0706 134.75 77.6406 142.85 77.6406C156.15 77.6406 167.87 84.1806 174.74 94.1106C166.49 120.201 140.49 139.261 109.68 139.261C78.8702 139.261 54.5702 121.431 45.4902 96.6406H45.5002Z" fill="#F2E6CD"/>
<path d="M72.1101 88.7301C75.8546 88.7301 78.8901 87.0735 78.8901 85.0301C78.8901 82.9866 75.8546 81.3301 72.1101 81.3301C68.3656 81.3301 65.3301 82.9866 65.3301 85.0301C65.3301 87.0735 68.3656 88.7301 72.1101 88.7301Z" fill="#FCCCB8"/>
<path d="M148.509 88.7301C152.254 88.7301 155.289 87.0735 155.289 85.0301C155.289 82.9866 152.254 81.3301 148.509 81.3301C144.765 81.3301 141.729 82.9866 141.729 85.0301C141.729 87.0735 144.765 88.7301 148.509 88.7301Z" fill="#FCCCB8"/>
<path d="M69.6994 103.16L41.5894 109.62M67.4694 92.3604L40.3594 89.9004L67.4694 92.3604ZM68.4094 97.8804L40.3594 99.7604L68.4094 97.8804Z" stroke="#3C301F" stroke-width="2.46" stroke-linecap="round"/>
<path d="M150.92 103.16L179.03 109.62M153.15 92.3604L180.26 89.9004L153.15 92.3604ZM152.21 97.8804L180.26 99.7604L152.21 97.8804Z" stroke="#3C301F" stroke-width="2.46" stroke-linecap="round"/>
<path d="M101.649 99.949C101.649 99.949 103.429 98.209 112.389 98.209C121.349 98.209 123.129 99.949 123.129 99.949" stroke="#7A5751" stroke-width="2.66" stroke-miterlimit="10" stroke-linecap="round"/>
<path d="M87.8592 81.1994C90.1992 78.7894 93.0192 73.8294 87.6192 71.5594C79.7792 68.2694 74.2492 64.9494 75.3892 77.1294C75.8792 82.4294 84.1492 85.0194 87.8592 81.1994V81.1994Z" fill="url(#paint0_linear_316_15797)"/>
<path d="M87.9294 81.2706C87.9294 81.2706 87.9094 81.2406 87.8594 81.2906V81.3506L87.9294 81.2706Z" fill="#7A5751"/>
<path d="M87.5196 81.5101C87.4696 81.5801 87.4196 81.6701 87.4896 81.6701C87.5196 81.5801 87.5496 81.5801 87.5796 81.4901C87.6296 81.4401 87.6796 81.4201 87.6796 81.4401C87.6896 81.4201 87.7696 81.3801 87.7796 81.3301C87.6896 81.3601 87.5996 81.4401 87.5296 81.5401C87.4996 81.5401 87.5196 81.5201 87.5096 81.5101H87.5196Z" fill="#7A5751"/>
<path d="M81.1494 82.7207L81.1894 82.7407L81.1494 82.7207Z" fill="#7A5751"/>
<path d="M77.5 80.8496L77.54 80.8696C77.52 80.8496 77.5 80.8396 77.5 80.8496Z" fill="#7A5751"/>
<path d="M77.0293 80.3301L77.0493 80.3601L77.0293 80.3301Z" fill="#7A5751"/>
<path d="M81.1498 82.7197L81.0498 82.6797C81.0498 82.6797 81.0998 82.6997 81.1498 82.7197Z" fill="#7A5751"/>
<path d="M86.8193 82.1494C86.8193 82.1494 86.8493 82.1194 86.8693 82.1094L86.8193 82.1394V82.1494Z" fill="#7A5751"/>
<path d="M82.9697 82.9106H82.9997L83.0297 82.8906L82.9697 82.9106Z" fill="#7A5751"/>
<path d="M84.3596 82.8301C84.3596 82.8301 84.3196 82.8701 84.3096 82.8901C84.3296 82.8701 84.3496 82.8601 84.3796 82.8601C84.3796 82.8601 84.3796 82.8401 84.3596 82.8401V82.8301Z" fill="#7A5751"/>
<path d="M86.4697 82.1899L86.4997 82.1699L86.4697 82.1899Z" fill="#7A5751"/>
<path d="M81.97 82.8208C81.97 82.8208 81.97 82.8108 81.96 82.8008C81.96 82.8008 81.96 82.8008 81.97 82.8208Z" fill="#7A5751"/>
<path d="M87.8594 81.2001L87.8694 81.1802L87.8594 81.1602V81.2001Z" fill="#7A5751"/>
<path d="M76.3096 79.2793C76.3096 79.2793 76.3196 79.2993 76.3096 79.2793V79.2793Z" fill="#7A5751"/>
<path d="M77.8794 68.7597C77.7394 68.7597 78.0794 68.6797 77.8794 68.6797C77.8994 68.6897 77.7194 68.7697 77.8794 68.7597Z" fill="#7A5751"/>
<path d="M86.7893 82.1699L86.7393 82.1999L86.7893 82.1699Z" fill="#7A5751"/>
<path d="M75.4993 76.4902C75.4993 76.4902 75.4893 76.5102 75.4893 76.5202C75.4893 76.5202 75.4893 76.5202 75.4993 76.4902Z" fill="#7A5751"/>
<path d="M90.7092 76.7207C90.7092 76.7207 90.6792 76.7607 90.6592 76.7707C90.6892 76.7607 90.6592 76.9407 90.7092 76.7207Z" fill="#7A5751"/>
<path d="M86.81 82.1406C86.81 82.1406 86.81 82.1606 86.79 82.1706L86.82 82.1506C86.82 82.1506 86.82 82.1406 86.81 82.1506V82.1406Z" fill="#7A5751"/>
<path d="M75.0596 74.5304C75.0596 74.5304 75.0796 74.4604 75.0796 74.4204C75.0796 74.4204 75.0796 74.4004 75.0696 74.4004V74.5304H75.0596Z" fill="#7A5751"/>
<path d="M90.3198 78.0198C90.3998 77.8498 90.3199 77.9199 90.2999 77.8699C90.3799 77.6599 90.3798 77.7899 90.4298 77.7299C90.4698 77.5899 90.4598 77.4798 90.4998 77.3798C90.5098 77.3798 90.5198 77.3598 90.5198 77.3798C90.5398 77.2298 90.6698 76.9698 90.6498 76.7798C90.6498 76.7698 90.6698 76.7598 90.6698 76.7598C90.6398 76.7798 90.6098 76.7798 90.5998 76.7598C90.6198 76.6798 90.5998 76.5998 90.6398 76.5798C90.6298 76.6298 90.6398 76.6399 90.6398 76.6599V76.5698C90.7098 76.4998 90.6398 76.6898 90.6698 76.6998C90.6898 76.5298 90.7199 76.3298 90.7299 76.1998C90.7899 76.1798 90.6998 76.5098 90.7698 76.3398L90.7098 76.5298C90.8198 76.3898 90.6798 76.6498 90.7798 76.5298C90.8598 76.2698 90.8098 76.2298 90.8598 75.9598C90.8398 75.8998 90.8199 75.9799 90.7999 75.9099C90.7999 75.5299 90.9399 75.6098 90.8699 75.3298C90.8399 75.2598 90.7799 75.2298 90.7999 75.0298L90.8498 75.0898C90.8498 74.8198 90.7698 74.9498 90.7498 74.6798C90.7798 74.7198 90.8098 74.8798 90.8098 74.8398C90.8098 74.6598 90.7498 74.7198 90.7198 74.5898L90.7598 74.5499C90.7098 74.2699 90.5399 73.9998 90.4099 73.7198C90.4299 73.7198 90.4598 73.7698 90.4498 73.6998C90.2298 73.3798 90.0198 72.9698 89.7498 72.7098L89.6199 72.6398C89.6199 72.6398 89.5899 72.5798 89.6199 72.5998C89.5199 72.4898 89.5998 72.6098 89.5398 72.5698C89.4798 72.5098 89.4798 72.4798 89.5198 72.4998C89.3198 72.3298 88.8898 72.1298 88.6898 71.9298L88.7398 71.9498C88.5798 71.8098 88.4998 71.8998 88.3398 71.7798H88.3798C87.9798 71.5698 87.5199 71.3798 87.2299 71.2098C87.1499 71.2398 86.8298 71.0098 86.7798 71.0798C86.5598 70.9398 86.6298 70.9598 86.3098 70.7898C86.2198 70.7498 86.1599 70.7798 86.0499 70.7398V70.6998L85.8998 70.6798L85.8398 70.5998L85.7299 70.5698C85.7299 70.5698 85.8099 70.6198 85.7999 70.6298C85.6299 70.5798 85.4198 70.4398 85.4298 70.4198L85.0398 70.2898C85.0398 70.2898 85.1198 70.2998 85.1698 70.3098C84.9498 70.2598 85.1498 70.2498 84.9498 70.2098C84.9698 70.2298 84.9298 70.2299 84.9198 70.2299C84.8398 70.1699 84.6298 70.0798 84.4698 70.0198H84.5098C84.2298 69.8798 83.9098 69.7698 83.5898 69.6398C83.6998 69.6998 83.6498 69.7298 83.5598 69.6998L83.5398 69.6398C83.4698 69.6398 83.6298 69.6898 83.4998 69.6798C83.3798 69.6298 83.4398 69.5999 83.5098 69.6199L83.3598 69.5798C83.3598 69.5798 83.3899 69.5798 83.4099 69.5598C83.3399 69.5598 83.1798 69.4198 83.0698 69.4298V69.4099C82.7498 69.2799 82.5898 69.2498 82.3298 69.1498C82.3098 69.1798 82.2099 69.1398 82.1199 69.1398C81.9299 69.0598 81.7198 68.9498 81.4898 68.8798C81.3198 68.8398 81.4298 68.8898 81.3498 68.8898C81.3498 68.8498 81.1098 68.7799 81.2398 68.7999C80.9498 68.7199 80.8698 68.6998 80.4998 68.6298C80.5398 68.6498 80.5799 68.6698 80.5499 68.6798C80.4799 68.6698 80.3999 68.6299 80.4099 68.6199H80.4298C80.0098 68.5599 79.4798 68.3299 79.1298 68.3699H79.1498C79.0298 68.3699 78.9098 68.3698 78.7898 68.3898C78.6298 68.3798 78.8898 68.3698 78.7698 68.3398C78.3898 68.3898 78.1498 68.3398 77.8398 68.4498C77.5698 68.3898 76.9798 68.7098 76.6898 68.8998H76.7198C76.6598 68.9798 76.6198 68.9598 76.5698 68.9898C76.5898 68.9898 76.6598 68.9498 76.6298 68.9898C76.0698 69.4898 75.6598 70.1798 75.4298 70.8898C75.3498 71.1498 75.4999 71.0698 75.3699 71.3898L75.3498 71.2898C75.2798 71.8298 75.1499 72.3898 75.1599 72.9198C75.1599 72.8898 75.1398 72.8898 75.1398 72.8298C75.0998 72.9398 75.1098 73.2398 75.1398 73.2398C75.1398 73.3198 75.1198 73.2598 75.0998 73.3098C75.0798 73.4198 75.1298 73.5898 75.0998 73.6498C75.0998 73.6498 75.0998 73.6198 75.0898 73.5998C75.0998 73.6698 75.0798 73.9399 75.1098 73.8699C75.0798 74.0699 75.1198 74.2499 75.1098 74.4099C75.1498 74.5099 75.0898 74.7498 75.1498 74.7798C75.0898 74.7698 75.1098 75.1298 75.1498 75.2498C75.1298 75.2098 75.1398 75.3598 75.1098 75.3098C75.1098 75.4498 75.1399 75.5798 75.1599 75.5598C75.0999 75.8298 75.2399 76.0799 75.1599 76.2299C75.2399 76.6499 75.2498 77.0299 75.3498 77.4099C75.2798 77.4099 75.2698 76.9898 75.2198 77.0098C75.2898 77.3698 75.3898 77.5698 75.4398 77.9298C75.4398 78.0198 75.3998 77.8798 75.3898 77.8498C75.4498 78.2098 75.6098 78.5198 75.7398 78.8198C75.7398 78.8198 75.7198 78.7898 75.6998 78.7598C75.7298 78.8198 75.7498 78.8998 75.7698 78.8898L75.7398 78.8298C75.7398 78.7198 75.8998 79.0398 75.9398 79.0298C75.8098 78.9698 76.0899 79.3098 75.9099 79.2098C75.9399 79.2398 75.9698 79.2798 75.9898 79.2698C76.0198 79.3298 76.0198 79.3499 75.9698 79.2999C76.0998 79.4899 76.0798 79.4098 76.1898 79.5798C76.1798 79.5798 76.1498 79.5498 76.1298 79.5398C76.2098 79.6198 76.2799 79.6898 76.3699 79.8498C76.3599 79.8498 76.3598 79.8698 76.3298 79.8298C76.5198 80.0598 76.7098 80.1798 76.8998 80.4498C76.7998 80.4098 76.9598 80.5498 76.9298 80.5998C76.9698 80.6398 77.0198 80.6698 77.0698 80.7098L77.0298 80.6498C77.1398 80.7498 77.2698 80.8198 77.3598 80.9198L77.2598 80.8598L77.4799 81.0499L77.3699 80.9298C77.4999 81.0098 77.3998 80.8698 77.5398 81.0198C77.5098 80.9998 77.6498 81.1198 77.6998 81.1998C77.7598 81.2398 77.8398 81.2598 77.9298 81.3398C77.9498 81.3698 77.8798 81.3698 77.8898 81.3898C77.9798 81.3898 78.1999 81.5898 78.2999 81.5998C78.2699 81.5998 78.2498 81.6099 78.2598 81.6199H78.3298C78.3798 81.6799 78.3899 81.6898 78.3699 81.6998C78.5399 81.8298 78.3498 81.6098 78.5398 81.7798C78.5198 81.7798 78.5298 81.7798 78.4898 81.7598C78.6998 81.9098 78.9398 81.9698 79.1298 82.0998C79.1698 82.1798 78.9398 82.0198 78.9898 82.0998C79.2898 82.2598 79.6398 82.3599 79.9498 82.4799L79.8898 82.4498C79.9598 82.3998 80.1098 82.5698 80.2698 82.5998C80.2298 82.5998 80.2098 82.6198 80.2198 82.6098C80.4198 82.7098 80.6698 82.7198 80.9998 82.7898H80.9498C81.0698 82.8398 81.2798 82.8998 81.4198 82.9398C81.4698 82.9298 81.5498 82.9399 81.4998 82.9099C81.9198 83.0599 82.3298 83.0098 82.7198 83.0798C82.6698 83.0798 82.6098 83.0898 82.6398 83.0898H82.9698C82.9698 83.0898 82.9298 83.0598 82.8598 83.0398C82.8998 83.0198 82.9998 83.0098 83.0798 83.0098C82.9298 83.0298 83.0798 83.0598 83.1498 83.0798C83.1398 83.0798 83.1598 83.0599 83.1498 83.0499C83.3198 83.1099 83.1798 82.9898 83.4198 83.0298V83.0499C83.4998 83.0399 83.5798 83.0098 83.6698 82.9998C83.7098 83.0298 83.5798 83.0298 83.5698 83.0598C83.6998 83.0498 83.8298 82.9698 83.9498 82.9898L83.7598 83.0298C83.8998 83.0598 83.9098 83.0498 84.0098 83.0398H84.1698C84.3298 82.9298 84.5098 82.9798 84.7198 82.8598C84.5198 82.9698 84.6898 82.8998 84.6798 82.9398C84.7398 82.9398 84.8298 82.9298 84.8098 82.9398C84.9098 82.8798 84.9898 82.9198 85.1298 82.8398C85.1398 82.8498 85.2399 82.8098 85.2299 82.8498C85.3599 82.8098 85.1898 82.8398 85.1998 82.8198C85.3998 82.7498 85.6998 82.7098 85.9698 82.5398C86.2098 82.4098 86.2398 82.3798 86.4398 82.2198C86.5198 82.1998 86.3998 82.2999 86.3998 82.2999C86.5198 82.2499 86.6098 82.1898 86.7098 82.1098C86.6898 82.1298 86.7198 82.1299 86.7598 82.1199C86.8498 82.0599 86.7898 82.0398 86.9198 81.9898C86.9098 82.0098 86.8998 82.0498 86.8598 82.0898L87.1498 81.8598C87.1498 81.8598 87.1098 81.9298 87.0798 81.9598C87.1998 81.8898 87.3499 81.7099 87.3699 81.6599L87.2898 81.7098C87.2898 81.7098 87.3299 81.7098 87.2999 81.7498C87.2299 81.8498 87.1598 81.8498 87.1498 81.8498L87.2098 81.7898C87.1098 81.7998 86.9198 81.9898 86.7698 82.0798L86.7999 81.9998L86.6698 82.1298C86.6698 82.1298 86.5898 82.1298 86.6698 82.0698C86.5498 82.1098 86.5799 82.1398 86.4799 82.1698C86.4699 82.1698 86.4799 82.1699 86.4799 82.1599L86.3798 82.2398C86.3798 82.2398 86.3399 82.2198 86.4099 82.1798C86.2099 82.2698 86.1098 82.3699 86.0098 82.3699H86.0298C85.7498 82.4899 86.0198 82.4098 85.8198 82.5398L85.6398 82.4998V82.5499C85.6398 82.5499 85.5398 82.5798 85.5398 82.5598C85.4398 82.6298 85.5598 82.5599 85.5098 82.6199C85.3598 82.6599 85.1098 82.7498 85.0598 82.6998C85.0098 82.7398 85.2098 82.6898 85.0598 82.7498C84.9998 82.6898 84.8798 82.7998 84.7398 82.8098C84.7698 82.7698 84.9098 82.7498 84.7598 82.7498C84.6898 82.8298 84.4998 82.7998 84.3798 82.8298C84.3798 82.8798 84.1298 82.8699 83.9398 82.9099C83.9498 82.8899 83.5698 82.9199 83.3898 82.9099C83.3898 82.9099 83.1698 82.9398 83.0298 82.9398C83.0298 82.9098 83.0598 82.8998 83.1298 82.8898H82.9998C82.9998 82.8898 82.9298 82.9099 82.8398 82.9099L82.8699 82.8699C82.6999 82.8699 82.5199 82.9198 82.2999 82.8598C82.2799 82.8898 82.4699 82.9798 82.2299 82.9698C82.2299 82.9498 82.2198 82.9198 82.2798 82.9198C82.2598 82.9198 82.2098 82.9198 82.1698 82.9198L82.2698 82.8998C82.1698 82.8698 82.2098 82.9198 82.1398 82.8998C82.1398 82.8698 82.0798 82.8698 82.0998 82.8498C82.1198 82.8498 82.1698 82.8699 82.1998 82.8699C82.1098 82.8499 81.9998 82.8199 81.9698 82.7999C81.9698 82.8199 81.9698 82.8398 81.8998 82.8298C81.7298 82.8098 81.8498 82.7898 81.7498 82.7598C81.7098 82.7698 81.5998 82.7398 81.5898 82.7798C81.5398 82.7798 81.5298 82.7498 81.5198 82.7398C81.4298 82.7498 81.1198 82.6498 81.1998 82.7198C80.9098 82.6898 80.6098 82.5599 80.3398 82.4799C80.1698 82.4199 79.9798 82.3398 79.8498 82.3198C79.7998 82.2998 79.7498 82.2498 79.7698 82.2498C79.6398 82.2098 79.6198 82.2198 79.4598 82.1298C79.5898 82.1598 79.4198 82.0998 79.5898 82.1698C79.4298 82.0998 79.4199 82.0498 79.2299 81.9998C79.2999 81.9998 79.1298 81.8999 79.0598 81.8699L79.1599 81.9498C79.0799 81.9098 79.0098 81.8698 78.9398 81.8298L78.9998 81.8098C78.7098 81.6198 78.4098 81.5798 78.2398 81.3498C78.1498 81.3198 78.3799 81.4798 78.2999 81.4598C78.1699 81.3598 78.0698 81.2198 78.0298 81.1898C77.8598 81.0498 77.8199 81.1298 77.6599 80.9598C77.6699 80.9898 77.6598 81.0398 77.5298 80.9398C77.4098 80.8298 77.4298 80.7598 77.5098 80.8198C77.5398 80.8398 77.5499 80.8598 77.5499 80.8598C77.5899 80.8898 77.6498 80.9298 77.6098 80.8798H77.5798C77.5298 80.8098 77.3698 80.6698 77.4198 80.6798C77.3198 80.6098 77.3598 80.6599 77.4198 80.7299C77.2898 80.5699 77.1699 80.5298 77.0499 80.3498C77.0699 80.3798 77.0699 80.4198 77.0499 80.3898C76.8699 80.1398 76.9399 80.3098 76.7999 80.1498C76.7399 80.0398 76.8698 80.1498 76.7198 79.9998C76.6498 79.8898 76.7398 79.9499 76.7798 79.9799C76.6398 79.8499 76.5598 79.6998 76.5098 79.5998L76.5698 79.6798C76.5698 79.6798 76.5099 79.5899 76.4799 79.5499V79.6199C76.4599 79.5699 76.4298 79.5198 76.4398 79.5198C76.3898 79.4798 76.4198 79.5898 76.3298 79.4998C76.2998 79.4198 76.1898 79.2998 76.2098 79.2598C76.3298 79.4798 76.2298 79.2198 76.3498 79.3898C76.3298 79.3598 76.2998 79.3198 76.2698 79.2598C76.2698 79.2598 76.2798 79.2598 76.2898 79.2798C76.1998 79.0598 76.1898 79.2098 76.0698 78.9998C76.1098 79.0198 76.0698 78.9298 76.0598 78.8998C76.1098 78.9798 76.0398 78.9598 75.9898 78.8798C75.9498 78.7198 75.9198 78.7298 75.8898 78.6498L75.9198 78.7398C75.9198 78.7398 75.8598 78.6398 75.8098 78.5398C75.8198 78.5198 75.8598 78.6298 75.8498 78.5898C75.7698 78.4898 75.7898 78.3198 75.6998 78.1698C75.6898 78.0898 75.7399 78.1498 75.7299 78.0798C75.6499 77.8998 75.7299 77.8698 75.6599 77.6798C75.6399 77.7398 75.6498 77.7499 75.5898 77.6199L75.6698 77.9398L75.5898 77.7398C75.6098 77.8398 75.6498 77.9398 75.6498 77.9998C75.6098 77.9098 75.6198 77.9098 75.5998 77.9698C75.6198 77.8198 75.5198 77.7098 75.5198 77.5398H75.5998C75.5998 77.2898 75.4699 77.1298 75.4799 76.8098V76.9099C75.4799 76.9099 75.4498 76.7199 75.4298 76.6199C75.4598 76.6199 75.4598 76.5598 75.4698 76.5198C75.4498 76.5198 75.4498 76.2898 75.3998 76.2698L75.4198 76.1298C75.4198 75.8798 75.3298 75.8498 75.3298 75.5998C75.3598 75.6698 75.3798 75.5598 75.3998 75.7198C75.3998 75.6398 75.3998 75.5698 75.3798 75.5698C75.3898 75.5198 75.3298 75.3498 75.3598 75.2698C75.3498 75.2398 75.3198 75.2298 75.3198 75.1298C75.3198 75.1198 75.3298 75.1298 75.3298 75.1298C75.3198 75.1298 75.3098 74.9898 75.2798 75.0698C75.3598 74.8198 75.2598 74.3698 75.3298 74.1498C75.3298 73.9698 75.3298 73.7498 75.3298 73.5998C75.3298 73.6098 75.3398 73.5998 75.3298 73.6298C75.3598 73.4098 75.2598 73.4898 75.2898 73.2398C75.3398 73.1098 75.2998 73.3799 75.3298 73.2999C75.4198 73.2699 75.3398 72.9998 75.3998 72.8298V72.8699C75.4398 72.7399 75.3898 72.5498 75.4298 72.3398C75.4298 72.3398 75.4298 72.3498 75.4398 72.3398C75.4198 72.1898 75.4398 71.9198 75.4598 71.7098C75.4798 71.7798 75.4598 71.7998 75.4998 71.7698C75.5098 71.6798 75.4398 71.7898 75.4698 71.6098C75.4998 71.5598 75.5398 71.4298 75.5798 71.4198L75.5499 71.5898C75.6099 71.5098 75.5899 71.3698 75.6199 71.2898L75.6398 71.3098C75.6998 71.0598 75.6598 71.0398 75.7398 70.7698L75.7198 70.7898C75.7198 70.6198 75.7898 70.6798 75.8098 70.5198L75.8798 70.4998C75.8998 70.3998 75.9698 70.1498 76.0598 69.9898C76.0398 70.0998 75.9598 70.2898 75.9398 70.4198C75.9698 70.3198 76.0698 70.1098 76.0798 70.0598C76.0598 70.0998 76.0498 70.1498 76.0298 70.1798C76.0598 70.0598 76.1098 69.8999 76.2198 69.7299C76.2698 69.8099 76.5599 69.3298 76.7299 69.3098C76.9699 69.0598 77.2799 68.9198 77.6599 68.8098C77.4999 68.7798 77.7699 68.7698 77.7299 68.6998C77.8199 68.6698 77.8599 68.6698 77.8699 68.6698H78.1599C78.2299 68.6798 78.0698 68.6998 78.0898 68.7198C78.2898 68.6898 78.1798 68.7398 78.3098 68.7498C78.2798 68.7198 78.3798 68.6998 78.4898 68.7098L78.3198 68.6798C78.6098 68.6098 78.5698 68.7298 78.8598 68.6998L78.7698 68.7198C78.9198 68.6998 79.3198 68.7598 79.4698 68.7198C79.4998 68.7298 79.5298 68.7598 79.4698 68.7598C79.8198 68.8198 80.2798 68.8398 80.5398 68.9498H80.5098C80.5798 68.9698 80.6298 68.9498 80.7098 68.9998C80.7098 68.9998 80.6798 69.0098 80.7098 69.0198C80.7498 69.0198 80.8899 69.0398 80.9799 69.0698H80.8998C81.2298 69.1898 81.4399 69.1798 81.7299 69.2598C81.7099 69.3198 81.9698 69.4299 82.0998 69.4799C82.4898 69.6399 82.7798 69.6898 83.1498 69.8098C83.3498 69.9598 83.8898 70.1398 84.2398 70.3198C84.1898 70.2898 84.2698 70.2799 84.3298 70.2999C84.4098 70.3499 84.5798 70.3598 84.5398 70.3998H84.5098C84.5498 70.4598 84.7298 70.5198 84.8598 70.5798L84.9099 70.5198C85.2199 70.7598 85.8398 70.8798 85.9998 71.0398L86.2898 71.1199L86.2698 71.1498C86.4998 71.2598 86.6199 71.3098 86.9099 71.4298H86.8398C86.9998 71.4998 87.0898 71.4199 87.2398 71.4799L87.2598 71.5499C87.5498 71.6599 87.7998 71.8498 88.0898 71.9398C88.0898 71.9398 88.0698 71.9598 88.0198 71.9398C88.1498 72.0098 88.4998 72.2198 88.4898 72.1298C88.4698 72.1798 88.7398 72.3098 88.8898 72.3898L88.8498 72.4099C88.9898 72.4499 88.9998 72.4398 89.1698 72.5398C89.1998 72.5698 89.1798 72.5898 89.1398 72.5398C89.2598 72.6398 89.2598 72.5899 89.3798 72.7299L89.3198 72.6998C89.4298 72.8098 89.4298 72.7898 89.5098 72.8298C89.5898 72.8898 89.7198 73.0498 89.7098 73.0798C89.7398 73.0798 89.8299 73.1198 89.8699 73.2098C89.8699 73.2298 89.8398 73.2098 89.8298 73.1898C89.9598 73.4198 90.0899 73.4798 90.1599 73.6498C90.1599 73.6498 90.1599 73.6698 90.1599 73.6898C90.0399 73.5198 89.9498 73.3798 89.9598 73.3898C89.9298 73.4098 90.0199 73.5498 89.9099 73.4698C89.9999 73.5698 90.1998 73.7098 90.2398 73.8798V73.8998H90.2299C90.2299 73.8998 90.2598 73.9499 90.2798 73.9799C90.2998 74.0299 90.2998 74.0598 90.3198 74.1098C90.2998 74.1398 90.3799 74.2898 90.4099 74.3598C90.4399 74.3398 90.4598 74.4498 90.4698 74.3398C90.4698 74.3498 90.4698 74.3298 90.4398 74.2798L90.4198 74.2498L90.3398 74.0698C90.3798 74.1198 90.4298 74.1798 90.4398 74.2698C90.4798 74.2998 90.5198 74.3398 90.5398 74.3598C90.5198 74.4898 90.5398 74.7098 90.5098 74.7398C90.6098 74.9798 90.5798 75.3298 90.6698 75.4898C90.6798 75.5598 90.6498 75.5698 90.6398 75.5998C90.6398 75.5598 90.6299 75.5098 90.6199 75.4898C90.6599 75.6398 90.5998 75.9198 90.6498 75.9598C90.6098 76.1398 90.6198 75.8498 90.5998 76.0998V76.0598C90.4398 76.5298 90.5698 76.8898 90.2798 77.3798C90.2998 77.3498 90.3098 77.3298 90.3198 77.3198C90.0798 77.8998 89.8298 78.5398 89.4398 79.0398C89.3298 79.1798 89.3498 79.2098 89.3098 79.3198H89.2598L89.1998 79.5098C89.0698 79.7498 88.8498 79.8198 88.6998 80.1298L88.7498 80.1098C88.6698 80.1998 88.5198 80.4098 88.5098 80.3798C88.5098 80.3898 88.5098 80.4298 88.4698 80.4598H88.4498L88.2898 80.6998C88.1198 80.8598 88.2498 80.6198 88.0198 80.8598C87.9398 80.9598 87.8299 81.1598 87.8699 81.1398C87.8999 81.0998 87.9699 81.0498 87.9799 81.0698L87.9099 81.1599C87.9399 81.2199 87.9298 81.3298 88.1498 81.1498L88.2598 80.9799L88.3298 80.9498L88.2198 81.0698C88.2998 81.0198 88.3298 80.9598 88.3598 80.8998C88.3798 80.8998 88.4098 80.8898 88.4398 80.8598L88.5198 80.6698C88.5198 80.6698 88.4998 80.7698 88.5898 80.6698C88.6298 80.5798 88.4898 80.6998 88.5698 80.5698C88.6498 80.5198 88.6498 80.5498 88.6998 80.4498C88.7198 80.4498 88.7198 80.4698 88.6998 80.5098C88.7498 80.4198 88.8599 80.2998 88.8699 80.2398C88.9599 80.1798 89.0598 79.9698 89.0998 80.0098C89.0998 79.9798 89.1698 79.8398 89.2198 79.7698C89.1798 79.9498 89.4198 79.4998 89.4498 79.5698C89.4598 79.4298 89.6698 79.1799 89.7598 78.9799C89.7598 78.9899 89.7598 79.0198 89.7398 79.0298C89.7998 78.9298 89.8398 78.8998 89.8898 78.8398C89.8498 78.7998 89.9398 78.6298 89.9598 78.5198C90.0798 78.4098 89.9598 78.6298 90.0298 78.6098C89.9898 78.5998 90.1198 78.3598 90.0598 78.3898C90.1398 78.2998 90.1198 78.3098 90.1798 78.2698C90.1298 78.2198 90.2198 78.1698 90.2198 78.0598C90.3198 77.9198 90.2898 78.0499 90.3498 77.8699C90.4098 77.7999 90.3498 77.9598 90.3498 77.9598L90.3198 78.0198ZM90.3998 73.7498L90.4398 73.8298L90.3998 73.7498ZM90.2098 73.4298L90.2999 73.5598C90.2999 73.5598 90.2798 73.5698 90.2598 73.5398C90.2798 73.5498 90.2398 73.4798 90.2098 73.4298ZM90.3198 74.2198C90.3198 74.2198 90.2899 74.1498 90.2999 74.1398L90.3398 74.2299C90.3398 74.2299 90.3198 74.2299 90.3098 74.2299L90.3198 74.2198Z" fill="#7A5751"/>
<path d="M90.4094 74.2895L90.4194 74.3095V74.2795L90.3994 74.2695L90.4094 74.2895Z" fill="#7A5751"/>
<path d="M86.0596 70.7207L86.0896 70.7307L86.0596 70.7207Z" fill="#7A5751"/>
<path d="M83.1592 83.0898C83.1592 83.0898 83.1692 83.0898 83.1892 83.0998C83.1892 83.0998 83.1792 83.0998 83.1592 83.0898Z" fill="#7A5751"/>
<path d="M75.6891 78.7903V78.7703C75.6491 78.7203 75.6691 78.7503 75.6891 78.7903Z" fill="#7A5751"/>
<path d="M77.6896 81.2102L77.5996 81.1602C77.5996 81.1602 77.6696 81.2302 77.6896 81.2102Z" fill="#7A5751"/>
<path d="M77.4893 81.0605C77.4893 81.0605 77.5593 81.1306 77.5993 81.1606C77.5693 81.1306 77.5293 81.0905 77.4893 81.0605Z" fill="#7A5751"/>
<path d="M87.3193 81.8208L87.3493 81.8008L87.3193 81.8208Z" fill="#7A5751"/>
<path d="M87.3496 81.7995L87.3696 81.7695C87.3696 81.7695 87.3496 81.7895 87.3496 81.7995Z" fill="#7A5751"/>
<path d="M87.4191 81.709L87.3691 81.769C87.3691 81.769 87.4191 81.729 87.4191 81.709Z" fill="#7A5751"/>
<path d="M86.3398 82.4303C86.3998 82.4003 86.4898 82.3703 86.5698 82.3203C86.5698 82.3203 86.3798 82.3803 86.3398 82.4303Z" fill="#7A5751"/>
<path d="M85.2393 82.6701C85.3093 82.6601 85.3893 82.6401 85.4493 82.6201C85.4093 82.6201 85.3593 82.6201 85.4493 82.5801C85.1793 82.6301 85.5193 82.6101 85.2393 82.6701Z" fill="#7A5751"/>
<path d="M84.57 82.7995C84.68 82.7695 84.57 82.7795 84.57 82.7695C84.5 82.7995 84.48 82.8095 84.57 82.7995Z" fill="#7A5751"/>
<path d="M79.7395 82.24L79.7595 82.21C79.6695 82.18 79.7595 82.22 79.7395 82.24Z" fill="#7A5751"/>
<path d="M78.8096 81.9805L78.8796 82.0405L78.9296 82.0305L78.8096 81.9805Z" fill="#7A5751"/>
<path d="M78.4494 81.4897L78.4894 81.5097L78.3594 81.4297L78.4494 81.4897Z" fill="#7A5751"/>
<path d="M75.3896 74.3496L75.3496 74.3796C75.3496 74.4396 75.4096 74.4496 75.3896 74.3496Z" fill="#7A5751"/>
<path d="M75.7793 70.8089C75.7793 70.8089 75.8493 70.6889 75.8593 70.6289C75.8193 70.6989 75.7893 70.7689 75.7793 70.8089Z" fill="#7A5751"/>
<path d="M85.0495 70.6489L84.9795 70.6289L85.1095 70.6789L85.0495 70.6489Z" fill="#7A5751"/>
<path d="M69.7295 64.6895L92.0195 73.6195" stroke="#7A5751" stroke-width="2.66" stroke-miterlimit="10" stroke-linecap="round"/>
<path d="M135.499 81.1994C133.159 78.7894 130.339 73.8294 135.739 71.5594C143.579 68.2694 149.109 64.9494 147.969 77.1294C147.479 82.4294 139.209 85.0194 135.499 81.1994V81.1994Z" fill="url(#paint1_linear_316_15797)"/>
<path d="M135.56 81.1387C135.56 81.1387 135.52 81.1587 135.58 81.1987H135.65L135.56 81.1387Z" fill="#7A5751"/>
<path d="M135.859 81.4995C135.939 81.5395 136.029 81.5695 136.019 81.4995C135.929 81.4795 135.929 81.4495 135.829 81.4395C135.769 81.3995 135.749 81.3495 135.769 81.3495C135.739 81.3495 135.699 81.2695 135.649 81.2695C135.689 81.3495 135.779 81.4295 135.889 81.4795C135.899 81.4995 135.879 81.4995 135.869 81.4995H135.859Z" fill="#7A5751"/>
<path d="M145.979 80.9785L145.949 81.0185C145.969 80.9985 145.989 80.9785 145.979 80.9785Z" fill="#7A5751"/>
<path d="M146.54 80.5098L146.51 80.5398C146.51 80.5398 146.54 80.5198 146.54 80.5098Z" fill="#7A5751"/>
<path d="M142.239 82.8384H142.349C142.349 82.8384 142.289 82.8284 142.239 82.8384Z" fill="#7A5751"/>
<path d="M136.66 81.9594C136.66 81.9594 136.62 81.9395 136.6 81.9395L136.65 81.9594H136.66Z" fill="#7A5751"/>
<path d="M140.4 83.1094H140.37L140.34 83.1294L140.4 83.1094Z" fill="#7A5751"/>
<path d="M138.97 83.0285C138.97 83.0285 139.02 82.9985 139.03 82.9785C139.01 82.9885 138.98 82.9985 138.96 82.9985C138.96 82.9985 138.96 83.0185 138.97 83.0285Z" fill="#7A5751"/>
<path d="M136.85 82.2485L136.81 82.2285L136.85 82.2485Z" fill="#7A5751"/>
<path d="M141.42 83.0293C141.42 83.0293 141.42 83.0293 141.43 83.0393C141.43 83.0393 141.43 83.0393 141.42 83.0293Z" fill="#7A5751"/>
<path d="M135.49 81.2092L135.48 81.1992L135.46 81.2092H135.49Z" fill="#7A5751"/>
<path d="M145.55 68.459C145.68 68.519 145.32 68.459 145.52 68.539C145.5 68.519 145.72 68.519 145.55 68.459Z" fill="#7A5751"/>
<path d="M136.689 81.9785L136.739 82.0085L136.689 81.9785Z" fill="#7A5751"/>
<path d="M145.52 68.5293L145.54 68.5393L145.52 68.5293Z" fill="#7A5751"/>
<path d="M148.179 76.5195C148.179 76.5195 148.169 76.5395 148.159 76.5495C148.159 76.5495 148.159 76.5495 148.179 76.5195Z" fill="#7A5751"/>
<path d="M147.659 78.7297L147.689 78.6797L147.659 78.7297Z" fill="#7A5751"/>
<path d="M148.199 75.3495C148.199 75.3495 148.209 75.3095 148.199 75.2695C148.199 75.2695 148.199 75.3195 148.199 75.3495Z" fill="#7A5751"/>
<path d="M132.959 76.6387C132.959 76.6387 132.949 76.6887 132.939 76.6987C132.959 76.6787 133.009 76.8387 132.959 76.6387Z" fill="#7A5751"/>
<path d="M136.649 81.979C136.649 81.979 136.669 81.979 136.689 81.979L136.649 81.959C136.649 81.959 136.649 81.959 136.649 81.969V81.979Z" fill="#7A5751"/>
<path d="M137.8 70.8496L137.76 70.8696C137.76 70.8696 137.79 70.8596 137.8 70.8496Z" fill="#7A5751"/>
<path d="M147.92 74.5284C147.92 74.5284 147.94 74.4584 147.95 74.4184V74.3984L147.93 74.5284H147.92Z" fill="#7A5751"/>
<path d="M133.43 77.8393C133.36 77.6793 133.35 77.7793 133.31 77.7593C133.21 77.5693 133.31 77.6593 133.3 77.5793C133.24 77.4593 133.17 77.3793 133.13 77.2793C133.13 77.2793 133.13 77.2493 133.15 77.2693C133.06 77.1493 133.01 76.8793 132.93 76.7293C132.93 76.7193 132.93 76.7093 132.93 76.7093C132.91 76.7393 132.89 76.7493 132.87 76.7493C132.85 76.6693 132.8 76.6093 132.83 76.5693C132.84 76.6193 132.85 76.6193 132.87 76.6393L132.84 76.5593C132.87 76.4793 132.88 76.6693 132.92 76.6593C132.87 76.4993 132.77 76.3193 132.78 76.1893C132.81 76.1593 132.84 76.4793 132.85 76.3093L132.88 76.4993C132.92 76.3393 132.9 76.6193 132.95 76.4693C132.9 76.2193 132.88 76.1893 132.86 75.9393C132.83 75.8893 132.83 75.9593 132.79 75.9093C132.7 75.5493 132.88 75.6193 132.83 75.3593C132.8 75.2893 132.75 75.2593 132.79 75.0693L132.84 75.1393C132.85 74.8993 132.78 74.9893 132.86 74.7393C132.86 74.7893 132.83 74.9293 132.85 74.8993C132.93 74.7493 132.85 74.7793 132.88 74.6593L132.93 74.6393C132.96 74.3793 133.06 74.1093 133.17 73.8393C133.17 73.8593 133.17 73.9093 133.21 73.8593C133.37 73.5393 133.61 73.1893 133.9 72.9893L133.97 72.8693C133.97 72.8693 134.02 72.8393 134 72.8693C134.11 72.7893 133.99 72.8493 134.02 72.7893C134.07 72.7293 134.11 72.7293 134.08 72.7793C134.22 72.5693 134.6 72.3093 134.83 72.1893L134.79 72.2293C134.96 72.1193 134.95 72.0493 135.13 71.9893L135.1 72.0093C135.5 71.8293 135.92 71.5793 136.27 71.5093C136.31 71.4293 136.69 71.3593 136.68 71.2793C136.93 71.2193 136.87 71.2593 137.21 71.1393C137.3 71.1093 137.32 71.0393 137.43 70.9793L137.45 71.0193L137.58 70.9193H137.68L137.78 70.8793C137.78 70.8793 137.69 70.8993 137.69 70.8793C137.84 70.7893 138.09 70.7393 138.1 70.7593L138.46 70.5693C138.46 70.5693 138.4 70.6193 138.35 70.6493C138.54 70.5293 138.4 70.6693 138.57 70.5593C138.54 70.5593 138.57 70.5293 138.57 70.5193C138.67 70.4993 138.88 70.4193 139.03 70.3393L139.01 70.3793L139.91 69.9893C139.79 70.0193 139.8 69.9693 139.89 69.9293L139.94 69.9593C139.94 69.9593 139.84 69.9793 139.94 69.8993C140.06 69.8593 140.04 69.9093 139.98 69.9493L140.12 69.8793C140.12 69.8793 140.1 69.9093 140.1 69.9293C140.15 69.8793 140.36 69.8693 140.43 69.7993H140.44L141.16 69.5193C141.16 69.5193 141.26 69.4493 141.32 69.3993C141.52 69.3393 141.74 69.2893 141.97 69.2193C142.13 69.1493 142.01 69.1693 142.08 69.1293C142.1 69.1593 142.33 69.0793 142.22 69.1393L142.93 68.9093C142.93 68.9093 142.84 68.9093 142.86 68.8893C142.92 68.8693 143.01 68.8693 143.01 68.8893H142.99C143.39 68.7393 143.94 68.7993 144.26 68.7093H144.24C144.35 68.6893 144.46 68.6793 144.58 68.6593C144.74 68.6593 144.49 68.6893 144.6 68.7093C144.96 68.6493 145.17 68.7293 145.46 68.7493C145.66 68.8793 146.24 68.9793 146.43 69.2393V69.2093C146.51 69.2393 146.5 69.2693 146.54 69.3093C146.54 69.2893 146.49 69.2393 146.54 69.2593C147.08 69.6693 147.36 70.3693 147.53 71.0393C147.6 71.2893 147.7 71.1393 147.71 71.4793L147.65 71.3993C147.82 71.8993 147.84 72.4493 147.92 72.9593C147.91 72.9293 147.89 72.9293 147.89 72.8793C147.87 72.9893 147.92 73.2793 147.95 73.2793C147.95 73.3593 147.93 73.2993 147.92 73.3493C147.9 73.4593 147.97 73.6193 147.94 73.6793C147.94 73.6893 147.93 73.6493 147.93 73.6293C147.95 73.6993 147.93 73.9593 147.97 73.8893C147.97 74.0793 147.99 74.2593 147.97 74.4193C148.01 74.5193 147.95 74.7493 148 74.7893C147.94 74.7693 147.95 75.1293 147.97 75.2493C147.95 75.2093 147.95 75.3593 147.92 75.3093C147.92 75.4493 147.92 75.5793 147.95 75.5593C147.87 75.8093 147.98 76.0793 147.88 76.2193C147.87 76.6393 147.9 77.0393 147.83 77.3993C147.78 77.3793 147.9 76.9993 147.83 76.9993C147.81 77.3493 147.81 77.5493 147.74 77.8893C147.72 77.9793 147.72 77.8293 147.72 77.7993C147.71 78.1593 147.5 78.4293 147.44 78.7393C147.44 78.7393 147.44 78.6993 147.44 78.6693C147.42 78.7293 147.38 78.7993 147.41 78.7993V78.7393C147.49 78.6593 147.42 79.0093 147.41 79.0193C147.39 78.8893 147.23 79.2793 147.23 79.0893C147.21 79.1293 147.2 79.1793 147.22 79.1793C147.18 79.2293 147.17 79.2393 147.18 79.1793C147.08 79.3793 147.14 79.3193 147.04 79.4893C147.03 79.4893 147.04 79.4393 147.04 79.4193C147.01 79.5193 146.98 79.6193 146.88 79.7593C146.88 79.7493 146.86 79.7593 146.88 79.7193C146.7 79.9493 146.62 80.1393 146.39 80.3693C146.41 80.2593 146.31 80.4393 146.26 80.4193C146.23 80.4693 146.18 80.4993 146.15 80.5493L146.22 80.5193C146.11 80.6193 146.03 80.7393 145.92 80.8093L145.99 80.7193L145.79 80.9193L145.92 80.8293C145.82 80.9493 145.97 80.8693 145.81 80.9893C145.84 80.9593 145.7 81.0893 145.62 81.1193C145.58 81.1793 145.52 81.2293 145.42 81.2893C145.39 81.2893 145.41 81.2293 145.38 81.2293C145.34 81.3093 145.09 81.4393 145.04 81.5293C145.06 81.4993 145.04 81.4793 145.04 81.4793L145.01 81.5393C144.95 81.5693 144.93 81.5693 144.93 81.5393C144.75 81.6493 145.02 81.5593 144.8 81.6693C144.81 81.6593 144.8 81.6593 144.84 81.6293C144.62 81.7493 144.42 81.8793 144.21 81.9793C144.13 81.9693 144.38 81.8793 144.29 81.8693C144.01 82.0393 143.7 82.2293 143.39 82.3293L143.45 82.3093C143.43 82.3893 143.21 82.3593 143.07 82.4493C143.11 82.4293 143.11 82.3893 143.1 82.4093C142.89 82.4893 142.67 82.5493 142.36 82.6693L142.4 82.6393C142.27 82.6593 142.07 82.7193 141.93 82.7393C141.89 82.7593 141.81 82.7693 141.87 82.7893C141.42 82.7393 141.06 82.9993 140.66 82.8993C140.71 82.8993 140.77 82.8793 140.73 82.8793L140.4 82.9093C140.4 82.9093 140.44 82.9293 140.51 82.9493C140.47 82.9693 140.38 82.9893 140.29 82.9893C140.44 82.9693 140.29 82.9393 140.22 82.9293C140.23 82.9293 140.21 82.9493 140.22 82.9593C140.05 82.9093 140.19 83.0193 139.96 82.9893V82.9693C139.89 82.9693 139.8 82.9793 139.71 82.9693C139.67 82.9293 139.8 82.9693 139.81 82.9293C139.68 82.9193 139.54 82.9693 139.43 82.9293H139.63C139.5 82.8693 139.49 82.8793 139.39 82.8693L139.17 82.8293L139.23 82.8493C139.05 82.9293 138.89 82.8293 138.66 82.8293C138.88 82.8293 138.7 82.8093 138.73 82.7693C138.68 82.7493 138.6 82.7093 138.62 82.7093C138.51 82.7093 138.46 82.6493 138.3 82.6593C138.3 82.6493 138.19 82.6293 138.22 82.6093C138.08 82.5893 138.25 82.6393 138.22 82.6493C137.99 82.6593 137.77 82.4393 137.47 82.3893C137.22 82.3093 137.15 82.3493 136.93 82.2393C136.87 82.1793 137.01 82.2393 137.01 82.2393C136.9 82.1493 136.82 82.1093 136.7 82.0593C136.73 82.0593 136.7 82.0393 136.68 82.0093C136.59 81.9593 136.6 82.0093 136.49 81.9293C136.52 81.9293 136.55 81.9293 136.6 81.9293C136.49 81.8793 136.38 81.8393 136.27 81.7893C136.26 81.7493 136.35 81.7993 136.4 81.8093C136.27 81.7593 136.11 81.5993 136.05 81.6093L136.11 81.6793C136.11 81.6793 136.11 81.6393 136.14 81.6593C136.25 81.7093 136.26 81.7793 136.26 81.7993L136.19 81.7493C136.2 81.8793 136.49 81.9293 136.64 82.0293H136.55L136.73 82.0893C136.73 82.0893 136.76 82.1593 136.68 82.1193C136.78 82.2093 136.79 82.1593 136.87 82.2393C136.87 82.2493 136.87 82.2393 136.87 82.2393L136.98 82.2893C136.98 82.2893 136.98 82.3393 136.92 82.2893C137.09 82.4393 137.26 82.3993 137.32 82.4793H137.3C137.6 82.5693 137.34 82.4493 137.58 82.4893L137.69 82.6393L137.73 82.6093C137.73 82.6093 137.82 82.6493 137.8 82.6593C137.92 82.6793 137.79 82.6393 137.86 82.6393C137.99 82.7493 138.27 82.7293 138.29 82.8093C138.35 82.7893 138.15 82.7493 138.32 82.7693C138.35 82.8493 138.51 82.7993 138.64 82.8593C138.59 82.8893 138.46 82.8393 138.59 82.8993C138.69 82.8593 138.85 82.9793 138.98 82.9893C138.99 82.9393 139.24 82.9893 139.44 82.9893C139.43 82.9993 139.81 83.0593 140 83.0793C140 83.0793 140.23 83.0393 140.37 83.0293C140.37 83.0593 140.34 83.0693 140.26 83.0893H140.39C140.39 83.0893 140.46 83.0593 140.55 83.0493L140.52 83.0893C140.7 83.0793 140.87 83.0493 141.1 83.0393C141.1 82.9993 140.92 82.9693 141.15 82.9093C141.16 82.9293 141.17 82.9593 141.11 82.9693C141.13 82.9693 141.18 82.9393 141.22 82.9493L141.13 82.9893C141.23 82.9893 141.18 82.9593 141.26 82.9493C141.26 82.9793 141.32 82.9593 141.31 82.9793C141.29 82.9793 141.24 82.9793 141.21 82.9893C141.3 82.9893 141.41 82.9893 141.45 82.9893C141.44 82.9793 141.45 82.9493 141.51 82.9393C141.68 82.9093 141.57 82.9593 141.68 82.9593C141.72 82.9393 141.83 82.9393 141.83 82.8993C141.88 82.8993 141.89 82.8993 141.91 82.9193C142 82.8993 142.32 82.8093 142.21 82.7993C142.48 82.6793 142.81 82.6793 143.09 82.5593C143.25 82.4993 143.45 82.4193 143.56 82.3493C143.61 82.3293 143.68 82.3293 143.67 82.3493C143.79 82.2893 143.8 82.2793 143.99 82.2193C143.88 82.2993 144.04 82.2193 143.87 82.2893C144.04 82.2393 144.08 82.2293 144.23 82.1093C144.19 82.1693 144.37 82.0893 144.44 82.0393L144.32 82.0793C144.4 82.0293 144.47 81.9993 144.55 81.9593L144.53 82.0193C144.88 81.9093 145.04 81.6193 145.32 81.5393C145.38 81.4593 145.15 81.6293 145.2 81.5493C145.34 81.4593 145.52 81.4193 145.56 81.3893C145.76 81.2793 145.7 81.2193 145.88 81.0793C145.85 81.0793 145.8 81.0793 145.92 80.9493C146.05 80.8493 146.11 80.8593 146.05 80.9493C146.02 80.9793 146 80.9893 146 80.9793C145.96 81.0193 145.92 81.0693 145.98 81.0393V81.0093C146.06 80.9693 146.23 80.8093 146.2 80.8693C146.28 80.7793 146.22 80.8193 146.15 80.8693C146.32 80.7393 146.41 80.6593 146.56 80.4993C146.53 80.5193 146.5 80.5293 146.52 80.4993C146.74 80.2693 146.59 80.3693 146.72 80.1993C146.82 80.1193 146.74 80.2693 146.86 80.0893C146.96 79.9993 146.91 80.0893 146.89 80.1393C146.99 79.9593 147.16 79.8693 147.21 79.7693L147.17 79.8693C147.2 79.8093 147.22 79.7693 147.25 79.7193L147.19 79.7493C147.23 79.6993 147.25 79.6493 147.26 79.6593C147.28 79.5893 147.19 79.6693 147.23 79.5493C147.29 79.4893 147.34 79.3293 147.39 79.3193C147.24 79.5393 147.44 79.3193 147.33 79.5093C147.35 79.4693 147.37 79.4293 147.41 79.3793C147.41 79.3793 147.41 79.3893 147.41 79.4093C147.57 79.2093 147.43 79.2893 147.56 79.0693C147.56 79.1093 147.63 79.0393 147.65 78.9993C147.6 79.0893 147.6 79.0293 147.61 78.9293C147.69 78.7793 147.66 78.7593 147.7 78.6793L147.66 78.7693C147.66 78.7693 147.68 78.6493 147.72 78.5393C147.74 78.5393 147.69 78.6393 147.72 78.6093C147.72 78.4793 147.86 78.3593 147.9 78.1793C147.95 78.1093 147.95 78.1793 147.98 78.1193C148 77.9193 148.06 77.9093 148.07 77.6993C148.03 77.7493 148.03 77.7593 148.03 77.6093L147.99 77.9493V77.7193C147.97 77.8193 147.96 77.9393 147.95 77.9993C147.95 77.8893 147.95 77.8993 147.92 77.9393C147.99 77.8093 147.94 77.6593 148.01 77.5093L148.09 77.5293C148.17 77.2893 148.14 77.0893 148.18 76.7793L148.16 76.8793C148.16 76.8793 148.17 76.6893 148.16 76.5793C148.19 76.5893 148.2 76.5293 148.22 76.4893C148.2 76.4893 148.24 76.2593 148.19 76.2293L148.24 76.0893C148.27 75.8393 148.18 75.7893 148.2 75.5493C148.23 75.6293 148.25 75.5093 148.26 75.6793C148.26 75.5993 148.27 75.5193 148.26 75.5193C148.28 75.4693 148.24 75.2893 148.26 75.2193C148.26 75.1893 148.22 75.1693 148.23 75.0793H148.24C148.23 75.0793 148.23 74.9393 148.2 75.0193C148.29 74.7693 148.2 74.3193 148.28 74.0993C148.27 73.9193 148.26 73.6993 148.25 73.5393C148.25 73.5493 148.26 73.5393 148.26 73.5693C148.28 73.3393 148.18 73.4393 148.2 73.1793C148.23 73.0493 148.23 73.3093 148.24 73.2293C148.33 73.1893 148.2 72.9193 148.24 72.7493V72.7893C148.26 72.6593 148.2 72.4693 148.17 72.2593C148.17 72.2593 148.17 72.2593 148.18 72.2593C148.11 72.1193 148.07 71.8493 148.01 71.6493C148.06 71.7093 148.05 71.7393 148.07 71.6893C148.05 71.5993 148.02 71.7293 147.97 71.5493C147.97 71.4893 147.97 71.3493 148 71.3293L148.04 71.4993C148.07 71.3993 147.99 71.2793 147.98 71.1893H148C147.93 70.9393 147.87 70.9493 147.79 70.6693V70.6993C147.69 70.5693 147.77 70.5593 147.68 70.4293L147.71 70.3693C147.66 70.2793 147.53 70.0493 147.42 69.8993C147.51 69.9693 147.63 70.1593 147.7 70.2793C147.67 70.1793 147.55 69.9593 147.49 69.9193C147.52 69.9493 147.55 69.9893 147.57 70.0293C147.47 69.9393 147.38 69.7993 147.26 69.6293C147.37 69.5893 146.95 69.1893 146.88 69.0393C146.57 68.8293 146.28 68.5693 145.85 68.4593C145.97 68.5793 145.73 68.4193 145.73 68.5093C145.63 68.4893 145.59 68.4893 145.59 68.4793L145.3 68.3793C145.23 68.3493 145.4 68.3793 145.39 68.3593C145.17 68.3193 145.3 68.3093 145.16 68.2793C145.19 68.3093 145.08 68.3193 144.95 68.2993L145.13 68.3493C144.82 68.3693 144.86 68.2593 144.55 68.3093L144.65 68.2793C144.49 68.2793 144.06 68.3193 143.92 68.3993C143.89 68.3993 143.85 68.3793 143.92 68.3593C143.54 68.4093 143.11 68.5793 142.82 68.6193L142.84 68.5893C142.77 68.6093 142.73 68.6593 142.64 68.6593C142.64 68.6593 142.66 68.6293 142.64 68.6393C142.61 68.6593 142.47 68.7193 142.38 68.7393L142.45 68.6993C142.09 68.7793 141.93 68.9193 141.65 69.0193C141.63 68.9593 141.36 69.0393 141.22 69.0793C140.82 69.2093 140.57 69.3593 140.21 69.5293C139.96 69.5593 139.44 69.8093 139.07 69.9293C139.13 69.9193 139.07 69.9793 139.02 70.0093C138.93 70.0293 138.8 70.1393 138.8 70.0893H138.83C138.75 70.0593 138.58 70.1393 138.44 70.1993V70.2693C138.05 70.3293 137.54 70.6993 137.31 70.6993L137.05 70.8493V70.8093C136.8 70.8993 136.68 70.9493 136.4 71.0793L136.45 71.0293C136.29 71.0993 136.29 71.2193 136.14 71.2793L136.07 71.2493C135.79 71.3593 135.48 71.4693 135.22 71.6493C135.22 71.6493 135.22 71.6193 135.27 71.5993C135.14 71.6693 134.73 71.8193 134.82 71.8693C134.79 71.8293 134.55 72.0493 134.42 72.1693V72.1193C134.33 72.2393 134.33 72.2493 134.18 72.3793C134.14 72.3993 134.13 72.3793 134.18 72.3493C134.04 72.4193 134.11 72.4493 133.95 72.5693L133.99 72.4993C133.87 72.6093 133.89 72.6093 133.84 72.6993C133.78 72.7793 133.61 72.9093 133.57 72.8993C133.57 72.9293 133.52 73.0093 133.47 73.0793C133.45 73.0793 133.47 73.0493 133.47 73.0293C133.29 73.2393 133.27 73.3893 133.13 73.5193C133.12 73.5193 133.1 73.5193 133.09 73.5393C133.22 73.3593 133.32 73.2193 133.31 73.2293C133.28 73.2093 133.17 73.3493 133.22 73.2093L132.98 73.7193C132.98 73.7193 132.97 73.7293 132.96 73.7393V73.7193C132.96 73.7193 132.93 73.7893 132.92 73.8193L132.85 73.9493C132.85 73.9493 132.75 74.1293 132.72 74.2193C132.76 74.2193 132.72 74.3393 132.78 74.2393C132.78 74.2493 132.78 74.2193 132.8 74.1693V74.1293H132.81L132.9 73.9293C132.89 73.9993 132.88 74.0693 132.82 74.1593C132.82 74.2093 132.82 74.2593 132.84 74.2893C132.76 74.3893 132.69 74.6093 132.65 74.6393C132.59 74.9093 132.6 75.2793 132.65 75.4493C132.65 75.5293 132.63 75.5393 132.61 75.5693C132.61 75.5293 132.61 75.4693 132.6 75.4493C132.6 75.5993 132.64 75.8993 132.68 75.9293C132.68 76.1193 132.62 75.8293 132.66 76.0893L132.64 76.0593C132.64 76.5893 132.91 76.8593 133.01 77.4193C133.01 77.3793 133 77.3593 133.01 77.3493C133.18 77.9793 133.58 78.5493 133.85 79.1293C133.94 79.2893 133.97 79.2893 134.05 79.3693V79.4293L134.18 79.5593C134.36 79.7593 134.37 79.9893 134.63 80.2293V80.1793C134.7 80.2793 134.88 80.4693 134.84 80.4693C134.85 80.4693 134.89 80.4793 134.91 80.5293V80.5493L135.12 80.7593C135.27 80.9393 135.03 80.7893 135.26 81.0393C135.35 81.1293 135.55 81.2593 135.53 81.2193C135.5 81.1793 135.45 81.1193 135.46 81.0993L135.55 81.1793C135.61 81.1493 135.71 81.1793 135.55 80.9393L135.39 80.8193L135.37 80.7493L135.48 80.8693C135.44 80.7793 135.38 80.7593 135.32 80.7193C135.32 80.6993 135.32 80.6693 135.29 80.6393L135.12 80.5293C135.12 80.5293 135.21 80.5593 135.14 80.4593C135.06 80.4093 135.15 80.5593 135.05 80.4593C135.01 80.3693 135.05 80.3793 134.96 80.3093C134.96 80.2893 134.99 80.2993 135.02 80.3293C134.94 80.2693 134.85 80.1393 134.79 80.1193C134.76 80.0193 134.59 79.8593 134.64 79.8393C134.61 79.8193 134.5 79.7293 134.45 79.6593C134.6 79.7493 134.26 79.3893 134.35 79.3793C134.23 79.3093 134.09 79.0393 133.95 78.8693C133.96 78.8693 133.98 78.8893 133.99 78.9093C133.94 78.7993 133.94 78.7593 133.91 78.6893C133.86 78.6993 133.76 78.5493 133.68 78.4693C133.65 78.3193 133.78 78.5193 133.8 78.4593C133.77 78.4893 133.64 78.2593 133.63 78.3193C133.61 78.2093 133.6 78.2293 133.62 78.1593C133.55 78.1693 133.57 78.0693 133.49 77.9993C133.45 77.8393 133.53 77.9393 133.44 77.7793C133.42 77.6993 133.51 77.8293 133.51 77.8293L133.43 77.8393ZM133.14 73.8393L133.11 73.9193L133.14 73.8393ZM133.32 73.5393L133.23 73.6593C133.23 73.6593 133.21 73.6493 133.23 73.6193C133.23 73.6393 133.28 73.5793 133.32 73.5393ZM132.74 74.0993C132.76 74.0393 132.77 74.0293 132.78 74.0193L132.74 74.1193C132.74 74.1193 132.74 74.1193 132.74 74.0993Z" fill="#7A5751"/>
<path d="M132.739 74.2195V74.2394L132.759 74.2094L132.749 74.1895L132.739 74.2195Z" fill="#7A5751"/>
<path d="M137.439 71.0295L137.429 71.0195L137.409 71.0395L137.439 71.0295Z" fill="#7A5751"/>
<path d="M139.359 82.8794L139.239 82.8594L139.359 82.8794Z" fill="#7A5751"/>
<path d="M138.719 82.7695L138.699 82.7795H138.719V82.7695Z" fill="#7A5751"/>
<path d="M147.409 78.6795V78.6595C147.429 78.5995 147.419 78.6395 147.409 78.6795Z" fill="#7A5751"/>
<path d="M145.609 81.1191L145.669 81.0391C145.669 81.0391 145.599 81.0991 145.609 81.1191Z" fill="#7A5751"/>
<path d="M145.78 80.9395C145.78 80.9395 145.7 80.9995 145.67 81.0395C145.71 81.0095 145.75 80.9795 145.78 80.9395Z" fill="#7A5751"/>
<path d="M136.179 81.6391L136.159 81.6191H136.149L136.179 81.6391Z" fill="#7A5751"/>
<path d="M136.149 81.6196L136.119 81.5996C136.119 81.5996 136.139 81.6196 136.149 81.6196Z" fill="#7A5751"/>
<path d="M136.06 81.5586L136.12 81.5986C136.12 81.5986 136.08 81.5586 136.06 81.5586Z" fill="#7A5751"/>
<path d="M137.119 82.2494C137.069 82.2194 136.999 82.1394 136.919 82.1094H136.909C136.909 82.1094 137.059 82.2394 137.119 82.2494V82.2494Z" fill="#7A5751"/>
<path d="M138.089 82.789C138.019 82.769 137.949 82.749 137.879 82.709C137.909 82.739 137.949 82.779 137.859 82.739C138.109 82.879 137.809 82.699 138.089 82.779V82.789Z" fill="#7A5751"/>
<path d="M138.76 82.9684C138.64 82.9484 138.76 82.9884 138.75 82.9984C138.83 82.9984 138.85 82.9984 138.76 82.9684Z" fill="#7A5751"/>
<path d="M143.689 82.3984V82.4384C143.779 82.3984 143.689 82.4284 143.689 82.3984Z" fill="#7A5751"/>
<path d="M144.469 81.8184L144.379 81.8484L144.359 81.8884L144.469 81.8184Z" fill="#7A5751"/>
<path d="M145.08 81.7399L145.04 81.7699L145.17 81.6699L145.08 81.7399Z" fill="#7A5751"/>
<path d="M148.25 74.3496L148.21 74.3796C148.21 74.4396 148.26 74.4596 148.25 74.3496Z" fill="#7A5751"/>
<path d="M147.77 70.7488C147.77 70.7488 147.77 70.5988 147.71 70.5488C147.74 70.6288 147.75 70.7088 147.77 70.7488Z" fill="#7A5751"/>
<path d="M138.19 70.3388L138.25 70.2988L138.13 70.3688L138.19 70.3388Z" fill="#7A5751"/>
<path d="M153.64 64.6895L131.35 73.6195" stroke="#7A5751" stroke-width="2.66" stroke-miterlimit="10" stroke-linecap="round"/>
<path d="M111.91 74.1895C118.69 74.1895 124.19 79.6895 124.19 86.4695C124.19 93.2495 99.6299 93.2495 99.6299 86.4695C99.6299 79.6895 105.13 74.1895 111.91 74.1895Z" fill="#7A5751"/>
<g style="mix-blend-mode:soft-light" opacity="0.4">
<path d="M111.91 79.5598C106.7 79.5598 101.6 82.4398 102.77 80.3698C107.54 71.8698 119.02 75.0898 121.35 80.1398C122.35 82.2998 117.13 79.5598 111.92 79.5598H111.91Z" fill="#F0E1A0"/>
</g>
</g>
<defs>
<linearGradient id="paint0_linear_316_15797" x1="80.1811" y1="86.6664" x2="87.3155" y2="56.1287" gradientUnits="userSpaceOnUse">
<stop stop-color="#7A5751"/>
<stop offset="0.41" stop-color="#7E5C57"/>
<stop offset="0.73" stop-color="#846460"/>
</linearGradient>
<linearGradient id="paint1_linear_316_15797" x1="143.181" y1="86.6114" x2="136.047" y2="56.0737" gradientUnits="userSpaceOnUse">
<stop stop-color="#7A5751"/>
<stop offset="0.41" stop-color="#7E5C57"/>
<stop offset="0.73" stop-color="#846460"/>
</linearGradient>
<clipPath id="clip0_316_15797">
<rect width="190.54" height="466.51" fill="white"/>
</clipPath>
</defs>
</svg>
