<svg width="372" height="124" viewBox="0 0 372 124" fill="none" xmlns="http://www.w3.org/2000/svg">
<path d="M34.4608 87.4865C32.387 87.4865 30.7917 86.9282 29.675 85.8115C28.5583 84.6948 28 83.0995 28 81.0257V37.7141C28 35.6402 28.5583 34.0449 29.675 32.9283C30.7917 31.8116 32.387 31.2532 34.4608 31.2532H50.0147C59.6395 31.2532 67.0575 33.6993 72.2688 38.5915C77.5332 43.4305 80.1653 50.3433 80.1653 59.33C80.1653 63.8499 79.4741 67.8647 78.0915 71.3743C76.7621 74.8307 74.8212 77.7554 72.2688 80.1483C69.7163 82.5412 66.579 84.3757 62.8567 85.6519C59.1344 86.875 54.8537 87.4865 50.0147 87.4865H34.4608ZM40.3633 77.3565H49.2969C52.3279 77.3565 54.9601 76.9843 57.1934 76.2399C59.4268 75.4954 61.288 74.3787 62.7769 72.8898C64.2658 71.4009 65.3825 69.5397 66.127 67.3063C66.8714 65.0198 67.2437 62.361 67.2437 59.33C67.2437 53.268 65.7281 48.7746 62.6971 45.85C59.7193 42.8721 55.2525 41.3832 49.2969 41.3832H40.3633V77.3565Z" fill="white"/>
<path d="M95.0344 88.1246C93.0669 88.1246 91.5514 87.5663 90.4879 86.4496C89.4775 85.2797 88.9724 83.6579 88.9724 81.584V54.3049C88.9724 52.1779 89.4775 50.556 90.4879 49.4393C91.5514 48.2694 93.0669 47.6845 95.0344 47.6845C96.9487 47.6845 98.411 48.2694 99.4214 49.4393C100.485 50.556 101.017 52.1779 101.017 54.3049V81.584C101.017 83.6579 100.511 85.2797 99.5011 86.4496C98.4908 87.5663 97.0019 88.1246 95.0344 88.1246ZM95.0344 41.1439C92.801 41.1439 91.0728 40.6387 89.8498 39.6284C88.6799 38.5649 88.095 37.076 88.095 35.1616C88.095 33.1941 88.6799 31.7052 89.8498 30.6949C91.0728 29.6314 92.801 29.0996 95.0344 29.0996C97.2678 29.0996 98.9694 29.6314 100.139 30.6949C101.309 31.7052 101.894 33.1941 101.894 35.1616C101.894 37.076 101.309 38.5649 100.139 39.6284C98.9694 40.6387 97.2678 41.1439 95.0344 41.1439Z" fill="white"/>
<path d="M129.379 102.721C126.507 102.721 123.742 102.482 121.083 102.003C118.478 101.525 116.165 100.807 114.144 99.8499C112.921 99.3181 112.044 98.6268 111.512 97.776C111.033 96.9252 110.82 96.0212 110.874 95.064C110.98 94.1069 111.299 93.2561 111.831 92.5116C112.416 91.7672 113.134 91.2354 113.984 90.9163C114.835 90.6505 115.739 90.7302 116.696 91.1556C119.036 92.2191 121.19 92.9104 123.157 93.2295C125.178 93.5485 126.906 93.7081 128.342 93.7081C131.745 93.7081 134.298 92.937 135.999 91.3949C137.701 89.8528 138.552 87.4865 138.552 84.296V78.2339H139.269C138.472 80.68 136.823 82.6741 134.324 84.2162C131.825 85.7583 129.06 86.5294 126.029 86.5294C122.519 86.5294 119.462 85.7317 116.856 84.1364C114.25 82.488 112.23 80.2014 110.794 77.2768C109.358 74.2989 108.64 70.8691 108.64 66.9873C108.64 64.0626 109.039 61.4038 109.837 59.0109C110.688 56.618 111.857 54.5708 113.346 52.8691C114.888 51.1675 116.723 49.8647 118.85 48.9607C121.03 48.0036 123.423 47.525 126.029 47.525C129.166 47.525 131.931 48.296 134.324 49.8381C136.77 51.327 138.392 53.2945 139.19 55.7406L138.392 58.2931V53.7465C138.392 51.779 138.897 50.2901 139.908 49.2798C140.971 48.2163 142.46 47.6845 144.374 47.6845C146.289 47.6845 147.751 48.2163 148.761 49.2798C149.772 50.2901 150.277 51.779 150.277 53.7465V82.94C150.277 89.4806 148.469 94.3994 144.853 97.6962C141.29 101.046 136.132 102.721 129.379 102.721ZM129.618 77.5161C131.426 77.5161 132.968 77.0907 134.244 76.2399C135.574 75.389 136.611 74.1926 137.355 72.6505C138.1 71.0552 138.472 69.1675 138.472 66.9873C138.472 63.6904 137.648 61.138 135.999 59.33C134.404 57.4688 132.277 56.5383 129.618 56.5383C127.81 56.5383 126.241 56.9637 124.912 57.8145C123.583 58.6121 122.546 59.8086 121.801 61.4038C121.11 62.9459 120.764 64.8071 120.764 66.9873C120.764 70.2842 121.562 72.8632 123.157 74.7243C124.753 76.5855 126.906 77.5161 129.618 77.5161Z" fill="white"/>
<path d="M165.929 88.1246C163.962 88.1246 162.446 87.5663 161.383 86.4496C160.372 85.2797 159.867 83.6579 159.867 81.584V54.3049C159.867 52.1779 160.372 50.556 161.383 49.4393C162.446 48.2694 163.962 47.6845 165.929 47.6845C167.843 47.6845 169.306 48.2694 170.316 49.4393C171.38 50.556 171.911 52.1779 171.911 54.3049V81.584C171.911 83.6579 171.406 85.2797 170.396 86.4496C169.386 87.5663 167.897 88.1246 165.929 88.1246ZM165.929 41.1439C163.696 41.1439 161.968 40.6387 160.745 39.6284C159.575 38.5649 158.99 37.076 158.99 35.1616C158.99 33.1941 159.575 31.7052 160.745 30.6949C161.968 29.6314 163.696 29.0996 165.929 29.0996C168.163 29.0996 169.864 29.6314 171.034 30.6949C172.204 31.7052 172.789 33.1941 172.789 35.1616C172.789 37.076 172.204 38.5649 171.034 39.6284C169.864 40.6387 168.163 41.1439 165.929 41.1439Z" fill="white"/>
<path d="M188.708 88.2044C186.687 88.2044 185.145 87.646 184.082 86.5294C183.018 85.4127 182.486 83.844 182.486 81.8233V37.5545C182.486 35.4807 183.018 33.912 184.082 32.8485C185.198 31.785 186.767 31.2532 188.788 31.2532H208.17C214.445 31.2532 219.284 32.8485 222.687 36.039C226.09 39.1764 227.792 43.5634 227.792 49.2C227.792 54.8366 226.09 59.2502 222.687 62.4408C219.284 65.6313 214.445 67.2266 208.17 67.2266H194.85V81.8233C194.85 83.844 194.318 85.4127 193.254 86.5294C192.244 87.646 190.729 88.2044 188.708 88.2044ZM194.85 57.655H206.096C209.287 57.655 211.706 56.9371 213.355 55.5013C215.056 54.0656 215.907 51.9652 215.907 49.2C215.907 46.4349 215.056 44.361 213.355 42.9785C211.706 41.5959 209.287 40.9046 206.096 40.9046H194.85V57.655Z" fill="white"/>
<path d="M252.815 88.3639C248.189 88.3639 244.201 87.5397 240.851 85.8912C237.554 84.1896 235.001 81.8233 233.194 78.7923C231.439 75.7081 230.561 72.0921 230.561 67.9444C230.561 63.9031 231.412 60.3669 233.114 57.3359C234.815 54.2517 237.182 51.8588 240.213 50.1572C243.297 48.4024 246.78 47.525 250.662 47.525C253.48 47.525 256.032 48.0036 258.319 48.9607C260.606 49.8647 262.573 51.1941 264.222 52.9489C265.87 54.6505 267.12 56.751 267.97 59.2502C268.821 61.6963 269.247 64.4349 269.247 67.4659C269.247 68.4762 268.928 69.2472 268.289 69.779C267.651 70.2576 266.721 70.4969 265.498 70.4969H240.452V64.2753H260.552L259.276 65.392C259.276 63.2118 258.957 61.4038 258.319 59.9681C257.681 58.4792 256.75 57.3625 255.527 56.618C254.357 55.8736 252.895 55.5013 251.14 55.5013C249.173 55.5013 247.498 55.9533 246.115 56.8573C244.733 57.7613 243.669 59.0641 242.925 60.7657C242.18 62.4674 241.808 64.5146 241.808 66.9075V67.5456C241.808 71.587 242.739 74.5648 244.6 76.4791C246.514 78.3935 249.332 79.3506 253.055 79.3506C254.331 79.3506 255.793 79.1911 257.442 78.872C259.09 78.553 260.632 78.0478 262.068 77.3565C263.291 76.7716 264.381 76.5855 265.338 76.7982C266.295 76.9577 267.04 77.3831 267.572 78.0744C268.103 78.7657 268.396 79.5633 268.449 80.4673C268.555 81.3713 268.369 82.2753 267.891 83.1793C267.412 84.0301 266.614 84.748 265.498 85.3329C263.69 86.3432 261.642 87.0877 259.356 87.5663C257.123 88.098 254.942 88.3639 252.815 88.3639Z" fill="white"/>
<path d="M295.481 88.3639C291.812 88.3639 288.727 87.7524 286.228 86.5294C283.782 85.3063 281.948 83.5249 280.724 81.1852C279.555 78.8455 278.97 75.8942 278.97 72.3314V57.3359H275.62C274.131 57.3359 272.961 56.9371 272.11 56.1394C271.312 55.3418 270.914 54.2517 270.914 52.8691C270.914 51.3802 271.312 50.2635 272.11 49.5191C272.961 48.7214 274.131 48.3226 275.62 48.3226H278.97V42.2606C278.97 40.2399 279.501 38.7244 280.565 37.7141C281.628 36.6506 283.117 36.1188 285.032 36.1188C286.999 36.1188 288.488 36.6506 289.498 37.7141C290.509 38.7244 291.014 40.2399 291.014 42.2606V48.3226H298.591C300.08 48.3226 301.224 48.7214 302.021 49.5191C302.819 50.2635 303.218 51.3802 303.218 52.8691C303.218 54.2517 302.819 55.3418 302.021 56.1394C301.224 56.9371 300.08 57.3359 298.591 57.3359H291.014V71.8529C291.014 74.0862 291.519 75.7613 292.529 76.878C293.593 77.9946 295.268 78.553 297.555 78.553C298.352 78.553 299.097 78.4732 299.788 78.3137C300.479 78.1542 301.117 78.0478 301.702 77.9946C302.447 77.9415 303.058 78.1808 303.537 78.7125C304.015 79.1911 304.255 80.2812 304.255 81.9828C304.255 83.259 304.042 84.3757 303.617 85.3329C303.191 86.2901 302.447 86.9813 301.383 87.4067C300.692 87.6726 299.735 87.8853 298.512 88.0448C297.342 88.2576 296.332 88.3639 295.481 88.3639Z" fill="white"/>
<path d="M323.741 88.3639C321.401 88.3639 318.981 88.1512 316.482 87.7258C314.036 87.3004 311.803 86.5825 309.782 85.5722C308.719 85.0404 307.948 84.3757 307.469 83.5781C307.044 82.7273 306.857 81.8765 306.911 81.0257C306.964 80.1749 307.23 79.4038 307.708 78.7125C308.24 78.0212 308.905 77.5692 309.702 77.3565C310.553 77.0907 311.484 77.1704 312.494 77.5958C314.674 78.4998 316.668 79.1379 318.476 79.5102C320.284 79.8824 322.066 80.0685 323.82 80.0685C326.107 80.0685 327.755 79.7229 328.766 79.0316C329.829 78.2871 330.361 77.33 330.361 76.1601C330.361 75.0966 330.015 74.2989 329.324 73.7672C328.633 73.2354 327.623 72.8632 326.293 72.6505L317.918 71.135C314.621 70.5501 312.069 69.3536 310.261 67.5456C308.506 65.6845 307.628 63.3182 307.628 60.4467C307.628 57.7879 308.373 55.5013 309.862 53.587C311.351 51.6195 313.398 50.1306 316.004 49.1203C318.662 48.0567 321.667 47.525 325.017 47.525C327.41 47.525 329.617 47.7377 331.637 48.1631C333.658 48.5885 335.599 49.2798 337.46 50.2369C338.417 50.7155 339.082 51.3536 339.454 52.1513C339.88 52.9489 340.012 53.7731 339.853 54.6239C339.747 55.4747 339.428 56.2458 338.896 56.9371C338.364 57.6284 337.673 58.0804 336.822 58.2931C336.024 58.5058 335.094 58.3994 334.03 57.974C332.329 57.1764 330.76 56.618 329.324 56.299C327.888 55.9267 326.506 55.7406 325.176 55.7406C322.784 55.7406 321.055 56.1394 319.992 56.9371C318.928 57.6815 318.397 58.6387 318.397 59.8086C318.397 60.7126 318.689 61.4836 319.274 62.1217C319.912 62.7066 320.869 63.1055 322.145 63.3182L330.521 64.8337C333.977 65.4186 336.609 66.5885 338.417 68.3433C340.225 70.0449 341.129 72.3846 341.129 75.3624C341.129 79.4038 339.534 82.5944 336.343 84.9341C333.206 87.2206 329.005 88.3639 323.741 88.3639Z" fill="white"/>
<path d="M87.8257 27.98C86.5019 28.7668 84.6784 28.1422 83.7526 26.5849C82.8269 25.0276 83.1495 23.1272 84.4733 22.3403C85.797 21.5534 87.6206 22.178 88.5463 23.7354C89.4721 25.2927 89.1494 27.1931 87.8257 27.98Z" fill="white"/>
<path d="M158.057 27.98C156.733 28.7668 154.91 28.1422 153.984 26.5849C153.058 25.0276 153.381 23.1272 154.705 22.3403C156.028 21.5534 157.852 22.178 158.778 23.7354C159.704 25.2927 159.381 27.1931 158.057 27.98Z" fill="white"/>
<path d="M102.35 27.98C103.674 28.7668 105.497 28.1422 106.423 26.5849C107.349 25.0276 107.026 23.1272 105.703 22.3403C104.379 21.5534 102.555 22.178 101.629 23.7354C100.704 25.2927 101.026 27.1931 102.35 27.98Z" fill="white"/>
<path d="M172.582 27.98C173.905 28.7668 175.729 28.1422 176.655 26.5849C177.58 25.0276 177.258 23.1272 175.934 22.3403C174.61 21.5534 172.787 22.178 171.861 23.7354C170.935 25.2927 171.258 27.1931 172.582 27.98Z" fill="white"/>
<path d="M95.0803 25.5608C96.6203 25.5608 97.8687 24.0921 97.8687 22.2804C97.8687 20.4687 96.6203 19 95.0803 19C93.5404 19 92.292 20.4687 92.292 22.2804C92.292 24.0921 93.5404 25.5608 95.0803 25.5608Z" fill="white"/>
<path d="M165.312 25.5608C166.852 25.5608 168.1 24.0921 168.1 22.2804C168.1 20.4687 166.852 19 165.312 19C163.772 19 162.523 20.4687 162.523 22.2804C162.523 24.0921 163.772 25.5608 165.312 25.5608Z" fill="white"/>
</svg>
