<svg width="314" height="84" viewBox="0 0 314 84" fill="none" xmlns="http://www.w3.org/2000/svg">
<path d="M6.46085 68.4865C4.38699 68.4865 2.79172 67.9282 1.67503 66.8115C0.558345 65.6948 0 64.0995 0 62.0257V18.7141C0 16.6402 0.558345 15.0449 1.67503 13.9283C2.79172 12.8116 4.38699 12.2532 6.46085 12.2532H22.0147C31.6395 12.2532 39.0575 14.6993 44.2688 19.5915C49.5332 24.4305 52.1653 31.3433 52.1653 40.33C52.1653 44.8499 51.4741 48.8647 50.0915 52.3743C48.7621 55.8307 46.8212 58.7554 44.2688 61.1483C41.7163 63.5412 38.579 65.3757 34.8567 66.6519C31.1344 67.875 26.8537 68.4865 22.0147 68.4865H6.46085ZM12.3633 58.3565H21.2969C24.3279 58.3565 26.9601 57.9843 29.1934 57.2399C31.4268 56.4954 33.288 55.3787 34.7769 53.8898C36.2658 52.4009 37.3825 50.5397 38.127 48.3063C38.8714 46.0198 39.2437 43.361 39.2437 40.33C39.2437 34.268 37.7281 29.7746 34.6971 26.85C31.7193 23.8721 27.2525 22.3832 21.2969 22.3832H12.3633V58.3565Z" fill="white"/>
<path d="M67.0344 69.1246C65.0669 69.1246 63.5514 68.5663 62.4879 67.4496C61.4775 66.2797 60.9724 64.6579 60.9724 62.584V35.3049C60.9724 33.1779 61.4775 31.556 62.4879 30.4393C63.5514 29.2694 65.0669 28.6845 67.0344 28.6845C68.9487 28.6845 70.411 29.2694 71.4214 30.4393C72.4849 31.556 73.0167 33.1779 73.0167 35.3049V62.584C73.0167 64.6579 72.5115 66.2797 71.5011 67.4496C70.4908 68.5663 69.0019 69.1246 67.0344 69.1246ZM67.0344 22.1439C64.801 22.1439 63.0728 21.6387 61.8498 20.6284C60.6799 19.5649 60.095 18.076 60.095 16.1616C60.095 14.1941 60.6799 12.7052 61.8498 11.6949C63.0728 10.6314 64.801 10.0996 67.0344 10.0996C69.2678 10.0996 70.9694 10.6314 72.1393 11.6949C73.3091 12.7052 73.8941 14.1941 73.8941 16.1616C73.8941 18.076 73.3091 19.5649 72.1393 20.6284C70.9694 21.6387 69.2678 22.1439 67.0344 22.1439Z" fill="white"/>
<path d="M101.379 83.7213C98.5073 83.7213 95.7422 83.4821 93.0834 83.0035C90.4778 82.5249 88.1647 81.807 86.144 80.8499C84.9209 80.3181 84.0435 79.6268 83.5118 78.776C83.0332 77.9252 82.8205 77.0212 82.8737 76.064C82.98 75.1069 83.2991 74.2561 83.8308 73.5116C84.4158 72.7672 85.1336 72.2354 85.9844 71.9163C86.8353 71.6505 87.7392 71.7302 88.6964 72.1556C91.0361 73.2191 93.1898 73.9104 95.1573 74.2295C97.1779 74.5485 98.9061 74.7081 100.342 74.7081C103.745 74.7081 106.298 73.937 107.999 72.3949C109.701 70.8528 110.552 68.4865 110.552 65.296V59.2339H111.269C110.472 61.68 108.823 63.6741 106.324 65.2162C103.825 66.7583 101.06 67.5294 98.0287 67.5294C94.5192 67.5294 91.4615 66.7317 88.8559 65.1364C86.2503 63.488 84.2297 61.2014 82.7939 58.2768C81.3582 55.2989 80.6403 51.8691 80.6403 47.9873C80.6403 45.0626 81.0391 42.4038 81.8368 40.0109C82.6876 37.618 83.8574 35.5708 85.3463 33.8691C86.8884 32.1675 88.723 30.8647 90.85 29.9607C93.0302 29.0036 95.4231 28.525 98.0287 28.525C101.166 28.525 103.931 29.296 106.324 30.8381C108.77 32.327 110.392 34.2945 111.19 36.7406L110.392 39.2931V34.7465C110.392 32.779 110.897 31.2901 111.908 30.2798C112.971 29.2163 114.46 28.6845 116.374 28.6845C118.289 28.6845 119.751 29.2163 120.761 30.2798C121.772 31.2901 122.277 32.779 122.277 34.7465V63.94C122.277 70.4806 120.469 75.3994 116.853 78.6962C113.29 82.0463 108.132 83.7213 101.379 83.7213ZM101.618 58.5161C103.426 58.5161 104.968 58.0907 106.244 57.2399C107.574 56.389 108.611 55.1926 109.355 53.6505C110.1 52.0552 110.472 50.1675 110.472 47.9873C110.472 44.6904 109.648 42.138 107.999 40.33C106.404 38.4688 104.277 37.5383 101.618 37.5383C99.8101 37.5383 98.2414 37.9637 96.912 38.8145C95.5826 39.6121 94.5457 40.8086 93.8013 42.4038C93.11 43.9459 92.7644 45.8071 92.7644 47.9873C92.7644 51.2842 93.562 53.8632 95.1573 55.7243C96.7525 57.5855 98.9061 58.5161 101.618 58.5161Z" fill="white"/>
<path d="M137.929 69.1246C135.962 69.1246 134.446 68.5663 133.383 67.4496C132.372 66.2797 131.867 64.6579 131.867 62.584V35.3049C131.867 33.1779 132.372 31.556 133.383 30.4393C134.446 29.2694 135.962 28.6845 137.929 28.6845C139.843 28.6845 141.306 29.2694 142.316 30.4393C143.38 31.556 143.911 33.1779 143.911 35.3049V62.584C143.911 64.6579 143.406 66.2797 142.396 67.4496C141.386 68.5663 139.897 69.1246 137.929 69.1246ZM137.929 22.1439C135.696 22.1439 133.968 21.6387 132.745 20.6284C131.575 19.5649 130.99 18.076 130.99 16.1616C130.99 14.1941 131.575 12.7052 132.745 11.6949C133.968 10.6314 135.696 10.0996 137.929 10.0996C140.163 10.0996 141.864 10.6314 143.034 11.6949C144.204 12.7052 144.789 14.1941 144.789 16.1616C144.789 18.076 144.204 19.5649 143.034 20.6284C141.864 21.6387 140.163 22.1439 137.929 22.1439Z" fill="white"/>
<path d="M160.708 69.2044C158.687 69.2044 157.145 68.646 156.082 67.5294C155.018 66.4127 154.486 64.844 154.486 62.8233V18.5545C154.486 16.4807 155.018 14.912 156.082 13.8485C157.198 12.785 158.767 12.2532 160.788 12.2532H180.17C186.445 12.2532 191.284 13.8485 194.687 17.039C198.09 20.1764 199.792 24.5634 199.792 30.2C199.792 35.8366 198.09 40.2502 194.687 43.4408C191.284 46.6313 186.445 48.2266 180.17 48.2266H166.85V62.8233C166.85 64.844 166.318 66.4127 165.254 67.5294C164.244 68.646 162.729 69.2044 160.708 69.2044ZM166.85 38.655H178.096C181.287 38.655 183.706 37.9371 185.355 36.5013C187.056 35.0656 187.907 32.9652 187.907 30.2C187.907 27.4349 187.056 25.361 185.355 23.9785C183.706 22.5959 181.287 21.9046 178.096 21.9046H166.85V38.655Z" fill="white"/>
<path d="M224.815 69.3639C220.189 69.3639 216.201 68.5397 212.851 66.8912C209.554 65.1896 207.001 62.8233 205.194 59.7923C203.439 56.7081 202.561 53.0921 202.561 48.9444C202.561 44.9031 203.412 41.3669 205.114 38.3359C206.815 35.2517 209.182 32.8588 212.213 31.1572C215.297 29.4024 218.78 28.525 222.662 28.525C225.48 28.525 228.032 29.0036 230.319 29.9607C232.606 30.8647 234.573 32.1941 236.222 33.9489C237.87 35.6505 239.12 37.751 239.97 40.2502C240.821 42.6963 241.247 45.4349 241.247 48.4659C241.247 49.4762 240.928 50.2472 240.289 50.779C239.651 51.2576 238.721 51.4969 237.498 51.4969H212.452V45.2753H232.552L231.276 46.392C231.276 44.2118 230.957 42.4038 230.319 40.9681C229.681 39.4792 228.75 38.3625 227.527 37.618C226.357 36.8736 224.895 36.5013 223.14 36.5013C221.173 36.5013 219.498 36.9533 218.115 37.8573C216.733 38.7613 215.669 40.0641 214.925 41.7657C214.18 43.4674 213.808 45.5146 213.808 47.9075V48.5456C213.808 52.587 214.739 55.5648 216.6 57.4791C218.514 59.3935 221.332 60.3506 225.055 60.3506C226.331 60.3506 227.793 60.1911 229.442 59.872C231.09 59.553 232.632 59.0478 234.068 58.3565C235.291 57.7716 236.381 57.5855 237.338 57.7982C238.295 57.9577 239.04 58.3831 239.572 59.0744C240.103 59.7657 240.396 60.5633 240.449 61.4673C240.555 62.3713 240.369 63.2753 239.891 64.1793C239.412 65.0301 238.614 65.748 237.498 66.3329C235.69 67.3432 233.642 68.0877 231.356 68.5663C229.123 69.098 226.942 69.3639 224.815 69.3639Z" fill="white"/>
<path d="M267.481 69.3639C263.812 69.3639 260.727 68.7524 258.228 67.5294C255.782 66.3063 253.948 64.5249 252.724 62.1852C251.555 59.8455 250.97 56.8942 250.97 53.3314V38.3359H247.62C246.131 38.3359 244.961 37.9371 244.11 37.1394C243.312 36.3418 242.914 35.2517 242.914 33.8691C242.914 32.3802 243.312 31.2635 244.11 30.5191C244.961 29.7214 246.131 29.3226 247.62 29.3226H250.97V23.2606C250.97 21.2399 251.501 19.7244 252.565 18.7141C253.628 17.6506 255.117 17.1188 257.032 17.1188C258.999 17.1188 260.488 17.6506 261.498 18.7141C262.509 19.7244 263.014 21.2399 263.014 23.2606V29.3226H270.591C272.08 29.3226 273.224 29.7214 274.021 30.5191C274.819 31.2635 275.218 32.3802 275.218 33.8691C275.218 35.2517 274.819 36.3418 274.021 37.1394C273.224 37.9371 272.08 38.3359 270.591 38.3359H263.014V52.8529C263.014 55.0862 263.519 56.7613 264.529 57.878C265.593 58.9946 267.268 59.553 269.555 59.553C270.352 59.553 271.097 59.4732 271.788 59.3137C272.479 59.1542 273.117 59.0478 273.702 58.9946C274.447 58.9415 275.058 59.1808 275.537 59.7125C276.015 60.1911 276.255 61.2812 276.255 62.9828C276.255 64.259 276.042 65.3757 275.617 66.3329C275.191 67.2901 274.447 67.9813 273.383 68.4067C272.692 68.6726 271.735 68.8853 270.512 69.0448C269.342 69.2576 268.332 69.3639 267.481 69.3639Z" fill="white"/>
<path d="M295.741 69.3639C293.401 69.3639 290.981 69.1512 288.482 68.7258C286.036 68.3004 283.803 67.5825 281.782 66.5722C280.719 66.0404 279.948 65.3757 279.469 64.5781C279.044 63.7273 278.857 62.8765 278.911 62.0257C278.964 61.1749 279.23 60.4038 279.708 59.7125C280.24 59.0212 280.905 58.5692 281.702 58.3565C282.553 58.0907 283.484 58.1704 284.494 58.5958C286.674 59.4998 288.668 60.1379 290.476 60.5102C292.284 60.8824 294.066 61.0685 295.82 61.0685C298.107 61.0685 299.755 60.7229 300.766 60.0316C301.829 59.2871 302.361 58.33 302.361 57.1601C302.361 56.0966 302.015 55.2989 301.324 54.7672C300.633 54.2354 299.623 53.8632 298.293 53.6505L289.918 52.135C286.621 51.5501 284.069 50.3536 282.261 48.5456C280.506 46.6845 279.628 44.3182 279.628 41.4467C279.628 38.7879 280.373 36.5013 281.862 34.587C283.351 32.6195 285.398 31.1306 288.004 30.1203C290.662 29.0567 293.667 28.525 297.017 28.525C299.41 28.525 301.617 28.7377 303.637 29.1631C305.658 29.5885 307.599 30.2798 309.46 31.2369C310.417 31.7155 311.082 32.3536 311.454 33.1513C311.88 33.9489 312.012 34.7731 311.853 35.6239C311.747 36.4747 311.428 37.2458 310.896 37.9371C310.364 38.6284 309.673 39.0804 308.822 39.2931C308.024 39.5058 307.094 39.3994 306.03 38.974C304.329 38.1764 302.76 37.618 301.324 37.299C299.888 36.9267 298.506 36.7406 297.176 36.7406C294.784 36.7406 293.055 37.1394 291.992 37.9371C290.928 38.6815 290.397 39.6387 290.397 40.8086C290.397 41.7126 290.689 42.4836 291.274 43.1217C291.912 43.7066 292.869 44.1055 294.145 44.3182L302.521 45.8337C305.977 46.4186 308.609 47.5885 310.417 49.3433C312.225 51.0449 313.129 53.3846 313.129 56.3624C313.129 60.4038 311.534 63.5944 308.343 65.9341C305.206 68.2206 301.005 69.3639 295.741 69.3639Z" fill="white"/>
<path d="M59.8257 8.97995C58.5019 9.76683 56.6784 9.14225 55.7526 7.5849C54.8269 6.02755 55.1495 4.12718 56.4733 3.3403C57.797 2.55342 59.6206 3.17801 60.5463 4.73535C61.4721 6.2927 61.1494 8.19307 59.8257 8.97995Z" fill="white"/>
<path d="M130.057 8.97995C128.733 9.76683 126.91 9.14225 125.984 7.5849C125.058 6.02755 125.381 4.12718 126.705 3.3403C128.028 2.55342 129.852 3.17801 130.778 4.73535C131.704 6.2927 131.381 8.19307 130.057 8.97995Z" fill="white"/>
<path d="M74.3501 8.97995C75.6739 9.76683 77.4974 9.14225 78.4232 7.5849C79.3489 6.02755 79.0263 4.12718 77.7025 3.3403C76.3788 2.55342 74.5552 3.17801 73.6295 4.73535C72.7037 6.2927 73.0264 8.19307 74.3501 8.97995Z" fill="white"/>
<path d="M144.582 8.97995C145.905 9.76683 147.729 9.14225 148.655 7.5849C149.58 6.02755 149.258 4.12718 147.934 3.3403C146.61 2.55342 144.787 3.17801 143.861 4.73535C142.935 6.2927 143.258 8.19307 144.582 8.97995Z" fill="white"/>
<path d="M67.0803 6.56082C68.6203 6.56082 69.8687 5.09213 69.8687 3.28041C69.8687 1.46869 68.6203 1.89196e-07 67.0803 1.21882e-07C65.5404 5.45687e-08 64.292 1.46869 64.292 3.28041C64.292 5.09213 65.5404 6.56082 67.0803 6.56082Z" fill="white"/>
<path d="M137.312 6.56082C138.852 6.56082 140.1 5.09213 140.1 3.28041C140.1 1.46869 138.852 1.89196e-07 137.312 1.21882e-07C135.772 5.45687e-08 134.523 1.46869 134.523 3.28041C134.523 5.09213 135.772 6.56082 137.312 6.56082Z" fill="white"/>
</svg>
