<svg width="369" height="246" viewBox="0 0 369 246" fill="none" xmlns="http://www.w3.org/2000/svg">
<g clip-path="url(#clip0_316_16449)">
<path d="M25.2701 47.9712C45.9401 50.0412 301.9 60.0412 323.41 60.9012C344.92 61.7612 368.14 81.5412 368.14 81.5412V99.6012C368.14 99.6012 335.15 85.6612 303.07 85.6612C270.99 85.6612 56.9401 59.3812 20.0201 58.1312C19.4401 58.1112 16.1701 57.3412 15.6501 57.0912C7.36014 53.2112 20.2101 47.4612 25.2801 47.9712H25.2701Z" fill="#895343"/>
<path d="M85.7905 66.239C83.3605 67.039 85.2605 70.209 86.8405 72.289C87.0405 72.549 86.7105 73.079 86.4405 72.919C83.8105 71.379 79.1705 69.049 76.7205 70.189C74.3305 71.299 78.3905 74.289 81.2905 76.109C81.5605 76.279 81.4105 76.929 81.1105 76.859C77.8305 76.079 72.7705 75.319 73.2105 78.149C73.8605 82.309 82.5005 85.299 82.5005 85.299L101.9 78.459C101.9 78.459 89.4805 65.039 85.7905 66.249V66.239Z" fill="#C49B72"/>
<path d="M273.15 60.3497C270.08 50.4897 241.24 44.1597 245.8 57.3397C250.36 70.5197 249.24 94.2997 249.24 94.2997L225.2 90.6397C228.54 107.03 226.88 147.39 208.13 159.85C208.13 159.85 198.22 164.4 187.98 154.3C210.16 117.75 200.86 76.2297 194.08 54.1197C191.74 46.4797 168.15 43.3897 170.33 52.0997C172.51 60.8097 175.89 81.6597 175.89 81.6597L163.44 78.9497C163.44 78.9497 163.08 117.36 148.97 127.61C138.13 129.74 151.05 118.64 143.53 96.4997C136 74.3497 108.06 72.6597 93.5101 77.4397L78.7001 82.3097C64.2101 87.0697 56.2901 103.42 60.5801 119.68L61.2101 122.08C63.8901 132.25 71.9601 142.06 80.4201 158.58C92.7201 182.59 106.76 226.18 152.56 240.75C211.38 259.47 262.57 224.47 277.25 183.88C286.84 157.36 284.58 97.0597 273.14 60.3497H273.15Z" fill="#C49B72"/>
<path d="M232 166.821C211.46 193.111 177.18 170.371 177.18 170.371L188.01 154.761C198.25 164.871 208.16 160.311 208.16 160.311C223.44 150.561 227.61 103.491 223.65 78.791C232.65 79.621 249.15 81.331 249.15 81.331C251.53 103.941 252.55 140.521 232.01 166.811L232 166.821Z" fill="#B3875F"/>
<path d="M110.76 157.741C135.07 150.101 146.65 138.061 145.96 128.481C164.48 119.461 148.57 70.8105 148.57 70.8105C156.12 71.6205 174.48 73.5705 174.48 73.5705C187.14 131.351 141.4 166.981 110.76 157.751V157.741Z" fill="#B3875F"/>
<path d="M69.2795 121.971C65.3395 106.631 73.9696 90.8612 89.0096 85.9212L101.3 81.8812C116.64 76.8412 133.24 84.6212 139.19 99.6212C145.71 116.071 138.18 134.951 121.4 140.561C116.73 142.121 112.12 143.541 107.5 144.851C90.6695 149.651 73.6195 138.921 69.2695 121.971H69.2795Z" fill="#ECD298"/>
<path d="M124.94 124.271C127.29 131.431 122.31 137.391 114.59 139.931C106.87 142.471 99.3197 140.631 96.9697 133.461C94.6197 126.301 98.5897 117.291 106.32 114.751C114.05 112.211 122.59 117.111 124.95 124.271H124.94Z" fill="#AF9375"/>
<path fill-rule="evenodd" clip-rule="evenodd" d="M68.3596 115.492C68.4296 117.642 68.7296 119.812 69.2796 121.972C71.1696 129.342 75.4796 135.522 81.1296 139.742C84.8896 133.822 89.6896 128.632 94.0796 124.112C99.1396 118.902 101.07 115.912 96.1196 110.732C93.0596 107.512 71.3396 110.492 68.3496 115.502L68.3596 115.492Z" fill="#A96D57"/>
<path fill-rule="evenodd" clip-rule="evenodd" d="M134.329 91.4216C136.329 93.8216 137.979 96.5716 139.189 99.6216C141.769 106.122 142.129 113.002 140.589 119.282C134.439 117.062 127.999 115.832 122.199 114.872C115.039 113.682 111.739 112.712 112.639 105.602C113.199 101.192 128.009 87.9516 134.329 91.4316V91.4216Z" fill="#A96D57"/>
<path d="M90.6993 139.672C93.1183 139.672 95.0793 137.711 95.0793 135.292C95.0793 132.873 93.1183 130.912 90.6993 130.912C88.2803 130.912 86.3193 132.873 86.3193 135.292C86.3193 137.711 88.2803 139.672 90.6993 139.672Z" fill="#FAB79F"/>
<path d="M131.6 126.231C134.019 126.231 135.98 124.27 135.98 121.851C135.98 119.432 134.019 117.471 131.6 117.471C129.181 117.471 127.22 119.432 127.22 121.851C127.22 124.27 129.181 126.231 131.6 126.231Z" fill="#FAB79F"/>
<path d="M56.2895 89.2696C60.2995 88.7896 65.1995 91.9996 65.1995 91.9996C65.1995 91.9996 61.1895 96.2696 57.1795 96.7496C53.1695 97.2296 48.2695 94.0196 48.2695 94.0196C48.2695 94.0196 52.2795 89.7496 56.2895 89.2696V89.2696Z" fill="#35866F"/>
<path d="M66.6695 81.2104C66.8995 85.2404 63.6695 89.9204 63.6695 89.9204C63.6695 89.9204 59.9295 85.6404 59.6895 81.6104C59.4595 77.5804 62.6895 72.9004 62.6895 72.9004C62.6895 72.9004 66.4295 77.1804 66.6695 81.2104V81.2104Z" fill="#35866F"/>
<path d="M79.6792 80.1995C79.7492 80.0895 79.8192 79.9695 79.8792 79.8495C80.9492 77.7995 80.1792 75.2795 78.1492 74.2095C76.1192 73.1395 73.5992 73.9395 72.5292 75.9795C72.4292 76.1795 72.3392 76.3795 72.2692 76.5895C71.4292 75.1995 69.8492 74.3595 68.1792 74.5595C65.9092 74.8295 64.3292 76.9195 64.6392 79.2195C64.8092 80.4495 65.4792 81.4895 66.4092 82.1495C66.2492 82.2095 66.0892 82.2795 65.9292 82.3595C63.8592 83.4095 63.0392 85.8995 64.0992 87.9195C65.1592 89.9395 67.6992 90.7295 69.7792 89.6795C69.8892 89.6195 69.9992 89.5595 70.0992 89.4995C70.0992 89.6195 70.1192 89.7495 70.1292 89.8695C70.4392 92.1695 72.5292 93.8195 74.7992 93.5495C77.0692 93.2795 78.6492 91.1895 78.3392 88.8895C78.3092 88.6895 78.2692 88.4895 78.2192 88.2895C79.2092 88.5595 80.2992 88.4695 81.2792 87.9695C83.3492 86.9195 84.1692 84.4295 83.1092 82.4095C82.4192 81.0895 81.0892 80.2995 79.6792 80.1995V80.1995Z" fill="#F8A487"/>
<path d="M73.6398 86.4397C75.3684 86.4397 76.7698 85.0383 76.7698 83.3097C76.7698 81.581 75.3684 80.1797 73.6398 80.1797C71.9111 80.1797 70.5098 81.581 70.5098 83.3097C70.5098 85.0383 71.9111 86.4397 73.6398 86.4397Z" fill="black"/>
<path d="M71 92.6312C71.07 92.5212 71.13 92.4112 71.19 92.3012C72.21 90.3612 71.47 87.9612 69.54 86.9512C67.61 85.9412 65.22 86.6912 64.2 88.6312C64.1 88.8212 64.02 89.0112 63.95 89.2112C63.16 87.8912 61.66 87.0912 60.06 87.2812C57.91 87.5412 56.4 89.5212 56.7 91.7112C56.86 92.8812 57.5 93.8612 58.38 94.4912C58.23 94.5512 58.08 94.6112 57.93 94.6912C55.96 95.6912 55.18 98.0512 56.19 99.9712C57.2 101.891 59.61 102.641 61.58 101.641C61.69 101.591 61.79 101.531 61.89 101.471C61.89 101.591 61.91 101.701 61.92 101.821C62.22 104.011 64.2 105.571 66.36 105.311C68.51 105.051 70.02 103.071 69.72 100.881C69.69 100.691 69.65 100.501 69.6 100.311C70.54 100.561 71.57 100.481 72.51 100.011C74.48 99.0112 75.26 96.6512 74.25 94.7312C73.59 93.4812 72.33 92.7212 70.99 92.6312H71Z" fill="#FDCD08"/>
<path d="M65.2593 98.5596C66.9051 98.5596 68.2393 97.2254 68.2393 95.5796C68.2393 93.9338 66.9051 92.5996 65.2593 92.5996C63.6135 92.5996 62.2793 93.9338 62.2793 95.5796C62.2793 97.2254 63.6135 98.5596 65.2593 98.5596Z" fill="#FCD30A"/>
<path d="M141.06 53.8812C143.42 46.8112 162.69 46.9912 165.92 48.3712C169.15 49.7512 171.91 54.6012 169.59 57.3812C167.28 60.1512 150.4 60.3512 145.58 60.3512C142.99 60.3512 139.2 59.4312 141.05 53.8812H141.06Z" fill="#ECD298"/>
<path d="M217.59 56.9711C219.95 49.9011 239.22 50.0811 242.45 51.4611C245.68 52.8411 248.44 57.6911 246.12 60.4711C243.81 63.2411 226.93 63.4411 222.11 63.4411C219.52 63.4411 215.73 62.5211 217.58 56.9711H217.59Z" fill="#ECD298"/>
<path d="M58.2003 55.0695C58.2003 55.0695 51.6103 49.9995 48.0703 44.9395" stroke="#895343" stroke-width="4.79" stroke-linecap="round" stroke-linejoin="round"/>
<path d="M43.5098 57.6003C43.5098 57.6003 36.9198 57.0903 30.0898 62.6103" stroke="#895343" stroke-width="4.79" stroke-linecap="round" stroke-linejoin="round"/>
<path d="M57.98 25.5802C56.59 30.7502 48.26 38.6202 48.26 38.6202C48.26 38.6202 44.99 27.6302 46.37 22.4602C47.76 17.2902 54.68 14.6602 54.68 14.6602C54.68 14.6602 59.36 20.4102 57.97 25.5802H57.98Z" fill="#BAD265"/>
<path d="M32.7802 25.8294C36.5402 29.6394 39.1302 40.8094 39.1302 40.8094C39.1302 40.8094 27.9902 38.0794 24.2302 34.2694C20.4702 30.4594 21.7002 23.1494 21.7002 23.1494C21.7002 23.1494 29.0202 22.0194 32.7802 25.8194V25.8294Z" fill="#BAD265"/>
<path d="M44.2301 9.87023C44.0601 15.2202 37.7601 24.7902 37.7601 24.7902C37.7601 24.7902 32.0601 14.8402 32.2201 9.49023C32.3901 4.14023 38.5301 -0.00976562 38.5301 -0.00976562C38.5301 -0.00976562 44.4001 4.51023 44.2301 9.86023V9.87023Z" fill="#88B253"/>
<path d="M21.0399 86.2995C20.2299 81.0095 24.6799 70.4395 24.6799 70.4395C24.6799 70.4395 32.0999 79.1795 32.9199 84.4695C33.7399 89.7595 28.4599 94.9594 28.4599 94.9594C28.4599 94.9594 21.8599 91.5895 21.0499 86.2995H21.0399Z" fill="#88B253"/>
<path d="M6.77 66.7302C11.74 64.7402 23.04 66.7002 23.04 66.7002C23.04 66.7002 16.2 75.9002 11.23 77.8902C6.26 79.8802 0 75.9102 0 75.9102C0 75.9102 1.8 68.7202 6.77 66.7302V66.7302Z" fill="#BAD265"/>
<path d="M110.761 125.261C107.651 126.441 104.171 124.871 102.991 121.761C101.811 118.651 113.091 114.381 114.271 117.491C115.451 120.601 113.881 124.081 110.771 125.261H110.761Z" fill="#7A5751"/>
<path d="M106.641 133.29C106.641 133.29 107.351 131.76 113.021 129.62C118.691 127.48 120.231 128.15 120.231 128.15" stroke="#7A5751" stroke-width="0.99" stroke-miterlimit="10" stroke-linecap="round"/>
<path d="M92.6598 122.7C93.5598 120.61 94.1598 116.8 90.1998 116.66C84.4598 116.46 80.1598 115.68 83.7898 123.11C85.3698 126.35 91.2198 126 92.6498 122.7H92.6598Z" fill="url(#paint0_linear_316_16449)"/>
<path d="M92.7197 122.721C92.7197 122.721 92.6997 122.701 92.6797 122.751V122.791L92.7197 122.721V122.721Z" fill="#7A5751"/>
<path d="M92.5197 122.981C92.5097 123.031 92.4997 123.101 92.5397 123.091C92.5397 123.031 92.5597 123.021 92.5597 122.951C92.5797 122.911 92.6097 122.881 92.6097 122.891C92.6097 122.871 92.6497 122.831 92.6497 122.801C92.5997 122.841 92.5597 122.911 92.5397 122.991C92.5297 123.001 92.5297 122.991 92.5197 122.981V122.981Z" fill="#7A5751"/>
<path d="M85.5996 124.74L85.6196 124.76C85.6196 124.76 85.5996 124.75 85.5996 124.74Z" fill="#7A5751"/>
<path d="M92.2305 123.55C92.2305 123.55 92.2505 123.52 92.2505 123.51L92.2305 123.54V123.55Z" fill="#7A5751"/>
<path d="M89.9697 124.95H89.9997L90.0097 124.93L89.9697 124.95Z" fill="#7A5751"/>
<path d="M90.8403 124.57C90.8403 124.57 90.8303 124.6 90.8203 124.62C90.8203 124.61 90.8403 124.59 90.8503 124.58C90.8503 124.58 90.8503 124.58 90.8303 124.57H90.8403Z" fill="#7A5751"/>
<path d="M92.6604 122.7V122.68L92.6504 122.67L92.6604 122.7Z" fill="#7A5751"/>
<path d="M83.3704 117.231C83.2904 117.261 83.4704 117.121 83.3504 117.181C83.3704 117.181 83.2704 117.281 83.3704 117.231Z" fill="#7A5751"/>
<path d="M92.2104 123.57L92.1904 123.6L92.2104 123.57Z" fill="#7A5751"/>
<path d="M84.4897 123.95L84.4697 123.92L84.4897 123.95Z" fill="#7A5751"/>
<path d="M83.3598 121.98C83.3598 121.98 83.3598 121.95 83.3398 121.93C83.3398 121.93 83.3498 121.96 83.3598 121.98Z" fill="#7A5751"/>
<path d="M83.0703 121.221V121.241L83.0803 121.261L83.0703 121.221Z" fill="#7A5751"/>
<path d="M93.3901 119.18C93.3901 119.18 93.3801 119.21 93.3701 119.22C93.3901 119.2 93.4101 119.33 93.3901 119.18Z" fill="#7A5751"/>
<path d="M92.2197 123.541C92.2197 123.541 92.2197 123.561 92.2197 123.571L92.2397 123.551L92.2197 123.541Z" fill="#7A5751"/>
<path d="M83.1701 122.03L83.1201 121.91L83.1701 122.03Z" fill="#7A5751"/>
<path d="M82.97 121.541C82.97 121.541 82.97 121.491 82.97 121.461H82.96L82.98 121.541H82.97Z" fill="#7A5751"/>
<path d="M93.46 120.09C93.46 119.96 93.43 120.03 93.41 120C93.41 119.85 93.44 119.93 93.46 119.88C93.45 119.78 93.42 119.71 93.42 119.64C93.42 119.64 93.42 119.62 93.43 119.64C93.4 119.54 93.43 119.34 93.37 119.23V119.21C93.36 119.23 93.34 119.24 93.33 119.23C93.33 119.17 93.3 119.13 93.31 119.11C93.31 119.14 93.32 119.15 93.33 119.16L93.31 119.1C93.33 119.04 93.33 119.18 93.35 119.18C93.32 119.07 93.29 118.94 93.27 118.85C93.3 118.82 93.32 119.05 93.33 118.93V119.07C93.37 118.96 93.34 119.15 93.38 119.05C93.37 118.87 93.33 118.85 93.29 118.67C93.26 118.63 93.27 118.69 93.24 118.65C93.15 118.41 93.26 118.43 93.15 118.27C93.11 118.23 93.07 118.23 93.03 118.1L93.08 118.13C93.01 117.96 92.99 118.06 92.92 117.89C92.95 117.91 93.01 118 93 117.98C92.96 117.86 92.94 117.92 92.89 117.84V117.81C92.81 117.64 92.63 117.52 92.49 117.37C92.5 117.37 92.54 117.39 92.51 117.35C92.3 117.2 92.06 116.99 91.83 116.89H91.73C91.73 116.89 91.7 116.85 91.73 116.85C91.64 116.8 91.72 116.86 91.67 116.85C91.62 116.83 91.61 116.81 91.64 116.81C91.47 116.75 91.15 116.73 90.98 116.65H91.02C90.88 116.6 90.85 116.68 90.73 116.64H90.76C90.46 116.59 90.12 116.59 89.89 116.54C89.84 116.58 89.59 116.51 89.57 116.56C89.4 116.53 89.45 116.52 89.21 116.49C89.15 116.49 89.11 116.52 89.03 116.52V116.49L88.92 116.51L88.86 116.47H88.78C88.78 116.47 88.84 116.49 88.84 116.5C88.72 116.5 88.55 116.47 88.55 116.45H88.27C88.27 116.45 88.32 116.45 88.36 116.45C88.21 116.47 88.33 116.42 88.2 116.44C88.22 116.44 88.19 116.46 88.19 116.46C88.12 116.44 87.97 116.44 87.85 116.44L87.87 116.42H87.2C87.28 116.42 87.26 116.45 87.2 116.45L87.17 116.42C87.17 116.42 87.24 116.43 87.15 116.45C87.06 116.45 87.09 116.42 87.15 116.41H87.04C87.04 116.41 87.06 116.41 87.07 116.4C87.03 116.42 86.89 116.37 86.83 116.4H86.3C86.3 116.4 86.22 116.42 86.17 116.44C86.03 116.44 85.88 116.42 85.71 116.44C85.59 116.46 85.68 116.46 85.62 116.48C85.62 116.46 85.44 116.47 85.53 116.45C85.33 116.47 85.27 116.48 85.02 116.52C85.05 116.52 85.08 116.52 85.06 116.54C85.01 116.54 84.95 116.54 84.96 116.54H84.97C84.69 116.58 84.3 116.59 84.09 116.68H84.1C84.02 116.69 83.95 116.74 83.88 116.78C83.78 116.82 83.94 116.74 83.85 116.76C83.62 116.9 83.45 116.89 83.29 117.05C83.2 117.07 83.07 117.16 82.95 117.26C82.85 117.39 82.76 117.52 82.67 117.61H82.69C82.67 117.66 82.64 117.66 82.61 117.69C82.62 117.69 82.66 117.65 82.65 117.68C82.44 118.14 82.31 118.67 82.35 119.17C82.37 119.35 82.44 119.27 82.43 119.5L82.39 119.44C82.44 119.81 82.54 120.17 82.65 120.52C82.64 120.5 82.63 120.5 82.62 120.47C82.62 120.55 82.69 120.74 82.71 120.74C82.73 120.79 82.7 120.76 82.71 120.79C82.72 120.86 82.8 120.96 82.8 121C82.8 121 82.79 120.98 82.78 120.97C82.81 121.01 82.86 121.19 82.86 121.13C82.9 121.26 82.96 121.37 82.98 121.47C83.03 121.53 83.05 121.69 83.09 121.7C83.05 121.7 83.14 121.93 83.2 122C83.18 121.98 83.22 122.07 83.19 122.05C83.23 122.14 83.27 122.21 83.29 122.19C83.32 122.37 83.47 122.5 83.46 122.61C83.61 122.86 83.7 123.1 83.86 123.32C83.82 123.33 83.71 123.07 83.68 123.1C83.81 123.31 83.92 123.41 84.04 123.63C84.07 123.69 84.01 123.61 83.99 123.59C84.12 123.8 84.29 123.96 84.45 124.12C84.45 124.12 84.43 124.11 84.41 124.09C84.44 124.12 84.47 124.17 84.48 124.15L84.45 124.12C84.42 124.05 84.6 124.21 84.62 124.2C84.53 124.2 84.78 124.34 84.65 124.32C84.67 124.34 84.71 124.35 84.71 124.34C84.74 124.37 84.75 124.38 84.71 124.37C84.84 124.46 84.81 124.41 84.92 124.5C84.92 124.5 84.89 124.5 84.87 124.5C84.94 124.53 85 124.56 85.09 124.64C85.09 124.64 85.09 124.66 85.06 124.64C85.24 124.74 85.39 124.77 85.57 124.89C85.5 124.89 85.63 124.94 85.63 124.97C85.67 124.99 85.71 124.99 85.75 125.01L85.71 124.98C85.81 125.02 85.9 125.03 85.98 125.07L85.9 125.05L86.09 125.11L85.99 125.06C86.09 125.08 85.99 125.02 86.12 125.07C86.09 125.07 86.22 125.11 86.26 125.15C86.31 125.16 86.37 125.15 86.44 125.18C86.46 125.2 86.41 125.21 86.42 125.22C86.48 125.21 86.66 125.27 86.73 125.26C86.71 125.26 86.7 125.28 86.71 125.28H86.76C86.76 125.28 86.81 125.29 86.8 125.3C86.94 125.34 86.76 125.25 86.93 125.3C86.92 125.3 86.93 125.3 86.89 125.3C87.06 125.34 87.22 125.33 87.38 125.36C87.42 125.4 87.24 125.36 87.29 125.39C87.52 125.42 87.77 125.39 87.99 125.39H87.95C87.98 125.34 88.12 125.41 88.23 125.39C88.2 125.39 88.19 125.42 88.2 125.41C88.35 125.43 88.51 125.37 88.74 125.34L88.71 125.36C88.8 125.36 88.95 125.34 89.04 125.33C89.07 125.31 89.12 125.3 89.08 125.29C89.38 125.29 89.63 125.15 89.89 125.11C89.86 125.12 89.82 125.15 89.85 125.14L90.06 125.06C90.06 125.06 90.03 125.06 89.98 125.06C90 125.04 90.06 125.01 90.11 124.99C90.02 125.04 90.12 125.02 90.17 125.02V125C90.29 125 90.17 124.95 90.33 124.93C90.38 124.91 90.43 124.87 90.48 124.85C90.51 124.86 90.43 124.89 90.43 124.91C90.51 124.87 90.57 124.79 90.66 124.77L90.55 124.84C90.64 124.83 90.65 124.81 90.71 124.79L90.85 124.74H90.81C90.88 124.65 91.01 124.64 91.11 124.51C91.01 124.63 91.11 124.54 91.11 124.57C91.15 124.55 91.2 124.53 91.19 124.54C91.24 124.48 91.3 124.49 91.37 124.4C91.37 124.4 91.44 124.36 91.43 124.38C91.5 124.32 91.4 124.38 91.4 124.37C91.51 124.28 91.69 124.18 91.82 124.01C91.94 123.87 91.95 123.84 92.04 123.7C92.09 123.67 92.04 123.76 92.04 123.76C92.11 123.7 92.15 123.64 92.19 123.57C92.19 123.59 92.2 123.57 92.23 123.57C92.27 123.51 92.23 123.51 92.3 123.45C92.3 123.47 92.3 123.49 92.29 123.53L92.42 123.32C92.42 123.32 92.41 123.37 92.4 123.4C92.46 123.33 92.51 123.18 92.51 123.14L92.47 123.19C92.47 123.19 92.5 123.19 92.49 123.21C92.47 123.29 92.43 123.31 92.42 123.31L92.44 123.25C92.38 123.28 92.3 123.45 92.23 123.54V123.48L92.18 123.6C92.18 123.6 92.13 123.62 92.16 123.57C92.09 123.63 92.12 123.64 92.06 123.68L92.02 123.75C92.02 123.75 91.99 123.75 92.02 123.71C91.92 123.82 91.87 123.9 91.81 123.92C91.67 124.06 91.81 123.94 91.72 124.07L91.6 124.09V124.12C91.6 124.12 91.55 124.16 91.55 124.15C91.5 124.22 91.57 124.15 91.55 124.2C91.46 124.26 91.33 124.38 91.28 124.36C91.26 124.4 91.37 124.32 91.28 124.39C91.23 124.37 91.18 124.47 91.09 124.5C91.1 124.46 91.18 124.42 91.09 124.46C91.06 124.53 90.93 124.56 90.87 124.6C90.88 124.63 90.72 124.69 90.61 124.76C90.61 124.74 90.38 124.86 90.26 124.89C90.26 124.89 90.13 124.96 90.04 125C90.04 124.98 90.04 124.97 90.09 124.94L90.01 124.97C90.01 124.97 89.97 125 89.92 125.02V124.99C89.82 125.03 89.72 125.1 89.57 125.12C89.57 125.14 89.7 125.16 89.55 125.21C89.55 125.2 89.53 125.18 89.57 125.17C89.56 125.17 89.53 125.19 89.5 125.19L89.56 125.16C89.49 125.16 89.53 125.18 89.48 125.19C89.48 125.17 89.44 125.19 89.44 125.17C89.45 125.17 89.49 125.17 89.51 125.16C89.45 125.17 89.37 125.18 89.35 125.16C89.35 125.16 89.35 125.18 89.31 125.2C89.2 125.23 89.27 125.19 89.2 125.2C89.17 125.22 89.1 125.22 89.1 125.25C89.07 125.25 89.06 125.25 89.04 125.25C88.98 125.28 88.76 125.29 88.83 125.31C88.64 125.36 88.42 125.35 88.23 125.37C88.11 125.37 87.97 125.37 87.89 125.38C87.86 125.38 87.81 125.36 87.82 125.35C87.73 125.35 87.72 125.37 87.59 125.35C87.68 125.35 87.56 125.34 87.68 125.35C87.56 125.35 87.54 125.32 87.41 125.33C87.45 125.31 87.33 125.29 87.27 125.29L87.35 125.32L87.18 125.3L87.21 125.27C86.98 125.22 86.78 125.27 86.62 125.16C86.55 125.16 86.74 125.2 86.68 125.22C86.57 125.19 86.48 125.12 86.44 125.11C86.3 125.06 86.29 125.12 86.15 125.05C86.16 125.07 86.17 125.1 86.06 125.07C85.96 125.03 85.95 124.98 86.02 125C86.04 125 86.05 125.02 86.05 125.02C86.08 125.02 86.13 125.04 86.09 125.02H86.07C86.07 125.02 85.88 124.94 85.92 124.94C85.84 124.92 85.88 124.94 85.94 124.97C85.82 124.9 85.73 124.9 85.61 124.82C85.63 124.84 85.64 124.86 85.62 124.85C85.44 124.74 85.53 124.82 85.4 124.76C85.34 124.71 85.44 124.74 85.31 124.68C85.24 124.63 85.31 124.65 85.34 124.66C85.22 124.61 85.13 124.54 85.08 124.48L85.14 124.51C85.14 124.51 85.08 124.47 85.05 124.45L85.07 124.49C85.07 124.49 85.01 124.44 85.02 124.43C84.98 124.42 85.02 124.48 84.95 124.44C84.91 124.4 84.81 124.35 84.82 124.31C84.95 124.42 84.82 124.28 84.94 124.36C84.92 124.35 84.89 124.33 84.86 124.3C84.86 124.3 84.86 124.3 84.88 124.3C84.77 124.18 84.8 124.28 84.67 124.18C84.7 124.18 84.66 124.13 84.64 124.12C84.69 124.16 84.64 124.16 84.59 124.12C84.53 124.03 84.51 124.04 84.47 124L84.51 124.05C84.51 124.05 84.45 124 84.4 123.95C84.4 123.94 84.45 123.99 84.44 123.97C84.36 123.93 84.34 123.81 84.25 123.74C84.22 123.69 84.27 123.72 84.25 123.68C84.16 123.59 84.19 123.55 84.11 123.45C84.11 123.49 84.12 123.5 84.05 123.43L84.18 123.61L84.08 123.5C84.12 123.56 84.17 123.61 84.18 123.65C84.13 123.6 84.14 123.6 84.14 123.65C84.12 123.55 84.03 123.5 83.99 123.4L84.04 123.38C83.98 123.23 83.86 123.16 83.79 122.95L83.81 123.02C83.81 123.02 83.75 122.9 83.72 122.84C83.74 122.84 83.72 122.8 83.72 122.76C83.71 122.76 83.66 122.62 83.62 122.62L83.6 122.52C83.54 122.36 83.47 122.36 83.41 122.21C83.45 122.25 83.43 122.17 83.49 122.27C83.47 122.22 83.45 122.17 83.44 122.18C83.44 122.15 83.35 122.05 83.35 122C83.33 121.98 83.31 121.98 83.29 121.93C83.29 121.93 83.24 121.85 83.24 121.9C83.23 121.72 83.07 121.46 83.06 121.3L82.92 120.95C82.92 120.95 82.92 120.95 82.93 120.97C82.89 120.82 82.85 120.9 82.81 120.73C82.81 120.64 82.85 120.81 82.85 120.76C82.9 120.72 82.79 120.56 82.79 120.44V120.47C82.79 120.38 82.73 120.27 82.69 120.13C82.64 120.04 82.57 119.87 82.55 119.73C82.58 119.77 82.57 119.79 82.59 119.76C82.58 119.7 82.56 119.78 82.54 119.66C82.54 119.62 82.54 119.53 82.57 119.51V119.62C82.61 119.56 82.57 119.47 82.57 119.41H82.58C82.56 119.24 82.52 119.24 82.5 119.05V119.07C82.44 118.97 82.5 118.98 82.49 118.88L82.53 118.85C82.53 118.78 82.52 118.61 82.53 118.49C82.55 118.56 82.55 118.71 82.56 118.8C82.56 118.73 82.58 118.57 82.56 118.54C82.56 118.57 82.56 118.6 82.56 118.63C82.55 118.55 82.52 118.43 82.56 118.3C82.62 118.34 82.7 117.98 82.78 117.91C82.81 117.8 82.91 117.72 82.98 117.63C83.05 117.53 83.14 117.45 83.26 117.38C83.15 117.39 83.32 117.33 83.28 117.3C83.33 117.26 83.35 117.25 83.36 117.25L83.54 117.17C83.54 117.17 83.49 117.21 83.51 117.22C83.63 117.15 83.57 117.22 83.66 117.19C83.63 117.18 83.69 117.15 83.77 117.12L83.66 117.14C83.83 117.04 83.83 117.12 84 117.02L83.95 117.06C84.03 117 84.3 116.95 84.39 116.89C84.41 116.89 84.44 116.9 84.39 116.92C84.63 116.86 84.92 116.77 85.11 116.78L85.09 116.8C85.09 116.8 85.17 116.77 85.23 116.77C85.23 116.77 85.21 116.79 85.23 116.78C85.25 116.78 85.35 116.74 85.41 116.74L85.36 116.76C85.6 116.76 85.73 116.71 85.93 116.68C85.93 116.72 86.12 116.73 86.22 116.73C86.5 116.73 86.7 116.7 86.96 116.69C87.12 116.73 87.51 116.72 87.77 116.75C87.73 116.75 87.77 116.72 87.82 116.72C87.88 116.73 87.99 116.7 87.98 116.73H87.96C87.96 116.73 88.13 116.76 88.23 116.77L88.25 116.72C88.5 116.8 88.93 116.72 89.06 116.79L89.26 116.77V116.8C89.43 116.81 89.51 116.82 89.73 116.82L89.69 116.84C89.81 116.84 89.84 116.77 89.96 116.78L89.99 116.82C90.2 116.82 90.4 116.88 90.61 116.87C90.61 116.87 90.6 116.89 90.57 116.88C90.67 116.89 90.94 116.94 90.91 116.88C90.91 116.91 91.11 116.93 91.23 116.95L91.21 116.97C91.31 116.97 91.31 116.95 91.44 116.97C91.47 116.98 91.46 117 91.42 116.97C91.52 117.01 91.5 116.97 91.62 117.03H91.57C91.67 117.07 91.66 117.06 91.72 117.07C91.79 117.09 91.9 117.16 91.91 117.18C91.93 117.18 91.99 117.18 92.04 117.22C92.04 117.23 92.02 117.22 92.01 117.22C92.15 117.33 92.24 117.34 92.33 117.43V117.45L92.13 117.31C92.13 117.31 92.21 117.4 92.12 117.37C92.2 117.41 92.36 117.45 92.42 117.55V117.57C92.42 117.57 92.45 117.6 92.47 117.61L92.53 117.68C92.53 117.68 92.61 117.78 92.65 117.82C92.67 117.8 92.7 117.86 92.68 117.79C92.68 117.79 92.68 117.79 92.64 117.76L92.62 117.74L92.52 117.64C92.52 117.64 92.6 117.69 92.63 117.74C92.66 117.74 92.7 117.76 92.71 117.77C92.73 117.86 92.79 117.99 92.78 118.02C92.9 118.15 92.97 118.37 93.06 118.45C93.09 118.49 93.06 118.51 93.07 118.53C93.05 118.51 93.04 118.47 93.03 118.46C93.09 118.54 93.12 118.74 93.16 118.75C93.18 118.87 93.11 118.69 93.16 118.85L93.14 118.83C93.16 119.16 93.33 119.36 93.26 119.74C93.26 119.71 93.26 119.7 93.27 119.7C93.26 120.13 93.25 120.59 93.13 121C93.09 121.12 93.11 121.13 93.11 121.21L93.08 121.23V121.36C93.06 121.54 92.94 121.64 92.92 121.87L92.95 121.85C92.92 121.93 92.88 122.1 92.86 122.08C92.86 122.08 92.86 122.11 92.86 122.14H92.85L92.81 122.33C92.74 122.47 92.77 122.29 92.68 122.5C92.65 122.58 92.63 122.74 92.65 122.71C92.66 122.68 92.69 122.63 92.7 122.64L92.68 122.71C92.68 122.71 92.73 122.81 92.83 122.65L92.86 122.52L92.89 122.49L92.85 122.6C92.89 122.55 92.89 122.5 92.9 122.46C92.91 122.46 92.93 122.44 92.94 122.42V122.28C92.94 122.28 92.96 122.35 93 122.27C93 122.21 92.95 122.31 92.97 122.21C93.01 122.16 93.02 122.18 93.03 122.1C93.04 122.1 93.05 122.11 93.03 122.14C93.03 122.07 93.08 121.97 93.07 121.93C93.11 121.87 93.13 121.71 93.16 121.73C93.16 121.71 93.16 121.61 93.18 121.55C93.2 121.67 93.24 121.33 93.28 121.37C93.26 121.28 93.33 121.07 93.33 120.92C93.33 120.92 93.33 120.95 93.33 120.96C93.35 120.88 93.36 120.86 93.38 120.81C93.35 120.79 93.36 120.66 93.35 120.59C93.4 120.49 93.38 120.66 93.42 120.63C93.39 120.63 93.42 120.45 93.39 120.48C93.42 120.41 93.41 120.41 93.44 120.38C93.4 120.36 93.44 120.31 93.42 120.24C93.45 120.13 93.46 120.21 93.46 120.09C93.48 120.03 93.49 120.14 93.49 120.14L93.46 120.09ZM92.49 117.37L92.53 117.41L92.49 117.37ZM92.29 117.22L92.38 117.28C92.38 117.28 92.37 117.29 92.35 117.28C92.36 117.28 92.32 117.25 92.29 117.22ZM92.55 117.69L92.52 117.65L92.57 117.69C92.57 117.69 92.56 117.69 92.55 117.69Z" fill="#7A5751"/>
<path d="M92.6204 117.721L92.6303 117.731L92.6204 117.711L92.6104 117.701L92.6204 117.721Z" fill="#7A5751"/>
<path d="M88.8196 125.26H88.8096L88.8196 125.27V125.26Z" fill="#7A5751"/>
<path d="M90.6699 124.79L90.7499 124.76L90.6699 124.79Z" fill="#7A5751"/>
<path d="M84.3797 124.091H84.3697C84.3697 124.091 84.3597 124.071 84.3797 124.091Z" fill="#7A5751"/>
<path d="M86.2302 125.141H86.1602C86.1602 125.141 86.2202 125.151 86.2302 125.141Z" fill="#7A5751"/>
<path d="M86.0703 125.09C86.0703 125.09 86.1303 125.12 86.1603 125.13C86.1303 125.12 86.1003 125.1 86.0703 125.09Z" fill="#7A5751"/>
<path d="M92.4697 123.221L92.4797 123.201L92.4697 123.221Z" fill="#7A5751"/>
<path d="M92.5102 123.131L92.4902 123.181C92.4902 123.181 92.5102 123.151 92.5102 123.131Z" fill="#7A5751"/>
<path d="M91.9902 123.841C91.9902 123.841 92.0702 123.771 92.1102 123.721C92.1102 123.721 92.0102 123.801 92.0002 123.841H91.9902Z" fill="#7A5751"/>
<path d="M91.3496 124.26C91.3496 124.26 91.4396 124.21 91.4696 124.18C91.4396 124.18 91.4096 124.2 91.4596 124.16C91.2996 124.26 91.5096 124.16 91.3496 124.27V124.26Z" fill="#7A5751"/>
<path d="M90.9596 124.5C91.0196 124.45 90.9596 124.49 90.9596 124.48C90.9196 124.52 90.9096 124.52 90.9596 124.5Z" fill="#7A5751"/>
<path d="M87.7703 125.301V125.281C87.7203 125.281 87.7703 125.281 87.7703 125.301Z" fill="#7A5751"/>
<path d="M87.1201 125.361L87.1801 125.381L87.2101 125.361H87.1201Z" fill="#7A5751"/>
<path d="M86.7802 125.131L86.8102 125.141L86.7002 125.121L86.7802 125.131Z" fill="#7A5751"/>
<path d="M83.1401 121.35L83.1201 121.38C83.1201 121.38 83.1701 121.41 83.1401 121.35Z" fill="#7A5751"/>
<path d="M82.53 119.021C82.53 119.021 82.54 118.931 82.53 118.891C82.52 118.941 82.52 119.001 82.53 119.021Z" fill="#7A5751"/>
<path d="M77.2305 116.59L93.4705 116.9" stroke="#7A5751" stroke-width="1.8" stroke-miterlimit="10" stroke-linecap="round"/>
<path d="M122.81 111.29C120.75 110.32 117.781 107.86 120.651 105.14C124.821 101.18 127.531 97.7502 129.721 105.73C130.681 109.2 126.071 112.82 122.801 111.29H122.81Z" fill="url(#paint1_linear_316_16449)"/>
<path d="M122.83 111.239C122.83 111.239 122.81 111.259 122.86 111.269L122.9 111.249L122.83 111.229V111.239Z" fill="#7A5751"/>
<path d="M123.1 111.399C123.16 111.399 123.22 111.399 123.2 111.359C123.14 111.359 123.13 111.359 123.07 111.359C123.03 111.349 123 111.319 123.01 111.319C122.99 111.319 122.95 111.289 122.91 111.299C122.96 111.339 123.03 111.369 123.11 111.379C123.12 111.389 123.11 111.389 123.1 111.399V111.399Z" fill="#7A5751"/>
<path d="M129.381 108.639V108.669C129.381 108.649 129.391 108.639 129.381 108.639Z" fill="#7A5751"/>
<path d="M127.461 110.71L127.531 110.67C127.531 110.67 127.491 110.69 127.461 110.71Z" fill="#7A5751"/>
<path d="M126.361 111.32L126.341 111.33L126.331 111.35L126.361 111.32Z" fill="#7A5751"/>
<path d="M125.441 111.62C125.441 111.62 125.461 111.59 125.471 111.58C125.471 111.59 125.451 111.6 125.431 111.61C125.431 111.61 125.431 111.61 125.441 111.62Z" fill="#7A5751"/>
<path d="M122.8 111.299L122.79 111.289L122.78 111.299H122.8Z" fill="#7A5751"/>
<path d="M126.121 100.83C126.221 100.84 125.971 100.88 126.121 100.88C126.101 100.88 126.241 100.83 126.121 100.83Z" fill="#7A5751"/>
<path d="M129.441 104.55C129.441 104.55 129.441 104.52 129.431 104.5C129.431 104.5 129.441 104.53 129.441 104.55Z" fill="#7A5751"/>
<path d="M129.15 103.779V103.789L129.16 103.819L129.15 103.779Z" fill="#7A5751"/>
<path d="M120.101 109.02C120.101 109.02 120.101 109.05 120.101 109.06C120.101 109.04 120.181 109.13 120.101 109.02Z" fill="#7A5751"/>
<path d="M129.241 104.579L129.211 104.449L129.241 104.579Z" fill="#7A5751"/>
<path d="M121.781 104.199L121.761 104.219L121.781 104.199Z" fill="#7A5751"/>
<path d="M129.061 104.099C129.061 104.099 129.061 104.049 129.051 104.029H129.041L129.061 104.099V104.099Z" fill="#7A5751"/>
<path d="M120.691 109.659C120.601 109.569 120.631 109.639 120.591 109.639C120.481 109.539 120.561 109.579 120.541 109.529C120.481 109.469 120.411 109.429 120.361 109.379C120.361 109.379 120.361 109.359 120.361 109.369C120.271 109.319 120.181 109.149 120.091 109.079V109.059C120.091 109.079 120.071 109.099 120.061 109.099C120.031 109.049 119.981 109.029 119.991 108.999C120.011 109.029 120.021 109.029 120.031 109.039L119.991 108.999C119.991 108.939 120.041 109.059 120.061 109.049C119.991 108.959 119.891 108.869 119.861 108.789C119.871 108.759 119.971 108.959 119.931 108.849L119.991 108.969C119.971 108.859 120.031 109.039 120.021 108.929C119.931 108.789 119.911 108.769 119.841 108.619C119.811 108.589 119.821 108.639 119.791 108.619C119.651 108.409 119.781 108.419 119.681 108.259C119.651 108.219 119.601 108.219 119.581 108.089L119.631 108.119C119.581 107.959 119.551 108.039 119.551 107.859C119.571 107.889 119.581 107.989 119.581 107.959C119.591 107.839 119.551 107.889 119.541 107.799L119.571 107.779C119.521 107.609 119.531 107.419 119.531 107.219C119.531 107.229 119.551 107.269 119.561 107.219C119.591 106.979 119.661 106.699 119.791 106.499V106.409C119.791 106.409 119.831 106.379 119.831 106.409C119.881 106.329 119.821 106.399 119.831 106.349C119.851 106.299 119.871 106.289 119.871 106.329C119.911 106.169 120.091 105.909 120.201 105.779V105.809C120.271 105.699 120.241 105.659 120.341 105.579V105.599C120.541 105.389 120.741 105.129 120.941 104.999C120.941 104.939 121.171 104.809 121.151 104.749C121.291 104.649 121.261 104.689 121.451 104.539C121.501 104.499 121.501 104.449 121.551 104.389L121.571 104.409L121.631 104.309L121.691 104.289L121.741 104.229C121.741 104.229 121.691 104.269 121.681 104.259C121.761 104.169 121.901 104.079 121.911 104.079L122.091 103.869C122.091 103.869 122.061 103.919 122.041 103.949C122.131 103.829 122.081 103.949 122.161 103.839C122.141 103.839 122.161 103.819 122.161 103.819C122.221 103.779 122.331 103.679 122.411 103.599V103.629L122.881 103.169C122.811 103.219 122.801 103.179 122.851 103.129H122.891C122.891 103.129 122.831 103.169 122.891 103.099C122.961 103.049 122.961 103.089 122.931 103.129L123.001 103.049C123.001 103.049 123.001 103.069 123.001 103.079C123.021 103.039 123.151 102.979 123.181 102.919H123.191L123.571 102.569C123.571 102.569 123.621 102.509 123.651 102.459C123.761 102.379 123.891 102.299 124.021 102.189C124.101 102.109 124.031 102.149 124.061 102.109C124.081 102.119 124.211 102.019 124.151 102.079C124.291 101.969 124.321 101.939 124.541 101.769C124.511 101.769 124.481 101.789 124.491 101.769C124.531 101.739 124.581 101.719 124.581 101.729C124.791 101.529 125.171 101.469 125.331 101.309C125.391 101.269 125.461 101.239 125.531 101.209C125.631 101.179 125.481 101.249 125.561 101.229C125.781 101.119 125.921 101.079 126.111 101.049C126.191 101.079 126.321 101.049 126.461 101.049C126.601 101.069 126.741 101.089 126.841 101.129V101.109C126.841 101.109 126.891 101.129 126.931 101.139C126.931 101.129 126.881 101.119 126.911 101.109C127.331 101.269 127.701 101.609 127.961 102.009C128.061 102.149 128.081 102.039 128.181 102.239L128.121 102.209C128.371 102.459 128.471 102.839 128.671 103.129C128.651 103.109 128.651 103.119 128.631 103.089C128.641 103.159 128.751 103.329 128.771 103.329C128.791 103.379 128.761 103.349 128.771 103.379C128.791 103.449 128.861 103.539 128.861 103.589C128.861 103.589 128.851 103.569 128.841 103.559C128.871 103.599 128.921 103.769 128.931 103.719C128.971 103.849 129.031 103.949 129.061 104.049C129.111 104.099 129.131 104.259 129.171 104.269C129.131 104.269 129.221 104.499 129.261 104.569C129.241 104.549 129.261 104.639 129.241 104.619C129.271 104.709 129.301 104.789 129.321 104.769C129.321 104.949 129.461 105.099 129.431 105.209C129.521 105.469 129.651 105.719 129.691 105.959C129.651 105.959 129.641 105.689 129.591 105.709C129.671 105.939 129.711 106.059 129.751 106.299C129.751 106.359 129.731 106.269 129.721 106.249C129.801 106.479 129.721 106.699 129.761 106.909C129.761 106.909 129.761 106.889 129.751 106.859C129.751 106.899 129.751 106.959 129.761 106.949V106.909C129.781 106.839 129.821 107.079 129.821 107.089C129.781 107.009 129.771 107.299 129.721 107.179C129.721 107.209 129.721 107.239 129.731 107.239C129.721 107.279 129.711 107.289 129.701 107.239C129.681 107.389 129.711 107.339 129.691 107.469C129.691 107.469 129.691 107.439 129.671 107.419C129.671 107.489 129.681 107.559 129.651 107.669C129.651 107.669 129.641 107.669 129.651 107.639C129.591 107.829 129.581 107.969 129.501 108.169C129.481 108.099 129.461 108.229 129.431 108.229C129.421 108.269 129.401 108.299 129.391 108.339L129.431 108.309C129.381 108.399 129.361 108.489 129.311 108.559L129.331 108.489L129.251 108.659L129.311 108.569C129.281 108.669 129.351 108.569 129.281 108.699C129.281 108.669 129.231 108.789 129.191 108.829C129.181 108.879 129.151 108.929 129.101 108.989C129.081 108.999 129.081 108.959 129.061 108.959C129.061 109.019 128.931 109.159 128.921 109.229C128.921 109.209 128.921 109.199 128.911 109.199V109.249C128.911 109.249 128.861 109.289 128.861 109.269C128.781 109.379 128.921 109.259 128.811 109.389C128.811 109.379 128.811 109.389 128.821 109.359C128.711 109.489 128.611 109.619 128.501 109.729C128.441 109.739 128.581 109.619 128.531 109.639C128.391 109.819 128.241 110.009 128.071 110.149L128.101 110.129C128.101 110.189 127.961 110.219 127.901 110.309C127.921 110.289 127.901 110.269 127.901 110.269C127.791 110.359 127.671 110.459 127.491 110.609L127.511 110.579C127.431 110.619 127.321 110.709 127.241 110.759C127.221 110.779 127.171 110.809 127.211 110.809C126.921 110.879 126.751 111.129 126.471 111.169C126.501 111.159 126.531 111.129 126.511 111.139L126.311 111.229C126.311 111.229 126.341 111.229 126.391 111.229C126.371 111.249 126.311 111.279 126.261 111.309C126.351 111.259 126.251 111.279 126.201 111.279V111.299C126.081 111.299 126.201 111.349 126.041 111.379C125.991 111.379 125.941 111.419 125.871 111.429C125.841 111.409 125.931 111.399 125.931 111.379C125.841 111.399 125.771 111.469 125.691 111.469L125.811 111.419C125.721 111.419 125.711 111.419 125.641 111.439L125.491 111.469H125.531C125.441 111.559 125.311 111.539 125.171 111.589C125.311 111.529 125.191 111.559 125.201 111.539C125.161 111.539 125.101 111.539 125.121 111.529C125.051 111.559 125.001 111.529 124.911 111.569C124.911 111.569 124.831 111.569 124.851 111.559C124.761 111.579 124.871 111.569 124.871 111.579C124.731 111.639 124.541 111.549 124.331 111.599C124.151 111.609 124.121 111.659 123.951 111.639C123.901 111.619 124.001 111.619 124.001 111.619C123.911 111.589 123.851 111.579 123.761 111.579C123.781 111.579 123.761 111.569 123.741 111.549C123.671 111.549 123.691 111.569 123.601 111.549C123.621 111.549 123.641 111.529 123.671 111.529H123.431C123.431 111.529 123.481 111.509 123.521 111.499C123.431 111.499 123.291 111.439 123.251 111.459L123.301 111.489C123.301 111.489 123.291 111.459 123.311 111.469C123.391 111.469 123.421 111.519 123.421 111.529H123.361C123.401 111.599 123.591 111.559 123.711 111.579L123.651 111.609H123.781C123.781 111.609 123.821 111.639 123.761 111.629C123.841 111.659 123.841 111.629 123.911 111.659H123.991C123.991 111.659 124.001 111.689 123.951 111.679C124.101 111.739 124.201 111.669 124.251 111.699H124.241C124.451 111.699 124.261 111.669 124.421 111.649L124.531 111.719L124.551 111.689C124.551 111.689 124.611 111.689 124.611 111.699C124.691 111.679 124.601 111.689 124.641 111.669C124.751 111.709 124.921 111.629 124.951 111.669C124.981 111.639 124.851 111.669 124.951 111.639C124.991 111.679 125.081 111.619 125.171 111.619C125.141 111.649 125.051 111.649 125.151 111.659C125.201 111.609 125.341 111.649 125.411 111.619C125.411 111.589 125.581 111.559 125.701 111.509C125.701 111.519 125.951 111.459 126.071 111.429C126.071 111.429 126.201 111.349 126.291 111.309C126.291 111.329 126.291 111.339 126.241 111.369L126.321 111.339C126.321 111.339 126.361 111.309 126.411 111.279V111.309L126.751 111.139C126.751 111.139 126.621 111.139 126.751 111.049C126.761 111.049 126.781 111.069 126.751 111.099C126.761 111.099 126.791 111.069 126.811 111.059L126.761 111.109C126.821 111.079 126.781 111.079 126.831 111.049C126.831 111.069 126.871 111.049 126.871 111.049C126.861 111.049 126.821 111.069 126.811 111.079C126.871 111.049 126.941 111.029 126.971 111.029C126.971 111.029 126.961 111.009 127.001 110.979C127.101 110.919 127.051 110.979 127.111 110.949C127.131 110.929 127.201 110.899 127.191 110.879C127.221 110.859 127.231 110.879 127.251 110.879C127.301 110.849 127.481 110.709 127.411 110.729C127.561 110.589 127.761 110.509 127.911 110.369C127.991 110.289 128.101 110.199 128.151 110.129C128.181 110.109 128.221 110.089 128.221 110.099C128.281 110.029 128.291 110.019 128.391 109.939C128.341 110.019 128.421 109.929 128.331 110.009C128.421 109.939 128.451 109.919 128.511 109.809C128.501 109.859 128.591 109.759 128.621 109.719L128.551 109.769L128.671 109.639V109.679C128.871 109.529 128.901 109.309 129.051 109.189C129.071 109.129 128.961 109.289 128.981 109.229C129.051 109.139 129.151 109.069 129.171 109.039C129.271 108.919 129.221 108.899 129.301 108.759C129.281 108.769 129.251 108.779 129.301 108.669C129.351 108.569 129.401 108.569 129.381 108.639C129.371 108.659 129.361 108.669 129.361 108.669C129.351 108.699 129.331 108.749 129.361 108.709V108.689C129.361 108.689 129.461 108.509 129.461 108.549C129.491 108.469 129.461 108.509 129.431 108.559C129.511 108.439 129.541 108.369 129.601 108.229C129.591 108.249 129.571 108.269 129.581 108.239C129.661 108.039 129.591 108.139 129.641 107.999C129.681 107.929 129.671 108.039 129.701 107.899C129.741 107.819 129.731 107.899 129.731 107.929C129.751 107.789 129.841 107.699 129.851 107.619V107.579L129.831 107.619C129.831 107.619 129.851 107.539 129.861 107.549C129.861 107.499 129.821 107.569 129.821 107.489C129.841 107.439 129.841 107.319 129.871 107.309C129.831 107.479 129.901 107.299 129.871 107.439C129.871 107.409 129.871 107.379 129.891 107.339C129.891 107.339 129.891 107.339 129.891 107.359C129.951 107.199 129.871 107.279 129.901 107.109C129.911 107.129 129.941 107.069 129.941 107.039C129.931 107.109 129.911 107.069 129.901 107.009C129.911 106.899 129.901 106.889 129.901 106.829V106.899C129.901 106.899 129.881 106.819 129.881 106.739C129.891 106.739 129.881 106.809 129.891 106.779C129.861 106.689 129.921 106.589 129.901 106.459C129.911 106.399 129.931 106.459 129.941 106.399C129.901 106.269 129.941 106.249 129.901 106.109C129.891 106.149 129.901 106.159 129.851 106.059L129.911 106.289L129.851 106.149C129.861 106.219 129.891 106.289 129.891 106.339C129.861 106.269 129.871 106.279 129.851 106.309C129.871 106.209 129.801 106.129 129.801 106.009H129.851C129.851 105.829 129.781 105.709 129.721 105.509V105.579C129.721 105.579 129.691 105.449 129.661 105.389C129.681 105.389 129.671 105.349 129.671 105.319C129.661 105.319 129.631 105.169 129.591 105.159V105.059C129.541 104.889 129.481 104.889 129.441 104.729C129.471 104.769 129.461 104.699 129.511 104.799C129.491 104.749 129.481 104.699 129.471 104.699C129.471 104.669 129.401 104.559 129.401 104.509C129.391 104.489 129.371 104.489 129.351 104.429C129.351 104.429 129.311 104.339 129.311 104.399C129.311 104.219 129.141 103.959 129.131 103.799L128.981 103.449C128.981 103.449 128.981 103.449 128.991 103.469C128.951 103.319 128.911 103.399 128.861 103.239C128.851 103.149 128.911 103.319 128.901 103.259C128.951 103.209 128.801 103.079 128.781 102.959L128.801 102.979C128.781 102.889 128.681 102.799 128.621 102.659C128.541 102.589 128.461 102.419 128.381 102.309C128.421 102.329 128.431 102.359 128.431 102.319C128.391 102.269 128.411 102.349 128.331 102.259C128.321 102.219 128.271 102.139 128.291 102.119L128.361 102.219C128.361 102.149 128.271 102.089 128.241 102.039H128.261C128.151 101.889 128.121 101.909 128.011 101.749V101.769C127.931 101.699 127.971 101.689 127.881 101.629V101.579C127.821 101.539 127.681 101.429 127.581 101.349C127.651 101.379 127.771 101.469 127.841 101.519C127.791 101.469 127.661 101.359 127.631 101.339C127.651 101.359 127.681 101.369 127.701 101.399C127.611 101.369 127.541 101.279 127.421 101.209C127.481 101.159 127.111 101.019 127.041 100.919C126.921 100.879 126.791 100.869 126.661 100.839C126.531 100.799 126.391 100.779 126.251 100.809C126.361 100.849 126.161 100.819 126.191 100.869C126.121 100.879 126.101 100.879 126.091 100.879H125.881C125.831 100.869 125.941 100.849 125.931 100.839C125.781 100.859 125.861 100.839 125.761 100.839C125.781 100.849 125.721 100.879 125.641 100.909L125.761 100.889C125.571 100.989 125.571 100.909 125.391 100.999L125.451 100.959C125.341 100.989 125.091 101.129 125.021 101.219C125.001 101.219 124.971 101.219 125.021 101.199C124.791 101.309 124.561 101.529 124.391 101.619V101.599C124.391 101.599 124.351 101.669 124.291 101.689C124.291 101.689 124.291 101.669 124.281 101.689C124.261 101.709 124.191 101.779 124.141 101.809L124.171 101.769C123.961 101.899 123.901 102.029 123.741 102.169C123.721 102.139 123.561 102.249 123.481 102.309C123.261 102.489 123.141 102.649 122.951 102.839C122.801 102.909 122.531 103.199 122.321 103.359C122.351 103.339 122.341 103.389 122.311 103.419C122.261 103.459 122.211 103.559 122.191 103.519H122.211C122.151 103.519 122.071 103.599 121.991 103.669L122.011 103.719C121.781 103.849 121.541 104.209 121.401 104.259L121.271 104.419L121.251 104.399C121.121 104.509 121.061 104.569 120.911 104.719L120.931 104.679C120.841 104.759 120.871 104.839 120.791 104.919H120.741C120.591 105.059 120.421 105.199 120.301 105.369C120.301 105.369 120.301 105.349 120.321 105.329C120.251 105.399 120.031 105.599 120.101 105.609C120.071 105.589 119.971 105.789 119.921 105.889V105.859C119.881 105.959 119.891 105.969 119.821 106.079C119.801 106.099 119.791 106.089 119.821 106.059C119.751 106.139 119.801 106.139 119.731 106.249V106.199C119.691 106.299 119.701 106.299 119.691 106.359C119.671 106.429 119.601 106.549 119.571 106.549C119.571 106.569 119.571 106.629 119.551 106.689C119.541 106.689 119.551 106.669 119.551 106.659C119.491 106.839 119.511 106.929 119.461 107.049C119.461 107.049 119.451 107.049 119.441 107.069L119.511 106.819C119.511 106.819 119.451 106.929 119.451 106.819L119.421 107.199H119.411C119.411 107.199 119.411 107.249 119.411 107.279V107.379C119.411 107.379 119.381 107.519 119.381 107.579C119.401 107.579 119.411 107.649 119.421 107.579C119.421 107.579 119.421 107.569 119.421 107.529V107.499V107.359C119.421 107.359 119.441 107.459 119.421 107.519C119.431 107.549 119.451 107.579 119.461 107.599C119.441 107.679 119.441 107.839 119.421 107.869C119.441 108.049 119.541 108.289 119.611 108.379C119.631 108.429 119.611 108.439 119.611 108.459C119.601 108.429 119.591 108.399 119.571 108.389C119.601 108.489 119.701 108.669 119.741 108.669C119.781 108.789 119.681 108.619 119.771 108.779L119.751 108.759C119.871 109.099 120.111 109.199 120.311 109.529C120.301 109.509 120.291 109.499 120.291 109.489C120.551 109.849 120.941 110.109 121.251 110.409C121.341 110.489 121.371 110.479 121.441 110.509V110.549L121.571 110.599C121.731 110.679 121.801 110.829 122.011 110.909L121.991 110.879C122.061 110.919 122.221 110.999 122.201 111.009C122.201 111.009 122.231 111.009 122.261 111.029L122.451 111.119C122.591 111.199 122.401 111.159 122.611 111.259C122.691 111.289 122.851 111.329 122.821 111.309C122.791 111.289 122.751 111.259 122.751 111.249L122.821 111.279C122.821 111.279 122.921 111.239 122.771 111.129L122.641 111.089L122.611 111.049L122.711 111.099C122.711 111.099 122.621 111.049 122.571 111.039C122.571 111.029 122.551 111.009 122.531 110.999L122.401 110.969C122.401 110.969 122.471 110.969 122.401 110.919C122.341 110.909 122.431 110.979 122.341 110.939C122.291 110.889 122.321 110.889 122.251 110.869C122.251 110.859 122.261 110.859 122.291 110.869C122.231 110.849 122.141 110.789 122.101 110.789C122.061 110.739 121.911 110.679 121.941 110.649C121.921 110.649 121.831 110.609 121.771 110.579C121.891 110.599 121.581 110.449 121.641 110.429C121.551 110.419 121.391 110.269 121.261 110.199C121.261 110.199 121.281 110.199 121.291 110.219C121.231 110.169 121.221 110.139 121.191 110.099C121.161 110.119 121.061 110.049 120.991 110.019C120.941 109.929 121.061 110.019 121.061 109.979C121.051 109.999 120.911 109.889 120.921 109.929C120.881 109.859 120.881 109.879 120.871 109.829C120.831 109.849 120.811 109.789 120.751 109.759C120.691 109.669 120.751 109.709 120.661 109.639C120.631 109.589 120.721 109.649 120.721 109.649L120.691 109.659ZM119.591 106.969L119.561 107.069C119.561 107.069 119.541 107.069 119.551 107.039C119.551 107.049 119.571 106.999 119.591 106.969ZM119.361 107.469C119.361 107.469 119.361 107.419 119.361 107.409V107.479C119.361 107.479 119.361 107.479 119.351 107.469H119.361Z" fill="#7A5751"/>
<path d="M121.591 104.389L121.581 104.409L121.591 104.389Z" fill="#7A5751"/>
<path d="M129.181 108.82L129.201 108.75C129.201 108.75 129.171 108.81 129.181 108.82Z" fill="#7A5751"/>
<path d="M129.25 108.67C129.25 108.67 129.22 108.73 129.2 108.76C129.22 108.73 129.23 108.7 129.25 108.67Z" fill="#7A5751"/>
<path d="M124.081 111.56C124.081 111.56 123.981 111.52 123.921 111.52C123.921 111.52 124.041 111.57 124.091 111.56H124.081Z" fill="#7A5751"/>
<path d="M124.821 111.68C124.771 111.68 124.721 111.68 124.671 111.68C124.701 111.69 124.731 111.7 124.671 111.71C124.861 111.74 124.631 111.7 124.831 111.68H124.821Z" fill="#7A5751"/>
<path d="M125.29 111.629C125.21 111.649 125.29 111.639 125.29 111.649C125.34 111.629 125.35 111.629 125.29 111.629Z" fill="#7A5751"/>
<path d="M128.271 110.09V110.11C128.321 110.07 128.271 110.11 128.271 110.09Z" fill="#7A5751"/>
<path d="M128.63 109.539L128.58 109.569L128.57 109.609L128.63 109.539Z" fill="#7A5751"/>
<path d="M128.99 109.339L128.98 109.369L129.03 109.279L128.99 109.339Z" fill="#7A5751"/>
<path d="M129.231 103.91L129.211 103.94C129.211 103.94 129.261 103.97 129.231 103.91Z" fill="#7A5751"/>
<path d="M128.06 101.739C128.06 101.739 128.02 101.639 127.98 101.629C128.02 101.669 128.04 101.719 128.06 101.739Z" fill="#7A5751"/>
<path d="M121.9 103.78L121.93 103.74L121.87 103.81L121.9 103.78Z" fill="#7A5751"/>
<path d="M130.33 96.5L118.36 107.49" stroke="#7A5751" stroke-width="1.8" stroke-miterlimit="10" stroke-linecap="round"/>
</g>
<defs>
<linearGradient id="paint0_linear_316_16449" x1="89.255" y1="127.899" x2="86.4558" y2="106.865" gradientUnits="userSpaceOnUse">
<stop stop-color="#7A5751"/>
<stop offset="0.41" stop-color="#7E5C57"/>
<stop offset="0.73" stop-color="#846460"/>
</linearGradient>
<linearGradient id="paint1_linear_316_16449" x1="129.237" y1="112.792" x2="117.41" y2="95.1726" gradientUnits="userSpaceOnUse">
<stop stop-color="#7A5751"/>
<stop offset="0.41" stop-color="#7E5C57"/>
<stop offset="0.73" stop-color="#846460"/>
</linearGradient>
<clipPath id="clip0_316_16449">
<rect width="368.14" height="245.93" fill="white"/>
</clipPath>
</defs>
</svg>
