<svg width="356" height="190" viewBox="0 0 356 190" fill="none" xmlns="http://www.w3.org/2000/svg">
<g clip-path="url(#clip0_316_16620)">
<path d="M136.85 96.6997C136.85 96.6997 145.91 140.39 153.38 152.67C164.22 170.47 172.54 175.82 186.34 171.11C207.41 163.91 181.06 131.94 176.25 121.54C171.45 111.14 158.91 76.6797 158.91 76.6797C158.91 76.6797 131.17 76.7497 136.86 96.7097L136.85 96.6997Z" fill="#B3875F"/>
<path d="M228.371 85.4806C220.211 81.8806 225.341 141.391 242.221 164.931C250.521 176.501 255.471 187.761 269.851 187.261C291.811 186.491 269.271 152.731 267.011 141.261C264.751 129.791 260.511 92.7606 260.511 92.7606C260.511 92.7606 241.131 84.2706 228.371 85.4906V85.4806Z" fill="#B3875F"/>
<path d="M12.3405 96.6101C33.0105 98.6801 288.97 108.68 310.48 109.54C331.98 110.4 355.21 130.18 355.21 130.18V148.24C355.21 148.24 322.22 134.3 290.14 134.3C258.06 134.3 44.0105 108.01 7.09045 106.76C6.51045 106.74 3.24045 105.97 2.72045 105.72C-5.56955 101.84 7.28045 96.0901 12.3505 96.6001L12.3405 96.6101Z" fill="#895343"/>
<path d="M45.2706 103.7C45.2706 103.7 38.6806 98.6303 35.1406 93.5703" stroke="#895343" stroke-width="4.79" stroke-linecap="round" stroke-linejoin="round"/>
<path d="M30.5802 106.231C30.5802 106.231 23.9902 105.721 17.1602 111.241" stroke="#895343" stroke-width="4.79" stroke-linecap="round" stroke-linejoin="round"/>
<path d="M45.0503 74.211C43.6603 79.381 35.3303 87.251 35.3303 87.251C35.3303 87.251 32.0603 76.261 33.4403 71.091C34.8203 65.921 41.7503 63.291 41.7503 63.291C41.7503 63.291 46.4303 69.041 45.0403 74.211H45.0503Z" fill="#BAD265"/>
<path d="M19.8505 74.4602C23.6105 78.2702 26.2005 89.4402 26.2005 89.4402C26.2005 89.4402 15.0605 86.7102 11.3005 82.9002C7.54052 79.0902 8.77052 71.7802 8.77052 71.7802C8.77052 71.7802 16.0905 70.6502 19.8505 74.4502V74.4602Z" fill="#BAD265"/>
<path d="M31.3004 58.5011C31.1304 63.8511 24.8304 73.4211 24.8304 73.4211C24.8304 73.4211 19.1304 63.4711 19.2904 58.1211C19.4504 52.7711 25.6004 48.6211 25.6004 48.6211C25.6004 48.6211 31.4704 53.1411 31.3004 58.4911V58.5011Z" fill="#88B253"/>
<path d="M59.7606 87.7306C46.4106 71.0006 43.9206 36.1106 78.1906 24.8906C110.371 14.3606 121.181 19.2806 134.261 31.7406C167.281 60.4106 210.211 4.28062 257.491 0.340624C301.831 -3.35938 328.441 23.2506 322.521 72.0306C318.621 104.171 307.561 127.781 324.271 166.131C335.941 192.901 304.851 199.581 286.321 167.681C257.881 118.701 261.181 106.031 261.181 106.031C233.451 108.461 212.571 103.281 195.671 105.801C194.861 116.901 198.821 140.041 213.921 173.811C222.311 192.561 197.501 193.201 188.731 179.571C176.991 161.351 166.141 141.281 165.541 108.111C92.5106 104.031 78.5106 111.251 59.7606 87.7406V87.7306Z" fill="#C49B72"/>
<path d="M60.3108 68.0103C56.3708 52.6703 65.0008 36.9003 80.0408 31.9603L92.3308 27.9203C107.671 22.8803 124.271 30.6603 130.221 45.6603C136.741 62.1103 129.211 80.9903 112.431 86.6003C107.761 88.1603 103.151 89.5803 98.5308 90.8903C81.7008 95.6903 64.6508 84.9603 60.3008 68.0103H60.3108Z" fill="#ECD298"/>
<path d="M115.971 70.3198C118.321 77.4798 113.341 83.4398 105.621 85.9798C97.8909 88.5198 90.3509 86.6798 88.0009 79.5098C85.6509 72.3498 89.6209 63.3398 97.3509 60.7998C105.081 58.2598 113.621 63.1598 115.981 70.3198H115.971Z" fill="#AF9375"/>
<path fill-rule="evenodd" clip-rule="evenodd" d="M59.3909 61.5303C59.4609 63.6803 59.7609 65.8503 60.3109 68.0103C62.2009 75.3803 66.5109 81.5603 72.1609 85.7803C75.9209 79.8603 80.7209 74.6703 85.1109 70.1503C90.1709 64.9403 90.1109 56.0503 85.1609 50.8603C82.1009 47.6403 77.7909 46.5603 74.0109 48.5103C66.3509 52.4503 62.3609 56.5203 59.3809 61.5303H59.3909Z" fill="#A96D57"/>
<path fill-rule="evenodd" clip-rule="evenodd" d="M125.36 37.4597C127.36 39.8597 129.01 42.6097 130.22 45.6597C132.8 52.1597 133.16 59.0397 131.62 65.3197C125.47 63.0997 119.03 61.8697 113.23 60.9097C106.07 59.7197 100.84 52.5197 101.75 45.4197C102.31 41.0097 105.13 37.5897 109.33 36.9097C116.03 35.8297 120.95 36.1697 125.37 37.4697L125.36 37.4597Z" fill="#A96D57"/>
<path d="M81.7306 85.7209C84.1496 85.7209 86.1106 83.7599 86.1106 81.3409C86.1106 78.9219 84.1496 76.9609 81.7306 76.9609C79.3116 76.9609 77.3506 78.9219 77.3506 81.3409C77.3506 83.7599 79.3116 85.7209 81.7306 85.7209Z" fill="#FAB79F"/>
<path d="M122.631 72.2795C125.05 72.2795 127.011 70.3185 127.011 67.8995C127.011 65.4805 125.05 63.5195 122.631 63.5195C120.212 63.5195 118.251 65.4805 118.251 67.8995C118.251 70.3185 120.212 72.2795 122.631 72.2795Z" fill="#FAB79F"/>
<path d="M110.001 73.2109C110.001 73.2109 110.261 77.1209 104.841 79.2009C99.421 81.2809 97.001 78.2009 97.001 78.2009" stroke="#7A5751" stroke-width="1.73" stroke-miterlimit="10" stroke-linecap="round"/>
<path d="M101.321 71.5305C98.3406 72.6705 95.0006 71.1805 93.8606 68.2005C92.7206 65.2205 103.511 61.0905 104.651 64.0705C105.791 67.0505 104.301 70.3905 101.321 71.5305V71.5305Z" fill="#7A5751"/>
<g style="mix-blend-mode:soft-light" opacity="0.4">
<path d="M98.9906 65.4499C96.7006 66.3299 95.1906 68.2499 94.9006 67.1699C94.5206 65.7899 102.631 62.5399 103.191 63.9999C103.591 65.0399 101.281 64.5699 98.9906 65.4499Z" fill="#F0E1A0"/>
</g>
<path d="M69.5811 68.8793C75.6411 72.7493 84.591 69.8993 85.091 63.7793" stroke="#7A5751" stroke-width="1.73" stroke-miterlimit="10" stroke-linecap="round"/>
<path d="M124.061 48.7402C121.981 55.6202 113.321 59.2802 108.971 54.9602" stroke="#7A5751" stroke-width="1.73" stroke-miterlimit="10" stroke-linecap="round"/>
</g>
<defs>
<clipPath id="clip0_316_16620">
<rect width="355.21" height="189.01" fill="white"/>
</clipPath>
</defs>
</svg>
