<svg width="191" height="467" viewBox="0 0 191 467" fill="none" xmlns="http://www.w3.org/2000/svg">
<g clip-path="url(#clip0_316_15950)">
<path d="M113.2 123.19C84.4398 127.73 70.7498 113.32 70.7498 113.32C70.7498 113.32 85.0598 128.13 60.3898 148.36C35.7198 168.59 37.3198 190.96 45.2098 208.23C53.1098 225.5 47.5198 249.8 40.8698 270.06C31.1798 299.62 50.9998 318 69.3698 327.33C76.5098 330.95 81.5898 337.68 83.3598 345.49C88.6198 368.74 62.8098 413.84 13.4098 444.43C4.80984 449.76 -3.53016 453.88 1.52984 462.45C3.50984 465.79 8.33984 469.95 22.9498 461.68C93.3698 421.82 121.03 392.52 127.91 362.03C132.56 341.44 146.11 341.36 151.37 339.94C171.47 334.52 201.61 304.86 186.37 266.37C169.94 224.85 184.96 237.78 184.06 179.12C183.39 135.78 137.86 143.44 144.28 115.8C144.28 115.8 150.7 117.28 113.19 123.2L113.2 123.19Z" fill="#997964"/>
<path d="M89.5196 131.211C89.5196 131.211 71.8796 151.191 62.7496 176.531C57.7196 190.511 76.6496 214.451 68.5296 245.101C42.9196 341.751 167.74 326.701 163.53 281.451C160.23 245.931 170.14 220.321 164.36 180.671C158.95 143.561 133.11 133.251 133.11 133.251L89.5196 131.221V131.211Z" fill="#F2E6CD"/>
<path d="M54.6294 257.729C54.6294 257.729 69.7094 266.079 81.0394 256.719C92.3694 247.359 92.0594 237.159 100.859 243.299C109.659 249.439 109.729 270.659 106.389 279.979C99.9294 297.999 77.0994 298.099 80.7394 312.409C80.7394 312.409 44.8594 305.049 54.6394 257.729H54.6294Z" fill="#997964"/>
<path d="M57.1699 162.73C68.9099 170.28 84.1899 161.4 96.3899 158.57C107.73 155.93 112.97 173.07 101.98 182.78C90.9899 192.49 68.3599 190.86 58.7299 211.12" fill="#997964"/>
<path d="M172.35 257.729C172.35 257.729 157.27 266.079 145.94 256.719C134.61 247.359 134.92 237.159 126.12 243.299C117.32 249.439 117.25 270.659 120.59 279.979C127.05 297.999 142.87 302.099 146.24 312.409C146.24 312.409 168.49 308.709 175.92 289.709C183.35 270.709 172.34 257.729 172.34 257.729H172.35Z" fill="#997964"/>
<path d="M169.81 162.73C158.07 170.28 142.79 161.4 130.59 158.57C119.25 155.93 114.01 173.07 125 182.78C135.98 192.48 158.62 190.86 168.25 211.12" fill="#997964"/>
<path d="M48.0703 66.5508C57.5972 66.5508 65.3203 58.8277 65.3203 49.3008C65.3203 39.7739 57.5972 32.0508 48.0703 32.0508C38.5434 32.0508 30.8203 39.7739 30.8203 49.3008C30.8203 58.8277 38.5434 66.5508 48.0703 66.5508Z" fill="#997964"/>
<path d="M48.07 61.6205C54.8741 61.6205 60.39 56.1046 60.39 49.3005C60.39 42.4963 54.8741 36.9805 48.07 36.9805C41.2659 36.9805 35.75 42.4963 35.75 49.3005C35.75 56.1046 41.2659 61.6205 48.07 61.6205Z" fill="#3C301F"/>
<path d="M171.31 66.5508C180.836 66.5508 188.56 58.8277 188.56 49.3008C188.56 39.7739 180.836 32.0508 171.31 32.0508C161.783 32.0508 154.06 39.7739 154.06 49.3008C154.06 58.8277 161.783 66.5508 171.31 66.5508Z" fill="#997964"/>
<path d="M171.31 61.6205C178.114 61.6205 183.63 56.1046 183.63 49.3005C183.63 42.4963 178.114 36.9805 171.31 36.9805C164.506 36.9805 158.99 42.4963 158.99 49.3005C158.99 56.1046 164.506 61.6205 171.31 61.6205Z" fill="#3C301F"/>
<path d="M107.43 5.01002C107.38 2.30001 109.15 0.060015 111.38 0.010015C113.61 -0.049985 115.46 2.10001 115.51 4.80001L115.58 8.64002L116.65 5.07001C117.41 2.53001 119.73 1.22002 121.83 2.14002C123.93 3.07002 125.01 5.88002 124.24 8.42002L120.56 20.7C119.8 23.24 117.48 24.55 115.38 23.63C114.71 23.33 114.14 22.84 113.71 22.23C113.14 22.62 112.49 22.85 111.79 22.87C111.22 22.88 110.67 22.75 110.17 22.51C109.8 23.89 108.92 25.06 107.71 25.6C105.61 26.53 103.3 25.21 102.53 22.67L98.8498 10.39C98.0898 7.85002 99.1698 5.04001 101.26 4.11001C103.36 3.18001 105.67 4.50001 106.44 7.04001L107.53 10.67L107.43 5.02001V5.01002Z" fill="#997964"/>
<path d="M109.69 139.26C147.124 139.26 177.47 111.121 177.47 76.4096C177.47 41.6985 147.124 13.5596 109.69 13.5596C72.2563 13.5596 41.9102 41.6985 41.9102 76.4096C41.9102 111.121 72.2563 139.26 109.69 139.26Z" fill="#997964"/>
<path fill-rule="evenodd" clip-rule="evenodd" d="M45.5002 96.6406C52.0502 85.3106 64.5902 77.6406 78.9902 77.6406C87.0802 77.6406 94.5902 80.0606 100.78 84.2006C106.52 88.0406 115.32 88.0406 121.06 84.2006C127.25 80.0706 134.75 77.6406 142.85 77.6406C156.15 77.6406 167.87 84.1806 174.74 94.1106C166.49 120.201 140.49 139.261 109.68 139.261C78.8702 139.261 54.5702 121.431 45.4902 96.6406H45.5002Z" fill="#F2E6CD"/>
<path d="M72.1101 88.7301C75.8546 88.7301 78.8901 87.0735 78.8901 85.0301C78.8901 82.9866 75.8546 81.3301 72.1101 81.3301C68.3656 81.3301 65.3301 82.9866 65.3301 85.0301C65.3301 87.0735 68.3656 88.7301 72.1101 88.7301Z" fill="#FCCCB8"/>
<path d="M148.509 88.7301C152.254 88.7301 155.289 87.0735 155.289 85.0301C155.289 82.9866 152.254 81.3301 148.509 81.3301C144.765 81.3301 141.729 82.9866 141.729 85.0301C141.729 87.0735 144.765 88.7301 148.509 88.7301Z" fill="#FCCCB8"/>
<path d="M69.6994 103.16L41.5894 109.62M67.4694 92.3604L40.3594 89.9004L67.4694 92.3604ZM68.4094 97.8804L40.3594 99.7604L68.4094 97.8804Z" stroke="#3C301F" stroke-width="2.46" stroke-linecap="round"/>
<path d="M150.92 103.16L179.03 109.62M153.15 92.3604L180.26 89.9004L153.15 92.3604ZM152.21 97.8804L180.26 99.7604L152.21 97.8804Z" stroke="#3C301F" stroke-width="2.46" stroke-linecap="round"/>
<path d="M111.31 73.4609C118.09 73.4609 123.59 78.9609 123.59 85.7409C123.59 92.5209 99.0303 92.5209 99.0303 85.7409C99.0303 78.9609 104.53 73.4609 111.31 73.4609Z" fill="#7A5751"/>
<g style="mix-blend-mode:soft-light" opacity="0.4">
<path d="M111.31 78.8313C106.1 78.8313 101 81.7113 102.17 79.6413C106.94 71.1413 118.42 74.3613 120.75 79.4113C121.75 81.5713 116.53 78.8313 111.32 78.8313H111.31Z" fill="#F0E1A0"/>
</g>
<path d="M124.04 95.7695C124.04 95.7695 121.99 102.42 111.66 102.42C101.33 102.42 99.2803 95.7695 99.2803 95.7695" stroke="#7A5751" stroke-width="3.07" stroke-miterlimit="10" stroke-linecap="round"/>
<path d="M58.5195 68.1191C66.2395 78.3091 82.9195 79.0791 87.5195 69.1791" stroke="#7A5751" stroke-width="3.07" stroke-miterlimit="10" stroke-linecap="round"/>
<path d="M161.77 68.1191C154.05 78.3091 137.37 79.0791 132.77 69.1791" stroke="#7A5751" stroke-width="3.07" stroke-miterlimit="10" stroke-linecap="round"/>
</g>
<defs>
<clipPath id="clip0_316_15950">
<rect width="190.54" height="466.51" fill="white"/>
</clipPath>
</defs>
</svg>
